# This file uses centimeters as units for non-parametric coordinates.

mtllib PictureFrame1 lowpoly.mtl
g default
v -2.087684 -69.090331 -69.094457
v -1.913214 -69.577637 -69.613170
v -1.913214 69.577681 -69.613170
v -2.087684 69.090387 -69.094457
v -1.913214 -68.603042 -68.575723
v -1.913214 68.603094 -68.575723
v -1.913214 69.577681 69.613165
v -2.087684 69.090387 69.094442
v -1.913214 68.603094 68.575728
v -1.913214 -69.577637 69.613165
v -2.087684 -69.090331 69.094442
v -1.913214 -68.603042 68.575728
v -1.470491 -69.902572 -69.959046
v -1.470491 69.902607 -69.959046
v -1.470491 69.902607 69.959061
v -1.470491 -69.902572 69.959061
v -1.470491 -68.278107 -68.229818
v -1.470491 68.278086 -68.229818
v -1.470491 68.278086 68.229813
v -1.470491 -68.278107 68.229813
v -0.893011 -71.309059 -71.572793
v -0.893011 71.309046 -71.572793
v -0.893011 71.309046 71.572798
v -0.893011 -71.309059 71.572798
v -0.519417 -74.091314 74.418149
v -0.519417 74.091279 74.418149
v -0.519417 74.091279 -74.418144
v -0.519417 -74.091314 -74.418144
v -0.098514 -60.439267 -60.316552
v -0.098514 -60.439267 60.316557
v -0.098514 60.439250 60.316557
v -0.098514 60.439250 -60.316552
v 2.118255 74.091279 74.418149
v 2.118255 60.439250 60.316557
v 2.118255 74.091279 -74.418144
v 2.118255 60.439250 -60.316552
v 2.118255 -74.091314 74.418149
v 2.118255 -60.439267 60.316557
v 2.118255 -74.091314 -74.418144
v 2.118255 -60.439267 -60.316552
v -2.118264 -72.671289 -72.965899
v -1.612951 -73.439777 -73.751842
v -1.612951 73.439725 -73.751842
v -2.118264 72.671246 -72.965899
v -1.677647 -71.865617 -72.141957
v -1.677647 71.865504 -72.141957
v -1.612951 73.439725 73.751847
v -2.118264 72.671246 72.965904
v -1.677647 71.865513 72.141952
v -1.612978 -73.439777 73.751827
v -2.118264 -72.671289 72.965904
v -1.677647 -71.865617 72.141952
v -0.402393 -62.175521 -62.069279
v -1.338506 -64.255102 -64.168577
v -1.201936 -62.999194 -62.900765
v -1.201936 -62.999194 62.900780
v -1.338506 -64.255102 64.168592
v -1.201936 62.999129 62.900790
v -1.338506 64.255032 64.168592
v -1.201936 62.999129 -62.900765
v -1.338506 64.255032 -64.168577
v -0.402393 62.175395 -62.069279
v -0.402393 62.175395 62.069294
v -0.402393 -62.175521 62.069284
v -0.892203 -64.974106 -64.894436
v -0.892203 -64.974106 64.894441
v -0.892203 64.974050 64.894431
v -0.892203 64.974050 -64.894436
vt 0.285352 0.028942
vt 0.285199 0.030296
vt 0.020396 0.030296
vt 0.977956 0.028942
vt 0.490367 0.028942
vt 0.490422 0.030296
vt 0.700614 0.030296
vt 0.700553 0.028942
vt 0.286640 0.016403
vt 0.286437 0.018784
vt 0.012946 0.018784
vt 0.985697 0.016403
vt 0.489911 0.016403
vt 0.489951 0.018784
vt 0.700217 0.018784
vt 0.700053 0.016403
vt 0.701519 0.044022
vt 0.701759 0.047336
vt 0.490676 0.047336
vt 0.490635 0.044022
vt 0.967065 0.044022
vt 0.032575 0.047336
vt 0.283894 0.047336
vt 0.284140 0.044022
vt 0.285048 0.031649
vt 0.021399 0.031649
vt 0.490477 0.031649
vt 0.284961 0.033034
vt 0.022072 0.033034
vt 0.490505 0.033034
vt 0.700673 0.031649
vt 0.700719 0.033034
vt 0.285444 0.027557
vt 0.490339 0.027557
vt 0.018722 0.027557
vt 0.700506 0.027557
vt 0.286094 0.023588
vt 0.490019 0.023588
vt 0.981452 0.023588
vt 0.700496 0.023588
vt 0.699922 0.007128
vt 0.699911 0.013216
vt 0.489883 0.013216
vt 0.489883 0.007128
vt 0.987002 0.007128
vt 0.986985 0.013216
vt 0.286804 0.013216
vt 0.286790 0.007128
vt 0.702231 0.054868
vt 0.959081 0.054868
vt 0.037761 0.059917
vt 0.702240 0.059917
vt 0.283413 0.054868
vt 0.283404 0.059917
vt 0.490759 0.054868
vt 0.490758 0.059917
vt 0.286229 0.021167
vt 0.014518 0.021167
vt 0.489992 0.021167
vt 0.700382 0.021167
vt 0.701916 0.050273
vt 0.490700 0.050273
vt 0.701380 0.041828
vt 0.490612 0.041828
vt 0.962741 0.050273
vt 0.968549 0.041828
vt 0.283739 0.050274
vt 0.284282 0.041828
vt 0.010197 0.013216
vt 0.010185 0.007128
vt 0.015619 0.023588
vt 0.982575 0.021167
vt 0.019394 0.028942
vt 0.978617 0.027557
vt 0.964460 0.047336
vt 0.034238 0.050273
vt 0.975313 0.033034
vt 0.028612 0.041828
vt 0.037775 0.054868
vt 0.030050 0.044022
vt 0.984177 0.018784
vt 0.011457 0.016403
vt 0.959089 0.059917
vt 0.975979 0.031649
vt 0.976969 0.030296
vn -0.838267 0.385525 -0.385590
vn -0.994318 0.071952 -0.078448
vn -0.994318 0.071951 0.078448
vn -0.838269 0.385524 0.385586
vn -0.838269 -0.385522 -0.385587
vn -0.994318 -0.071951 -0.078448
vn -0.994318 -0.071950 0.078448
vn -0.838272 -0.385520 0.385583
vn -0.746804 0.471192 -0.469321
vn -0.983355 0.121817 -0.134807
vn -0.983356 0.121818 0.134801
vn -0.746803 0.471192 0.469322
vn -0.746801 -0.471197 -0.469320
vn -0.983356 -0.121810 -0.134805
vn -0.983357 -0.121811 0.134801
vn -0.746800 -0.471199 0.469321
vn -0.973423 -0.156816 0.166904
vn -0.976097 0.155262 -0.152079
vn -0.976097 0.155262 0.152079
vn -0.973423 -0.156816 -0.166903
vn -0.973423 0.156814 0.166904
vn -0.976098 -0.155261 -0.152075
vn -0.976098 -0.155262 0.152075
vn -0.973423 0.156815 -0.166902
vn -0.918854 -0.279064 0.278980
vn -0.918853 -0.279065 -0.278984
vn -0.918849 0.279069 0.278994
vn -0.962751 -0.195187 0.187116
vn -0.962751 -0.195187 -0.187116
vn -0.962750 0.195193 0.187117
vn -0.918847 0.279070 -0.278998
vn -0.962750 0.195193 -0.187117
vn -0.946043 0.230053 -0.228208
vn -0.946044 -0.230049 -0.228205
vn -0.946043 0.230052 0.228209
vn -0.946045 -0.230048 0.228206
vn -0.962484 -0.189453 0.194249
vn -0.962486 0.189442 0.194250
vn -0.962484 -0.189453 -0.194250
vn -0.962485 0.189442 -0.194251
vn 0.000000 -0.708661 0.705549
vn -0.212068 -0.694661 0.687367
vn -0.212066 -0.694663 -0.687365
vn 0.000000 -0.708661 -0.705549
vn 0.000000 0.708661 0.705549
vn -0.212070 0.694661 0.687367
vn -0.212069 0.694662 -0.687366
vn 0.000000 0.708661 -0.705549
vn -0.810962 0.411499 -0.415943
vn -0.810954 -0.411508 -0.415951
vn 0.000000 -0.706389 -0.707824
vn 0.000000 0.706389 -0.707824
vn -0.810953 -0.411509 0.415951
vn 0.000000 -0.706389 0.707824
vn -0.810962 0.411500 0.415944
vn 0.000000 0.706389 0.707824
vn -0.874588 -0.343109 0.342594
vn -0.874588 -0.343111 -0.342593
vn -0.874588 0.343116 0.342588
vn -0.874588 0.343117 -0.342587
vn -0.919903 0.276333 -0.278242
vn -0.919903 0.276333 0.278243
vn -0.997141 0.050301 -0.056396
vn -0.997141 0.050301 0.056396
vn -0.919903 -0.276329 -0.278245
vn -0.997141 -0.050300 -0.056396
vn -0.919903 -0.276329 0.278246
vn -0.997141 -0.050300 0.056396
s 1
g PictureFrame_highpoly PictureFrame_lowpoly PROP_____Picture_Frame_Var_1 High_Fidelity_Group
usemtl initialShadingGroup
f 3/1/1 4/2/2 8/3/3 7/73/4
f 4/2/2 3/1/1 2/5/5 1/6/6
f 7/4/4 8/85/3 11/7/7 10/8/8
f 10/8/8 11/7/7 1/6/6 2/5/5
f 43/9/9 44/10/10 48/11/11 47/82/12
f 44/10/10 43/9/9 42/13/13 41/14/14
f 47/12/12 48/81/11 51/15/15 50/16/16
f 50/16/16 51/15/15 41/14/14 42/13/13
f 57/17/17 56/18/18 55/19/19 54/20/20
f 59/21/21 58/75/22 56/18/18 57/17/17
f 60/23/23 61/24/24 54/20/20 55/19/19
f 61/24/24 60/23/23 58/22/22 59/80/21
f 4/2/2 6/25/25 9/26/26 8/3/3
f 6/25/25 4/2/2 1/6/6 5/27/27
f 9/26/26 6/25/25 18/28/28 19/29/29
f 18/28/28 6/25/25 5/27/27 17/30/30
f 8/85/3 9/84/26 12/31/31 11/7/7
f 12/31/31 9/84/26 19/77/29 20/32/32
f 11/7/7 12/31/31 5/27/27 1/6/6
f 5/27/27 12/31/31 20/32/32 17/30/30
f 3/1/1 14/33/33 13/34/34 2/5/5
f 15/35/35 14/33/33 3/1/1 7/73/4
f 16/36/36 15/74/35 7/4/4 10/8/8
f 13/34/34 16/36/36 10/8/8 2/5/5
f 13/34/34 14/33/33 22/37/37 21/38/38
f 22/37/37 14/33/33 15/35/35 23/71/39
f 23/39/39 15/74/35 16/36/36 24/40/40
f 24/40/40 16/36/36 13/34/34 21/38/38
f 37/41/41 25/42/42 28/43/43 39/44/44
f 33/45/45 26/46/46 25/42/42 37/41/41
f 27/47/47 35/48/48 39/44/44 28/43/43
f 35/48/48 27/47/47 26/69/46 33/70/45
f 30/49/49 31/50/50 34/83/51 38/52/52
f 31/79/50 32/53/53 36/54/54 34/51/51
f 36/54/54 32/53/53 29/55/55 40/56/56
f 29/55/55 30/49/49 38/52/52 40/56/56
f 27/47/47 43/9/9 47/82/12 26/69/46
f 43/9/9 27/47/47 28/43/43 42/13/13
f 44/10/10 46/57/57 49/58/58 48/11/11
f 45/59/59 46/57/57 44/10/10 41/14/14
f 22/37/37 46/57/57 45/59/59 21/38/38
f 49/58/58 46/57/57 22/37/37 23/71/39
f 26/46/46 47/12/12 50/16/16 25/42/42
f 48/81/11 49/72/58 52/60/60 51/15/15
f 52/60/60 49/72/58 23/39/39 24/40/40
f 25/42/42 50/16/16 42/13/13 28/43/43
f 51/15/15 52/60/60 45/59/59 41/14/14
f 45/59/59 52/60/60 24/40/40 21/38/38
f 56/18/18 64/61/61 53/62/62 55/19/19
f 66/63/63 57/17/17 54/20/20 65/64/64
f 58/75/22 63/65/65 64/61/61 56/18/18
f 67/66/66 59/21/21 57/17/17 66/63/63
f 60/23/23 62/67/67 63/76/65 58/22/22
f 53/62/62 62/67/67 60/23/23 55/19/19
f 54/20/20 61/24/24 68/68/68 65/64/64
f 68/68/68 61/24/24 59/80/21 67/78/66
f 62/67/67 32/53/53 31/79/50 63/76/65
f 32/53/53 62/67/67 53/62/62 29/55/55
f 63/65/65 31/50/50 30/49/49 64/61/61
f 64/61/61 30/49/49 29/55/55 53/62/62
f 20/32/32 66/63/63 65/64/64 17/30/30
f 19/77/29 67/66/66 66/63/63 20/32/32
f 68/68/68 18/28/28 17/30/30 65/64/64
f 18/28/28 68/68/68 67/78/66 19/29/29
g default
v 2.118300 60.439263 60.316567
v 2.118300 60.439263 -60.316552
v 2.118300 -60.439254 60.316567
v 2.118300 -60.439254 -60.316552
vt 0.053039 0.082587
vt 0.946435 0.082587
vt 0.946435 0.977802
vt 0.053039 0.977802
vn -1.000000 0.000000 0.000000
vn -1.000000 0.000000 0.000000
vn -1.000000 0.000000 0.000000
vn -1.000000 0.000000 0.000000
s off
g PictureFrame_lowpoly PROP_____Picture_Frame_Var_1 High_Fidelity_Group PictureFrame_highpoly4
usemtl initialShadingGroup
f 72/86/69 71/87/70 69/88/71 70/89/72
