# This file uses centimeters as units for non-parametric coordinates.

mtllib Curtains lowpoly.mtl
g default
v -4.616641 184.477487 58.849394
v -4.616641 130.761238 60.439281
v -1.612751 77.045026 61.709368
v -2.568784 77.045026 59.362533
v -2.214928 130.761238 55.539921
v -2.214928 184.477487 52.678121
v -2.721180 77.045026 55.607577
v 0.645169 130.761238 47.700932
v 0.645169 184.477487 42.804076
v -1.521956 77.045026 52.791371
v -3.754853 130.761238 41.821677
v -3.754853 184.477487 35.398545
v -1.221135 77.045026 57.860548
v -4.287904 130.761238 52.404318
v -4.287904 184.477487 48.728499
v -0.258335 184.477487 63.849103
v -0.258335 130.761238 64.644035
v -2.800553 77.045026 64.318787
v -2.911901 77.045026 51.383265
v -3.328547 130.761238 38.882057
v -3.328547 184.477487 31.695783
v 3.129668 77.075832 60.897963
v 2.023336 77.030790 59.109355
v 0.139602 184.495922 57.995116
v 2.361160 184.428774 52.229284
v 0.140703 130.851754 59.594297
v 2.363465 130.707657 55.110702
v 5.520160 184.432841 63.707133
v 5.520680 130.669224 64.534623
v 2.979429 77.007930 64.217641
v 4.043940 77.084852 57.852006
v 0.967972 130.900505 52.620944
v 0.967763 184.532923 48.979729
v 2.669506 77.041975 56.126747
v 3.121444 77.012224 52.187313
v 6.076025 130.663048 47.964645
v 0.937394 130.816918 41.520889
v 6.078211 184.438358 43.054958
v 0.939149 184.491215 35.116789
v 1.678300 77.092967 51.656367
v 1.273314 130.744912 38.807882
v 1.273016 184.443781 31.609552
v -4.911646 184.477487 -59.428666
v -4.911646 130.761238 -61.074164
v -1.708290 77.045026 -62.312275
v -2.727827 77.045026 -59.928590
v -2.350355 130.761238 -56.003474
v -2.350355 184.477487 -53.041572
v -2.890173 77.045026 -56.114675
v 0.699706 130.761238 -47.890338
v 0.699706 184.477487 -42.822183
v -1.611516 77.045026 -53.254269
v -3.992556 130.761238 -41.805438
v -3.992556 184.477487 -35.157637
v -1.290499 77.045026 -58.403043
v -4.560996 130.761238 -52.758177
v -4.560996 184.477487 -48.953810
v -0.354841 184.477487 -63.420648
v -0.354841 130.761238 -64.243375
v -2.512626 77.045026 -63.802052
v -3.093581 77.045026 -51.824063
v -3.537800 130.761238 -38.762998
v -3.537800 184.477487 -31.325402
v 3.349123 77.075832 -61.488147
v 2.169233 77.030790 -59.671446
v 0.160453 184.495922 -58.544551
v 2.529617 184.428774 -52.577083
v 0.161717 130.851754 -60.199657
v 2.531923 130.707657 -55.559244
v 4.550162 184.432841 -63.273699
v 4.550414 130.669224 -64.130131
v 2.393447 77.007930 -63.699325
v 4.323984 77.084852 -58.394352
v 1.043865 130.900505 -52.982397
v 1.043657 184.532923 -49.213838
v 2.858324 77.041975 -56.641999
v 3.340274 77.012224 -52.640759
v 6.491005 130.663048 -48.163254
v 1.011205 130.816918 -41.494151
v 6.493429 184.438358 -43.081853
v 1.013183 184.491215 -34.866043
v 1.801323 77.092967 -52.101480
v 1.369284 130.744912 -38.686241
v 1.369002 184.443781 -31.236159
v -4.999415 0.146338 66.899763
v -4.779521 0.120559 66.448154
v -4.643485 -0.238852 66.805817
v -2.839652 77.045026 64.383649
v -2.842418 77.045365 64.903168
v -4.664618 291.910796 66.665517
v -4.873202 291.543270 66.363242
v -4.972325 291.543646 66.865953
v 0.282480 291.907652 63.443095
v -0.258335 291.541631 63.356826
v -4.842290 291.518640 18.549676
v -5.019597 291.547676 19.052047
v -4.673162 291.899385 18.859538
v -5.025917 184.477487 28.301956
v -4.897146 184.456492 27.796623
v -4.652698 -0.220756 41.789839
v -4.942224 0.126961 42.073372
v -4.880623 0.164132 41.524940
v -2.950837 -0.246817 44.030761
v -3.326599 0.119636 44.157890
v -2.978113 77.045026 50.273787
v -2.758197 77.031581 49.798479
v -4.810508 130.774005 66.419047
v -4.983598 130.761445 66.908536
v -4.848811 184.477487 66.380609
v -4.977910 184.479257 66.883484
v -4.990417 130.761238 36.244061
v -4.901548 130.719529 35.728499
v -4.207289 291.910495 57.788874
v -4.616641 291.543401 57.864849
v -2.214928 291.542121 50.612222
v -1.826048 291.908292 50.597404
v -4.602371 0.125436 61.599501
v -4.139747 -0.251600 61.518800
v -0.270515 0.128392 65.219539
v 0.523886 -0.229569 65.393783
v -1.771646 -0.243428 57.596234
v -2.216609 0.123459 57.635589
v -4.287904 291.543213 45.098824
v -3.878449 291.911681 45.125516
v 1.173253 -0.235406 51.317091
v 0.629271 0.123308 51.293307
v -3.757872 -0.251091 55.146405
v -4.273315 0.125888 55.098769
v 0.645169 291.541782 37.057362
v 1.052773 291.909120 37.068856
v -3.754853 291.545529 26.565881
v -3.377633 291.909817 26.480194
v -3.354737 -0.245687 46.389998
v -3.744279 0.124005 46.536652
v -3.328547 291.544437 22.481999
v -2.958154 291.907539 22.384250
v -2.539887 -0.282801 61.204376
v -2.039064 0.070923 61.161756
v 0.133713 -0.249434 57.423950
v 0.616793 0.116379 57.389239
v -1.924562 291.913395 57.327746
v -1.509032 291.548730 57.280788
v 0.764296 291.896674 50.356835
v 1.162872 291.530277 50.357704
v 2.216795 291.901701 63.273696
v 2.678147 291.537470 63.288446
v 1.463218 -0.227930 65.181115
v 1.985159 0.140632 65.176658
v -2.213173 -0.279205 55.131744
v -1.613658 0.075480 55.186550
v -1.378542 291.922094 45.224426
v -0.961762 291.559049 45.279449
v 2.990479 -0.213770 51.364027
v 3.503943 0.158860 51.453799
v -1.107942 -0.266532 46.346909
v -0.674773 0.092690 46.294252
v 4.203474 291.539824 37.770655
v 3.794086 291.903603 37.704653
v -0.523373 291.908782 26.407719
v -0.144993 291.542479 26.399932
v -0.414523 -0.273123 44.122657
v -0.029629 0.090525 44.137162
v 0.073614 291.904601 22.778023
v 0.455176 291.538637 22.783041
v -2.460424 291.559633 69.798138
v -2.703511 291.917481 69.492799
v -2.966720 291.560123 69.781844
v -2.566538 184.495282 69.975311
v -3.077913 184.495828 69.885644
v -2.730400 130.773148 70.090284
v -3.235893 130.763328 69.972114
v -0.694582 77.046306 67.742346
v -1.209088 77.048980 67.672021
v -3.468309 0.154886 70.010731
v -3.178992 -0.210870 69.762055
v -2.969427 0.148654 70.094682
v -1.722508 0.325450 39.272625
v -2.057059 -0.043696 39.481741
v -2.208711 0.341813 39.148283
v 0.523276 76.878417 47.894965
v 0.029220 76.873916 47.726874
v -1.486054 130.269630 33.609925
v -1.994521 130.284797 33.498512
v -1.353066 184.220738 25.825298
v -1.853741 184.231151 25.686693
v -1.745010 291.413455 16.919935
v -1.626939 291.808963 17.253035
v -1.281412 291.434902 17.123120
v -2.687375 -0.283705 -61.890473
v -2.162831 0.070810 -61.821631
v 0.171399 -0.249510 -57.953394
v 0.669262 0.116134 -57.917349
v -2.012680 291.913451 -57.793849
v -1.597596 291.548862 -57.735942
v 0.859345 291.896542 -49.604089
v 1.251734 291.530371 -49.603918
v 1.693931 291.901890 -62.857502
v 2.137749 291.537075 -62.840352
v 1.039463 -0.227949 -64.861782
v 1.549596 0.140670 -64.794140
v -2.305887 -0.279958 -55.583036
v -1.709182 0.074708 -55.637709
v -1.438656 291.922057 -44.028117
v -1.013994 291.559595 -44.091540
v 3.202661 -0.213732 -51.679820
v 3.748056 0.158973 -51.774585
v -1.125655 -0.266984 -46.484155
v -0.707953 0.092239 -46.434908
v 4.078503 291.903566 -36.140983
v 4.494034 291.540069 -36.203690
v -0.534260 291.908782 -25.763349
v -0.142956 291.542328 -25.749701
v -0.410017 -0.273330 -44.186887
v -0.020349 0.090619 -44.201749
v 0.119257 291.904545 -22.348410
v 0.496967 291.538732 -22.351786
v -3.157338 291.564661 -70.736050
v -2.918311 291.917519 -70.404690
v -2.657467 291.564152 -70.718273
v -2.761573 184.495188 -70.887471
v -3.278487 184.495790 -70.838918
v -2.933198 130.759844 -71.003964
v -3.446715 130.763309 -70.927422
v -1.301608 77.048924 -68.330033
v -0.782388 77.046193 -68.341266
v -3.198809 0.142251 -71.010553
v -3.426987 -0.210927 -70.663153
v -3.694791 0.150122 -70.964228
v -2.320729 0.345673 -39.019911
v -2.169330 -0.041399 -39.348408
v -1.833232 0.328161 -39.146064
v 0.563045 76.877249 -48.260337
v 0.070104 76.872485 -48.091013
v -1.583185 130.268029 -33.288187
v -2.092753 130.281625 -33.174325
v -1.941100 184.229457 -25.090049
v -1.440634 184.219966 -25.229268
v -1.352739 291.403268 -16.965255
v -1.691127 291.808040 -17.079319
v -1.834124 291.406864 -16.769962
v -4.398524 -0.251129 -62.143361
v -4.896417 0.125436 -62.274604
v -1.896811 -0.243371 -58.131775
v -2.352139 0.123459 -58.172286
v -4.496250 291.910495 -58.280960
v -4.911646 291.543514 -58.389836
v -1.964078 291.908424 -49.867032
v -2.350355 291.542328 -49.890980
v 0.184382 291.907708 -62.926642
v -0.354841 291.541726 -62.911139
v 0.427425 -0.233636 -64.863534
v -0.365147 0.126811 -64.838527
v -4.033938 -0.250451 -55.593613
v -4.545395 0.126359 -55.546856
v -4.149659 291.911568 -44.054324
v -4.560996 291.542968 -44.031322
v 1.261178 -0.235406 -51.634054
v 0.682766 0.122875 -51.608496
v -3.606279 -0.245348 -46.539640
v -3.981283 0.124156 -46.685776
v 1.113675 291.909120 -35.523992
v 0.699706 291.542027 -35.530022
v -3.612622 291.909817 -26.011276
v -3.992556 291.545962 -26.108315
v -3.143983 -0.246760 -44.089132
v -3.535718 0.119523 -44.223917
v -3.165384 291.907708 -22.116676
v -3.537800 291.545228 -22.220974
v -5.249209 291.560123 -67.182462
v -5.021917 291.910740 -67.470858
v -5.310431 291.560819 -67.698023
v -5.319897 184.479069 -67.708376
v -5.233519 184.477487 -67.196430
v -5.202585 130.761238 -67.221981
v -5.328360 130.761417 -67.726355
v -3.062260 77.045026 -65.023407
v -3.028396 77.045346 -65.541644
v -5.335126 0.129070 -67.731095
v -5.008197 -0.239040 -67.579652
v -5.171643 0.126415 -67.238073
v -5.275355 0.118055 -42.045251
v -5.004070 -0.222865 -41.769034
v -5.229526 0.134776 -41.526835
v -2.939564 77.032089 -50.221490
v -3.164239 77.045026 -50.694954
v -5.318321 130.761238 -36.020144
v -5.226611 130.721101 -35.507504
v -5.353427 184.477487 -27.802366
v -5.224730 184.457471 -27.299326
v -5.180158 291.527961 -18.477631
v -4.988677 291.900026 -18.777119
v -5.331631 291.536773 -18.975192
vt 0.286667 0.415002
vt 0.303942 0.415202
vt 0.316152 0.415343
vt 0.333642 0.415545
vt 0.358575 0.415833
vt 0.039242 0.510869
vt 0.056070 0.511063
vt 0.068364 0.511206
vt 0.087221 0.511424
vt 0.109633 0.511683
vt 0.483988 0.413205
vt 0.463962 0.412973
vt 0.450831 0.412821
vt 0.432397 0.412608
vt 0.408447 0.412331
vt 0.220253 0.511328
vt 0.201051 0.511106
vt 0.187996 0.510955
vt 0.168039 0.510724
vt 0.146744 0.510478
vt 0.728630 0.176995
vt 0.737179 0.175142
vt 0.010255 0.913673
vt 0.010644 0.913755
vt 0.018656 0.914934
vt 0.019383 0.676798
vt 0.743588 0.062327
vt 0.742672 0.062240
vt 0.743885 0.053366
vt 0.021269 0.010409
vt 0.020887 0.011541
vt 0.016863 0.343305
vt 0.029112 0.010506
vt 0.043540 0.010666
vt 0.797971 0.172316
vt 0.806708 0.170546
vt 0.131952 0.012879
vt 0.128369 0.344599
vt 0.132752 0.012821
vt 0.124847 0.011607
vt 0.128370 0.344630
vt 0.126444 0.511877
vt 0.672289 0.146571
vt 0.671290 0.146630
vt 0.668988 0.138033
vt 0.120608 0.916091
vt 0.114391 0.916072
vt 0.122008 0.915022
vt 0.117142 0.678117
vt 0.114391 0.916042
vt 0.112903 0.915984
vt 0.117144 0.677911
vt 0.126453 0.511967
vt 0.014920 0.510587
vt 0.047800 0.010716
vt 0.061852 0.010878
vt 0.071781 0.010993
vt 0.032831 0.915129
vt 0.037879 0.915187
vt 0.051396 0.915335
vt 0.060561 0.915450
vt 0.075695 0.011045
vt 0.093004 0.011251
vt 0.082549 0.915693
vt 0.102932 0.915939
vt 0.082548 0.915682
vt 0.065711 0.915509
vt 0.093004 0.011238
vt 0.113539 0.011476
vt 0.121600 0.011639
vt 0.124847 0.011653
vt 0.291305 0.013579
vt 0.277887 0.013385
vt 0.291311 0.013571
vt 0.305527 0.013714
vt 0.311158 0.013792
vt 0.295701 0.913047
vt 0.280911 0.912873
vt 0.267178 0.912718
vt 0.300401 0.913093
vt 0.310397 0.913200
vt 0.263550 0.912675
vt 0.241842 0.912419
vt 0.273600 0.013326
vt 0.252635 0.013084
vt 0.320793 0.013918
vt 0.336530 0.014054
vt 0.310396 0.913217
vt 0.326533 0.913404
vt 0.341338 0.014127
vt 0.363211 0.014405
vt 0.363216 0.014362
vt 0.366776 0.014403
vt 0.330142 0.913429
vt 0.352819 0.913691
vt 0.352819 0.913707
vt 0.356403 0.913749
vt 0.374543 0.014493
vt 0.387743 0.014646
vt 0.364077 0.913838
vt 0.377346 0.913991
vt 0.241749 0.911360
vt 0.245568 0.581183
vt 0.247493 0.414549
vt 0.247495 0.414537
vt 0.249397 0.249914
vt 0.252122 0.014146
vt 0.253512 0.014186
vt 0.387734 0.015425
vt 0.385006 0.251490
vt 0.384991 0.251621
vt 0.383102 0.416117
vt 0.383099 0.416365
vt 0.381176 0.582759
vt 0.381168 0.582886
vt 0.377357 0.913030
vt 0.376303 0.912858
vt 0.567091 0.078378
vt 0.572747 0.067715
vt 0.566762 0.078540
vt 0.556112 0.073418
vt 0.572785 0.067811
vt 0.580373 0.070590
vt 0.643803 0.089510
vt 0.643782 0.089571
vt 0.628091 0.104658
vt 0.628088 0.104676
vt 0.626916 0.119652
vt 0.641213 0.073749
vt 0.556026 0.073421
vt 0.547337 0.090873
vt 0.580713 0.070424
vt 0.583286 0.053789
vt 0.626845 0.119756
vt 0.605488 0.131243
vt 0.583329 0.053842
vt 0.600319 0.058008
vt 0.600429 0.058008
vt 0.604665 0.053960
vt 0.605452 0.131271
vt 0.603992 0.160111
vt 0.603967 0.160183
vt 0.598682 0.167070
vt 0.605095 0.053891
vt 0.598625 0.167240
vt 0.596649 0.181472
vt 0.535593 0.831090
vt 0.534439 0.831143
vt 0.538739 0.560075
vt 0.662158 0.061967
vt 0.518672 0.581018
vt 0.520609 0.413628
vt 0.522509 0.249256
vt 0.522508 0.249245
vt 0.523841 0.012843
vt 0.525243 0.012834
vt 0.548294 0.091171
vt 0.608364 0.927635
vt 0.607275 0.927706
vt 0.621172 0.733041
vt 0.619118 0.053416
vt 0.386173 0.247799
vt 0.384263 0.412052
vt 0.384260 0.412284
vt 0.382327 0.579451
vt 0.382332 0.579570
vt 0.379561 0.910654
vt 0.378496 0.910876
vt 0.597590 0.181457
vt 0.568704 0.084977
vt 0.558092 0.077698
vt 0.569091 0.085060
vt 0.575500 0.074787
vt 0.583721 0.076826
vt 0.652023 0.091847
vt 0.636539 0.108111
vt 0.652018 0.091826
vt 0.646899 0.076430
vt 0.636529 0.108133
vt 0.634831 0.123843
vt 0.662646 0.071457
vt 0.662824 0.072370
vt 0.558029 0.077757
vt 0.557065 0.091324
vt 0.583993 0.076616
vt 0.587053 0.060537
vt 0.634813 0.123898
vt 0.613251 0.137069
vt 0.587059 0.060529
vt 0.603307 0.065652
vt 0.603480 0.065674
vt 0.608528 0.061962
vt 0.613228 0.137115
vt 0.613062 0.163682
vt 0.613053 0.163760
vt 0.607632 0.171953
vt 0.608780 0.061837
vt 0.615729 0.062585
vt 0.615666 0.063379
vt 0.607578 0.172058
vt 0.606978 0.181387
vt 0.250595 0.009697
vt 0.246763 0.343075
vt 0.244833 0.511612
vt 0.240664 0.678331
vt 0.240154 0.915601
vt 0.239773 0.915601
vt 0.125366 0.914266
vt 0.135518 0.677150
vt 0.135519 0.677053
vt 0.130087 0.510368
vt 0.130097 0.510285
vt 0.132042 0.341776
vt 0.132043 0.341749
vt 0.136090 0.008455
vt 0.135456 0.008440
vt 0.308570 0.014856
vt 0.288571 0.250375
vt 0.280924 0.911750
vt 0.302015 0.581844
vt 0.265543 0.911581
vt 0.284741 0.581644
vt 0.291296 0.014647
vt 0.320781 0.014993
vt 0.305845 0.250574
vt 0.298199 0.911950
vt 0.314226 0.581985
vt 0.363203 0.015478
vt 0.335545 0.250918
vt 0.327899 0.912301
vt 0.356648 0.582476
vt 0.371303 0.015585
vt 0.360478 0.251206
vt 0.352832 0.912578
vt 0.338271 0.015197
vt 0.318056 0.250716
vt 0.310409 0.912092
vt 0.331716 0.582187
vt 0.242916 0.911331
vt 0.246432 0.581201
vt 0.248371 0.414600
vt 0.269360 0.581466
vt 0.251204 0.249943
vt 0.271286 0.414824
vt 0.275915 0.014470
vt 0.273189 0.250197
vt 0.386404 0.015702
vt 0.383291 0.251470
vt 0.368495 0.251299
vt 0.382043 0.416104
vt 0.366593 0.415926
vt 0.380185 0.582748
vt 0.360849 0.912673
vt 0.364666 0.582568
vt 0.034581 0.914017
vt 0.054149 0.677200
vt 0.061839 0.012019
vt 0.041176 0.343591
vt 0.045011 0.011819
vt 0.018669 0.913824
vt 0.037321 0.677005
vt 0.051409 0.914216
vt 0.066443 0.677342
vt 0.074133 0.012157
vt 0.058004 0.343786
vt 0.082560 0.914577
vt 0.107713 0.677819
vt 0.115403 0.012627
vt 0.089155 0.344146
vt 0.104972 0.914835
vt 0.124834 0.012740
vt 0.111567 0.344405
vt 0.063703 0.914352
vt 0.085301 0.677560
vt 0.092991 0.012379
vt 0.070298 0.343928
vt 0.029099 0.011642
vt 0.025264 0.343407
vt 0.017095 0.343313
vt 0.023330 0.510685
vt 0.015229 0.510552
vt 0.021409 0.676821
vt 0.019656 0.676801
vt 0.114404 0.914957
vt 0.117144 0.677928
vt 0.119065 0.511792
vt 0.123976 0.678007
vt 0.120999 0.344514
vt 0.126846 0.511882
vt 0.128946 0.344605
vt 0.711300 0.158067
vt 0.718577 0.163921
vt 0.754728 0.081868
vt 0.774426 0.093005
vt 0.758438 0.063978
vt 0.760412 0.080311
vt 0.717460 0.167895
vt 0.732135 0.159421
vt 0.703497 0.159760
vt 0.713085 0.153565
vt 0.768297 0.095411
vt 0.775426 0.107045
vt 0.684167 0.148870
vt 0.702641 0.140194
vt 0.790205 0.122709
vt 0.798780 0.148599
vt 0.679299 0.145272
vt 0.686629 0.143742
vt 0.792246 0.151684
vt 0.804261 0.156123
vt 0.700464 0.144249
vt 0.705226 0.156252
vt 0.769888 0.110114
vt 0.795677 0.118152
vt 0.744802 0.053705
vt 0.763003 0.062159
vt 0.732964 0.915079
vt 0.724007 0.914977
vt 0.725839 0.643950
vt 0.726779 0.507968
vt 0.734832 0.644052
vt 0.725951 0.371787
vt 0.735708 0.508032
vt 0.728827 0.175072
vt 0.731543 0.161786
vt 0.737414 0.177041
vt 0.734089 0.371843
vt 0.670027 0.138072
vt 0.682391 0.139640
vt 0.787440 0.915950
vt 0.778391 0.916490
vt 0.766484 0.721132
vt 0.780798 0.581306
vt 0.775279 0.721359
vt 0.789706 0.444134
vt 0.790095 0.582176
vt 0.806827 0.172493
vt 0.799087 0.444526
vt 0.797992 0.170383
vt 0.797857 0.160464
vt 0.517729 0.581016
vt 0.495777 0.413341
vt 0.519639 0.413617
vt 0.400588 0.412240
vt 0.387779 0.247698
vt 0.385258 0.412063
vt 0.244540 0.511609
vt 0.241177 0.678334
vt 0.233306 0.511479
vt 0.129712 0.510281
vt 0.137446 0.510370
vt 0.131507 0.341743
vt 0.568737 0.083876
vt 0.573169 0.068819
vt 0.635641 0.107721
vt 0.644802 0.089875
vt 0.650967 0.091611
vt 0.642212 0.074207
vt 0.557173 0.075942
vt 0.567404 0.079704
vt 0.575068 0.073719
vt 0.581318 0.071809
vt 0.633941 0.123344
vt 0.628965 0.105091
vt 0.586327 0.059304
vt 0.600693 0.059002
vt 0.612128 0.163479
vt 0.606323 0.131821
vt 0.603326 0.064705
vt 0.605121 0.054819
vt 0.606672 0.171764
vt 0.604893 0.160524
vt 0.583218 0.075750
vt 0.584063 0.054940
vt 0.612315 0.136600
vt 0.627788 0.120308
vt 0.645700 0.075775
vt 0.661246 0.062430
vt 0.549256 0.560192
vt 0.541972 0.424084
vt 0.551371 0.424228
vt 0.547032 0.287937
vt 0.556494 0.074549
vt 0.608379 0.060931
vt 0.618082 0.053443
vt 0.631619 0.732891
vt 0.608804 0.593238
vt 0.618726 0.592490
vt 0.601230 0.455403
vt 0.599518 0.167490
vt 0.143248 0.008504
vt 0.152545 0.008609
vt 0.139394 0.341834
vt 0.173841 0.008867
vt 0.148692 0.341941
vt 0.193798 0.009095
vt 0.169988 0.342187
vt 0.206853 0.009248
vt 0.189944 0.342418
vt 0.226054 0.009466
vt 0.202999 0.342569
vt 0.239109 0.009623
vt 0.222201 0.342791
vt 0.250450 0.009697
vt 0.246560 0.343072
vt 0.235255 0.342942
vt 0.539796 0.560087
vt 0.545016 0.831228
vt 0.490012 0.912029
vt 0.513674 0.912331
vt 0.478223 0.911887
vt 0.493842 0.580740
vt 0.458196 0.911656
vt 0.482053 0.580603
vt 0.445065 0.911505
vt 0.462027 0.580372
vt 0.426632 0.911298
vt 0.448895 0.580220
vt 0.402682 0.911010
vt 0.430462 0.580007
vt 0.394823 0.910922
vt 0.406511 0.579730
vt 0.383255 0.579461
vt 0.398653 0.579639
vt 0.607048 0.183297
vt 0.611259 0.455132
vt 0.597540 0.183392
vt 0.228636 0.915471
vt 0.215582 0.915324
vt 0.231379 0.678224
vt 0.196380 0.915109
vt 0.218325 0.678073
vt 0.183326 0.914948
vt 0.199123 0.677851
vt 0.163368 0.914727
vt 0.186068 0.677700
vt 0.142073 0.914478
vt 0.166112 0.677469
vt 0.132775 0.914377
vt 0.144816 0.677224
vt 0.125180 0.914302
vt 0.128749 0.676956
vt 0.135518 0.677116
vt 0.622279 0.733025
vt 0.618075 0.928343
vt 0.405136 0.011527
vt 0.390142 0.011302
vt 0.413080 0.011605
vt 0.402489 0.247868
vt 0.437029 0.011891
vt 0.410347 0.247959
vt 0.455463 0.012099
vt 0.434297 0.248236
vt 0.468595 0.012257
vt 0.452731 0.248449
vt 0.488621 0.012479
vt 0.465862 0.248601
vt 0.500409 0.012617
vt 0.485889 0.248832
vt 0.520571 0.249233
vt 0.497677 0.248969
vt 0.557066 0.093205
vt 0.555333 0.288071
vt 0.547881 0.093068
vt 0.010852 0.914867
vt 0.020708 0.011538
vt 0.131174 0.011690
vt 0.121740 0.914918
vt 0.661015 0.061423
vt 0.618399 0.052414
vt 0.663551 0.071286
vt 0.557964 0.091343
vt 0.616666 0.062687
vt 0.607924 0.181438
vn 0.959162 0.003018 -0.282840
vn 0.970918 -0.017842 -0.238747
vn 0.987498 -0.011205 0.157232
vn 0.991249 0.014423 0.131213
vn 0.975890 0.011238 -0.217972
vn 0.997021 0.009024 0.076604
vn 0.983691 0.008821 0.179648
vn 0.956777 -0.010718 0.290626
vn 0.936919 -0.020505 0.348944
vn 0.924742 -0.003240 0.380582
vn 0.913005 0.041691 0.405813
vn 0.944105 0.032159 0.328073
vn 0.999610 -0.017400 -0.021826
vn 0.999479 -0.023391 -0.022245
vn 0.926847 -0.031684 -0.374099
vn 0.910235 -0.054778 -0.410454
vn 0.999862 0.003724 0.016198
vn 0.939892 -0.017984 -0.340999
vn 0.940678 -0.030303 -0.337944
vn 0.948057 -0.052430 -0.313749
vn 0.977799 -0.018706 -0.208710
vn -0.986240 -0.006523 0.165188
vn -0.998912 -0.008124 -0.045931
vn -0.997839 -0.001832 -0.065680
vn -0.991553 -0.000152 0.129699
vn -0.985472 -0.000324 0.169838
vn -0.999524 0.002149 -0.030786
vn -0.999518 0.004309 -0.030737
vn -0.996897 0.010222 -0.078049
vn -0.952648 0.001279 -0.304073
vn -0.959582 -0.032198 -0.279583
vn -0.969636 -0.005909 -0.244481
vn -0.966288 -0.017655 -0.256857
vn -0.999360 0.009269 -0.034544
vn -0.936728 0.044301 0.347244
vn -0.945161 0.010073 0.326450
vn -0.999857 0.001251 -0.016869
vn -0.999318 0.005418 -0.036538
vn -0.947989 0.024931 0.317325
vn -0.969481 0.037778 0.242238
vn -0.942254 0.012288 0.334672
vn -0.983903 0.018890 0.177701
vn 0.980828 0.007005 0.194749
vn 0.990689 0.015276 -0.135289
vn 0.986587 -0.011984 -0.162796
vn 0.990629 -0.015756 0.135670
vn 0.989469 0.013055 0.144156
vn 0.997067 0.009380 -0.075953
vn 0.982125 0.007629 -0.188075
vn 0.952191 -0.008266 -0.305391
vn 0.932610 -0.016539 -0.360506
vn 0.907949 0.044259 -0.416738
vn 0.919798 -0.003257 -0.392380
vn 0.942164 0.036953 -0.333109
vn 0.999578 -0.018611 0.022316
vn 0.904917 -0.058345 0.421570
vn 0.921876 -0.033860 0.386003
vn 0.999428 -0.024940 0.022848
vn 0.999839 0.005140 -0.017211
vn 0.931079 -0.022310 0.364134
vn 0.944671 -0.056409 0.323134
vn 0.936584 -0.032474 0.348935
vn 0.975056 -0.019997 0.221058
vn -0.979903 -0.008416 -0.199295
vn -0.981039 -0.000013 -0.193811
vn -0.997675 -0.001961 0.068130
vn -0.998837 -0.008570 0.047441
vn -0.983663 -0.001190 -0.180017
vn -0.999524 0.002804 0.030737
vn -0.999147 0.004540 0.041043
vn -0.995485 0.010654 0.094316
vn -0.952848 0.001181 0.303447
vn -0.967434 -0.006262 0.253048
vn -0.956964 -0.034310 0.288170
vn -0.964947 -0.020849 0.261615
vn -0.999311 0.009918 0.035765
vn -0.999846 0.001307 0.017492
vn -0.941354 0.010696 -0.337251
vn -0.932814 0.047274 -0.357245
vn -0.999237 0.004382 0.038815
vn -0.939790 0.029216 -0.340501
vn -0.938142 0.013070 -0.346005
vn -0.967340 0.040754 -0.250186
vn -0.981912 0.019937 -0.188283
vn -0.918812 0.036411 0.393012
vn -0.397327 -0.880754 -0.257689
vn 0.011019 -0.999158 0.039526
vn -0.832098 0.032160 0.553696
vn -0.449641 -0.016669 -0.893054
vn -0.910806 -0.000421 0.412835
vn -0.452542 -0.001610 -0.891742
vn -0.982681 -0.036822 -0.181610
vn -0.003937 -0.999928 0.011381
vn -0.904232 -0.023037 0.426419
vn -0.506503 -0.000685 -0.862238
vn -0.458904 0.863349 -0.209845
vn -0.883088 0.001235 0.469205
vn -0.774117 0.006563 0.633008
vn 0.009229 0.999756 0.020069
vn -0.570173 -0.001013 -0.821524
vn -0.004386 0.999990 -0.000473
vn -0.999454 0.012737 -0.030493
vn -0.544622 -0.003504 -0.838674
vn -0.890229 0.000988 0.455511
vn -0.565170 0.819777 0.092459
vn -0.986904 0.000245 0.161311
vn -0.595359 -0.065872 -0.800755
vn -0.456856 0.879091 -0.135950
vn 0.019893 0.998939 -0.041541
vn -0.432397 -0.069894 -0.898970
vn -0.929673 0.032241 0.366973
vn -0.616403 -0.081097 -0.783244
vn -0.924949 0.039435 0.378040
vn -0.984757 0.021463 0.172606
vn -0.007498 0.999931 -0.009027
vn -0.665858 -0.157502 -0.729264
vn -0.930302 0.052600 0.363004
vn -0.494559 -0.857817 -0.139863
vn -0.699568 0.095767 -0.708120
vn -0.555066 0.099535 -0.825829
vn 0.015788 -0.997369 -0.070746
vn -0.946819 -0.015997 0.321369
vn -0.005856 -0.999608 -0.027392
vn -0.934450 -0.030352 0.354798
vn -0.953090 0.012492 0.302428
vn -0.674194 -0.037876 -0.737582
vn -0.500999 -0.816611 0.286613
vn -0.939209 -0.025431 0.342403
vn -0.012109 0.999927 0.000335
vn -0.999554 0.009199 -0.028428
vn -0.569157 0.813087 -0.122270
vn -0.971281 -0.012753 -0.237593
vn -0.990728 0.011637 0.135358
vn -0.562427 -0.812354 0.154131
vn -0.997596 0.003295 -0.069223
vn -0.024649 -0.999694 -0.002235
vn -0.966007 0.017687 -0.257909
vn -0.527619 -0.814848 -0.240083
vn -0.009053 0.999959 -0.000892
vn -0.999376 0.013560 -0.032616
vn -0.009327 -0.999955 -0.001694
vn -0.999435 -0.029060 -0.016891
vn -0.481712 0.865499 0.137347
vn -0.955509 0.020344 0.294259
vn 0.001377 -0.999999 0.000666
vn 0.982313 -0.061654 -0.176803
vn 0.957560 -0.020008 0.287540
vn 0.536092 -0.842239 0.056910
vn 0.558048 -0.829122 0.033744
vn 0.988170 -0.045164 0.146559
vn 0.003489 -0.999991 0.002317
vn 0.926704 -0.075559 0.368117
vn 0.012287 0.999924 -0.000913
vn 0.981961 0.024878 -0.187441
vn 0.997803 0.012845 0.064997
vn 0.567653 0.822847 0.026317
vn 0.563727 0.825109 0.037511
vn 0.988894 0.016390 0.147719
vn 0.954229 0.039258 0.296490
vn 0.008264 0.999964 0.001669
vn 0.665492 0.015848 0.746237
vn 0.642872 -0.006140 0.765949
vn 0.530786 -0.845536 0.057755
vn 0.999813 -0.019292 0.000972
vn 0.999671 0.010203 0.023521
vn 0.564662 0.824937 0.025219
vn 0.007957 -0.999968 -0.000561
vn 0.933216 -0.010299 -0.359169
vn 0.550240 -0.828409 -0.104763
vn 0.951842 0.003225 -0.306573
vn 0.951897 -0.000403 -0.306418
vn 0.013993 0.999898 -0.002865
vn 0.983330 -0.008680 -0.181624
vn 0.489975 0.868882 -0.070488
vn 0.913252 0.010261 -0.407266
vn 0.911846 -0.024808 -0.409783
vn -0.783783 0.001253 0.621033
vn 0.627416 0.008998 0.778632
vn -0.811344 -0.027060 0.583942
vn 0.555608 -0.006558 0.831418
vn -0.802959 0.000855 0.596033
vn 0.620647 -0.009945 0.784027
vn -0.518460 -0.037029 -0.854299
vn 0.911356 -0.031285 -0.410429
vn -0.524614 -0.182628 -0.831521
vn 0.870067 -0.084001 -0.485724
vn -0.460097 -0.091699 -0.883121
vn 0.897632 -0.043937 -0.438550
vn 0.000400 -1.000000 0.000195
vn 0.992658 -0.067131 0.100615
vn 0.987244 -0.047968 -0.151818
vn 0.550611 -0.833989 -0.035924
vn 0.539805 -0.839736 -0.058761
vn 0.951918 -0.017076 -0.305875
vn 0.921700 -0.079914 -0.379583
vn 0.002830 -0.999994 -0.001978
vn 0.012376 0.999923 0.000308
vn 0.992432 0.026319 0.119945
vn 0.987763 0.013927 -0.155342
vn 0.570143 0.820562 -0.040181
vn 0.554505 0.831843 -0.023680
vn 0.997909 0.013167 -0.063275
vn 0.007623 0.999970 -0.001514
vn 0.952808 0.045229 -0.300186
vn 0.762994 0.015558 -0.646218
vn 0.010245 0.999799 -0.017222
vn 0.014100 -0.999349 -0.033216
vn 0.762383 -0.009742 -0.647053
vn 0.999794 -0.020274 -0.001003
vn 0.521792 -0.851061 -0.058550
vn 0.559411 0.828466 -0.026518
vn 0.999608 0.012700 -0.024945
vn 0.928643 -0.009739 0.370846
vn 0.007355 -0.999973 0.000464
vn 0.948412 0.004344 0.317011
vn 0.543407 -0.832618 0.107030
vn 0.011853 0.999926 0.002863
vn 0.942867 -0.004987 0.333131
vn 0.507767 0.857443 0.083458
vn 0.980810 -0.008975 0.194759
vn 0.909766 0.011779 0.414955
vn 0.015103 -0.997617 0.067326
vn 0.019003 0.998987 0.040793
vn 0.901691 -0.025912 0.431605
vn -0.765275 0.006625 -0.643670
vn 0.732402 0.008362 -0.680821
vn -0.774840 0.001283 -0.632156
vn -0.871560 0.001305 -0.490287
vn -0.477335 0.857971 0.189835
vn 0.678557 -0.006081 -0.734523
vn -0.801289 -0.029437 -0.597553
vn 0.746056 -0.010074 -0.665807
vn -0.789473 0.000798 -0.613785
vn -0.822302 0.035505 -0.567942
vn -0.437687 -0.863938 0.249082
vn -0.907809 0.039735 -0.417496
vn -0.545452 0.106144 0.831394
vn 0.907678 -0.033342 0.418341
vn -0.508741 -0.038088 0.860077
vn -0.680839 0.102964 0.725160
vn -0.483494 -0.864119 0.139757
vn 0.865054 -0.088808 0.493755
vn -0.515618 -0.191438 0.835158
vn 0.888928 -0.045936 0.455737
vn -0.454095 -0.091062 0.886287
vn -0.427556 -0.066376 0.901549
vn -0.452771 0.878545 0.152176
vn -0.581353 -0.063577 0.811164
vn -0.525650 -0.833870 -0.168383
vn -0.978768 0.016387 -0.204317
vn -0.977918 -0.036492 0.205778
vn -0.001791 -0.999933 -0.011439
vn -0.022519 -0.999744 0.002022
vn -0.997411 0.004081 0.071801
vn -0.518032 -0.820034 0.243284
vn -0.963526 0.019035 0.266939
vn -0.545474 0.833247 -0.090317
vn -0.985800 -0.000809 -0.167923
vn -0.999561 0.010263 0.027786
vn -0.011357 0.999935 -0.000200
vn -0.004618 0.999989 0.000541
vn -0.999118 0.012852 0.039985
vn -0.970280 -0.016536 0.241421
vn -0.563689 0.816927 0.122005
vn -0.675127 -0.000970 0.737701
vn -0.658461 -0.014231 0.752480
vn -0.008321 -0.999964 0.001693
vn -0.999374 -0.030746 0.017497
vn -0.999322 0.011942 0.034813
vn -0.007983 0.999968 0.001019
vn -0.495367 -0.818519 -0.290927
vn -0.934968 -0.027502 -0.353664
vn -0.004445 -0.999638 0.026547
vn -0.929599 -0.032509 -0.367136
vn -0.946440 0.025008 -0.321910
vn -0.478096 0.863844 -0.158738
vn -0.982564 0.021755 -0.184648
vn -0.006036 0.999938 0.009397
vn -0.940882 -0.018450 -0.338231
vn -0.918614 0.033657 -0.393719
vn -0.878869 0.001047 -0.477063
vn -0.656507 -0.003246 0.754313
vn -0.892922 -0.024826 -0.449526
vn -0.648920 -0.000316 0.760857
vn -0.897203 -0.000499 -0.441618
vn -0.662427 -0.001571 0.749125
vn -0.657160 -0.039933 0.752693
vn -0.946976 0.013311 -0.321027
vn -0.650517 -0.166336 0.741053
vn -0.924322 0.057088 -0.377320
vn -0.602859 -0.081353 0.793690
vn -0.914919 0.041932 -0.401455
s 1
g Curtains_lowpoly PROP_____Curtains High_Fidelity_Group
usemtl initialShadingGroup
f 26/1/1 22/218/2 23/225/3 27/2/4
f 24/222/5 26/1/1 27/2/4 25/220/6
f 28/242/7 29/244/8 26/1/1 24/222/5
f 29/244/8 30/246/9 22/218/2 26/1/1
f 27/2/4 23/225/3 31/236/10 32/3/11
f 25/220/6 27/2/4 32/3/11 33/227/12
f 36/4/13 34/229/14 35/233/15 37/5/16
f 38/238/17 36/4/13 37/5/16 39/231/18
f 37/5/16 35/233/15 40/249/19 41/251/20
f 39/231/18 37/5/16 41/251/20 42/254/21
f 32/3/11 31/236/10 34/229/14 36/4/13
f 33/227/12 32/3/11 36/4/13 38/238/17
f 2/6/22 5/7/23 4/256/24 3/261/25
f 1/258/26 6/265/27 5/7/23 2/6/22
f 16/278/28 1/258/26 2/6/22 17/280/29
f 17/280/29 2/6/22 3/261/25 18/282/30
f 5/7/23 14/8/31 13/263/32 4/256/24
f 6/265/27 15/276/33 14/8/31 5/7/23
f 8/9/34 11/10/35 10/267/36 7/274/37
f 9/269/38 12/272/39 11/10/35 8/9/34
f 11/10/35 20/286/40 19/285/41 10/267/36
f 12/272/39 21/288/42 20/286/40 11/10/35
f 14/8/31 8/9/34 7/274/37 13/263/32
f 15/276/33 9/269/38 8/9/34 14/8/31
s 4
f 68/11/43 69/12/44 65/457/45 64/459/46
f 66/414/47 67/416/48 69/12/44 68/11/43
f 70/412/49 66/414/47 68/11/43 71/342/50
f 71/342/50 68/11/43 64/459/46 72/461/51
f 69/12/44 74/13/52 73/455/53 65/457/45
f 67/416/48 75/418/54 74/13/52 69/12/44
f 78/14/55 79/15/56 77/451/57 76/453/58
f 80/420/59 81/422/60 79/15/56 78/14/55
f 79/15/56 83/344/61 82/449/62 77/451/57
f 81/422/60 84/424/63 83/344/61 79/15/56
f 74/13/52 78/14/55 76/453/58 73/455/53
f 75/418/54 80/420/59 78/14/55 74/13/52
f 44/16/64 45/432/65 46/434/66 47/17/67
f 43/403/68 44/16/64 47/17/67 48/401/69
f 58/406/70 59/349/71 44/16/64 43/403/68
f 59/349/71 60/430/72 45/432/65 44/16/64
f 47/17/67 46/434/66 55/436/73 56/18/74
f 48/401/69 47/17/67 56/18/74 57/399/75
f 50/19/76 49/438/77 52/440/78 53/20/79
f 51/397/80 50/19/76 53/20/79 54/395/81
f 53/20/79 52/440/78 61/443/82 62/351/83
f 54/395/81 53/20/79 62/351/83 63/393/84
f 56/18/74 55/436/73 49/438/77 50/19/76
f 57/399/75 56/18/74 50/19/76 51/397/80
s 1
f 85/21/85 87/324/86 175/22/87 174/326/88
f 86/24/89 85/23/85 89/26/90 88/283/91
f 87/465/86 86/24/89 119/260/92 120/25/93
f 88/283/91 89/26/90 108/54/94 107/281/95
f 90/27/96 92/28/97 167/29/98 166/315/99
f 91/31/100 90/30/96 93/33/101 94/277/102
f 92/466/97 91/31/100 109/279/103 110/32/104
f 94/277/102 93/33/101 113/34/105 114/259/106
f 95/35/107 97/339/108 187/36/109 186/337/110
f 96/39/111 95/37/107 99/38/112 98/290/113
f 97/467/108 96/39/111 135/271/114 136/40/115
f 98/290/113 99/41/112 112/42/116 111/289/117
f 100/43/118 102/44/119 179/45/120 178/328/121
f 101/48/122 100/46/118 103/47/123 104/284/124
f 102/468/119 101/48/122 105/287/125 106/49/126
f 104/284/124 103/50/123 133/51/127 134/270/128
f 106/52/126 105/287/125 111/289/117 112/53/116
f 107/281/95 108/54/94 110/32/104 109/279/103
f 114/259/106 113/55/105 116/56/129 115/257/130
f 115/257/130 116/56/129 124/57/131 123/264/132
f 117/255/133 118/58/134 120/25/93 119/260/92
f 118/59/134 117/255/133 122/262/135 121/60/136
f 121/60/136 122/262/135 128/273/137 127/61/138
f 123/264/132 124/62/131 130/63/139 129/275/140
f 125/64/141 126/266/142 134/270/128 133/65/127
f 126/266/142 125/66/141 127/67/138 128/273/137
f 129/275/140 130/68/139 132/69/143 131/268/144
f 131/268/144 132/70/143 136/71/115 135/271/114
f 137/72/145 138/223/146 148/245/147 147/73/148
f 138/223/146 137/74/145 139/75/149 140/217/150
f 140/217/150 139/76/149 149/86/151 150/224/152
f 141/78/153 142/219/154 144/226/155 143/77/156
f 142/219/154 141/78/153 145/79/157 146/221/158
f 143/80/156 144/226/155 152/237/159 151/81/160
f 146/221/158 145/82/157 166/83/99 165/239/161
f 147/84/148 148/245/147 176/108/162 175/85/87
f 150/224/152 149/86/151 153/87/163 154/235/164
f 151/88/160 152/237/159 157/230/165 158/89/166
f 154/235/164 153/90/163 155/91/167 156/228/168
f 156/228/168 155/92/167 161/93/169 162/232/170
f 158/94/166 157/230/165 160/234/171 159/95/172
f 159/96/172 160/234/171 164/253/173 163/97/174
f 162/232/170 161/98/169 178/99/121 177/247/175
f 163/100/174 164/253/173 188/117/176 187/101/109
f 165/239/161 167/102/98 169/103/177 168/240/178
f 168/240/178 169/103/177 171/104/179 170/241/180
f 170/241/180 171/105/179 173/106/181 172/243/182
f 172/243/182 173/106/181 174/107/88 176/108/162
f 177/247/175 179/109/120 181/110/183 180/248/184
f 180/248/184 181/111/183 183/112/185 182/250/186
f 182/250/186 183/113/185 185/114/187 184/252/188
f 184/252/188 185/115/187 186/116/110 188/117/176
s 4
f 189/360/189 190/118/190 192/119/191 191/354/192
f 190/120/190 189/360/189 199/383/193 200/121/194
f 191/354/192 192/122/191 202/123/195 201/362/196
f 193/356/197 194/124/198 198/129/199 197/358/200
f 194/125/198 193/356/197 195/364/201 196/126/202
f 196/127/202 195/364/201 203/376/203 204/128/204
f 197/358/200 198/129/199 219/469/205 218/378/206
f 200/130/194 199/383/193 227/157/207 226/131/208
f 201/362/196 202/132/195 206/133/209 205/374/210
f 204/134/204 203/376/203 209/368/211 210/135/212
f 205/374/210 206/136/209 208/137/213 207/366/214
f 207/366/214 208/138/213 214/139/215 213/370/216
f 210/140/212 209/368/211 211/372/217 212/141/218
f 212/142/218 211/372/217 215/390/219 216/143/220
f 213/370/216 214/144/215 231/470/221 230/385/222
f 216/145/220 215/390/219 239/169/223 238/146/224
f 217/147/225 219/148/205 220/149/226 221/407/227
f 218/378/206 217/150/225 271/471/228 270/181/229
f 221/151/227 220/341/226 222/343/230 223/152/231
f 223/152/231 222/343/230 225/460/232 224/153/233
f 224/154/233 225/460/232 226/155/208 228/156/234
f 228/464/234 227/157/207 279/184/235 278/462/236
f 229/158/237 231/159/221 232/160/238 233/444/239
f 230/385/222 229/161/237 283/473/240 282/198/241
f 233/162/239 232/345/238 234/346/242 235/163/243
f 235/164/243 234/346/242 237/423/244 236/165/245
f 236/166/245 237/423/244 238/167/224 240/168/246
f 240/427/246 239/169/223 291/201/247 290/425/248
f 241/353/249 242/170/250 252/171/251 251/359/252
f 242/172/250 241/353/249 243/361/253 244/173/254
f 244/173/254 243/361/253 253/373/255 254/174/256
f 245/357/257 246/175/258 248/176/259 247/355/260
f 246/177/258 245/357/257 249/377/261 250/178/262
f 247/355/260 248/179/259 256/180/263 255/363/264
f 250/178/262 249/377/261 270/181/229 269/182/265
f 251/359/252 252/183/251 280/472/266 279/184/235
f 254/185/256 253/373/255 257/365/267 258/186/268
f 255/363/264 256/187/263 262/188/269 261/375/270
f 258/189/268 257/365/267 259/369/271 260/190/272
f 260/191/272 259/369/271 265/384/273 266/192/274
f 261/375/270 262/193/269 264/194/275 263/367/276
f 263/367/276 264/195/275 268/196/277 267/371/278
f 266/197/274 265/384/273 282/198/241 281/199/279
f 267/371/278 268/200/277 292/474/280 291/201/247
f 269/404/265 271/202/228 272/203/281 273/405/282
f 273/405/282 272/203/281 275/204/283 274/347/284
f 274/347/284 275/204/283 277/205/285 276/348/286
f 276/348/286 277/205/285 278/206/236 280/207/266
f 281/441/279 283/208/240 284/209/287 285/442/288
f 285/442/288 284/210/287 287/211/289 286/350/290
f 286/350/290 287/212/289 289/213/291 288/352/292
f 288/352/292 289/214/291 290/215/248 292/216/280
s 1
f 138/223/146 140/217/150 23/225/3 22/218/2
f 144/226/155 142/219/154 24/222/5 25/220/6
f 142/219/154 146/221/158 28/242/7 24/222/5
f 148/245/147 138/223/146 22/218/2 30/246/9
f 140/217/150 150/224/152 31/236/10 23/225/3
f 152/237/159 144/226/155 25/220/6 33/227/12
f 154/235/164 156/228/168 35/233/15 34/229/14
f 160/234/171 157/230/165 38/238/17 39/231/18
f 156/228/168 162/232/170 40/249/19 35/233/15
f 164/253/173 160/234/171 39/231/18 42/254/21
f 150/224/152 154/235/164 34/229/14 31/236/10
f 157/230/165 152/237/159 33/227/12 38/238/17
f 146/221/158 165/239/161 168/240/178 28/242/7
f 170/241/180 29/244/8 28/242/7 168/240/178
f 172/243/182 30/246/9 29/244/8 170/241/180
f 176/108/162 148/245/147 30/246/9 172/243/182
f 162/232/170 177/247/175 180/248/184 40/249/19
f 41/251/20 40/249/19 180/248/184 182/250/186
f 42/254/21 41/251/20 182/250/186 184/252/188
f 188/117/176 164/253/173 42/254/21 184/252/188
f 122/262/135 117/255/133 3/261/25 4/256/24
f 114/259/106 115/257/130 6/265/27 1/258/26
f 94/277/102 114/259/106 1/258/26 16/278/28
f 117/255/133 119/260/92 18/282/30 3/261/25
f 128/273/137 122/262/135 4/256/24 13/263/32
f 115/257/130 123/264/132 15/276/33 6/265/27
f 134/270/128 126/266/142 7/274/37 10/267/36
f 129/275/140 131/268/144 12/272/39 9/269/38
f 104/284/124 134/270/128 10/267/36 19/285/41
f 131/268/144 135/271/114 21/288/42 12/272/39
f 126/266/142 128/273/137 13/263/32 7/274/37
f 123/264/132 129/275/140 9/269/38 15/276/33
f 91/31/100 94/277/102 16/278/28 109/279/103
f 107/281/95 109/279/103 16/278/28 17/280/29
f 88/283/91 107/281/95 17/280/29 18/282/30
f 119/260/92 86/24/89 88/283/91 18/282/30
f 101/48/122 104/284/124 19/285/41 105/287/125
f 20/286/40 111/289/117 105/287/125 19/285/41
f 21/288/42 98/290/113 111/289/117 20/286/40
f 135/271/114 96/39/111 98/290/113 21/288/42
f 118/297/134 121/291/136 139/300/149 137/292/145
f 116/301/129 113/293/105 141/296/153 143/294/156
f 113/293/105 93/295/101 145/316/157 141/296/153
f 120/325/93 118/297/134 137/292/145 147/298/148
f 121/291/136 127/299/138 149/312/151 139/300/149
f 124/313/131 116/301/129 143/294/156 151/302/160
f 125/311/141 133/303/127 155/308/167 153/304/163
f 132/309/143 130/305/139 158/314/166 159/306/172
f 133/303/127 103/307/123 161/329/169 155/308/167
f 136/340/115 132/309/143 159/306/172 163/310/174
f 127/299/138 125/311/141 153/304/163 149/312/151
f 130/305/139 124/313/131 151/302/160 158/314/166
f 93/295/101 90/27/96 166/315/99 145/316/157
f 167/317/98 92/318/97 110/319/104 169/321/177
f 110/319/104 108/320/94 171/323/179 169/321/177
f 108/320/94 89/322/90 173/327/181 171/323/179
f 87/324/86 120/325/93 147/298/148 175/22/87
f 89/322/90 85/21/85 174/326/88 173/327/181
f 103/307/123 100/43/118 178/328/121 161/329/169
f 179/330/120 102/331/119 106/332/126 181/334/183
f 106/332/126 112/333/116 183/336/185 181/334/183
f 112/333/116 99/335/112 185/338/187 183/336/185
f 99/335/112 95/35/107 186/337/110 185/338/187
f 97/339/108 136/340/115 163/310/174 187/36/109
s 4
f 222/343/230 220/341/226 70/412/49 71/342/50
f 225/460/232 222/343/230 71/342/50 72/461/51
f 83/344/61 234/346/242 232/345/238 82/449/62
f 84/424/63 237/423/244 234/346/242 83/344/61
f 274/347/284 59/349/71 58/406/70 273/405/282
f 276/348/286 60/430/72 59/349/71 274/347/284
f 62/351/83 61/443/82 285/442/288 286/350/290
f 63/393/84 62/351/83 286/350/290 288/352/292
f 241/353/249 189/360/189 191/354/192 243/361/253
f 247/355/260 195/364/201 193/356/197 245/357/257
f 245/357/257 193/356/197 197/358/200 249/377/261
f 251/359/252 199/383/193 189/360/189 241/353/249
f 243/361/253 191/354/192 201/362/196 253/373/255
f 255/363/264 203/376/203 195/364/201 247/355/260
f 257/365/267 205/374/210 207/366/214 259/369/271
f 263/367/276 211/372/217 209/368/211 261/375/270
f 259/369/271 207/366/214 213/370/216 265/384/273
f 267/371/278 215/390/219 211/372/217 263/367/276
f 253/373/255 201/362/196 205/374/210 257/365/267
f 261/375/270 209/368/211 203/376/203 255/363/264
f 249/377/261 197/358/200 218/378/206 270/181/229
f 272/379/281 221/407/227 223/380/231 275/381/283
f 275/381/283 223/380/231 224/382/233 277/463/285
f 279/184/235 227/157/207 199/383/193 251/359/252
f 265/384/273 213/370/216 230/385/222 282/198/241
f 284/386/287 233/444/239 235/387/243 287/388/289
f 287/388/289 235/387/243 236/389/245 289/426/291
f 291/201/247 239/169/223 215/390/219 267/371/278
f 268/391/277 63/393/84 288/352/292 292/216/280
f 264/392/275 54/395/81 63/393/84 268/391/277
f 262/394/269 51/397/80 54/395/81 264/392/275
f 256/396/263 57/399/75 51/397/80 262/394/269
f 248/398/259 48/401/69 57/399/75 256/396/263
f 246/400/258 43/403/68 48/401/69 248/398/259
f 250/402/262 58/406/70 43/403/68 246/400/258
f 269/404/265 273/405/282 58/406/70 250/402/262
f 217/147/225 221/407/227 272/379/281 271/408/228
f 198/409/199 70/412/49 220/341/226 219/410/205
f 194/411/198 66/414/47 70/412/49 198/409/199
f 196/413/202 67/416/48 66/414/47 194/411/198
f 204/415/204 75/418/54 67/416/48 196/413/202
f 210/417/212 80/420/59 75/418/54 204/415/204
f 212/419/218 81/422/60 80/420/59 210/417/212
f 216/421/220 84/424/63 81/422/60 212/419/218
f 238/167/224 237/423/244 84/424/63 216/421/220
f 290/425/248 289/426/291 236/389/245 240/427/246
f 252/428/251 60/430/72 276/348/286 280/207/266
f 242/429/250 45/432/65 60/430/72 252/428/251
f 244/431/254 46/434/66 45/432/65 242/429/250
f 254/433/256 55/436/73 46/434/66 244/431/254
f 258/435/268 49/438/77 55/436/73 254/433/256
f 260/437/272 52/440/78 49/438/77 258/435/268
f 266/439/274 61/443/82 52/440/78 260/437/272
f 281/441/279 285/442/288 61/443/82 266/439/274
f 229/158/237 233/444/239 284/386/287 283/445/240
f 214/446/215 82/449/62 232/345/238 231/447/221
f 208/448/213 77/451/57 82/449/62 214/446/215
f 206/450/209 76/453/58 77/451/57 208/448/213
f 202/452/195 73/455/53 76/453/58 206/450/209
f 192/454/191 65/457/45 73/455/53 202/452/195
f 190/456/190 64/459/46 65/457/45 192/454/191
f 200/458/194 72/461/51 64/459/46 190/456/190
f 226/155/208 225/460/232 72/461/51 200/458/194
f 278/462/236 277/463/285 224/382/233 228/464/234
s 1
f 85/23/85 86/24/89 87/465/86
f 90/30/96 91/31/100 92/466/97
f 95/37/107 96/39/111 97/467/108
f 100/46/118 101/48/122 102/468/119
f 165/239/161 166/83/99 167/102/98
f 174/107/88 175/85/87 176/108/162
f 177/247/175 178/99/121 179/109/120
f 186/116/110 187/101/109 188/117/176
s 4
f 217/150/225 218/378/206 219/469/205
f 226/131/208 227/157/207 228/464/234
f 229/161/237 230/385/222 231/470/221
f 238/146/224 239/169/223 240/427/246
f 269/182/265 270/181/229 271/471/228
f 278/462/236 279/184/235 280/472/266
f 281/199/279 282/198/241 283/473/240
f 290/425/248 291/201/247 292/474/280
