# This file uses centimeters as units for non-parametric coordinates.

mtllib PictureFrame2 lowpoly.mtl
g default
v -47.776201 -47.873389 -1.644595
v 47.776185 -47.873389 -1.644595
v 47.776185 47.873399 -1.644595
v -47.776201 47.873399 -1.644595
vt 0.947597 0.079764
vt 0.947597 0.981393
vt 0.047799 0.981393
vt 0.047799 0.079764
vn -0.000000 0.000000 1.000000
vn -0.000000 0.000000 1.000000
vn -0.000000 0.000000 1.000000
vn -0.000000 0.000000 1.000000
s off
g PictureFrame_lowpoly1 PictureFrame_lowpoly PROP_____Picture_Frame_Var_2 High_Fidelity_Group
usemtl initialShadingGroup
f 2/1/1 3/2/2 4/3/3 1/4/4
g default
v 58.945947 -58.687043 0.540178
v 58.945947 58.687043 0.540178
v -58.945947 58.687043 0.540178
v -58.945947 -58.687043 0.540178
v -47.776201 -47.873389 0.074497
v 47.776185 -47.873389 0.074497
v 47.776185 47.873399 0.074497
v -47.776201 47.873399 0.074497
v -54.044235 -54.082457 1.592382
v -54.044235 54.082519 1.592382
v 54.044219 54.082519 1.592382
v 54.044219 -54.082457 1.592382
v -55.413949 -55.369181 1.592382
v -55.413949 55.369239 1.592382
v 55.413955 55.369239 1.592382
v 55.413955 -55.369181 1.592382
v -54.318223 -54.339827 2.082214
v -54.729092 -54.725819 2.275241
v -55.139962 -55.111792 2.082214
v -55.139962 55.111874 2.082214
v -54.729092 54.725877 2.275241
v -54.318223 54.339894 2.082214
v 55.139945 55.111874 2.082214
v 54.729081 54.725877 2.275241
v 54.318190 54.339894 2.082214
v 55.139945 -55.111792 2.082214
v 54.729081 -54.725819 2.275241
v 54.318190 -54.339827 2.082214
v -56.692160 -56.483244 0.953450
v -56.692160 56.483249 0.953450
v 56.692154 56.483249 0.953450
v 56.692154 -56.483244 0.953450
v 58.945947 -58.687043 -2.378054
v 58.945947 58.687043 -2.378054
v -58.945947 58.687043 -2.378054
v -58.945947 -58.687043 -2.378054
v -47.776201 -47.873389 -2.378054
v 47.776185 -47.873389 -2.378054
v 47.776185 47.873399 -2.378054
v -47.776201 47.873399 -2.378054
vt 0.490977 0.014723
vt 0.698951 0.014723
vt 0.699592 0.022235
vt 0.491119 0.022235
vt 0.991043 0.014723
vt 0.985446 0.022235
vt 0.288874 0.014723
vt 0.288075 0.022234
vt 0.286897 0.033179
vt 0.491561 0.033179
vt 0.491783 0.054281
vt 0.285188 0.054281
vt 0.979214 0.033179
vt 0.035303 0.054281
vt 0.699928 0.033179
vt 0.701627 0.054281
vt 0.491437 0.028479
vt 0.491487 0.029945
vt 0.287150 0.029945
vt 0.287312 0.028478
vt 0.491536 0.031409
vt 0.286989 0.031409
vt 0.287407 0.026710
vt 0.491413 0.026710
vt 0.982580 0.026710
vt 0.981906 0.028479
vt 0.699660 0.026710
vt 0.699719 0.028479
vt 0.018581 0.031409
vt 0.699871 0.031409
vt 0.980905 0.029945
vt 0.699795 0.029945
vt 0.698976 0.006011
vt 0.991094 0.006011
vt 0.288849 0.006010
vt 0.490979 0.006011
vt 0.701638 0.061533
vt 0.491784 0.061533
vt 0.035282 0.061534
vt 0.285171 0.061534
vt 0.007185 0.006011
vt 0.962639 0.061534
vt 0.962622 0.054281
vt 0.007212 0.014723
vt 0.012694 0.022235
vt 0.015842 0.026710
vt 0.019273 0.033179
vt 0.979897 0.031409
vt 0.016529 0.028479
vt 0.017554 0.029945
vn -0.624329 -0.632579 0.458319
vn 0.624329 -0.632579 0.458320
vn 0.123853 -0.120814 0.984918
vn -0.123853 -0.120814 0.984918
vn 0.624329 0.632578 0.458321
vn 0.123854 0.120813 0.984918
vn -0.624329 0.632579 0.458320
vn -0.123855 0.120813 0.984918
vn 0.179421 -0.192749 0.964705
vn 0.179422 0.192750 0.964705
vn 0.236799 0.230768 0.943754
vn 0.236798 -0.230767 0.943755
vn -0.179421 -0.192750 0.964705
vn -0.236798 -0.230767 0.943755
vn -0.179423 0.192750 0.964705
vn -0.236799 0.230768 0.943754
vn -0.467035 -0.467709 0.750418
vn -0.098228 -0.090367 0.991052
vn -0.098228 0.090364 0.991053
vn -0.467034 0.467717 0.750414
vn 0.372051 0.371552 0.850604
vn 0.372051 -0.371554 0.850603
vn -0.308916 0.310905 0.898838
vn -0.308910 -0.310897 0.898842
vn 0.308917 0.310903 0.898838
vn 0.467026 0.467713 0.750421
vn 0.308911 -0.310895 0.898843
vn 0.467027 -0.467705 0.750425
vn -0.372045 -0.371553 0.850606
vn -0.372045 0.371552 0.850607
vn 0.098228 0.090366 0.991053
vn 0.098228 -0.090368 0.991052
vn 0.705547 -0.708663 0.000000
vn 0.705547 0.708663 0.000000
vn -0.705547 0.708663 -0.000000
vn -0.705547 -0.708663 -0.000000
vn -0.707824 0.706388 -0.000000
vn 0.707824 0.706388 0.000000
vn -0.707824 -0.706388 -0.000000
vn 0.707824 -0.706388 0.000000
s 1
g PictureFrame_lowpoly PROP_____Picture_Frame_Var_2 High_Fidelity_Group PictureFrame_lowpoly
usemtl initialShadingGroup
f 8/5/5 5/6/6 36/7/7 33/8/8
f 5/6/6 6/9/9 35/10/10 36/7/7
f 6/48/9 7/11/11 34/12/12 35/49/10
f 7/11/11 8/5/5 33/8/8 34/12/12
f 14/13/13 13/14/14 9/15/15 12/16/16
f 15/51/17 14/13/13 12/16/16 11/18/18
f 16/19/19 15/17/17 11/47/18 10/20/20
f 13/14/14 16/19/19 10/20/20 9/15/15
f 23/21/21 22/22/22 25/23/23 24/24/24
f 22/22/22 21/25/25 26/26/26 25/23/23
f 18/27/27 17/28/28 23/21/21 24/24/24
f 19/50/29 18/27/27 24/24/24 27/53/30
f 20/31/31 19/29/29 27/30/30 30/32/32
f 17/28/28 20/31/31 30/32/32 23/21/21
f 26/26/26 21/25/25 13/14/14 14/13/13
f 29/33/33 26/26/26 14/13/13 15/51/17
f 32/34/34 29/52/33 15/17/17 16/19/19
f 21/25/25 32/34/34 16/19/19 13/14/14
f 24/24/24 25/23/23 28/54/35 27/53/30
f 25/23/23 26/26/26 29/33/33 28/54/35
f 27/30/30 28/35/35 31/36/36 30/32/32
f 28/35/35 29/52/33 32/34/34 31/36/36
f 21/25/25 22/22/22 31/36/36 32/34/34
f 22/22/22 23/21/21 30/32/32 31/36/36
f 34/12/12 33/8/8 17/28/28 18/27/27
f 35/49/10 34/12/12 18/27/27 19/50/29
f 36/7/7 35/10/10 19/29/29 20/31/31
f 33/8/8 36/7/7 20/31/31 17/28/28
f 6/9/9 5/6/6 37/37/37 38/38/38
f 7/11/11 6/48/9 38/45/38 39/39/39
f 8/5/5 7/11/11 39/39/39 40/40/40
f 5/6/6 8/5/5 40/40/40 37/37/37
f 9/15/15 10/20/20 42/41/41 41/42/42
f 10/20/20 11/47/18 43/46/43 42/41/41
f 11/18/18 12/16/16 44/44/44 43/43/43
f 12/16/16 9/15/15 41/42/42 44/44/44
