# This file uses centimeters as units for non-parametric coordinates.

mtllib PictureFrame4 lowpoly.mtl
g default
v 38.240755 13.037341 0.663228
v 34.285709 25.186249 0.663228
v 27.994191 35.618726 0.663228
v 19.794878 43.623860 0.663228
v 10.246573 48.656123 0.663228
v 0.000021 50.372522 0.663228
v -10.246594 48.656123 0.663228
v -19.794831 43.623860 0.663228
v -27.994164 35.618726 0.663228
v -34.285736 25.186249 0.663228
v -38.240742 13.037354 0.663228
v -39.589757 -0.000020 0.663228
v -38.240742 -13.037383 0.663228
v -34.285736 -25.186274 0.663228
v -27.994164 -35.618749 0.663228
v -19.794872 -43.623908 0.663228
v -10.246594 -48.656143 0.663228
v 0.000021 -50.372542 0.663228
v 10.246573 -48.656143 0.663228
v 19.794878 -43.623908 0.663228
v 27.994191 -35.618801 0.663228
v 34.285709 -25.186288 0.663228
v 38.240755 -13.037396 0.663228
v 39.589767 -0.000020 0.663228
v 0.000006 -0.000017 0.663228
vt 0.895675 0.631322
vt 0.865999 0.744144
vt 0.540238 0.532548
vt 0.814122 0.842547
vt 0.743581 0.919823
vt 0.659182 0.970708
vt 0.566678 0.991733
vt 0.472371 0.981465
vt 0.382691 0.940603
vt 0.303746 0.871934
vt 0.240917 0.780136
vt 0.198488 0.671466
vt 0.179347 0.553328
vt 0.184801 0.433775
vt 0.214478 0.320952
vt 0.266354 0.222550
vt 0.336895 0.145273
vt 0.421294 0.094388
vt 0.513799 0.073364
vt 0.608105 0.083632
vt 0.697786 0.124493
vt 0.776731 0.193162
vt 0.839559 0.284960
vt 0.881989 0.393631
vt 0.901129 0.511768
vn 0.000000 -0.000000 1.000000
vn 0.000000 -0.000000 1.000000
vn 0.000000 0.000000 1.000000
vn 0.000000 -0.000000 1.000000
vn 0.000000 -0.000000 1.000000
vn 0.000000 -0.000000 1.000000
vn 0.000000 0.000000 1.000000
vn 0.000000 0.000000 1.000000
vn 0.000000 -0.000000 1.000000
vn 0.000000 0.000000 1.000000
vn 0.000000 0.000000 1.000000
vn 0.000000 -0.000000 1.000000
vn 0.000000 -0.000000 1.000000
vn 0.000000 -0.000000 1.000000
vn 0.000000 -0.000000 1.000000
vn 0.000000 -0.000000 1.000000
vn 0.000000 0.000000 1.000000
vn 0.000000 0.000000 1.000000
vn 0.000000 -0.000000 1.000000
vn 0.000000 0.000000 1.000000
vn 0.000000 0.000000 1.000000
vn 0.000000 0.000000 1.000000
vn 0.000000 0.000000 1.000000
vn 0.000000 -0.000000 1.000000
vn 0.000000 -0.000000 1.000000
s 1
g Pictureframe4_lowpoly1 PictureFrame4_lowpoly PROP_____PictureFrame_Var_4 High_Fidelity_Group
usemtl initialShadingGroup
f 1/1/1 2/2/2 25/3/3
f 2/2/2 3/4/4 25/3/3
f 3/4/4 4/5/5 25/3/3
f 4/5/5 5/6/6 25/3/3
f 5/6/6 6/7/7 25/3/3
f 6/7/7 7/8/8 25/3/3
f 7/8/8 8/9/9 25/3/3
f 8/9/9 9/10/10 25/3/3
f 9/10/10 10/11/11 25/3/3
f 10/11/11 11/12/12 25/3/3
f 11/12/12 12/13/13 25/3/3
f 12/13/13 13/14/14 25/3/3
f 13/14/14 14/15/15 25/3/3
f 14/15/15 15/16/16 25/3/3
f 15/16/16 16/17/17 25/3/3
f 16/17/17 17/18/18 25/3/3
f 17/18/18 18/19/19 25/3/3
f 18/19/19 19/20/20 25/3/3
f 19/20/20 20/21/21 25/3/3
f 20/21/21 21/22/22 25/3/3
f 21/22/22 22/23/23 25/3/3
f 22/23/23 23/24/24 25/3/3
f 23/24/24 24/25/25 25/3/3
f 24/25/25 1/1/1 25/3/3
g default
v 43.270552 14.752147 -2.563971
v 38.795282 28.498998 -2.563971
v 31.676263 40.303633 -2.563971
v 22.398492 49.361658 -2.563971
v 11.594294 55.055831 -2.563971
v 0.000021 56.997996 -2.563971
v -11.594315 55.055831 -2.563971
v -22.398447 49.361658 -2.563971
v -31.676221 40.303633 -2.563971
v -38.795311 28.498998 -2.563971
v -43.270517 14.752154 -2.563971
v -44.796983 -0.000020 -2.563971
v -43.270536 -14.752187 -2.563971
v -38.795311 -28.499018 -2.563971
v -31.676221 -40.303657 -2.563971
v -22.398513 -49.361730 -2.563971
v -11.594315 -55.055834 -2.563971
v 0.000021 -56.997989 -2.563971
v 11.594294 -55.055834 -2.563971
v 22.398492 -49.361730 -2.563971
v 31.676263 -40.303694 -2.563971
v 38.795301 -28.499018 -2.563971
v 43.270552 -14.752201 -2.563971
v 44.796983 -0.000020 -2.563971
v 37.502763 12.785736 -2.563971
v 33.624043 24.700191 -2.563971
v 27.453944 34.931322 -2.563971
v 19.412865 42.781981 -2.563971
v 10.048830 47.717128 -2.563971
v 0.000021 49.400405 -2.563971
v -10.048848 47.717128 -2.563971
v -19.412819 42.781981 -2.563971
v -27.453920 34.931322 -2.563971
v -33.624070 24.700191 -2.563971
v -37.502755 12.785747 -2.563971
v -38.825729 -0.000020 -2.563971
v -37.502755 -12.785775 -2.563971
v -33.624070 -24.700208 -2.563971
v -27.453920 -34.931346 -2.563971
v -19.412859 -42.782012 -2.563971
v -10.048848 -47.717131 -2.563971
v 0.000021 -49.400408 -2.563971
v 10.048830 -47.717131 -2.563971
v 19.412865 -42.782012 -2.563971
v 27.453944 -34.931404 -2.563971
v 33.624043 -24.700220 -2.563971
v 37.502763 -12.785791 -2.563971
v 38.825743 -0.000020 -2.563971
v 43.270536 14.752147 2.138105
v 38.795239 28.498998 2.138106
v 31.676263 40.303633 2.138104
v 22.398492 49.361658 2.138104
v 11.594294 55.055831 2.138104
v 0.000021 56.997996 2.138104
v -11.594315 55.055831 2.138104
v -22.398447 49.361658 2.138104
v -31.676221 40.303633 2.138104
v -38.795293 28.498998 2.138105
v -43.270517 14.752154 2.138104
v -44.796983 -0.000020 2.138104
v -43.270536 -14.752187 2.138104
v -38.795293 -28.499018 2.138105
v -31.676221 -40.303657 2.138104
v -22.398513 -49.361730 2.138104
v -11.594315 -55.055834 2.138104
v 0.000021 -56.997989 2.138104
v 11.594294 -55.055834 2.138104
v 22.398492 -49.361730 2.138104
v 31.676263 -40.303694 2.138104
v 38.795301 -28.499018 2.138104
v 43.270552 -14.752201 2.138104
v 44.796983 -0.000020 2.138104
v 33.624025 24.700191 1.943033
v 37.502744 12.785736 1.943032
v 27.453944 34.931322 1.943033
v 19.412865 42.781981 1.943033
v 10.048830 47.717128 1.943033
v 0.000021 49.400405 1.943033
v -10.048848 47.717128 1.943033
v -19.412819 42.781981 1.943033
v -27.453920 34.931322 1.943033
v -33.624051 24.700191 1.943032
v -37.502755 12.785747 1.943033
v -38.825729 -0.000020 1.943033
v -37.502755 -12.785775 1.943033
v -33.624051 -24.700208 1.943032
v -27.453920 -34.931346 1.943033
v -19.412859 -42.782012 1.943033
v -10.048848 -47.717131 1.943033
v 0.000021 -49.400408 1.943033
v 10.048830 -47.717131 1.943033
v 19.412865 -42.782012 1.943033
v 27.453944 -34.931404 1.943033
v 33.624043 -24.700220 1.943033
v 37.502763 -12.785791 1.943033
v 38.825743 -0.000020 1.943033
v -17.199078 52.831373 -2.563971
v -17.199078 52.831373 2.138104
v -14.906512 45.789194 1.943033
v -14.906512 45.789194 -2.563971
v -5.834813 56.584542 -2.563971
v -5.834813 56.584542 2.138104
v -5.057058 49.042063 1.943033
v -5.057058 49.042063 -2.563971
v 5.873466 56.597540 -2.563971
v 5.873466 56.597540 2.138104
v 5.090562 49.053335 1.943033
v 5.090562 49.053335 -2.563971
v 17.185637 52.731542 -2.563971
v 17.185637 52.731542 2.138104
v 14.894868 45.702674 1.943033
v 14.894868 45.702674 -2.563971
v 27.326724 45.275808 -2.563971
v 27.326726 45.275811 2.138104
v 23.684178 39.240752 1.943033
v 23.684178 39.240752 -2.563971
v 35.605352 34.734028 -2.563971
v 35.605325 34.734018 2.138105
v 30.859301 30.104122 1.943033
v 30.859312 30.104122 -2.563971
v 41.457594 21.825251 -2.563971
v 41.457559 21.825250 2.138105
v 35.931447 18.916024 1.943032
v 35.931471 18.916024 -2.563971
v 44.484594 7.429087 -2.563971
v 44.484586 7.429087 2.138104
v 38.554975 6.438813 1.943033
v 38.554991 6.438813 -2.563971
v 44.480020 -7.473358 -2.563971
v 44.480020 -7.473358 2.138104
v 38.551023 -6.477191 1.943033
v 38.551023 -6.477191 -2.563971
v 41.444184 -21.866490 -2.563971
v 41.444184 -21.866490 2.138104
v 35.919840 -18.951778 1.943033
v 35.919840 -18.951778 -2.563971
v 35.584031 -34.769469 -2.563971
v 35.584031 -34.769469 2.138104
v 30.840824 -30.134855 1.943033
v 30.840824 -30.134855 -2.563971
v 27.298883 -45.302969 -2.563971
v 27.298883 -45.302969 2.138104
v 23.660051 -39.264275 1.943033
v 23.660051 -39.264275 -2.563971
v 17.153327 -52.749123 -2.563971
v 17.153327 -52.749123 2.138104
v 14.866861 -45.717891 1.943033
v 14.866861 -45.717891 -2.563971
v 5.838830 -56.600520 -2.563971
v 5.838830 -56.600520 2.138104
v 5.060543 -49.055917 1.943033
v 5.060543 -49.055917 -2.563971
v -5.873575 -56.594700 -2.563971
v -5.873575 -56.594700 2.138104
v -5.090656 -49.050883 1.943033
v -5.090656 -49.050883 -2.563971
v -17.185738 -52.732065 -2.563971
v -17.185738 -52.732065 2.138104
v -14.894943 -45.703095 1.943033
v -14.894943 -45.703095 -2.563971
v -27.326678 -45.275791 -2.563971
v -27.326681 -45.275791 2.138104
v -23.684138 -39.240715 1.943033
v -23.684138 -39.240715 -2.563971
v -35.605354 -34.734062 -2.563971
v -35.605344 -34.734062 2.138104
v -30.859312 -30.104146 1.943033
v -30.859320 -30.104150 -2.563971
v -41.457604 -21.825280 -2.563971
v -41.457594 -21.825279 2.138104
v -35.931473 -18.916053 1.943033
v -35.931481 -18.916053 -2.563971
v -44.484588 -7.429126 -2.563971
v -44.484594 -7.429126 2.138104
v -38.554975 -6.438853 1.943033
v -38.554970 -6.438853 -2.563971
v -44.480001 7.473311 -2.563971
v -44.480001 7.473311 2.138104
v -38.551007 6.477146 1.943033
v -38.551007 6.477146 -2.563971
v -41.444176 21.866461 -2.563971
v -41.444166 21.866460 2.138104
v -35.919842 18.951748 1.943033
v -35.919853 18.951748 -2.563971
v -35.584023 34.769432 -2.563971
v -35.584012 34.769432 2.138104
v -30.840816 30.134804 1.943033
v -30.840827 30.134804 -2.563971
v -27.259651 45.196398 -2.563971
v -27.259651 45.196398 2.138104
v -23.626052 39.171922 1.943033
v -23.626052 39.171922 -2.563971
v -21.980507 48.440603 2.378420
v -16.878155 51.845582 2.378420
v -11.377973 54.028524 2.378420
v -5.725940 55.528714 2.378420
v 0.000021 55.934453 2.378420
v 5.763872 55.541471 2.378420
v 11.377953 54.028524 2.378420
v 16.864966 51.747619 2.378420
v 21.980552 48.440603 2.378420
v 26.816829 44.431006 2.378420
v 31.085205 39.551596 2.378420
v 34.940957 34.085909 2.378421
v 38.071352 27.967223 2.378422
v 40.683996 21.418005 2.378421
v 42.463140 14.476880 2.378421
v 43.654535 7.290464 2.378420
v 43.961103 -0.000020 2.378420
v 43.650057 -7.333911 2.378420
v 42.463151 -14.476934 2.378420
v 40.670862 -21.458475 2.378420
v 38.071405 -27.967242 2.378420
v 34.920052 -34.120705 2.378420
v 31.085205 -39.551661 2.378420
v 26.789506 -44.457651 2.378420
v 21.980552 -48.440675 2.378420
v 16.833258 -51.764864 2.378420
v 11.377953 -54.028530 2.378420
v 5.729883 -55.544396 2.378420
v 0.000021 -55.934449 2.378420
v -5.763979 -55.538689 2.378420
v -11.377973 -54.028530 2.378420
v -16.865065 -51.748122 2.378420
v -21.980569 -48.440675 2.378420
v -26.816784 -44.430972 2.378420
v -31.085168 -39.551616 2.378420
v -34.940975 -34.085943 2.378420
v -38.071405 -27.967240 2.378421
v -40.684026 -21.418033 2.378420
v -42.463143 -14.476921 2.378420
v -43.654543 -7.290504 2.378420
v -43.961103 -0.000020 2.378420
v -43.650035 7.333862 2.378420
v -42.463124 14.476887 2.378420
v -40.670849 21.458450 2.378420
v -38.071405 27.967223 2.378421
v -34.920044 34.120657 2.378420
v -31.085168 39.551596 2.378420
v -26.751008 44.353068 2.378420
v 37.114377 27.264230 2.246875
v 34.062673 33.229118 2.246874
v 30.303836 38.557413 2.246874
v 26.142750 43.314165 2.246874
v 21.428039 47.222994 2.246874
v 16.441042 50.446870 2.246874
v 11.091954 52.670454 2.246874
v 5.618990 54.145365 2.246874
v 0.000021 54.528467 2.246874
v -5.582011 54.132924 2.246874
v -11.091973 52.670454 2.246874
v -16.453901 50.542376 2.246874
v -21.427997 47.222994 2.246874
v -26.078584 43.238204 2.246874
v -30.303801 38.557413 2.246874
v -34.042278 33.262983 2.246874
v -37.114430 27.264230 2.246874
v -39.648534 20.919063 2.246874
v -41.395756 14.112990 2.246874
v -42.552835 7.149516 2.246874
v -42.856084 -0.000020 2.246874
v -42.557224 -7.107247 2.246874
v -41.395772 -14.113022 2.246874
v -39.661377 -20.879663 2.246874
v -37.114430 -27.264247 2.246874
v -34.062691 -33.229152 2.246874
v -30.303801 -38.557434 2.246874
v -26.142707 -43.314142 2.246874
v -21.428051 -47.223059 2.246874
v -16.441138 -50.447362 2.246874
v -11.091973 -52.670458 2.246874
v -5.619094 -54.142651 2.246874
v 0.000021 -54.528464 2.246874
v 5.585855 -54.148216 2.246874
v 11.091954 -52.670458 2.246874
v 16.410130 -50.463683 2.246874
v 21.428039 -47.223059 2.246874
v 26.116115 -43.340148 2.246874
v 30.303836 -38.557478 2.246874
v 34.042294 -33.263031 2.246874
v 37.114430 -27.264249 2.246874
v 39.648542 -20.919087 2.246874
v 41.395781 -14.113037 2.246874
v 42.552859 -7.149563 2.246874
v 42.856084 -0.000020 2.246874
v 42.557222 7.107208 2.246874
v 41.395764 14.112983 2.246874
v 39.661348 20.879632 2.246874
v -19.943394 44.014766 2.221273
v -15.313564 47.104253 2.222148
v -10.323360 49.084737 2.222463
v -5.194349 50.446054 2.222741
v 0.000180 50.814137 2.222745
v 5.228820 50.457646 2.222745
v 10.322201 49.085080 2.222458
v 15.301556 47.015260 2.222078
v 19.944906 44.013676 2.221329
v 24.336106 40.373190 2.220708
v 28.212639 35.941958 2.219748
v 31.715359 30.976925 2.219079
v 34.559673 25.417765 2.218182
v 36.933939 19.466328 2.217637
v 38.550954 13.158163 2.217015
v 39.633883 6.626458 2.216714
v 39.912567 0.000001 2.216494
v 39.629803 -6.665980 2.216716
v 38.550978 -13.158174 2.217016
v 36.921990 -19.503147 2.217640
v 34.559727 -25.417739 2.218184
v 31.696340 -31.008568 2.219082
v 28.212671 -35.941992 2.219750
v 24.311269 -40.397413 2.220711
v 19.944950 -44.013689 2.221331
v 15.272742 -47.030928 2.222081
v 10.322295 -49.085050 2.222459
v 5.197937 -50.460310 2.222745
v 0.000056 -50.814143 2.222745
v -5.228916 -50.455129 2.222745
v -10.322249 -49.085073 2.222459
v -15.301641 -47.015708 2.222079
v -19.944909 -44.013723 2.221329
v -24.336066 -40.373160 2.220708
v -28.212610 -35.941975 2.219748
v -31.715370 -30.976959 2.219079
v -34.559711 -25.417780 2.218182
v -36.933966 -19.466357 2.217637
v -38.550959 -13.158203 2.217015
v -39.633878 -6.626495 2.216714
v -39.912559 -0.000041 2.216494
v -39.629787 6.665935 2.216716
v -38.550959 13.158130 2.217016
v -36.921985 19.503118 2.217640
v -34.559729 25.417721 2.218184
v -31.696327 31.008520 2.219082
v -28.213152 35.941167 2.219821
v -24.276253 40.302372 2.220592
v -20.131739 44.421782 2.224521
v -24.504908 40.674830 2.223926
v -28.478387 36.273081 2.223253
v -31.993947 31.294536 2.222608
v -34.883835 25.651980 2.221824
v -37.267892 19.682753 2.221349
v -38.911867 13.279269 2.220804
v -40.000622 6.727284 2.220542
v -40.285995 -0.000039 2.220348
v -40.004753 -6.687486 2.220541
v -38.911870 -13.279337 2.220804
v -37.279982 -19.645659 2.221346
v -34.883819 -25.652034 2.221822
v -32.013164 -31.262686 2.222605
v -28.477912 -36.273787 2.223190
v -24.565268 -40.746273 2.224028
v -20.133069 -44.420879 2.224570
v -15.446205 -47.451068 2.225225
v -10.419901 -49.539938 2.225556
v -5.278417 -50.922950 2.225806
v 0.000051 -51.285366 2.225806
v 5.247151 -50.928182 2.225807
v 10.419939 -49.539917 2.225557
v 15.417038 -47.466428 2.225227
v 20.133104 -44.420851 2.224572
v 24.540244 -40.770748 2.224030
v 28.477968 -36.273808 2.223192
v 31.993961 -31.294584 2.222608
v 34.883832 -25.652000 2.221824
v 37.267897 -19.682782 2.221349
v 38.911888 -13.279313 2.220804
v 40.000638 -6.727330 2.220542
v 40.286001 -0.000001 2.220348
v 40.004758 6.687448 2.220541
v 38.911864 13.279297 2.220804
v 37.279955 19.645629 2.221346
v 34.883779 25.652019 2.221822
v 32.013154 31.262652 2.222606
v 28.477941 36.273770 2.223190
v 24.565308 40.746300 2.224028
v 20.133065 44.420831 2.224570
v 15.446118 47.450616 2.225225
v 10.419857 49.539944 2.225556
v 5.278319 50.925495 2.225806
v 0.000160 51.285359 2.225806
v -5.243531 50.913794 2.225803
v -10.420870 49.539645 2.225560
v -15.458234 47.540432 2.225285
v -20.037566 44.218274 2.295543
v -24.390579 40.488601 2.294905
v -28.345768 36.107124 2.294183
v -31.845137 31.151528 2.293491
v -34.721783 25.534849 2.292650
v -37.094938 19.592936 2.292141
v -38.731413 13.218699 2.291556
v -39.815205 6.696610 2.291275
v -40.099277 -0.000040 2.291067
v -39.819314 -6.656991 2.291273
v -38.731416 -13.218770 2.291555
v -37.106975 -19.556008 2.292138
v -34.721765 -25.534907 2.292648
v -31.864266 -31.119821 2.293488
v -28.345261 -36.107881 2.294115
v -24.450667 -40.559718 2.295014
v -20.038989 -44.217303 2.295595
v -15.373923 -47.233386 2.296298
v -10.371076 -49.312506 2.296654
v -5.253666 -50.689039 2.296921
v 0.000053 -51.049756 2.296922
v 5.222544 -50.694244 2.296922
v 10.371117 -49.312482 2.296654
v 15.344891 -47.248678 2.296300
v 20.039026 -44.217269 2.295597
v 24.425755 -40.584081 2.295016
v 28.345319 -36.107902 2.294117
v 31.845150 -31.151576 2.293491
v 34.721778 -25.534870 2.292650
v 37.094944 -19.592965 2.292141
v 38.731432 -13.218744 2.291556
v 39.815221 -6.696655 2.291275
v 40.099285 0.000000 2.291067
v 39.819319 6.656953 2.291273
v 38.731410 13.218730 2.291555
v 37.106948 19.555979 2.292138
v 34.721725 25.534892 2.292648
v 31.864255 31.119787 2.293489
v 28.345290 36.107864 2.294115
v 24.450707 40.559745 2.295014
v 20.038986 44.217255 2.295595
v 15.373837 47.232938 2.296298
v 10.371029 49.312512 2.296653
v 5.253570 50.691570 2.296922
v 0.000170 51.049749 2.296922
v -5.218940 50.679924 2.296918
v -10.372116 49.312190 2.296658
v -15.385898 47.322343 2.296363
v -21.445610 47.261809 2.326458
v -16.467425 50.583922 2.326458
v -11.101090 52.713750 2.326458
v -5.586599 54.177423 2.326458
v 0.000021 54.573288 2.326458
v 5.623608 54.189870 2.326458
v 11.101072 52.713750 2.326458
v 16.454557 50.488338 2.326458
v 21.445653 47.261809 2.326458
v 26.164239 43.349770 2.326458
v 30.328745 38.589107 2.326458
v 34.090671 33.256433 2.326459
v 37.144883 27.286639 2.326459
v 39.693947 20.896794 2.326459
v 41.429790 14.124584 2.326458
v 42.592203 7.113050 2.326458
v 42.891311 -0.000020 2.326458
v 42.587837 -7.155439 2.326458
v 41.429806 -14.124637 2.326458
v 39.681133 -20.936281 2.326458
v 37.144936 -27.286659 2.326458
v 34.070274 -33.290372 2.326458
v 30.328745 -38.589172 2.326458
v 26.137583 -43.375773 2.326458
v 21.445653 -47.261873 2.326458
v 16.423618 -50.505165 2.326458
v 11.101072 -52.713753 2.326458
v 5.590447 -54.192724 2.326458
v 0.000021 -54.573285 2.326458
v -5.623713 -54.187153 2.326458
v -11.101090 -52.713753 2.326458
v -16.454653 -50.488827 2.326458
v -21.445665 -47.261873 2.326458
v -26.164196 -43.349746 2.326458
v -30.328710 -38.589127 2.326458
v -34.090690 -33.256464 2.326458
v -37.144939 -27.286658 2.326459
v -39.693976 -20.896824 2.326458
v -41.429800 -14.124623 2.326458
v -42.592205 -7.113089 2.326458
v -42.891311 -0.000020 2.326458
v -42.587813 7.155393 2.326458
v -41.429782 14.124590 2.326458
v -39.681125 20.936259 2.326458
v -37.144939 27.286641 2.326459
v -34.070261 33.290325 2.326458
v -30.328710 38.589107 2.326458
v -26.100020 43.273744 2.326458
v -21.605555 47.614290 2.238421
v -16.590241 50.961181 2.238421
v -11.183883 53.106891 2.238421
v -5.628264 54.581483 2.238421
v 0.000021 54.980301 2.238421
v 5.665550 54.594026 2.238421
v 11.183865 53.106891 2.238421
v 16.577276 50.864886 2.238421
v 21.605598 47.614290 2.238421
v 26.359376 43.673082 2.238421
v 30.554941 38.876910 2.238421
v 34.344922 33.504460 2.238420
v 37.421912 27.490145 2.238421
v 39.989987 21.052645 2.238420
v 41.738780 14.229927 2.238421
v 42.909857 7.166100 2.238421
v 43.211198 -0.000020 2.238421
v 42.905462 -7.208805 2.238421
v 41.738793 -14.229980 2.238421
v 39.977080 -21.092427 2.238421
v 37.421968 -27.490166 2.238421
v 34.324373 -33.538657 2.238421
v 30.554941 -38.876971 2.238421
v 26.332520 -43.699275 2.238421
v 21.605598 -47.614355 2.238421
v 16.546108 -50.881836 2.238421
v 11.183865 -53.106894 2.238421
v 5.632141 -54.596900 2.238421
v 0.000021 -54.980297 2.238421
v -5.665655 -54.591287 2.238421
v -11.183883 -53.106894 2.238421
v -16.577374 -50.865375 2.238421
v -21.605611 -47.614355 2.238421
v -26.359330 -43.673054 2.238421
v -30.554903 -38.876930 2.238421
v -34.344940 -33.504494 2.238421
v -37.421968 -27.490164 2.238420
v -39.990019 -21.052674 2.238421
v -41.738791 -14.229967 2.238421
v -42.909863 -7.166139 2.238421
v -43.211195 -0.000020 2.238421
v -42.905436 7.208758 2.238421
v -41.738769 14.229934 2.238421
v -39.977069 21.092404 2.238421
v -37.421968 27.490145 2.238420
v -34.324359 33.538610 2.238421
v -30.554903 38.876910 2.238421
v -26.294676 43.596482 2.238421
v -21.292095 46.929310 2.238420
v -25.913596 42.969453 2.238420
v -30.112421 38.317917 2.238420
v -33.827527 33.056608 2.238420
v -36.880571 27.095198 2.238420
v -39.398943 20.789448 2.238420
v -41.135341 14.025581 2.238420
v -42.285258 7.105249 2.238420
v -42.586630 -0.000022 2.238420
v -42.289618 -7.063239 2.238420
v -41.135357 -14.025617 2.238420
v -39.411706 -20.750288 2.238420
v -36.880569 -27.095221 2.238420
v -33.847814 -33.022984 2.238420
v -30.112370 -38.318012 2.238420
v -25.977323 -43.044919 2.238420
v -21.292282 -46.929273 2.238420
v -16.336828 -50.133223 2.238420
v -11.021511 -52.342250 2.238420
v -5.583377 -53.805090 2.238420
v 0.000024 -54.188450 2.238420
v 5.550345 -53.810621 2.238420
v 11.021499 -52.342247 2.238420
v 16.306012 -50.149446 2.238420
v 21.292275 -46.929269 2.238420
v 25.950897 -43.070769 2.238420
v 30.112408 -38.318053 2.238420
v 33.827543 -33.056655 2.238420
v 36.880569 -27.095217 2.238420
v 39.398951 -20.789470 2.238420
v 41.135365 -14.025627 2.238420
v 42.285279 -7.105295 2.238420
v 42.586633 -0.000018 2.238420
v 42.289618 7.063200 2.238420
v 41.135346 14.025578 2.238420
v 39.411676 20.750256 2.238420
v 36.880515 27.095202 2.238420
v 33.847798 33.022950 2.238420
v 30.112405 38.317992 2.238420
v 25.977368 43.044946 2.238420
v 21.292271 46.929212 2.238420
v 16.336733 50.132737 2.238420
v 11.021490 52.342243 2.238420
v 5.583273 53.807788 2.238420
v 0.000036 54.188454 2.238420
v -5.546524 53.795421 2.238420
v -11.021613 52.342213 2.238420
v -16.349513 50.227646 2.238420
vt 0.986075 0.022010
vt 0.790121 0.006981
vt 0.790168 0.022010
vt 0.835707 0.006981
vt 0.835781 0.022010
vt 0.877939 0.006981
vt 0.878037 0.022010
vt 0.916177 0.006981
vt 0.916244 0.022010
vt 0.951321 0.006981
vt 0.986517 0.006981
vt 0.951216 0.022010
vt 0.012316 0.006981
vt 0.012780 0.022010
vt 0.047731 0.006981
vt 0.047860 0.022010
vt 0.083110 0.006981
vt 0.083041 0.022010
vt 0.121782 0.006981
vt 0.121677 0.022010
vt 0.164592 0.006981
vt 0.164510 0.022010
vt 0.210799 0.006981
vt 0.210757 0.022010
vt 0.258891 0.006981
vt 0.258898 0.022010
vt 0.306906 0.006981
vt 0.306942 0.022010
vt 0.352898 0.006981
vt 0.352981 0.022010
vt 0.395384 0.006981
vt 0.395493 0.022010
vt 0.433734 0.006981
vt 0.433854 0.022010
vt 0.468380 0.006981
vt 0.468463 0.022010
vt 0.500829 0.006981
vt 0.500829 0.022010
vt 0.533262 0.006981
vt 0.533173 0.022010
vt 0.567874 0.006981
vt 0.567747 0.022010
vt 0.606276 0.006981
vt 0.606159 0.022010
vt 0.648901 0.006981
vt 0.648816 0.022010
vt 0.694871 0.006981
vt 0.694826 0.022010
vt 0.742541 0.006981
vt 0.742538 0.022010
vt 0.831649 0.061879
vt 0.873018 0.061879
vt 0.911492 0.061879
vt 0.947224 0.061879
vt 0.980346 0.061879
vt 0.980426 0.047097
vt 0.051448 0.061879
vt 0.018263 0.061879
vt 0.087654 0.061879
vt 0.126818 0.061879
vt 0.168895 0.061879
vt 0.213295 0.061879
vt 0.259005 0.061879
vt 0.304631 0.061879
vt 0.348814 0.061879
vt 0.390508 0.061879
vt 0.429328 0.061879
vt 0.465642 0.061879
vt 0.500563 0.061879
vt 0.535582 0.061879
vt 0.572141 0.061879
vt 0.611242 0.061879
vt 0.653175 0.061879
vt 0.697344 0.061879
vt 0.742656 0.061879
vt 0.787870 0.061879
vt 0.065421 0.006981
vt 0.065450 0.022010
vt 0.069551 0.061879
vt 0.030024 0.006981
vt 0.030320 0.022010
vt 0.034855 0.061879
vt 0.968919 0.006981
vt 0.968645 0.022010
vt 0.963785 0.061879
vt 0.933749 0.006981
vt 0.933730 0.022010
vt 0.929358 0.061879
vt 0.897058 0.006981
vt 0.897141 0.022010
vt 0.892255 0.061879
vt 0.856823 0.006981
vt 0.856909 0.022010
vt 0.852333 0.061879
vt 0.812914 0.006981
vt 0.812974 0.022010
vt 0.809760 0.061879
vt 0.766331 0.006981
vt 0.766353 0.022010
vt 0.765263 0.061879
vt 0.718706 0.006981
vt 0.718682 0.022010
vt 0.720000 0.061879
vt 0.671886 0.006981
vt 0.671821 0.022010
vt 0.675259 0.061879
vt 0.627589 0.006981
vt 0.627488 0.022010
vt 0.632208 0.061879
vt 0.587075 0.006981
vt 0.586953 0.022010
vt 0.591691 0.061879
vt 0.550568 0.006981
vt 0.550460 0.022010
vt 0.553861 0.061879
vt 0.517045 0.006981
vt 0.517001 0.022010
vt 0.518072 0.061879
vt 0.484605 0.006981
vt 0.484646 0.022010
vt 0.483102 0.061879
vt 0.451057 0.006981
vt 0.451158 0.022010
vt 0.447485 0.061879
vt 0.414559 0.006981
vt 0.414674 0.022010
vt 0.409918 0.061879
vt 0.374141 0.006981
vt 0.374237 0.022010
vt 0.369661 0.061879
vt 0.329902 0.006981
vt 0.329962 0.022010
vt 0.326723 0.061879
vt 0.282898 0.006981
vt 0.282920 0.022010
vt 0.281818 0.061879
vt 0.234845 0.006981
vt 0.234827 0.022010
vt 0.236150 0.061879
vt 0.187696 0.006981
vt 0.187634 0.022010
vt 0.191095 0.061879
vt 0.143187 0.006981
vt 0.143093 0.022010
vt 0.147857 0.061879
vt 0.102446 0.006981
vt 0.102359 0.022010
vt 0.107236 0.061879
vt 0.083745 0.025887
vt 0.066066 0.025887
vt 0.048387 0.025887
vt 0.031001 0.025887
vt 0.985202 0.025887
vt 0.013615 0.025887
vt 0.967913 0.025887
vt 0.950624 0.025887
vt 0.933072 0.025887
vt 0.915519 0.025887
vt 0.896393 0.025887
vt 0.877267 0.025887
vt 0.856207 0.025887
vt 0.835148 0.025887
vt 0.812481 0.025887
vt 0.789815 0.025887
vt 0.766186 0.025887
vt 0.742557 0.025887
vt 0.718884 0.025887
vt 0.695212 0.025887
vt 0.672349 0.025887
vt 0.649485 0.025887
vt 0.628213 0.025887
vt 0.606941 0.025887
vt 0.587682 0.025887
vt 0.568422 0.025887
vt 0.550982 0.025887
vt 0.533542 0.025887
vt 0.517164 0.025887
vt 0.500786 0.025887
vt 0.484407 0.025887
vt 0.468028 0.025887
vt 0.450593 0.025887
vt 0.433158 0.025887
vt 0.413943 0.025887
vt 0.394727 0.025887
vt 0.373534 0.025887
vt 0.352341 0.025887
vt 0.329465 0.025887
vt 0.306588 0.025887
vt 0.282751 0.025887
vt 0.258914 0.025887
vt 0.235031 0.025887
vt 0.211148 0.025887
vt 0.188165 0.025887
vt 0.165183 0.025887
vt 0.143825 0.025887
vt 0.122466 0.025887
vt 0.103106 0.025887
vt 0.014350 0.029304
vt 0.016401 0.038832
vt 0.069434 0.047097
vt 0.086014 0.038875
vt 0.068057 0.038849
vt 0.051272 0.047097
vt 0.050107 0.038840
vt 0.034726 0.047097
vt 0.033250 0.038832
vt 0.018180 0.047097
vt 0.982286 0.038832
vt 0.963907 0.047097
vt 0.965492 0.038832
vt 0.947389 0.047097
vt 0.948695 0.038840
vt 0.929471 0.047097
vt 0.930937 0.038851
vt 0.911553 0.047097
vt 0.913173 0.038873
vt 0.892304 0.047097
vt 0.893978 0.038892
vt 0.873055 0.047097
vt 0.874774 0.038920
vt 0.852370 0.047097
vt 0.853940 0.038940
vt 0.831686 0.047097
vt 0.833097 0.038966
vt 0.809784 0.047097
vt 0.810885 0.038982
vt 0.787883 0.047097
vt 0.788670 0.039001
vt 0.765272 0.047097
vt 0.765646 0.039010
vt 0.742661 0.047097
vt 0.742621 0.039016
vt 0.719993 0.047097
vt 0.719544 0.039010
vt 0.697324 0.047097
vt 0.696469 0.039001
vt 0.675235 0.047097
vt 0.674060 0.038982
vt 0.653146 0.047097
vt 0.651658 0.038966
vt 0.632181 0.047097
vt 0.630560 0.038940
vt 0.611216 0.047097
vt 0.609472 0.038920
vt 0.591666 0.047097
vt 0.590031 0.038892
vt 0.572116 0.047097
vt 0.570600 0.038873
vt 0.553838 0.047097
vt 0.552661 0.038851
vt 0.535561 0.047097
vt 0.534727 0.038840
vt 0.518056 0.047097
vt 0.517684 0.038832
vt 0.500551 0.047097
vt 0.500643 0.038832
vt 0.483099 0.047097
vt 0.483633 0.038832
vt 0.465648 0.047097
vt 0.466623 0.038840
vt 0.447498 0.047097
vt 0.448768 0.038851
vt 0.429349 0.047097
vt 0.430909 0.038873
vt 0.409945 0.047097
vt 0.411584 0.038892
vt 0.390540 0.047097
vt 0.392251 0.038920
vt 0.369689 0.047097
vt 0.371262 0.038940
vt 0.348838 0.047097
vt 0.350266 0.038966
vt 0.326746 0.047097
vt 0.327856 0.038982
vt 0.304653 0.047097
vt 0.305442 0.039001
vt 0.281827 0.047097
vt 0.282205 0.039010
vt 0.259001 0.047097
vt 0.258968 0.039016
vt 0.236141 0.047097
vt 0.235692 0.039010
vt 0.213282 0.047097
vt 0.212417 0.039001
vt 0.191074 0.047097
vt 0.189890 0.038982
vt 0.168867 0.047097
vt 0.167370 0.038966
vt 0.147826 0.047097
vt 0.146191 0.038940
vt 0.126784 0.047097
vt 0.125025 0.038918
vt 0.107190 0.047097
vt 0.087595 0.047097
vt 0.105517 0.038895
vt 0.084365 0.029304
vt 0.066608 0.029304
vt 0.048852 0.029304
vt 0.031601 0.029304
vt 0.984432 0.029304
vt 0.967268 0.029304
vt 0.950103 0.029304
vt 0.932492 0.029304
vt 0.914880 0.029304
vt 0.895734 0.029304
vt 0.876588 0.029304
vt 0.855589 0.029304
vt 0.834590 0.029304
vt 0.812047 0.029304
vt 0.789504 0.029304
vt 0.766039 0.029304
vt 0.742574 0.029304
vt 0.719063 0.029304
vt 0.695552 0.029304
vt 0.672814 0.029304
vt 0.650075 0.029304
vt 0.628852 0.029304
vt 0.607630 0.029304
vt 0.588323 0.029304
vt 0.569017 0.029304
vt 0.551442 0.029304
vt 0.533867 0.029304
vt 0.517308 0.029304
vt 0.500748 0.029304
vt 0.484196 0.029304
vt 0.467644 0.029304
vt 0.450094 0.029304
vt 0.432544 0.029304
vt 0.413299 0.029304
vt 0.394053 0.029304
vt 0.372915 0.029304
vt 0.351777 0.029304
vt 0.329027 0.029304
vt 0.306276 0.029304
vt 0.282602 0.029304
vt 0.258928 0.029304
vt 0.235209 0.029304
vt 0.211491 0.029304
vt 0.188634 0.029304
vt 0.165777 0.029304
vt 0.144469 0.029304
vt 0.123162 0.029304
vt 0.103763 0.029304
vt 0.085805 0.037661
vt 0.105294 0.037678
vt 0.124789 0.037698
vt 0.145973 0.037717
vt 0.167168 0.037740
vt 0.189731 0.037754
vt 0.212300 0.037771
vt 0.235630 0.037778
vt 0.258963 0.037784
vt 0.282256 0.037778
vt 0.305548 0.037771
vt 0.328004 0.037755
vt 0.350457 0.037740
vt 0.371472 0.037717
vt 0.392480 0.037700
vt 0.411801 0.037675
vt 0.431117 0.037659
vt 0.448936 0.037640
vt 0.466753 0.037630
vt 0.483704 0.037623
vt 0.500656 0.037623
vt 0.517637 0.037623
vt 0.534618 0.037630
vt 0.552506 0.037640
vt 0.570400 0.037659
vt 0.589814 0.037675
vt 0.609238 0.037700
vt 0.630343 0.037717
vt 0.651457 0.037740
vt 0.673902 0.037754
vt 0.696352 0.037771
vt 0.719483 0.037778
vt 0.742615 0.037784
vt 0.765696 0.037778
vt 0.788775 0.037771
vt 0.811033 0.037755
vt 0.833286 0.037741
vt 0.854149 0.037717
vt 0.875005 0.037700
vt 0.894201 0.037675
vt 0.913390 0.037659
vt 0.931134 0.037640
vt 0.948873 0.037630
vt 0.965717 0.037623
vt 0.016141 0.037623
vt 0.982559 0.037623
vt 0.033041 0.037623
vt 0.049947 0.037630
vt 0.067873 0.037638
vt 0.085909 0.038268
vt 0.105406 0.038287
vt 0.124907 0.038308
vt 0.146082 0.038329
vt 0.167269 0.038353
vt 0.189811 0.038368
vt 0.212359 0.038386
vt 0.235661 0.038394
vt 0.258965 0.038400
vt 0.282230 0.038394
vt 0.305495 0.038386
vt 0.327930 0.038369
vt 0.350361 0.038353
vt 0.371367 0.038329
vt 0.392365 0.038310
vt 0.411693 0.038284
vt 0.431013 0.038266
vt 0.448852 0.038246
vt 0.466688 0.038235
vt 0.483669 0.038227
vt 0.500650 0.038227
vt 0.517660 0.038227
vt 0.534672 0.038235
vt 0.552584 0.038246
vt 0.570500 0.038266
vt 0.589923 0.038283
vt 0.609355 0.038310
vt 0.630451 0.038329
vt 0.651558 0.038353
vt 0.673981 0.038368
vt 0.696410 0.038386
vt 0.719513 0.038394
vt 0.742618 0.038400
vt 0.765671 0.038394
vt 0.788723 0.038386
vt 0.810959 0.038369
vt 0.833192 0.038353
vt 0.854044 0.038329
vt 0.874889 0.038310
vt 0.894089 0.038284
vt 0.913281 0.038266
vt 0.931036 0.038246
vt 0.948784 0.038235
vt 0.965605 0.038227
vt 0.016271 0.038227
vt 0.982422 0.038227
vt 0.033146 0.038227
vt 0.050027 0.038235
vt 0.067965 0.038244
vt 0.084345 0.029195
vt 0.066591 0.029195
vt 0.048837 0.029195
vt 0.031582 0.029195
vt 0.984457 0.029195
vt 0.014327 0.029195
vt 0.967288 0.029195
vt 0.950120 0.029195
vt 0.932510 0.029195
vt 0.914901 0.029195
vt 0.895755 0.029195
vt 0.876610 0.029195
vt 0.855609 0.029195
vt 0.834608 0.029195
vt 0.812061 0.029195
vt 0.789514 0.029195
vt 0.766043 0.029195
vt 0.742573 0.029195
vt 0.719057 0.029195
vt 0.695541 0.029195
vt 0.672799 0.029195
vt 0.650056 0.029195
vt 0.628832 0.029195
vt 0.607608 0.029195
vt 0.588303 0.029195
vt 0.568998 0.029195
vt 0.551428 0.029195
vt 0.533857 0.029195
vt 0.517303 0.029195
vt 0.500749 0.029195
vt 0.484203 0.029195
vt 0.467656 0.029195
vt 0.450110 0.029195
vt 0.432564 0.029195
vt 0.413319 0.029195
vt 0.394074 0.029195
vt 0.372934 0.029195
vt 0.351795 0.029195
vt 0.329040 0.029195
vt 0.306286 0.029195
vt 0.282607 0.029195
vt 0.258927 0.029195
vt 0.235204 0.029195
vt 0.211480 0.029195
vt 0.188619 0.029195
vt 0.165758 0.029195
vt 0.144449 0.029195
vt 0.123140 0.029195
vt 0.103743 0.029195
vt 0.084166 0.028206
vt 0.066434 0.028206
vt 0.048702 0.028206
vt 0.031408 0.028206
vt 0.984680 0.028206
vt 0.014114 0.028206
vt 0.967475 0.028206
vt 0.950271 0.028206
vt 0.932678 0.028206
vt 0.915086 0.028206
vt 0.895946 0.028206
vt 0.876806 0.028206
vt 0.855788 0.028206
vt 0.834769 0.028206
vt 0.812186 0.028206
vt 0.789604 0.028206
vt 0.766086 0.028206
vt 0.742568 0.028206
vt 0.719006 0.028206
vt 0.695443 0.028206
vt 0.672664 0.028206
vt 0.649885 0.028206
vt 0.628647 0.028206
vt 0.607408 0.028206
vt 0.588117 0.028206
vt 0.568826 0.028206
vt 0.551295 0.028206
vt 0.533763 0.028206
vt 0.517262 0.028206
vt 0.500760 0.028206
vt 0.484264 0.028206
vt 0.467767 0.028206
vt 0.450254 0.028206
vt 0.432742 0.028206
vt 0.413506 0.028206
vt 0.394270 0.028206
vt 0.373114 0.028206
vt 0.351958 0.028206
vt 0.329167 0.028206
vt 0.306377 0.028206
vt 0.282650 0.028206
vt 0.258923 0.028206
vt 0.235152 0.028206
vt 0.211381 0.028206
vt 0.188483 0.028206
vt 0.165586 0.028206
vt 0.144262 0.028206
vt 0.122938 0.028206
vt 0.103552 0.028206
vt 0.084516 0.030180
vt 0.103924 0.030182
vt 0.123332 0.030184
vt 0.144627 0.030186
vt 0.165923 0.030188
vt 0.188749 0.030190
vt 0.211576 0.030191
vt 0.235254 0.030192
vt 0.258931 0.030193
vt 0.282566 0.030192
vt 0.306200 0.030191
vt 0.328919 0.030190
vt 0.351638 0.030188
vt 0.372763 0.030186
vt 0.393888 0.030184
vt 0.413142 0.030181
vt 0.432395 0.030180
vt 0.449973 0.030178
vt 0.467551 0.030177
vt 0.484145 0.030176
vt 0.500739 0.030176
vt 0.517342 0.030176
vt 0.533946 0.030177
vt 0.551554 0.030178
vt 0.569162 0.030180
vt 0.588480 0.030181
vt 0.607798 0.030184
vt 0.629009 0.030186
vt 0.650220 0.030188
vt 0.672928 0.030190
vt 0.695636 0.030191
vt 0.719107 0.030192
vt 0.742578 0.030193
vt 0.766003 0.030192
vt 0.789427 0.030191
vt 0.811941 0.030190
vt 0.834453 0.030188
vt 0.855438 0.030186
vt 0.876422 0.030184
vt 0.895573 0.030181
vt 0.914724 0.030180
vt 0.932349 0.030178
vt 0.949974 0.030177
vt 0.967105 0.030176
vt 0.014538 0.030176
vt 0.984236 0.030176
vt 0.031752 0.030176
vt 0.048967 0.030177
vt 0.066741 0.030178
vn 0.986308 -0.000302 0.164912
vn 0.980971 0.101503 0.165508
vn 0.065714 0.006800 0.997815
vn 0.066037 -0.000020 0.997817
vn 0.964858 0.202876 0.167002
vn 0.937093 0.305071 0.169671
vn 0.061242 0.019938 0.997924
vn 0.063796 0.013414 0.997873
vn 0.897018 0.406666 0.173152
vn 0.842706 0.508209 0.177682
vn 0.052600 0.031722 0.998112
vn 0.057213 0.025938 0.998025
vn 0.773225 0.607224 0.182762
vn 0.686058 0.702701 0.188511
vn 0.040370 0.041350 0.998329
vn 0.046733 0.036700 0.998233
vn 0.581066 0.790350 0.194189
vn 0.456853 0.866839 0.199690
vn 0.025383 0.048162 0.998517
vn 0.033060 0.044967 0.998441
vn 0.316587 0.926354 0.204059
vn 0.161626 0.964869 0.207133
vn 0.008659 0.051691 0.998626
vn 0.017143 0.050161 0.998594
vn -0.001086 0.978112 0.208075
vn -0.161627 0.964878 0.207091
vn -0.008657 0.051679 0.998626
vn -0.000058 0.051954 0.998649
vn -0.306984 0.929518 0.204344
vn -0.456835 0.866799 0.199902
vn -0.025414 0.048221 0.998513
vn -0.016580 0.050218 0.998601
vn -0.040313 0.041291 0.998334
vn -0.033870 0.044613 0.998430
vn -0.593094 0.781521 0.193558
vn -0.686089 0.702733 0.188278
vn -0.768296 0.613367 0.183037
vn -0.842704 0.508213 0.177679
vn -0.052600 0.031722 0.998112
vn -0.046422 0.037068 0.998234
vn -0.896739 0.407273 0.173173
vn -0.937095 0.305067 0.169667
vn -0.061243 0.019937 0.997924
vn -0.057188 0.025973 0.998026
vn -0.964729 0.203482 0.167011
vn -0.980971 0.101505 0.165506
vn -0.065715 0.006800 0.997815
vn -0.063783 0.013453 0.997873
vn -0.986308 0.000304 0.164911
vn -0.980972 -0.101504 0.165505
vn -0.065715 -0.006800 0.997815
vn -0.066037 0.000021 0.997817
vn -0.964859 -0.202875 0.166998
vn -0.937095 -0.305068 0.169667
vn -0.061243 -0.019938 0.997924
vn -0.063797 -0.013414 0.997873
vn -0.897018 -0.406667 0.173149
vn -0.842704 -0.508213 0.177680
vn -0.052600 -0.031722 0.998112
vn -0.057214 -0.025938 0.998025
vn -0.773221 -0.607229 0.182762
vn -0.686062 -0.702697 0.188513
vn -0.040371 -0.041350 0.998329
vn -0.046733 -0.036700 0.998233
vn -0.581098 -0.790326 0.194189
vn -0.456849 -0.866841 0.199692
vn -0.025382 -0.048162 0.998517
vn -0.033061 -0.044965 0.998441
vn -0.316340 -0.926437 0.204064
vn -0.161625 -0.964871 0.207127
vn -0.008658 -0.051690 0.998626
vn -0.017130 -0.050166 0.998594
vn -0.000486 -0.978111 0.208083
vn 0.161625 -0.964871 0.207127
vn 0.008659 -0.051690 0.998626
vn -0.000026 -0.051944 0.998650
vn 0.315456 -0.926734 0.204087
vn 0.456849 -0.866841 0.199692
vn 0.025383 -0.048162 0.998517
vn 0.017080 -0.050177 0.998594
vn 0.580411 -0.790823 0.194222
vn 0.686058 -0.702701 0.188512
vn 0.040371 -0.041350 0.998329
vn 0.033016 -0.044986 0.998442
vn 0.772755 -0.607812 0.182795
vn 0.842706 -0.508210 0.177678
vn 0.052601 -0.031722 0.998112
vn 0.046696 -0.036729 0.998234
vn 0.896739 -0.407272 0.173170
vn 0.937094 -0.305069 0.169667
vn 0.061243 -0.019937 0.997924
vn 0.057188 -0.025973 0.998025
vn 0.964729 -0.203483 0.167012
vn 0.980971 -0.101503 0.165506
vn 0.065715 -0.006799 0.997815
vn 0.063783 -0.013453 0.997873
vn 0.978601 0.205766 0.000003
vn 0.950880 0.309559 0.000006
vn 0.910775 0.412903 0.000007
vn 0.856332 0.516426 0.000005
vn 0.786471 0.617627 0.000001
vn 0.698582 0.715530 -0.000001
vn 0.592341 0.805687 -0.000000
vn 0.466243 0.884656 0.000000
vn 0.323392 0.946265 0.000000
vn 0.165209 0.986259 0.000000
vn -0.001110 0.999999 0.000000
vn -0.165208 0.986259 0.000000
vn -0.313600 0.949555 0.000000
vn -0.466246 0.884655 0.000000
vn -0.604528 0.796584 0.000000
vn -0.698582 0.715530 0.000000
vn -0.781497 0.623908 0.000000
vn -0.856329 0.516431 0.000002
vn -0.910495 0.413520 0.000003
vn -0.950882 0.309555 0.000002
vn -0.978472 0.206381 0.000001
vn -0.994689 0.102924 0.000000
vn -1.000000 0.000308 0.000000
vn -0.994689 -0.102923 -0.000000
vn -0.978602 -0.205765 0.000001
vn -0.950881 -0.309556 0.000002
vn -0.910775 -0.412903 0.000003
vn -0.856329 -0.516430 0.000002
vn -0.786468 -0.617632 0.000000
vn -0.698587 -0.715526 -0.000000
vn -0.592375 -0.805662 -0.000000
vn -0.466239 -0.884659 -0.000000
vn -0.323140 -0.946351 -0.000000
vn -0.165207 -0.986259 -0.000000
vn -0.000497 -1.000000 -0.000000
vn 0.165208 -0.986259 -0.000000
vn 0.322238 -0.946659 -0.000000
vn 0.466239 -0.884659 -0.000000
vn 0.591678 -0.806175 -0.000000
vn 0.698583 -0.715529 -0.000000
vn 0.785998 -0.618229 -0.000000
vn 0.856331 -0.516427 -0.000000
vn 0.910495 -0.413520 -0.000000
vn 0.950881 -0.309557 -0.000000
vn 0.978472 -0.206382 -0.000000
vn 0.994689 -0.102922 -0.000000
vn 1.000000 -0.000307 0.000001
vn 0.994689 0.102923 0.000002
vn -0.950881 -0.309557 -0.000005
vn -0.950881 -0.309557 -0.000005
vn -0.978601 -0.205766 -0.000004
vn -0.978601 -0.205766 -0.000004
vn -0.856331 -0.516428 -0.000002
vn -0.856331 -0.516428 -0.000002
vn -0.910775 -0.412902 -0.000004
vn -0.910775 -0.412902 -0.000004
vn -0.698584 -0.715528 -0.000000
vn -0.698584 -0.715528 -0.000000
vn -0.786471 -0.617627 -0.000001
vn -0.786471 -0.617627 -0.000001
vn -0.466243 -0.884657 -0.000000
vn -0.466243 -0.884657 -0.000000
vn -0.592342 -0.805686 -0.000000
vn -0.592342 -0.805686 -0.000000
vn -0.165208 -0.986259 -0.000000
vn -0.165208 -0.986259 -0.000000
vn -0.323390 -0.946266 -0.000000
vn -0.323390 -0.946266 -0.000000
vn 0.165207 -0.986259 -0.000000
vn 0.165207 -0.986259 -0.000000
vn 0.001111 -0.999999 -0.000000
vn 0.001111 -0.999999 -0.000000
vn 0.466245 -0.884656 -0.000000
vn 0.466245 -0.884656 -0.000000
vn 0.313599 -0.949555 -0.000000
vn 0.313599 -0.949555 -0.000000
vn 0.698583 -0.715529 -0.000000
vn 0.698583 -0.715529 -0.000000
vn 0.604528 -0.796584 -0.000000
vn 0.604528 -0.796584 -0.000000
vn 0.856329 -0.516431 -0.000002
vn 0.856329 -0.516431 -0.000002
vn 0.781498 -0.623908 -0.000000
vn 0.781498 -0.623908 -0.000000
vn 0.950882 -0.309555 -0.000002
vn 0.950881 -0.309555 -0.000002
vn 0.910495 -0.413521 -0.000003
vn 0.910495 -0.413521 -0.000003
vn 0.994689 -0.102923 -0.000000
vn 0.994689 -0.102923 -0.000000
vn 0.978472 -0.206381 -0.000000
vn 0.978472 -0.206381 -0.000000
vn 0.994689 0.102923 0.000001
vn 0.994689 0.102923 0.000001
vn 1.000000 -0.000307 0.000000
vn 1.000000 -0.000307 0.000000
vn 0.950881 0.309555 -0.000002
vn 0.950881 0.309555 -0.000002
vn 0.978602 0.205764 -0.000000
vn 0.978602 0.205764 -0.000000
vn 0.856329 0.516431 -0.000002
vn 0.856329 0.516430 -0.000002
vn 0.910775 0.412903 -0.000003
vn 0.910775 0.412903 -0.000003
vn 0.698585 0.715527 0.000000
vn 0.698585 0.715527 0.000000
vn 0.786467 0.617633 -0.000001
vn 0.786467 0.617633 -0.000001
vn 0.466241 0.884658 0.000000
vn 0.466241 0.884658 0.000000
vn 0.592375 0.805662 0.000000
vn 0.592375 0.805662 0.000000
vn 0.165207 0.986259 0.000000
vn 0.165207 0.986259 0.000000
vn 0.323142 0.946350 0.000000
vn 0.323142 0.946350 0.000000
vn -0.165208 0.986259 0.000000
vn -0.165208 0.986259 0.000000
vn 0.000496 1.000000 0.000000
vn 0.000496 1.000000 0.000000
vn -0.466241 0.884658 0.000000
vn -0.466241 0.884658 0.000000
vn -0.322238 0.946659 0.000000
vn -0.322238 0.946659 0.000000
vn -0.698582 0.715530 0.000000
vn -0.698582 0.715530 0.000000
vn -0.591678 0.806174 0.000000
vn -0.591678 0.806174 0.000000
vn -0.856332 0.516426 0.000000
vn -0.856332 0.516426 0.000000
vn -0.785998 0.618229 0.000000
vn -0.785998 0.618229 0.000000
vn -0.950881 0.309557 0.000000
vn -0.950881 0.309557 0.000000
vn -0.910495 0.413519 0.000000
vn -0.910495 0.413519 0.000000
vn -0.994689 0.102923 0.000000
vn -0.994689 0.102923 0.000000
vn -0.978471 0.206383 0.000000
vn -0.978471 0.206383 0.000000
vn -0.994689 -0.102924 -0.000003
vn -0.994689 -0.102924 -0.000003
vn -1.000000 0.000307 -0.000001
vn -1.000000 0.000307 -0.000001
vn -0.040123 -0.024197 0.998902
vn -0.043625 -0.019777 0.998852
vn -0.035630 -0.027981 0.998973
vn -0.030791 -0.031538 0.999028
vn -0.025203 -0.034280 0.999094
vn -0.019358 -0.036731 0.999138
vn -0.013068 -0.038238 0.999183
vn -0.006603 -0.039422 0.999201
vn 0.000045 -0.039605 0.999215
vn 0.006602 -0.039410 0.999201
vn 0.012636 -0.038278 0.999187
vn 0.019387 -0.036785 0.999135
vn 0.025823 -0.034010 0.999088
vn 0.030739 -0.031485 0.999031
vn 0.035397 -0.028266 0.998974
vn 0.040123 -0.024197 0.998902
vn 0.043606 -0.019805 0.998853
vn 0.046720 -0.015209 0.998792
vn 0.048637 -0.010259 0.998764
vn 0.050133 -0.005187 0.998729
vn 0.050356 -0.000016 0.998731
vn 0.050132 0.005187 0.998729
vn 0.048647 0.010229 0.998764
vn 0.046719 0.015209 0.998792
vn 0.043625 0.019778 0.998852
vn 0.040123 0.024197 0.998902
vn 0.035630 0.027981 0.998973
vn 0.030791 0.031538 0.999028
vn 0.025205 0.034279 0.999094
vn 0.019358 0.036731 0.999138
vn 0.013058 0.038242 0.999183
vn 0.006603 0.039420 0.999201
vn 0.000020 0.039596 0.999216
vn -0.006603 0.039420 0.999201
vn -0.013020 0.038250 0.999183
vn -0.019358 0.036731 0.999138
vn -0.025170 0.034295 0.999095
vn -0.030792 0.031538 0.999028
vn -0.035602 0.028003 0.998974
vn -0.040123 0.024197 0.998902
vn -0.043605 0.019804 0.998853
vn -0.046719 0.015209 0.998792
vn -0.048637 0.010259 0.998764
vn -0.050133 0.005187 0.998729
vn -0.050357 0.000016 0.998731
vn -0.050133 -0.005188 0.998729
vn -0.048647 -0.010229 0.998764
vn -0.046719 -0.015210 0.998792
vn 0.162080 -0.166207 0.972679
vn 0.136476 -0.180073 0.974140
vn 0.003489 -0.004808 0.999982
vn 0.004293 -0.004547 0.999980
vn 0.002321 -0.004590 0.999987
vn 0.101765 -0.193396 0.975829
vn 0.067072 -0.203260 0.976825
vn 0.001656 -0.005146 0.999985
vn 0.034820 -0.208065 0.977495
vn 0.000801 -0.004908 0.999988
vn 0.000232 -0.210067 0.977687
vn 0.000005 -0.005162 0.999987
vn -0.034807 -0.208002 0.977509
vn -0.000795 -0.004876 0.999988
vn -0.069244 -0.202813 0.976766
vn -0.001683 -0.005088 0.999986
vn -0.101931 -0.193673 0.975756
vn -0.002404 -0.004741 0.999986
vn -0.133304 -0.181524 0.974310
vn -0.003429 -0.004839 0.999982
vn -0.161789 -0.165947 0.972772
vn -0.004132 -0.004391 0.999982
vn -0.187965 -0.147785 0.970994
vn -0.005255 -0.004275 0.999977
vn -0.210241 -0.126966 0.969370
vn -0.005861 -0.003656 0.999976
vn -0.229489 -0.104164 0.967721
vn -0.006937 -0.003253 0.999971
vn -0.244147 -0.079594 0.966466
vn -0.007307 -0.002457 0.999970
vn -0.255318 -0.053756 0.965362
vn -0.008160 -0.001778 0.999965
vn -0.261502 -0.027104 0.964822
vn -0.008164 -0.000878 0.999966
vn -0.264007 0.000081 0.964521
vn -0.008629 0.000003 0.999963
vn -0.261505 0.027104 0.964822
vn -0.008163 0.000878 0.999966
vn -0.255266 0.053912 0.965367
vn -0.008156 0.001783 0.999965
vn -0.244147 0.079594 0.966466
vn -0.007307 0.002458 0.999970
vn -0.229386 0.104305 0.967731
vn -0.006933 0.003256 0.999971
vn -0.210240 0.126965 0.969370
vn -0.005861 0.003657 0.999976
vn -0.187818 0.147903 0.971004
vn -0.005249 0.004277 0.999977
vn -0.161789 0.165947 0.972772
vn -0.004132 0.004392 0.999982
vn -0.133131 0.181603 0.974318
vn -0.003424 0.004840 0.999982
vn -0.101930 0.193672 0.975757
vn -0.002404 0.004742 0.999986
vn -0.068987 0.202868 0.976773
vn -0.001676 0.005086 0.999986
vn -0.034809 0.208011 0.977507
vn -0.000796 0.004880 0.999988
vn 0.000104 0.210065 0.977687
vn 0.000002 0.005171 0.999987
vn 0.034809 0.208011 0.977507
vn 0.000796 0.004880 0.999988
vn 0.069189 0.202825 0.976768
vn 0.001681 0.005086 0.999986
vn 0.101929 0.193671 0.975757
vn 0.002404 0.004740 0.999986
vn 0.133311 0.181519 0.974310
vn 0.003429 0.004839 0.999982
vn 0.161789 0.165946 0.972772
vn 0.004132 0.004391 0.999982
vn 0.187964 0.147786 0.970994
vn 0.005255 0.004275 0.999977
vn 0.210239 0.126966 0.969370
vn 0.005861 0.003657 0.999976
vn 0.229488 0.104164 0.967722
vn 0.006937 0.003253 0.999971
vn 0.244147 0.079593 0.966466
vn 0.007307 0.002457 0.999970
vn 0.255318 0.053755 0.965362
vn 0.008160 0.001778 0.999965
vn 0.261503 0.027104 0.964822
vn 0.008164 0.000878 0.999966
vn 0.264006 -0.000081 0.964521
vn 0.008629 -0.000003 0.999963
vn 0.261505 -0.027104 0.964822
vn 0.008163 -0.000878 0.999966
vn 0.255267 -0.053912 0.965366
vn 0.008156 -0.001782 0.999965
vn 0.244148 -0.079593 0.966466
vn 0.007307 -0.002457 0.999970
vn 0.229387 -0.104306 0.967730
vn 0.006933 -0.003256 0.999971
vn 0.210240 -0.126973 0.969369
vn 0.005852 -0.003657 0.999976
vn 0.186451 -0.149023 0.971096
vn 0.005147 -0.004238 0.999978
vn 0.126230 -0.166431 0.977940
vn 0.094088 -0.178645 0.979405
vn 0.061999 -0.187832 0.980243
vn 0.032186 -0.192207 0.980826
vn 0.000216 -0.194091 0.980984
vn -0.032175 -0.192145 0.980839
vn -0.064017 -0.187409 0.980194
vn -0.094242 -0.178929 0.979338
vn -0.123269 -0.167772 0.978089
vn -0.149588 -0.153320 0.976789
vn -0.173831 -0.136602 0.975255
vn -0.194378 -0.117303 0.973888
vn -0.212227 -0.096280 0.972466
vn -0.225710 -0.073532 0.971416
vn -0.236086 -0.049680 0.970461
vn -0.241726 -0.025035 0.970021
vn -0.244104 0.000075 0.969749
vn -0.241728 0.025035 0.970021
vn -0.236038 0.049825 0.970466
vn -0.225709 0.073531 0.971416
vn -0.212133 0.096411 0.972473
vn -0.194378 0.117302 0.973888
vn -0.173695 0.136711 0.975264
vn -0.149588 0.153319 0.976789
vn -0.123109 0.167844 0.978096
vn -0.094241 0.178927 0.979338
vn -0.063779 0.187460 0.980200
vn -0.032177 0.192154 0.980837
vn 0.000096 0.194090 0.980984
vn 0.032176 0.192154 0.980837
vn 0.063965 0.187420 0.980195
vn 0.094240 0.178926 0.979339
vn 0.123276 0.167767 0.978089
vn 0.149589 0.153319 0.976789
vn 0.173830 0.136603 0.975255
vn 0.194377 0.117303 0.973888
vn 0.212226 0.096280 0.972466
vn 0.225709 0.073531 0.971416
vn 0.236085 0.049679 0.970462
vn 0.241727 0.025035 0.970021
vn 0.244103 -0.000075 0.969749
vn 0.241728 -0.025035 0.970021
vn 0.236039 -0.049825 0.970465
vn 0.225710 -0.073531 0.971416
vn 0.212133 -0.096412 0.972473
vn 0.194387 -0.117313 0.973885
vn 0.172398 -0.137726 0.975351
vn 0.149865 -0.153592 0.976704
vn -0.012830 0.013062 0.999832
vn -0.011009 0.014410 0.999836
vn 0.004538 -0.006055 0.999971
vn 0.005572 -0.005763 0.999968
vn -0.014565 0.011553 0.999827
vn 0.006595 -0.005314 0.999964
vn -0.015991 0.009575 0.999826
vn 0.007687 -0.004681 0.999960
vn -0.017504 0.007894 0.999816
vn 0.008575 -0.003934 0.999956
vn -0.018073 0.005842 0.999820
vn 0.009395 -0.003086 0.999951
vn -0.019055 0.003987 0.999811
vn 0.009950 -0.002122 0.999948
vn -0.019030 0.001952 0.999817
vn 0.010376 -0.001085 0.999946
vn -0.019522 0.000006 0.999809
vn 0.010470 -0.000003 0.999945
vn -0.019029 -0.001952 0.999817
vn 0.010377 0.001085 0.999946
vn -0.019058 -0.003976 0.999811
vn 0.009953 0.002116 0.999948
vn -0.018072 -0.005842 0.999820
vn 0.009395 0.003086 0.999951
vn -0.017511 -0.007883 0.999816
vn 0.008580 0.003929 0.999955
vn -0.015986 -0.009575 0.999826
vn 0.007693 0.004683 0.999959
vn -0.014762 -0.011516 0.999825
vn 0.006634 0.005265 0.999964
vn -0.012678 -0.012899 0.999836
vn 0.005573 0.005766 0.999968
vn -0.010769 -0.014554 0.999836
vn 0.004430 0.006091 0.999972
vn -0.008190 -0.015441 0.999847
vn 0.003328 0.006379 0.999974
vn -0.005695 -0.016592 0.999846
vn 0.002204 0.006516 0.999976
vn -0.002827 -0.016800 0.999855
vn 0.001108 0.006664 0.999977
vn -0.000009 -0.017283 0.999851
vn 0.000003 0.006664 0.999978
vn 0.002827 -0.016800 0.999855
vn -0.001108 0.006664 0.999977
vn 0.005679 -0.016596 0.999846
vn -0.002197 0.006516 0.999976
vn 0.008190 -0.015442 0.999847
vn -0.003328 0.006379 0.999974
vn 0.010755 -0.014562 0.999836
vn -0.004424 0.006093 0.999972
vn 0.012679 -0.012900 0.999836
vn -0.005573 0.005766 0.999968
vn 0.014751 -0.011525 0.999825
vn -0.006628 0.005268 0.999964
vn 0.015987 -0.009576 0.999826
vn -0.007693 0.004683 0.999959
vn 0.017504 -0.007894 0.999816
vn -0.008575 0.003934 0.999956
vn 0.018073 -0.005842 0.999820
vn -0.009395 0.003086 0.999951
vn 0.019055 -0.003987 0.999810
vn -0.009950 0.002122 0.999948
vn 0.019030 -0.001952 0.999817
vn -0.010376 0.001085 0.999946
vn 0.019522 -0.000006 0.999809
vn -0.010470 0.000003 0.999945
vn 0.019029 0.001952 0.999817
vn -0.010377 -0.001085 0.999946
vn 0.019058 0.003976 0.999810
vn -0.009953 -0.002116 0.999948
vn 0.018072 0.005842 0.999820
vn -0.009395 -0.003086 0.999951
vn 0.017511 0.007883 0.999816
vn -0.008580 -0.003930 0.999955
vn 0.015986 0.009575 0.999826
vn -0.007693 -0.004683 0.999959
vn 0.014762 0.011515 0.999825
vn -0.006634 -0.005265 0.999964
vn 0.012678 0.012899 0.999836
vn -0.005573 -0.005766 0.999968
vn 0.010768 0.014554 0.999836
vn -0.004430 -0.006091 0.999972
vn 0.008190 0.015442 0.999847
vn -0.003328 -0.006379 0.999974
vn 0.005700 0.016593 0.999846
vn -0.002206 -0.006515 0.999976
vn 0.002826 0.016794 0.999855
vn -0.001108 -0.006664 0.999977
vn -0.000019 0.017272 0.999851
vn 0.000007 -0.006666 0.999978
vn -0.002832 0.016832 0.999854
vn 0.001108 -0.006661 0.999977
vn -0.005543 0.016700 0.999845
vn 0.002133 -0.006515 0.999977
vn -0.008104 0.015275 0.999850
vn 0.003333 -0.006389 0.999974
vn 0.147109 -0.193848 0.969939
vn 0.110978 -0.210558 0.971262
vn -0.009883 0.018751 0.999775
vn -0.013045 0.017173 0.999767
vn -0.006367 0.019296 0.999794
vn 0.072358 -0.219076 0.973021
vn -0.003352 0.020007 0.999794
vn 0.037871 -0.226074 0.973374
vn -0.000023 0.019997 0.999800
vn 0.000252 -0.227069 0.973879
vn 0.003355 0.020027 0.999794
vn -0.037889 -0.226176 0.973349
vn 0.006597 0.019302 0.999792
vn -0.074806 -0.218880 0.972880
vn 0.009834 0.018658 0.999778
vn -0.110735 -0.210100 0.971389
vn 0.012724 0.017305 0.999769
vn -0.143665 -0.195402 0.970143
vn 0.015643 0.016023 0.999749
vn -0.175241 -0.179483 0.968027
vn 0.017989 0.014127 0.999738
vn -0.201973 -0.158607 0.966463
vn 0.020388 0.012295 0.999717
vn -0.227057 -0.136924 0.964208
vn 0.022031 0.009987 0.999707
vn -0.245975 -0.111510 0.962841
vn 0.023742 0.007729 0.999688
vn -0.263123 -0.085656 0.960952
vn 0.024566 0.005165 0.999685
vn -0.273234 -0.057450 0.960230
vn 0.025475 0.002636 0.999672
vn -0.281581 -0.029135 0.959095
vn 0.025429 -0.000008 0.999677
vn -0.282445 0.000086 0.959283
vn 0.025475 -0.002636 0.999672
vn -0.281583 0.029135 0.959094
vn 0.024560 -0.005180 0.999685
vn -0.273182 0.057619 0.960235
vn 0.023739 -0.007728 0.999688
vn -0.263118 0.085654 0.960954
vn 0.022017 -0.010000 0.999708
vn -0.245862 0.111659 0.962852
vn 0.020386 -0.012294 0.999717
vn -0.227052 0.136922 0.964210
vn 0.017975 -0.014138 0.999738
vn -0.201822 0.158738 0.966473
vn 0.015643 -0.016022 0.999749
vn -0.175237 0.179480 0.968028
vn 0.012707 -0.017314 0.999769
vn -0.143481 0.195490 0.970153
vn 0.009834 -0.018659 0.999778
vn -0.110733 0.210098 0.971389
vn 0.006572 -0.019308 0.999792
vn -0.074532 0.218951 0.972885
vn 0.003354 -0.020024 0.999794
vn -0.037886 0.226161 0.973353
vn -0.000010 -0.019988 0.999800
vn 0.000113 0.227016 0.973891
vn -0.003354 -0.020024 0.999794
vn 0.037887 0.226166 0.973352
vn -0.006592 -0.019304 0.999792
vn 0.074749 0.218903 0.972879
vn -0.009834 -0.018659 0.999778
vn 0.110735 0.210102 0.971388
vn -0.012724 -0.017305 0.999769
vn 0.143673 0.195396 0.970144
vn -0.015643 -0.016022 0.999749
vn 0.175242 0.179482 0.968027
vn -0.017989 -0.014127 0.999738
vn 0.201975 0.158611 0.966462
vn -0.020386 -0.012294 0.999717
vn 0.227055 0.136925 0.964208
vn -0.022029 -0.009986 0.999708
vn 0.245973 0.111509 0.962841
vn -0.023740 -0.007729 0.999688
vn 0.263123 0.085655 0.960952
vn -0.024565 -0.005165 0.999685
vn 0.273234 0.057450 0.960230
vn -0.025475 -0.002636 0.999672
vn 0.281584 0.029135 0.959094
vn -0.025429 0.000008 0.999677
vn 0.282446 -0.000087 0.959283
vn -0.025475 0.002636 0.999672
vn 0.281583 -0.029135 0.959095
vn -0.024560 0.005180 0.999685
vn 0.273183 -0.057619 0.960235
vn -0.023740 0.007728 0.999688
vn 0.263120 -0.085654 0.960953
vn -0.022019 0.010000 0.999708
vn 0.245864 -0.111661 0.962851
vn -0.020387 0.012294 0.999717
vn 0.227050 -0.136922 0.964210
vn -0.017905 0.014302 0.999737
vn 0.200776 -0.160279 0.966437
vn -0.015553 0.015930 0.999752
vn 0.174798 -0.179032 0.968191
s 1
g PictureFrame4_lowpoly PROP_____PictureFrame_Var_4 High_Fidelity_Group Pictureframe4_lowpoly
usemtl initialShadingGroup
f 97/75/26 151/124/27 233/190/28 234/191/29
f 74/28/30 147/121/31 231/188/32 232/189/33
f 75/30/34 143/118/35 229/186/36 230/187/37
f 76/32/38 139/115/39 227/184/40 228/185/41
f 77/34/42 135/112/43 225/182/44 226/183/45
f 78/37/46 131/109/47 223/180/48 224/181/49
f 79/39/50 127/106/51 221/177/52 222/179/53
f 80/41/54 123/103/55 219/175/56 220/176/57
f 265/222/58 218/174/59 81/43/60 215/172/61
f 82/45/62 211/169/63 263/220/64 264/221/65
f 83/47/66 207/166/67 261/218/68 262/219/69
f 84/49/70 203/163/71 259/216/72 260/217/73
f 85/51/74 199/160/75 257/214/76 258/215/77
f 86/53/78 195/157/79 255/212/80 256/213/81
f 87/55/82 191/154/83 253/210/84 254/211/85
f 88/57/86 187/151/87 251/208/88 252/209/89
f 89/59/90 183/148/91 249/206/92 250/207/93
f 90/61/94 179/145/95 247/204/96 248/205/97
f 91/63/98 175/142/99 245/202/100 246/203/101
f 92/65/102 171/139/103 243/200/104 244/201/105
f 93/67/106 167/136/107 241/198/108 242/199/109
f 94/69/110 163/133/111 239/196/112 240/197/113
f 95/71/114 159/130/115 237/194/116 238/195/117
f 96/73/118 155/127/119 235/192/120 236/193/121
f 26/27/122 146/120/123 147/121/31 74/28/30
f 27/29/124 142/117/125 143/118/35 75/30/34
f 28/31/126 138/114/127 139/115/39 76/32/38
f 29/33/128 134/111/129 135/112/43 77/34/42
f 30/35/130 130/108/131 131/109/47 78/37/46
f 31/38/132 126/105/133 127/106/51 79/39/50
f 32/40/134 122/102/135 123/103/55 80/41/54
f 33/42/136 214/171/137 215/172/61 81/43/60
f 34/44/138 210/168/139 211/169/63 82/45/62
f 35/46/140 206/165/141 207/166/67 83/47/66
f 36/48/142 202/162/143 203/163/71 84/49/70
f 37/50/144 198/159/145 199/160/75 85/51/74
f 38/52/146 194/156/147 195/157/79 86/53/78
f 39/54/148 190/153/149 191/154/83 87/55/82
f 40/56/150 186/150/151 187/151/87 88/57/86
f 41/58/152 182/147/153 183/148/91 89/59/90
f 42/60/154 178/144/155 179/145/95 90/61/94
f 43/62/156 174/141/157 175/142/99 91/63/98
f 44/64/158 170/138/159 171/139/103 92/65/102
f 45/66/160 166/135/161 167/136/107 93/67/106
f 46/68/162 162/132/163 163/133/111 94/69/110
f 47/70/164 158/129/165 159/130/115 95/71/114
f 48/72/166 154/126/167 155/127/119 96/73/118
f 49/74/168 150/123/169 151/124/27 97/75/26
s 25
f 148/250/170 149/122/171 50/101/172 99/252/173
f 144/246/174 145/119/175 51/76/176 98/248/177
f 140/242/178 141/116/179 52/77/180 100/244/181
f 136/238/182 137/113/183 53/78/184 101/240/185
f 132/234/186 133/110/187 54/79/188 102/236/189
f 128/230/190 129/107/191 55/83/192 103/232/193
f 124/225/194 125/104/195 56/82/196 104/228/197
f 216/318/198 217/173/199 57/84/200 105/319/201
f 212/314/202 213/170/203 58/85/204 106/316/205
f 208/310/206 209/167/207 59/86/208 107/312/209
f 204/306/210 205/164/211 60/87/212 108/308/213
f 200/302/214 201/161/215 61/88/216 109/304/217
f 196/298/218 197/158/219 62/89/220 110/300/221
f 192/294/222 193/155/223 63/90/224 111/296/225
f 188/290/226 189/152/227 64/91/228 112/292/229
f 184/286/230 185/149/231 65/92/232 113/288/233
f 180/282/234 181/146/235 66/93/236 114/284/237
f 176/278/238 177/143/239 67/94/240 115/280/241
f 172/274/242 173/140/243 68/95/244 116/276/245
f 168/270/246 169/137/247 69/96/248 117/272/249
f 164/266/250 165/134/251 70/97/252 118/268/253
f 160/262/254 161/131/255 71/98/256 119/264/257
f 156/258/258 157/128/259 72/99/260 120/260/261
f 152/254/262 153/125/263 73/100/264 121/256/265
s 1
f 123/103/55 122/102/135 33/42/136 81/43/60
f 218/174/59 219/175/56 123/103/55 81/43/60
s 25
f 57/84/200 125/104/195 124/225/194 105/319/201
s 1
f 127/106/51 126/105/133 32/40/134 80/41/54
f 80/41/54 220/176/57 221/177/52 127/106/51
s 25
f 56/82/196 129/107/191 128/230/190 104/228/197
s 1
f 131/109/47 130/108/131 31/36/132 79/26/50
f 79/26/50 222/178/53 223/180/48 131/109/47
s 25
f 55/80/192 133/110/187 132/234/186 103/81/193
s 1
f 135/112/43 134/111/129 30/35/130 78/37/46
f 78/37/46 224/181/49 225/182/44 135/112/43
s 25
f 54/79/188 137/113/183 136/238/182 102/236/189
s 1
f 139/115/39 138/114/127 29/33/128 77/34/42
f 77/34/42 226/183/45 227/184/40 139/115/39
s 25
f 53/78/184 141/116/179 140/242/178 101/240/185
s 1
f 143/118/35 142/117/125 28/31/126 76/32/38
f 76/32/38 228/185/41 229/186/36 143/118/35
s 25
f 52/77/180 145/119/175 144/246/174 100/244/181
s 1
f 147/121/31 146/120/123 27/29/124 75/30/34
f 75/30/34 230/187/37 231/188/32 147/121/31
s 25
f 51/76/176 149/122/171 148/250/170 98/248/177
s 1
f 151/124/27 150/123/169 26/27/122 74/28/30
f 74/28/30 232/189/33 233/190/28 151/124/27
s 25
f 50/101/172 153/125/263 152/254/262 99/252/173
s 1
f 155/127/119 154/126/167 49/74/168 97/75/26
f 97/75/26 234/191/29 235/192/120 155/127/119
s 25
f 73/100/264 157/128/259 156/258/258 121/256/265
s 1
f 159/130/115 158/129/165 48/72/166 96/73/118
f 96/73/118 236/193/121 237/194/116 159/130/115
s 25
f 72/99/260 161/131/255 160/262/254 120/260/261
s 1
f 163/133/111 162/132/163 47/70/164 95/71/114
f 95/71/114 238/195/117 239/196/112 163/133/111
s 25
f 71/98/256 165/134/251 164/266/250 119/264/257
s 1
f 167/136/107 166/135/161 46/68/162 94/69/110
f 94/69/110 240/197/113 241/198/108 167/136/107
s 25
f 70/97/252 169/137/247 168/270/246 118/268/253
s 1
f 171/139/103 170/138/159 45/66/160 93/67/106
f 93/67/106 242/199/109 243/200/104 171/139/103
s 25
f 69/96/248 173/140/243 172/274/242 117/272/249
s 1
f 175/142/99 174/141/157 44/64/158 92/65/102
f 92/65/102 244/201/105 245/202/100 175/142/99
s 25
f 68/95/244 177/143/239 176/278/238 116/276/245
s 1
f 179/145/95 178/144/155 43/62/156 91/63/98
f 91/63/98 246/203/101 247/204/96 179/145/95
s 25
f 67/94/240 181/146/235 180/282/234 115/280/241
s 1
f 183/148/91 182/147/153 42/60/154 90/61/94
f 90/61/94 248/205/97 249/206/92 183/148/91
s 25
f 66/93/236 185/149/231 184/286/230 114/284/237
s 1
f 187/151/87 186/150/151 41/58/152 89/59/90
f 89/59/90 250/207/93 251/208/88 187/151/87
s 25
f 65/92/232 189/152/227 188/290/226 113/288/233
s 1
f 191/154/83 190/153/149 40/56/150 88/57/86
f 88/57/86 252/209/89 253/210/84 191/154/83
s 25
f 64/91/228 193/155/223 192/294/222 112/292/229
s 1
f 195/157/79 194/156/147 39/54/148 87/55/82
f 87/55/82 254/211/85 255/212/80 195/157/79
s 25
f 63/90/224 197/158/219 196/298/218 111/296/225
s 1
f 199/160/75 198/159/145 38/52/146 86/53/78
f 86/53/78 256/213/81 257/214/76 199/160/75
s 25
f 62/89/220 201/161/215 200/302/214 110/300/221
s 1
f 203/163/71 202/162/143 37/50/144 85/51/74
f 85/51/74 258/215/77 259/216/72 203/163/71
s 25
f 61/88/216 205/164/211 204/306/210 109/304/217
s 1
f 207/166/67 206/165/141 36/48/142 84/49/70
f 84/49/70 260/217/73 261/218/68 207/166/67
s 25
f 60/87/212 209/167/207 208/310/206 108/308/213
s 1
f 211/169/63 210/168/139 35/46/140 83/47/66
f 83/47/66 262/219/69 263/220/64 211/169/63
s 25
f 59/86/208 213/170/203 212/314/202 107/312/209
s 1
f 215/172/61 214/171/137 34/44/138 82/45/62
f 82/45/62 264/221/65 265/222/58 215/172/61
s 25
f 58/85/204 217/173/199 216/318/198 106/316/205
s 1
f 230/187/37 229/186/36 517/528/266 518/529/267
f 229/186/36 228/185/41 516/527/268 517/528/266
f 228/185/41 227/184/40 515/526/269 516/527/268
f 227/184/40 226/183/45 514/525/270 515/526/269
f 226/183/45 225/182/44 513/524/271 514/525/270
f 225/182/44 224/181/49 512/523/272 513/524/271
f 224/181/49 223/180/48 511/522/273 512/523/272
f 223/180/48 222/178/53 510/520/274 511/522/273
f 222/179/53 221/177/52 509/519/275 510/521/274
f 221/177/52 220/176/57 508/518/276 509/519/275
f 220/176/57 219/175/56 507/517/277 508/518/276
f 506/516/278 507/517/277 219/175/56 218/174/59
f 553/564/279 506/516/278 218/174/59 265/222/58
f 265/222/58 264/221/65 552/563/280 553/564/279
f 264/221/65 263/220/64 551/562/281 552/563/280
f 263/220/64 262/219/69 550/561/282 551/562/281
f 262/219/69 261/218/68 549/560/283 550/561/282
f 261/218/68 260/217/73 548/559/284 549/560/283
f 260/217/73 259/216/72 547/558/285 548/559/284
f 259/216/72 258/215/77 546/557/286 547/558/285
f 258/215/77 257/214/76 545/556/287 546/557/286
f 257/214/76 256/213/81 544/555/288 545/556/287
f 256/213/81 255/212/80 543/554/289 544/555/288
f 255/212/80 254/211/85 542/553/290 543/554/289
f 254/211/85 253/210/84 541/552/291 542/553/290
f 253/210/84 252/209/89 540/551/292 541/552/291
f 252/209/89 251/208/88 539/550/293 540/551/292
f 251/208/88 250/207/93 538/549/294 539/550/293
f 250/207/93 249/206/92 537/548/295 538/549/294
f 249/206/92 248/205/97 536/547/296 537/548/295
f 248/205/97 247/204/96 535/546/297 536/547/296
f 247/204/96 246/203/101 534/545/298 535/546/297
f 246/203/101 245/202/100 533/544/299 534/545/298
f 245/202/100 244/201/105 532/543/300 533/544/299
f 244/201/105 243/200/104 531/542/301 532/543/300
f 243/200/104 242/199/109 530/541/302 531/542/301
f 242/199/109 241/198/108 529/540/303 530/541/302
f 241/198/108 240/197/113 528/539/304 529/540/303
f 240/197/113 239/196/112 527/538/305 528/539/304
f 239/196/112 238/195/117 526/537/306 527/538/305
f 238/195/117 237/194/116 525/536/307 526/537/306
f 237/194/116 236/193/121 524/535/308 525/536/307
f 236/193/121 235/192/120 523/534/309 524/535/308
f 235/192/120 234/191/29 522/533/310 523/534/309
f 234/191/29 233/190/28 521/532/311 522/533/310
f 233/190/28 232/189/33 520/531/312 521/532/311
f 232/189/33 231/188/32 519/530/313 520/531/312
f 231/188/32 230/187/37 518/529/267 519/530/313
f 361/320/314 314/226/315 410/418/316 411/419/317
f 457/466/318 410/418/316 314/226/315 315/227/319
f 315/227/319 316/229/320 456/465/321 457/466/318
f 316/229/320 317/231/322 455/464/323 456/465/321
f 317/231/322 318/224/324 454/462/325 455/464/323
f 318/233/324 319/235/326 453/461/327 454/463/325
f 319/235/326 320/237/328 452/460/329 453/461/327
f 320/237/328 321/239/330 451/459/331 452/460/329
f 321/239/330 322/241/332 450/458/333 451/459/331
f 322/241/332 323/243/334 449/457/335 450/458/333
f 323/243/334 324/245/336 448/456/337 449/457/335
f 324/245/336 325/247/338 447/455/339 448/456/337
f 325/247/338 326/249/340 446/454/341 447/455/339
f 326/249/340 327/251/342 445/453/343 446/454/341
f 327/251/342 328/253/344 444/452/345 445/453/343
f 328/253/344 329/255/346 443/451/347 444/452/345
f 329/255/346 330/257/348 442/450/349 443/451/347
f 330/257/348 331/259/350 441/449/351 442/450/349
f 331/259/350 332/261/352 440/448/353 441/449/351
f 332/261/352 333/263/354 439/447/355 440/448/353
f 333/263/354 334/265/356 438/446/357 439/447/355
f 334/265/356 335/267/358 437/445/359 438/446/357
f 335/267/358 336/269/360 436/444/361 437/445/359
f 336/269/360 337/271/362 435/443/363 436/444/361
f 337/271/362 338/273/364 434/442/365 435/443/363
f 338/273/364 339/275/366 433/441/367 434/442/365
f 339/275/366 340/277/368 432/440/369 433/441/367
f 340/277/368 341/279/370 431/439/371 432/440/369
f 341/279/370 342/281/372 430/438/373 431/439/371
f 342/281/372 343/283/374 429/437/375 430/438/373
f 343/283/374 344/285/376 428/436/377 429/437/375
f 344/285/376 345/287/378 427/435/379 428/436/377
f 345/287/378 346/289/380 426/434/381 427/435/379
f 346/289/380 347/291/382 425/433/383 426/434/381
f 347/291/382 348/293/384 424/432/385 425/433/383
f 348/293/384 349/295/386 423/431/387 424/432/385
f 349/295/386 350/297/388 422/430/389 423/431/387
f 350/297/388 351/299/390 421/429/391 422/430/389
f 351/299/390 352/301/392 420/428/393 421/429/391
f 352/301/392 353/303/394 419/427/395 420/428/393
f 353/303/394 354/305/396 418/426/397 419/427/395
f 354/305/396 355/307/398 417/425/399 418/426/397
f 355/307/398 356/309/400 416/424/401 417/425/399
f 356/309/400 357/311/402 415/423/403 416/424/401
f 357/311/402 358/313/404 414/422/405 415/423/403
f 358/313/404 359/315/406 413/421/407 414/422/405
f 359/315/406 360/317/408 412/420/409 413/421/407
f 360/317/408 361/320/314 411/419/317 412/420/409
f 105/319/410 124/225/411 315/227/319 314/226/315
f 316/229/320 315/227/319 124/225/411 104/228/412
f 317/231/322 316/229/320 104/228/412 128/230/413
f 318/224/324 317/231/322 128/230/413 103/232/414
f 319/235/326 318/233/324 103/81/414 132/234/415
f 320/237/328 319/235/326 132/234/415 102/236/416
f 321/239/330 320/237/328 102/236/416 136/238/417
f 322/241/332 321/239/330 136/238/417 101/240/418
f 323/243/334 322/241/332 101/240/418 140/242/419
f 324/245/336 323/243/334 140/242/419 100/244/420
f 325/247/338 324/245/336 100/244/420 144/246/421
f 326/249/340 325/247/338 144/246/421 98/248/422
f 327/251/342 326/249/340 98/248/422 148/250/423
f 328/253/344 327/251/342 148/250/423 99/252/424
f 329/255/346 328/253/344 99/252/424 152/254/425
f 330/257/348 329/255/346 152/254/425 121/256/426
f 331/259/350 330/257/348 121/256/426 156/258/427
f 332/261/352 331/259/350 156/258/427 120/260/428
f 333/263/354 332/261/352 120/260/428 160/262/429
f 334/265/356 333/263/354 160/262/429 119/264/430
f 335/267/358 334/265/356 119/264/430 164/266/431
f 336/269/360 335/267/358 164/266/431 118/268/432
f 337/271/362 336/269/360 118/268/432 168/270/433
f 338/273/364 337/271/362 168/270/433 117/272/434
f 339/275/366 338/273/364 117/272/434 172/274/435
f 340/277/368 339/275/366 172/274/435 116/276/436
f 341/279/370 340/277/368 116/276/436 176/278/437
f 342/281/372 341/279/370 176/278/437 115/280/438
f 343/283/374 342/281/372 115/280/438 180/282/439
f 344/285/376 343/283/374 180/282/439 114/284/440
f 345/287/378 344/285/376 114/284/440 184/286/441
f 346/289/380 345/287/378 184/286/441 113/288/442
f 347/291/382 346/289/380 113/288/442 188/290/443
f 348/293/384 347/291/382 188/290/443 112/292/444
f 349/295/386 348/293/384 112/292/444 192/294/445
f 350/297/388 349/295/386 192/294/445 111/296/446
f 351/299/390 350/297/388 111/296/446 196/298/447
f 352/301/392 351/299/390 196/298/447 110/300/448
f 353/303/394 352/301/392 110/300/448 200/302/449
f 354/305/396 353/303/394 200/302/449 109/304/450
f 355/307/398 354/305/396 109/304/450 204/306/451
f 356/309/400 355/307/398 204/306/451 108/308/452
f 357/311/402 356/309/400 108/308/452 208/310/453
f 358/313/404 357/311/402 208/310/453 107/312/454
f 359/315/406 358/313/404 107/312/454 212/314/455
f 360/317/408 359/315/406 212/314/455 106/316/456
f 361/320/314 360/317/408 106/316/456 216/318/457
f 105/319/410 314/226/315 361/320/314 216/318/457
f 363/370/458 362/369/459 554/565/460 555/566/461
f 364/371/462 363/370/458 555/566/461 556/567/463
f 365/372/464 364/371/462 556/567/463 557/568/465
f 366/373/466 365/372/464 557/568/465 558/569/467
f 367/374/468 366/373/466 558/569/467 559/570/469
f 368/375/470 367/374/468 559/570/469 560/571/471
f 369/376/472 368/375/470 560/571/471 561/572/473
f 370/377/474 369/376/472 561/572/473 562/573/475
f 371/378/476 370/377/474 562/573/475 563/574/477
f 372/379/478 371/378/476 563/574/477 564/575/479
f 373/380/480 372/379/478 564/575/479 565/576/481
f 374/381/482 373/380/480 565/576/481 566/577/483
f 375/382/484 374/381/482 566/577/483 567/578/485
f 376/383/486 375/382/484 567/578/485 568/579/487
f 377/384/488 376/383/486 568/579/487 569/580/489
f 378/385/490 377/384/488 569/580/489 570/581/491
f 379/386/492 378/385/490 570/581/491 571/582/493
f 380/387/494 379/386/492 571/582/493 572/583/495
f 381/388/496 380/387/494 572/583/495 573/584/497
f 382/389/498 381/388/496 573/584/497 574/585/499
f 383/390/500 382/389/498 574/585/499 575/586/501
f 384/391/502 383/390/500 575/586/501 576/587/503
f 385/392/504 384/391/502 576/587/503 577/588/505
f 386/393/506 385/392/504 577/588/505 578/589/507
f 387/394/508 386/393/506 578/589/507 579/590/509
f 388/395/510 387/394/508 579/590/509 580/591/511
f 389/396/512 388/395/510 580/591/511 581/592/513
f 390/397/514 389/396/512 581/592/513 582/593/515
f 391/398/516 390/397/514 582/593/515 583/594/517
f 392/399/518 391/398/516 583/594/517 584/595/519
f 393/400/520 392/399/518 584/595/519 585/596/521
f 394/401/522 393/400/520 585/596/521 586/597/523
f 395/402/524 394/401/522 586/597/523 587/598/525
f 396/403/526 395/402/524 587/598/525 588/599/527
f 397/404/528 396/403/526 588/599/527 589/600/529
f 398/405/530 397/404/528 589/600/529 590/601/531
f 399/406/532 398/405/530 590/601/531 591/602/533
f 400/407/534 399/406/532 591/602/533 592/603/535
f 401/408/536 400/407/534 592/603/535 593/604/537
f 402/409/538 401/408/536 593/604/537 594/605/539
f 403/410/540 402/409/538 594/605/539 595/606/541
f 404/411/542 403/410/540 595/606/541 596/607/543
f 405/412/544 404/411/542 596/607/543 597/608/545
f 406/414/546 405/412/544 597/608/545 598/610/547
f 407/415/548 406/413/546 598/609/547 599/611/549
f 408/416/550 407/415/548 599/611/549 600/612/551
f 409/417/552 408/416/550 600/612/551 601/613/553
f 601/613/553 554/565/460 362/369/459 409/417/552
f 411/419/317 410/418/316 362/369/459 363/370/458
f 412/420/409 411/419/317 363/370/458 364/371/462
f 413/421/407 412/420/409 364/371/462 365/372/464
f 414/422/405 413/421/407 365/372/464 366/373/466
f 415/423/403 414/422/405 366/373/466 367/374/468
f 416/424/401 415/423/403 367/374/468 368/375/470
f 417/425/399 416/424/401 368/375/470 369/376/472
f 418/426/397 417/425/399 369/376/472 370/377/474
f 419/427/395 418/426/397 370/377/474 371/378/476
f 420/428/393 419/427/395 371/378/476 372/379/478
f 421/429/391 420/428/393 372/379/478 373/380/480
f 422/430/389 421/429/391 373/380/480 374/381/482
f 423/431/387 422/430/389 374/381/482 375/382/484
f 424/432/385 423/431/387 375/382/484 376/383/486
f 425/433/383 424/432/385 376/383/486 377/384/488
f 426/434/381 425/433/383 377/384/488 378/385/490
f 427/435/379 426/434/381 378/385/490 379/386/492
f 428/436/377 427/435/379 379/386/492 380/387/494
f 429/437/375 428/436/377 380/387/494 381/388/496
f 430/438/373 429/437/375 381/388/496 382/389/498
f 431/439/371 430/438/373 382/389/498 383/390/500
f 432/440/369 431/439/371 383/390/500 384/391/502
f 433/441/367 432/440/369 384/391/502 385/392/504
f 434/442/365 433/441/367 385/392/504 386/393/506
f 435/443/363 434/442/365 386/393/506 387/394/508
f 436/444/361 435/443/363 387/394/508 388/395/510
f 437/445/359 436/444/361 388/395/510 389/396/512
f 438/446/357 437/445/359 389/396/512 390/397/514
f 439/447/355 438/446/357 390/397/514 391/398/516
f 440/448/353 439/447/355 391/398/516 392/399/518
f 441/449/351 440/448/353 392/399/518 393/400/520
f 442/450/349 441/449/351 393/400/520 394/401/522
f 443/451/347 442/450/349 394/401/522 395/402/524
f 444/452/345 443/451/347 395/402/524 396/403/526
f 445/453/343 444/452/345 396/403/526 397/404/528
f 446/454/341 445/453/343 397/404/528 398/405/530
f 447/455/339 446/454/341 398/405/530 399/406/532
f 448/456/337 447/455/339 399/406/532 400/407/534
f 449/457/335 448/456/337 400/407/534 401/408/536
f 450/458/333 449/457/335 401/408/536 402/409/538
f 451/459/331 450/458/333 402/409/538 403/410/540
f 452/460/329 451/459/331 403/410/540 404/411/542
f 453/461/327 452/460/329 404/411/542 405/412/544
f 454/463/325 453/461/327 405/412/544 406/414/546
f 455/464/323 454/462/325 406/413/546 407/415/548
f 456/465/321 455/464/323 407/415/548 408/416/550
f 457/466/318 456/465/321 408/416/550 409/417/552
f 409/417/552 362/369/459 410/418/316 457/466/318
f 278/321/554 277/322/555 459/468/556 458/467/557
f 460/469/558 459/468/556 277/322/555 276/323/559
f 461/470/560 460/469/558 276/323/559 275/324/561
f 462/472/562 461/470/560 275/324/561 274/223/563
f 463/473/564 462/471/562 274/325/563 273/326/565
f 464/474/566 463/473/564 273/326/565 272/327/567
f 465/475/568 464/474/566 272/327/567 271/328/569
f 466/476/570 465/475/568 271/328/569 270/329/571
f 467/477/572 466/476/570 270/329/571 269/330/573
f 468/478/574 467/477/572 269/330/573 268/331/575
f 469/479/576 468/478/574 268/331/575 267/332/577
f 470/480/578 469/479/576 267/332/577 266/333/579
f 471/481/580 470/480/578 266/333/579 313/334/581
f 472/482/582 471/481/580 313/334/581 312/335/583
f 473/483/584 472/482/582 312/335/583 311/336/585
f 474/484/586 473/483/584 311/336/585 310/337/587
f 475/485/588 474/484/586 310/337/587 309/338/589
f 476/486/590 475/485/588 309/338/589 308/339/591
f 477/487/592 476/486/590 308/339/591 307/340/593
f 478/488/594 477/487/592 307/340/593 306/341/595
f 479/489/596 478/488/594 306/341/595 305/342/597
f 480/490/598 479/489/596 305/342/597 304/343/599
f 481/491/600 480/490/598 304/343/599 303/344/601
f 482/492/602 481/491/600 303/344/601 302/345/603
f 483/493/604 482/492/602 302/345/603 301/346/605
f 484/494/606 483/493/604 301/346/605 300/347/607
f 485/495/608 484/494/606 300/347/607 299/348/609
f 486/496/610 485/495/608 299/348/609 298/349/611
f 487/497/612 486/496/610 298/349/611 297/350/613
f 488/498/614 487/497/612 297/350/613 296/351/615
f 489/499/616 488/498/614 296/351/615 295/352/617
f 490/500/618 489/499/616 295/352/617 294/353/619
f 491/501/620 490/500/618 294/353/619 293/354/621
f 492/502/622 491/501/620 293/354/621 292/355/623
f 493/503/624 492/502/622 292/355/623 291/356/625
f 494/504/626 493/503/624 291/356/625 290/357/627
f 495/505/628 494/504/626 290/357/627 289/358/629
f 496/506/630 495/505/628 289/358/629 288/359/631
f 497/507/632 496/506/630 288/359/631 287/360/633
f 498/508/634 497/507/632 287/360/633 286/361/635
f 499/509/636 498/508/634 286/361/635 285/362/637
f 500/510/638 499/509/636 285/362/637 284/363/639
f 501/511/640 500/510/638 284/363/639 283/364/641
f 502/512/642 501/511/640 283/364/641 282/365/643
f 503/513/644 502/512/642 282/365/643 281/366/645
f 504/514/646 503/513/644 281/366/645 280/367/647
f 505/515/648 504/514/646 280/367/647 279/368/649
f 279/368/649 278/321/554 458/467/557 505/515/648
f 458/467/557 459/468/556 507/517/277 506/516/278
f 508/518/276 507/517/277 459/468/556 460/469/558
f 509/519/275 508/518/276 460/469/558 461/470/560
f 510/521/274 509/519/275 461/470/560 462/472/562
f 511/522/273 510/520/274 462/471/562 463/473/564
f 512/523/272 511/522/273 463/473/564 464/474/566
f 513/524/271 512/523/272 464/474/566 465/475/568
f 514/525/270 513/524/271 465/475/568 466/476/570
f 515/526/269 514/525/270 466/476/570 467/477/572
f 516/527/268 515/526/269 467/477/572 468/478/574
f 517/528/266 516/527/268 468/478/574 469/479/576
f 518/529/267 517/528/266 469/479/576 470/480/578
f 519/530/313 518/529/267 470/480/578 471/481/580
f 520/531/312 519/530/313 471/481/580 472/482/582
f 521/532/311 520/531/312 472/482/582 473/483/584
f 522/533/310 521/532/311 473/483/584 474/484/586
f 523/534/309 522/533/310 474/484/586 475/485/588
f 524/535/308 523/534/309 475/485/588 476/486/590
f 525/536/307 524/535/308 476/486/590 477/487/592
f 526/537/306 525/536/307 477/487/592 478/488/594
f 527/538/305 526/537/306 478/488/594 479/489/596
f 528/539/304 527/538/305 479/489/596 480/490/598
f 529/540/303 528/539/304 480/490/598 481/491/600
f 530/541/302 529/540/303 481/491/600 482/492/602
f 531/542/301 530/541/302 482/492/602 483/493/604
f 532/543/300 531/542/301 483/493/604 484/494/606
f 533/544/299 532/543/300 484/494/606 485/495/608
f 534/545/298 533/544/299 485/495/608 486/496/610
f 535/546/297 534/545/298 486/496/610 487/497/612
f 536/547/296 535/546/297 487/497/612 488/498/614
f 537/548/295 536/547/296 488/498/614 489/499/616
f 538/549/294 537/548/295 489/499/616 490/500/618
f 539/550/293 538/549/294 490/500/618 491/501/620
f 540/551/292 539/550/293 491/501/620 492/502/622
f 541/552/291 540/551/292 492/502/622 493/503/624
f 542/553/290 541/552/291 493/503/624 494/504/626
f 543/554/289 542/553/290 494/504/626 495/505/628
f 544/555/288 543/554/289 495/505/628 496/506/630
f 545/556/287 544/555/288 496/506/630 497/507/632
f 546/557/286 545/556/287 497/507/632 498/508/634
f 547/558/285 546/557/286 498/508/634 499/509/636
f 548/559/284 547/558/285 499/509/636 500/510/638
f 549/560/283 548/559/284 500/510/638 501/511/640
f 550/561/282 549/560/283 501/511/640 502/512/642
f 551/562/281 550/561/282 502/512/642 503/513/644
f 552/563/280 551/562/281 503/513/644 504/514/646
f 553/564/279 552/563/280 504/514/646 505/515/648
f 505/515/648 458/467/557 506/516/278 553/564/279
f 555/566/461 554/565/460 278/321/554 279/368/649
f 556/567/463 555/566/461 279/368/649 280/367/647
f 557/568/465 556/567/463 280/367/647 281/366/645
f 558/569/467 557/568/465 281/366/645 282/365/643
f 559/570/469 558/569/467 282/365/643 283/364/641
f 560/571/471 559/570/469 283/364/641 284/363/639
f 561/572/473 560/571/471 284/363/639 285/362/637
f 562/573/475 561/572/473 285/362/637 286/361/635
f 563/574/477 562/573/475 286/361/635 287/360/633
f 564/575/479 563/574/477 287/360/633 288/359/631
f 565/576/481 564/575/479 288/359/631 289/358/629
f 566/577/483 565/576/481 289/358/629 290/357/627
f 567/578/485 566/577/483 290/357/627 291/356/625
f 568/579/487 567/578/485 291/356/625 292/355/623
f 569/580/489 568/579/487 292/355/623 293/354/621
f 570/581/491 569/580/489 293/354/621 294/353/619
f 571/582/493 570/581/491 294/353/619 295/352/617
f 572/583/495 571/582/493 295/352/617 296/351/615
f 573/584/497 572/583/495 296/351/615 297/350/613
f 574/585/499 573/584/497 297/350/613 298/349/611
f 575/586/501 574/585/499 298/349/611 299/348/609
f 576/587/503 575/586/501 299/348/609 300/347/607
f 577/588/505 576/587/503 300/347/607 301/346/605
f 578/589/507 577/588/505 301/346/605 302/345/603
f 579/590/509 578/589/507 302/345/603 303/344/601
f 580/591/511 579/590/509 303/344/601 304/343/599
f 581/592/513 580/591/511 304/343/599 305/342/597
f 582/593/515 581/592/513 305/342/597 306/341/595
f 583/594/517 582/593/515 306/341/595 307/340/593
f 584/595/519 583/594/517 307/340/593 308/339/591
f 585/596/521 584/595/519 308/339/591 309/338/589
f 586/597/523 585/596/521 309/338/589 310/337/587
f 587/598/525 586/597/523 310/337/587 311/336/585
f 588/599/527 587/598/525 311/336/585 312/335/583
f 589/600/529 588/599/527 312/335/583 313/334/581
f 590/601/531 589/600/529 313/334/581 266/333/579
f 591/602/533 590/601/531 266/333/579 267/332/577
f 592/603/535 591/602/533 267/332/577 268/331/575
f 593/604/537 592/603/535 268/331/575 269/330/573
f 594/605/539 593/604/537 269/330/573 270/329/571
f 595/606/541 594/605/539 270/329/571 271/328/569
f 596/607/543 595/606/541 271/328/569 272/327/567
f 597/608/545 596/607/543 272/327/567 273/326/565
f 598/610/547 597/608/545 273/326/565 274/325/563
f 599/611/549 598/609/547 274/223/563 275/324/561
f 600/612/551 599/611/549 275/324/561 276/323/559
f 601/613/553 600/612/551 276/323/559 277/322/555
f 278/321/554 554/565/460 601/613/553 277/322/555
