# This file uses centimeters as units for non-parametric coordinates.

mtllib Mirror lowpoly.mtl
g default
v -214.936243 -114.771121 -0.519417
v -214.936243 118.134458 -0.519417
v 206.760550 118.134458 -0.519417
v 206.760550 -114.771121 -0.519417
v 200.572274 -108.957936 -1.470465
v 200.572274 112.321307 -1.470465
v -208.747866 112.321307 -1.470465
v -208.747866 -108.957936 -1.470465
v 202.301492 -110.582409 -1.470465
v 202.301492 113.945763 -1.470465
v -210.477164 113.945763 -1.470465
v -210.477164 -110.582409 -1.470465
v 200.918129 -109.282879 -1.913232
v 201.436883 -109.770190 -2.087684
v 201.955616 -110.257423 -1.913232
v 201.955616 113.620837 -1.913232
v 201.436883 113.133544 -2.087684
v 200.918129 112.646268 -1.913232
v -210.131249 113.620837 -1.913232
v -209.612475 113.133544 -2.087684
v -209.093821 112.646268 -1.913232
v -210.131249 -110.257423 -1.913232
v -209.612475 -109.770190 -2.087684
v -209.093821 -109.282879 -1.913232
v 203.915179 -111.988887 -0.892993
v 203.915179 115.352189 -0.892993
v -212.090812 115.352189 -0.892993
v -212.090812 -111.988887 -0.892993
v -214.936243 -114.771121 2.118264
v -214.936243 118.134458 2.118264
v 206.760550 118.134458 2.118264
v 206.760550 -114.771121 2.118264
v 192.658939 -101.119075 2.118264
v -200.834631 -101.119075 2.118264
v -200.834631 104.482411 2.118264
v 192.658939 104.482411 2.118264
v 204.626636 -112.684520 -2.131244
v 206.049153 -114.075489 -1.944496
v 206.049153 117.438808 -1.944496
v 204.626636 116.047822 -2.131244
v -214.224785 117.438808 -1.944496
v -212.802269 116.047839 -2.131244
v -214.224785 -114.075489 -1.944496
v -212.802269 -112.684520 -2.131244
v 195.757845 -104.188825 -0.635837
v 195.757845 107.552179 -0.635837
v -203.933557 107.552179 -0.635837
v -203.933557 -104.188825 -0.635837
v 195.757845 -104.188825 -2.211949
v 195.757845 107.552179 -2.211949
v 192.658939 -101.119075 -1.706823
v 192.658939 104.482411 -1.706823
v -203.933557 107.552179 -2.211949
v -200.834631 104.482411 -1.706823
v -203.933557 -104.188825 -2.211949
v -200.834631 -101.119075 -1.706823
v 193.898485 -102.346982 -2.211949
v 193.898485 105.710318 -2.211949
v -202.074237 105.710318 -2.211949
v -202.074237 -102.346982 -2.211949
v 194.270437 -102.715413 -2.658546
v 194.828205 -103.267903 -2.947899
v 195.385933 -103.820394 -2.658546
v 195.385933 107.183748 -2.658546
v 194.828205 106.631257 -2.947899
v 194.270476 106.078767 -2.658546
v -203.561605 107.183748 -2.658546
v -203.003857 106.631257 -2.947899
v -202.446109 106.078767 -2.658546
v -203.561605 -103.820394 -2.658546
v -203.003857 -103.267886 -2.947899
v -202.446109 -102.715395 -2.658546
vt 0.820009 0.017110
vt 0.982537 0.017110
vt 0.023359 0.022273
vt 0.818823 0.022273
vt 0.507276 0.017110
vt 0.508746 0.022273
vt 0.384898 0.017110
vt 0.383028 0.022273
vt 0.983490 0.015427
vt 0.018268 0.015981
vt 0.820239 0.015981
vt 0.820380 0.015427
vt 0.018731 0.016535
vt 0.820099 0.016535
vt 0.820468 0.014852
vt 0.983734 0.014852
vt 0.506719 0.014852
vt 0.506828 0.015427
vt 0.385602 0.014852
vt 0.385465 0.015427
vt 0.507167 0.016535
vt 0.385037 0.016535
vt 0.506997 0.015981
vt 0.385250 0.015981
vt 0.820958 0.013225
vt 0.984776 0.013225
vt 0.506144 0.013225
vt 0.386319 0.013225
vt 0.505268 0.008608
vt 0.387439 0.008608
vt 0.387433 0.006039
vt 0.505272 0.006039
vt 0.821650 0.008608
vt 0.821648 0.006039
vt 0.013505 0.008608
vt 0.986874 0.006039
vt 0.381815 0.031492
vt 0.026132 0.031492
vt 0.976698 0.027767
vt 0.381819 0.027767
vt 0.509702 0.031491
vt 0.509700 0.027767
vt 0.818042 0.031491
vt 0.818040 0.027767
vt 0.015413 0.011753
vt 0.986328 0.010244
vt 0.387162 0.010244
vt 0.386595 0.011753
vt 0.821130 0.011753
vt 0.821480 0.010244
vt 0.505928 0.011753
vt 0.505484 0.010244
vt 0.023356 0.023812
vt 0.818823 0.023811
vt 0.508747 0.023812
vt 0.383025 0.023812
vt 0.818355 0.026355
vt 0.977636 0.026355
vt 0.509318 0.026355
vt 0.382302 0.026355
vt 0.978748 0.024418
vt 0.024191 0.025083
vt 0.818590 0.025083
vt 0.818730 0.024418
vt 0.024692 0.025748
vt 0.818449 0.025748
vt 0.508861 0.024418
vt 0.382881 0.024418
vt 0.509204 0.025748
vt 0.382447 0.025748
vt 0.509032 0.025083
vt 0.382664 0.025083
vt 0.977915 0.025748
vt 0.025026 0.026355
vt 0.979022 0.023812
vt 0.023689 0.024418
vt 0.978332 0.025083
vt 0.026142 0.027767
vt 0.976705 0.031492
vt 0.979005 0.022273
vt 0.985304 0.011753
vt 0.016052 0.013225
vt 0.014144 0.010244
vt 0.986851 0.008608
vt 0.013495 0.006039
vt 0.017494 0.014852
vt 0.982773 0.016535
vt 0.019041 0.017110
vt 0.017804 0.015427
vt 0.983130 0.015981
vn -0.109417 -0.215188 -0.970424
vn -0.109418 0.215190 -0.970423
vn 0.013603 -0.032747 -0.999371
vn 0.013603 0.032747 -0.999371
vn 0.109414 -0.215191 -0.970423
vn -0.013603 0.032748 -0.999371
vn 0.109415 0.215193 -0.970423
vn -0.013603 -0.032748 -0.999371
vn 0.269192 -0.494905 -0.826199
vn 0.055549 -0.093665 -0.994053
vn 0.055548 0.093660 -0.994053
vn 0.269189 0.494923 -0.826189
vn -0.196611 0.363497 -0.910612
vn -0.196612 -0.363505 -0.910608
vn 0.163218 0.301512 -0.939388
vn 0.163212 -0.301503 -0.939392
vn -0.163220 0.301511 -0.939388
vn -0.269183 0.494913 -0.826197
vn -0.163214 -0.301502 -0.939392
vn -0.269186 -0.494895 -0.826207
vn 0.196624 -0.363501 -0.910608
vn 0.196623 0.363493 -0.910611
vn -0.055549 0.093655 -0.994054
vn -0.055550 -0.093660 -0.994053
vn -0.214217 -0.382923 -0.898600
vn -0.214217 0.382919 -0.898601
vn 0.214221 -0.382925 -0.898598
vn 0.214220 0.382922 -0.898599
vn -0.470642 0.857745 -0.206809
vn -0.470643 -0.857745 -0.206807
vn -0.483466 -0.875363 0.000000
vn -0.483466 0.875363 0.000000
vn 0.470641 0.857747 -0.206804
vn 0.483466 0.875363 -0.000000
vn 0.470642 -0.857747 -0.206802
vn 0.483466 -0.875363 -0.000000
vn 0.463098 0.886307 -0.000000
vn -0.463098 0.886307 0.000000
vn -0.413722 0.786059 -0.459289
vn 0.413719 0.786056 -0.459296
vn 0.463098 -0.886307 -0.000000
vn 0.413719 -0.786057 -0.459294
vn -0.463098 -0.886307 0.000000
vn -0.413722 -0.786060 -0.459287
vn -0.095366 0.183198 -0.978440
vn 0.309916 -0.558472 -0.769455
vn -0.309912 -0.558468 -0.769460
vn 0.095366 0.183198 -0.978439
vn -0.095366 -0.183197 -0.978440
vn 0.309915 0.558468 -0.769458
vn 0.095365 -0.183197 -0.978440
vn -0.309911 0.558465 -0.769462
vn 0.456334 -0.867489 -0.198047
vn 0.456334 0.867489 -0.198047
vn -0.456336 0.867487 -0.198052
vn -0.456336 -0.867487 -0.198052
vn -0.214474 -0.416944 -0.883266
vn -0.214477 0.416946 -0.883264
vn 0.214483 -0.416941 -0.883265
vn 0.214483 0.416946 -0.883263
vn 0.260450 -0.493924 -0.829581
vn 0.072856 -0.119247 -0.990188
vn 0.072857 0.119244 -0.990188
vn 0.260451 0.493925 -0.829580
vn -0.217334 0.411415 -0.885158
vn -0.217334 -0.411407 -0.885161
vn -0.260446 0.493920 -0.829585
vn -0.260444 -0.493919 -0.829586
vn 0.217332 -0.411424 -0.885154
vn 0.217337 0.411427 -0.885151
vn -0.072856 0.119247 -0.990188
vn -0.072856 -0.119246 -0.990188
s 1
g highpoly_prep Mirror_lowpoly PROP_____Mirror1 High_Fidelity_Group
usemtl initialShadingGroup
f 6/1/1 5/2/2 45/80/3 46/4/4
f 7/5/5 6/1/1 46/4/4 47/6/6
f 8/7/7 7/5/5 47/6/6 48/8/8
f 5/88/2 8/7/7 48/8/8 45/3/3
f 15/9/9 14/90/10 17/11/11 16/12/12
f 14/90/10 13/87/13 18/14/14 17/11/11
f 10/15/15 9/16/16 15/9/9 16/12/12
f 11/17/17 10/15/15 16/12/12 19/18/18
f 12/19/19 11/17/17 19/18/18 22/20/20
f 9/86/16 12/19/19 22/20/20 15/89/9
f 18/14/14 13/87/13 5/2/2 6/1/1
f 21/21/21 18/14/14 6/1/1 7/5/5
f 24/22/22 21/21/21 7/5/5 8/7/7
f 13/13/13 24/22/22 8/7/7 5/88/2
f 16/12/12 17/11/11 20/23/23 19/18/18
f 17/11/11 18/14/14 21/21/21 20/23/23
f 19/18/18 20/23/23 23/24/24 22/20/20
f 20/23/23 21/21/21 24/22/22 23/24/24
f 13/13/13 14/10/10 23/24/24 24/22/22
f 14/10/10 15/89/9 22/20/20 23/24/24
f 26/25/25 25/26/26 9/16/16 10/15/15
f 27/27/27 26/25/25 10/15/15 11/17/17
f 28/28/28 27/27/27 11/17/17 12/19/19
f 25/82/26 28/28/28 12/19/19 9/86/16
f 2/29/29 1/30/30 29/31/31 30/32/32
f 3/33/33 2/29/29 30/32/32 31/34/34
f 4/84/35 3/33/33 31/34/34 32/36/36
f 1/30/30 4/35/35 32/85/36 29/31/31
f 34/37/37 33/38/38 51/78/39 56/40/40
f 35/41/41 34/37/37 56/40/40 54/42/42
f 36/43/43 35/41/41 54/42/42 52/44/44
f 33/79/38 36/43/43 52/44/44 51/39/39
f 37/45/45 38/83/46 43/47/47 44/48/48
f 38/46/46 37/81/45 40/49/49 39/50/50
f 39/50/50 40/49/49 42/51/51 41/52/52
f 41/52/52 42/51/51 44/48/48 43/47/47
f 4/35/35 1/30/30 43/47/47 38/83/46
f 1/30/30 2/29/29 41/52/52 43/47/47
f 2/29/29 3/33/33 39/50/50 41/52/52
f 3/33/33 4/84/35 38/46/46 39/50/50
f 40/49/49 37/81/45 25/26/26 26/25/25
f 42/51/51 40/49/49 26/25/25 27/27/27
f 44/48/48 42/51/51 27/27/27 28/28/28
f 37/45/45 44/48/48 28/28/28 25/82/26
f 46/4/4 45/80/3 49/75/53 50/54/54
f 47/6/6 46/4/4 50/54/54 53/55/55
f 48/8/8 47/6/6 53/55/55 55/56/56
f 49/53/53 45/3/3 48/8/8 55/56/56
f 58/57/57 57/58/58 51/39/39 52/44/44
f 59/59/59 58/57/57 52/44/44 54/42/42
f 60/60/60 59/59/59 54/42/42 56/40/40
f 57/74/58 60/60/60 56/40/40 51/78/39
f 63/61/61 62/77/62 65/63/63 64/64/64
f 62/77/62 61/73/65 66/66/66 65/63/63
f 50/54/54 49/75/53 63/61/61 64/64/64
f 53/55/55 50/54/54 64/64/64 67/67/67
f 55/56/56 53/55/55 67/67/67 70/68/68
f 49/53/53 55/56/56 70/68/68 63/76/61
f 66/66/66 61/73/65 57/58/58 58/57/57
f 69/69/69 66/66/66 58/57/57 59/59/59
f 72/70/70 69/69/69 59/59/59 60/60/60
f 61/65/65 72/70/70 60/60/60 57/74/58
f 64/64/64 65/63/63 68/71/71 67/67/67
f 65/63/63 66/66/66 69/69/69 68/71/71
f 67/67/67 68/71/71 71/72/72 70/68/68
f 68/71/71 69/69/69 72/70/70 71/72/72
f 61/65/65 62/62/62 71/72/72 72/70/70
f 62/62/62 63/76/61 70/68/68 71/72/72
g default
v 194.413488 -102.028140 0.875141
v -202.589172 -102.028140 0.875141
v -202.589172 105.391475 0.875141
v 194.413488 105.391475 0.875141
vt 0.994229 0.479783
vt 0.994229 0.995615
vt 0.006923 0.995615
vt 0.006923 0.479783
vn -0.000000 0.000000 -1.000000
vn -0.000000 0.000000 -1.000000
vn -0.000000 0.000000 -1.000000
vn -0.000000 0.000000 -1.000000
s off
g Mirror_lowpoly PROP_____Mirror1 High_Fidelity_Group Glasspane
usemtl initialShadingGroup
f 74/91/73 75/92/74 76/93/75 73/94/76
