# This file uses centimeters as units for non-parametric coordinates.

mtllib Fireplace lowpoly.mtl
g default
v -40.674344 138.869501 -79.454896
v -38.040097 138.869501 -79.454896
v -41.710873 142.896112 -77.482590
v -38.040097 142.896112 -77.482590
v -41.710873 142.896112 -100.654694
v -38.040097 142.896112 -100.654694
v -40.674344 138.869501 -98.682419
v -38.040097 138.869501 -98.682419
v -40.674344 137.306070 -98.682419
v -38.040097 137.306070 -98.682419
v -38.040097 137.306070 -79.454896
v -40.674344 137.306070 -79.454896
v -39.682309 134.956522 -96.456956
v -38.040097 134.956522 -96.456956
v -38.040097 134.956522 -81.680375
v -39.682309 134.956522 -81.680375
v -40.435086 99.555506 -96.456956
v -38.040097 99.555506 -96.456956
v -38.040097 99.555506 -81.680375
v -40.435086 99.555506 -81.680375
v -40.897366 97.399225 -97.882859
v -38.040097 97.399225 -97.882859
v -38.040097 97.399225 -80.254464
v -40.897366 97.399225 -80.254464
v -40.897366 95.596987 -97.882859
v -38.040097 95.596987 -97.882859
v -38.040097 95.596987 -80.254464
v -40.897366 95.596987 -80.254464
v -40.435086 120.579020 -96.456956
v -40.435086 120.579020 -81.680375
v -38.040097 120.579020 -81.680375
v -38.040097 120.579020 -96.456956
v -39.682309 121.760950 -96.456956
v -39.682309 121.760950 -81.680375
v -38.040097 121.760950 -81.680375
v -38.040097 121.760950 -96.456956
v -38.040097 128.177820 -96.456956
v -43.985501 128.177820 -96.456956
v -43.985501 128.177820 -81.680375
v -38.040097 128.177820 -81.680375
v -38.040097 133.094851 -96.456956
v -42.609494 133.094851 -96.456956
v -42.609494 133.094851 -81.680375
v -38.040097 133.094851 -81.680375
v -38.040097 123.260798 -96.456956
v -42.609494 123.260798 -96.456956
v -42.609494 123.260798 -81.680375
v -38.040097 123.260798 -81.680375
vt 0.576957 0.614547
vt 0.580697 0.612368
vt 0.585250 0.618419
vt 0.580403 0.621933
vt 0.539997 0.622449
vt 0.535075 0.619085
vt 0.539446 0.612993
vt 0.543269 0.615095
vt 0.546423 0.536864
vt 0.544007 0.533196
vt 0.574507 0.534007
vt 0.571817 0.537021
vt 0.540587 0.610633
vt 0.543622 0.612407
vt 0.576526 0.611891
vt 0.579571 0.610231
vt 0.543587 0.607070
vt 0.546520 0.607970
vt 0.573622 0.607337
vt 0.576602 0.606575
vt 0.542719 0.604175
vt 0.548384 0.603117
vt 0.571895 0.602854
vt 0.577507 0.603693
vt 0.546633 0.543406
vt 0.542824 0.543572
vt 0.541975 0.537876
vt 0.545788 0.539697
vt 0.575110 0.543412
vt 0.571309 0.543325
vt 0.572424 0.539789
vt 0.575894 0.538522
vt 0.572276 0.579334
vt 0.547187 0.579977
vt 0.575991 0.579292
vt 0.543490 0.580099
vt 0.572888 0.581596
vt 0.546687 0.582303
vt 0.575893 0.581241
vt 0.543670 0.581996
vt 0.548872 0.594710
vt 0.540471 0.594319
vt 0.542858 0.584532
vt 0.548303 0.586467
vt 0.571115 0.594626
vt 0.571322 0.586192
vt 0.579506 0.593755
vt 0.576753 0.583887
vn -0.961421 -0.243207 0.128528
vn 0.000000 -0.346868 0.937914
vn 0.000000 -0.439883 0.898055
vn -0.932566 -0.320980 0.165202
vn -0.932567 -0.320978 -0.165201
vn 0.000000 -0.439877 -0.898058
vn 0.000000 -0.346862 -0.937916
vn -0.961422 -0.243206 -0.128528
vn -0.531511 -0.842659 -0.086149
vn 0.000000 -0.994815 -0.101705
vn 0.000000 -0.994815 0.101705
vn -0.531511 -0.842659 0.086149
vn 0.000000 -0.461698 -0.887037
vn -0.958568 -0.241118 -0.151687
vn -0.958568 -0.241118 0.151688
vn 0.000000 -0.461698 0.887037
vn 0.000000 -0.403020 -0.915191
vn -0.973304 0.147908 -0.175509
vn -0.973304 0.147907 0.175508
vn 0.000000 -0.403020 0.915191
vn 0.000000 0.000000 -1.000000
vn -0.814385 0.516984 -0.263638
vn -0.814385 0.516984 0.263638
vn 0.000000 0.000000 1.000000
vn -0.986957 0.039643 -0.156025
vn 0.000000 0.066702 -0.997773
vn 0.000000 0.327259 -0.944935
vn -0.972207 0.145560 -0.183374
vn 0.000000 0.066703 0.997773
vn -0.986957 0.039643 0.156024
vn -0.972207 0.145561 0.183374
vn 0.000000 0.327264 0.944933
vn -0.987179 0.033466 0.156072
vn -0.987179 0.033466 -0.156072
vn 0.000000 0.000000 1.000000
vn 0.000000 0.000000 -1.000000
vn -0.758814 -0.615254 0.213690
vn -0.758814 -0.615254 -0.213690
vn 0.000000 0.000000 1.000000
vn 0.000000 0.000000 -1.000000
vn -0.959399 0.000000 -0.282051
vn 0.000000 0.000000 -1.000000
vn 0.000000 0.000000 -1.000000
vn -0.800177 -0.536607 -0.267899
vn -0.959399 0.000000 0.282051
vn -0.800177 -0.536607 0.267899
vn 0.000000 0.000000 1.000000
vn 0.000000 0.000000 1.000000
s 1
g Fireplace_Pieces Fireplace_lowpoly PROP_____FIREPLACE High_Fidelity_Group
usemtl initialShadingGroup
f 1/1/1 2/2/2 4/3/3 3/4/4
f 5/5/5 6/6/6 8/7/7 7/8/8
f 25/9/9 26/10/10 27/11/11 28/12/12
f 7/8/8 1/1/1 3/4/4 5/5/5
f 7/8/8 8/7/7 10/13/13 9/14/14
f 2/2/2 1/1/1 12/15/15 11/16/16
f 1/1/1 7/8/8 9/14/14 12/15/15
f 9/14/14 10/13/13 14/17/17 13/18/18
f 11/16/16 12/15/15 16/19/19 15/20/20
f 12/15/15 9/14/14 13/18/18 16/19/19
f 13/18/18 14/17/17 41/21/21 42/22/22
f 15/20/20 16/19/19 43/23/23 44/24/24
f 16/19/19 13/18/18 42/22/22 43/23/23
f 17/25/25 18/26/26 22/27/27 21/28/28
f 19/29/29 20/30/30 24/31/31 23/32/32
f 20/30/30 17/25/25 21/28/28 24/31/31
f 21/28/28 22/27/27 26/10/10 25/9/9
f 23/32/32 24/31/31 28/12/12 27/11/11
f 24/31/31 21/28/28 25/9/9 28/12/12
f 30/33/33 29/34/34 17/25/25 20/30/30
f 31/35/35 30/33/33 20/30/30 19/29/29
f 29/34/34 32/36/36 18/26/26 17/25/25
f 34/37/37 33/38/38 29/34/34 30/33/33
f 35/39/39 34/37/37 30/33/33 31/35/35
f 33/38/38 36/40/40 32/36/36 29/34/34
f 38/41/41 37/42/42 45/43/43 46/44/44
f 39/45/45 38/41/41 46/44/44 47/46/46
f 40/47/47 39/45/45 47/46/46 48/48/48
f 42/22/22 41/21/21 37/42/42 38/41/41
f 43/23/23 42/22/22 38/41/41 39/45/45
f 44/24/24 43/23/23 39/45/45 40/47/47
f 46/44/44 45/43/43 36/40/40 33/38/38
f 47/46/46 46/44/44 33/38/38 34/37/37
f 48/48/48 47/46/46 34/37/37 35/39/39
g default
v -38.040006 0.000006 100.654731
v -38.040006 142.896112 100.654731
v -38.040006 142.896112 77.482574
v -11.225247 142.896112 77.482574
v -38.040006 0.000006 77.482574
v -11.225247 0.000006 77.482574
v -36.122617 0.000006 100.654731
v -36.122617 142.896112 100.654731
v -36.122617 142.896112 77.482574
v -36.122617 0.000006 77.482574
v -36.122617 0.000006 102.746414
v -36.122617 142.896112 102.746414
v -11.225247 0.000006 102.746414
v -11.225247 142.896112 102.746414
vt 0.171092 0.092858
vt 0.174319 0.092858
vt 0.174318 0.333353
vt 0.171091 0.333353
vt 0.132093 0.333353
vt 0.128866 0.333353
vt 0.128866 0.092858
vt 0.132093 0.092858
vt 0.177839 0.333353
vt 0.177839 0.092858
vt 0.219741 0.092858
vt 0.219741 0.333353
vt 0.086963 0.333353
vt 0.086963 0.092858
vn -0.996594 0.000000 0.082464
vn -0.737152 0.000000 0.675727
vn -0.737152 0.000000 0.675727
vn -0.996594 0.000000 0.082464
vn -0.996594 0.000000 -0.082464
vn 0.000000 0.000000 -1.000000
vn 0.000000 0.000000 -1.000000
vn -0.996594 0.000000 -0.082464
vn -0.083717 0.000000 0.996490
vn -0.083717 0.000000 0.996490
vn 0.000000 0.000000 1.000000
vn 0.000000 0.000000 1.000000
vn 0.000000 0.000000 -1.000000
vn 0.000000 0.000000 -1.000000
s 1
g Fireplace_lowpoly PROP_____FIREPLACE High_Fidelity_Group Fireplace_Pieces1
usemtl initialShadingGroup
f 49/49/49 55/50/50 56/51/51 50/52/52
f 51/53/53 57/54/54 58/55/55 53/56/56
f 49/49/49 50/52/52 51/53/53 53/56/56
f 60/57/57 59/58/58 61/59/59 62/60/60
f 58/55/55 57/54/54 52/61/61 54/62/62
f 56/51/51 55/50/50 59/58/58 60/57/57
g default
v -38.040006 0.000006 -77.482552
v -11.225247 0.000006 -77.482552
v -38.040006 142.896112 -77.482552
v -11.225247 142.896112 -77.482552
v -38.040006 142.896112 -100.654694
v -38.040006 0.000006 -100.654694
v -36.122617 0.000006 -77.482552
v -36.122617 142.896112 -77.482552
v -36.122617 142.896112 -100.654694
v -36.122617 0.000006 -100.654694
v -36.122617 142.896112 -102.746377
v -36.122617 0.000006 -102.746377
v -11.225247 142.896112 -102.746377
v -11.225247 0.000006 -102.746377
vt 0.342265 0.090451
vt 0.345492 0.090451
vt 0.345492 0.330946
vt 0.342265 0.330946
vt 0.303266 0.330947
vt 0.300039 0.330946
vt 0.300039 0.090451
vt 0.303266 0.090451
vt 0.387394 0.090451
vt 0.387394 0.330946
vt 0.296519 0.090451
vt 0.296519 0.330946
vt 0.254616 0.330946
vt 0.254616 0.090451
vn -0.996594 0.000000 0.082464
vn 0.000000 0.000000 1.000000
vn 0.000000 0.000000 1.000000
vn -0.996594 0.000000 0.082464
vn -0.996594 0.000000 -0.082464
vn -0.737152 0.000000 -0.675727
vn -0.737152 0.000000 -0.675727
vn -0.996594 0.000000 -0.082464
vn 0.000000 0.000000 1.000000
vn 0.000000 0.000000 1.000000
vn -0.083717 0.000000 -0.996490
vn -0.083717 0.000000 -0.996490
vn 0.000000 0.000000 -1.000000
vn 0.000000 0.000000 -1.000000
s 1
g Fireplace_lowpoly PROP_____FIREPLACE High_Fidelity_Group Fireplace_Pieces2
usemtl initialShadingGroup
f 63/63/63 69/64/64 70/65/65 65/66/66
f 67/67/67 71/68/68 72/69/69 68/70/70
f 63/63/63 65/66/66 67/67/67 68/70/70
f 70/65/65 69/64/64 64/71/71 66/72/72
f 74/73/73 73/74/74 75/75/75 76/76/76
f 72/69/69 71/68/68 73/74/74 74/73/73
g default
v -33.391660 0.000000 77.482543
v -33.391660 142.896112 77.482543
v -33.391660 142.896112 -77.482545
v -33.391660 0.000000 -77.482545
v -11.225247 80.522562 67.495269
v -11.225247 80.522562 -67.495263
v -11.225247 0.000000 -67.495263
v -11.225247 0.000000 67.495269
v -11.225247 113.327044 0.000003
v -33.391660 142.896112 0.000003
v -11.225308 106.065516 -34.390954
v -11.225308 106.065516 34.390964
v -11.225308 95.845835 -51.010514
v -11.225308 95.845835 51.010532
v -11.225308 111.679438 -17.351304
v -11.225247 111.679438 17.351314
v -33.391660 80.957720 68.493896
v -32.393033 80.522562 67.495269
v -33.391660 96.644655 51.617931
v -32.393033 95.845835 51.010532
v -33.391660 80.957720 -68.493882
v -32.393033 80.522562 -67.495263
v -32.393033 0.000000 -67.495263
v -33.391660 0.000000 -68.493882
v -33.391660 0.000000 68.493896
v -32.393033 0.000000 67.495269
v -33.391660 114.330164 0.000003
v -32.393033 113.327044 0.000003
v -33.391660 112.662996 -17.557315
v -32.393033 111.679438 -17.351304
v -33.391660 106.977404 -34.814469
v -32.393033 106.065516 -34.390954
v -32.393033 95.845835 -51.010514
v -33.391660 96.644655 -51.617913
v -33.391660 106.977404 34.814479
v -32.393033 106.065516 34.390964
v -32.393033 111.679438 17.351314
v -33.391660 112.662996 17.557311
vt 0.417672 0.359981
vt 0.064610 0.371663
vt 0.343735 0.517846
vt 0.324988 0.489523
vt 0.128292 0.610083
vt 0.110333 0.503548
vt 0.381938 0.496516
vt 0.434536 0.365030
vt 0.067645 0.370607
vt 0.099642 0.359123
vt 0.050878 0.376296
vt 0.420799 0.360969
vt 0.378902 0.494418
vt 0.348306 0.473722
vt 0.383736 0.348594
vt 0.148774 0.525567
vt 0.143456 0.478098
vt 0.113255 0.501170
vt 0.215370 0.541604
vt 0.220191 0.506828
vt 0.247635 0.545963
vt 0.280363 0.543050
vt 0.247546 0.542715
vt 0.246420 0.507757
vt 0.150186 0.522728
vt 0.166584 0.494345
vt 0.183081 0.538225
vt 0.248648 0.591475
vt 0.345329 0.520634
vt 0.370119 0.603389
vt 0.310774 0.531474
vt 0.298623 0.499299
vt 0.214810 0.544872
vt 0.183928 0.535010
vt 0.194131 0.502192
vt 0.279623 0.539818
vt 0.272545 0.505352
vt 0.311793 0.534636
vn -0.998862 -0.008143 -0.046987
vn -0.056487 -0.169300 -0.983945
vn -0.045122 0.000000 -0.998982
vn -0.983942 0.000000 -0.178489
vn -0.999879 -0.012313 -0.009507
vn -0.047540 -0.790816 -0.610205
vn -0.999952 -0.008839 -0.004158
vn -0.047845 -0.903846 -0.425175
vn -0.998862 -0.008144 0.046987
vn -0.056487 -0.169300 0.983945
vn -0.047540 -0.790816 0.610205
vn -0.999879 -0.012315 0.009507
vn -0.983942 0.000000 0.178489
vn -0.045121 0.000000 0.998982
vn -0.998262 -0.058933 0.000000
vn -0.047309 -0.998880 -0.000000
vn -0.047737 -0.977312 -0.206357
vn -0.997843 -0.064229 -0.013563
vn -0.997843 -0.064229 0.013563
vn -0.047737 -0.977312 0.206357
vn -0.999952 -0.008841 0.004158
vn -0.047845 -0.903846 0.425175
vn 0.000000 -0.791720 -0.610884
vn 0.000000 -0.169503 -0.985530
vn -1.000000 0.000001 0.000000
vn -1.000000 -0.000001 0.000000
vn -1.000000 0.000000 0.000000
vn -1.000000 0.000000 0.000000
vn 0.000000 -0.169503 0.985530
vn 0.000000 0.000000 1.000000
vn 0.000000 0.000000 -1.000000
vn 0.000000 -0.791720 0.610884
vn 0.000000 -0.978427 0.206591
vn 0.000000 -1.000000 -0.000000
vn -1.000000 -0.000000 0.000000
vn 0.000000 -0.978427 -0.206591
vn 0.000000 -0.904881 0.425665
vn 0.000000 -0.904881 -0.425664
s 1
g Fireplace_lowpoly PROP_____FIREPLACE High_Fidelity_Group Fireplace_Pieces3
usemtl initialShadingGroup
f 93/83/77 94/89/78 102/77/79 101/88/80
f 94/89/78 93/83/77 95/105/81 96/79/82
f 96/79/82 95/105/81 111/114/83 112/107/84
f 97/82/85 98/94/86 109/101/87 110/92/88
f 98/94/86 97/82/85 100/78/89 99/85/90
f 103/97/91 104/99/92 113/112/93 114/98/94
f 104/99/92 103/97/91 105/109/95 106/95/96
f 106/95/96 105/109/95 107/103/97 108/110/98
f 108/110/98 107/103/97 110/92/88 109/101/87
f 112/107/84 111/114/83 114/98/94 113/112/93
f 96/79/82 90/80/99 81/90/100 94/89/78
f 78/106/101 95/105/81 93/83/77
f 79/81/102 80/87/103 97/82/85
f 78/106/101 93/83/77 77/84/104
f 82/93/105 98/94/86 99/85/90 83/86/106
f 97/82/85 80/87/103 100/78/89
f 77/84/104 93/83/77 101/88/80
f 94/89/78 81/90/100 84/91/107 102/77/79
f 97/82/85 110/92/88 79/81/102
f 82/93/105 89/102/108 109/101/87 98/94/86
f 106/95/96 91/96/109 85/100/110 104/99/92
f 86/104/111 105/109/95 103/97/91
f 86/104/111 103/97/91 114/98/94
f 104/99/92 85/100/110 92/113/112 113/112/93
f 109/101/87 89/102/108 87/111/113 108/110/98
f 79/81/102 110/92/88 107/103/97 86/104/111
f 86/104/111 111/114/83 95/105/81 78/106/101
f 112/107/84 88/108/114 90/80/99 96/79/82
f 86/104/111 107/103/97 105/109/95
f 108/110/98 87/111/113 91/96/109 106/95/96
f 113/112/93 92/113/112 88/108/114 112/107/84
f 86/104/111 114/98/94 111/114/83
g default
v -39.812833 96.329340 -96.739678
v -38.040097 96.329340 -96.739678
v -38.040097 96.329340 -81.397736
v -39.812833 96.329340 -81.397736
v -40.533170 95.569651 -97.423485
v -40.533170 95.569651 -80.713914
v -38.040097 95.569651 -80.713914
v -38.040097 95.569651 -97.423485
v -40.533170 92.352449 -97.423485
v -40.533170 92.352449 -80.713914
v -38.040097 92.352449 -97.423485
v -38.040097 92.352449 -80.713914
v -38.920712 84.554064 -91.404046
v -38.920712 84.554064 -86.733361
v -38.040097 84.554064 -91.404046
v -38.040097 84.554064 -86.733361
v -38.920712 83.596193 -91.404046
v -38.920712 83.596193 -86.733361
v -38.040097 83.596193 -91.404046
v -38.040097 83.596193 -86.733361
v -38.920712 81.630716 -90.756776
v -38.920712 81.630716 -87.380624
v -38.040097 81.630716 -90.756776
v -38.040097 81.630716 -87.380624
v -39.390439 84.554064 -91.844285
v -39.390439 84.554064 -86.293122
v -39.390439 83.596193 -91.844285
v -39.390439 83.596193 -86.293122
v -38.040067 84.554064 -91.844285
v -38.040067 83.596193 -91.844285
v -38.040067 84.554064 -86.293122
v -38.040067 83.596193 -86.293122
v -38.040097 80.726351 -89.068696
v -38.920712 80.726351 -89.068696
v -38.920712 83.596193 -89.068696
v -39.390439 83.596193 -89.068696
v -39.390439 84.554064 -89.068696
v -38.920712 84.554064 -89.068696
v -40.533170 92.352449 -89.068696
v -40.533170 95.569651 -89.068696
v -39.812833 96.329340 -89.068696
v -40.022366 90.495859 -94.963975
v -39.313931 88.413897 -93.493195
v -38.760739 86.238955 -92.014710
v -38.694577 86.155230 -89.068696
v -39.269772 88.375299 -89.068696
v -40.004666 90.495852 -89.068696
v -38.018796 86.222284 -92.006348
v -38.040097 88.395746 -93.485276
v -38.040097 90.495852 -94.959870
v -38.040097 90.495852 -83.177537
v -38.040097 88.395746 -84.652131
v -38.018796 86.222284 -86.131043
v -38.760739 86.238962 -86.122689
v -39.313931 88.413904 -84.644204
v -40.022366 90.495859 -83.173417
vt 0.456141 0.521787
vt 0.452939 0.522295
vt 0.452200 0.520505
vt 0.455824 0.520130
vt 0.484828 0.523195
vt 0.481960 0.522471
vt 0.482426 0.520835
vt 0.485599 0.521454
vt 0.469076 0.520683
vt 0.469025 0.522416
vt 0.470108 0.492414
vt 0.470053 0.493622
vt 0.467450 0.494791
vt 0.466687 0.493686
vt 0.469225 0.514829
vt 0.456251 0.515141
vt 0.453029 0.513903
vt 0.482067 0.515859
vt 0.485702 0.514813
vt 0.469774 0.498962
vt 0.469690 0.500655
vt 0.465357 0.499966
vt 0.465607 0.498514
vt 0.463743 0.499682
vt 0.464258 0.497729
vt 0.475564 0.500254
vt 0.474132 0.500338
vt 0.473893 0.498913
vt 0.475487 0.498242
vt 0.469810 0.498276
vt 0.465906 0.497830
vt 0.464705 0.496999
vt 0.475013 0.497502
vt 0.473729 0.498204
vt 0.472514 0.495032
vt 0.473438 0.494005
vt 0.469664 0.501321
vt 0.465423 0.500685
vt 0.463935 0.500452
vt 0.475373 0.500972
vt 0.473935 0.501050
vt 0.464201 0.503753
vt 0.461733 0.507826
vt 0.460208 0.506557
vt 0.463123 0.503204
vt 0.459368 0.511686
vt 0.456984 0.509718
vt 0.475980 0.503660
vt 0.478677 0.507102
vt 0.477098 0.508298
vt 0.474873 0.504148
vt 0.481751 0.510402
vt 0.479245 0.512252
vt 0.469320 0.511480
vt 0.469546 0.503874
vt 0.469425 0.507649
vn -0.633289 0.754710 -0.171341
vn 0.000000 0.669011 -0.743253
vn 0.000000 0.149578 -0.988750
vn -0.950127 0.140223 -0.278561
vn 0.000000 0.669019 0.743245
vn -0.633288 0.754711 0.171340
vn -0.950127 0.140222 0.278562
vn 0.000000 0.149581 0.988749
vn -0.985016 0.172463 0.000000
vn -0.725652 0.688062 0.000000
vn 0.000000 -1.000000 0.000000
vn -0.908915 -0.416981 0.000000
vn -0.909963 -0.261744 -0.321647
vn 0.000000 -0.631182 -0.775635
vn -0.995791 -0.091656 -0.000000
vn -0.924271 -0.184822 -0.334012
vn 0.000284 -0.412157 -0.911113
vn -0.924271 -0.184821 0.334011
vn 0.000284 -0.412157 0.911113
vn -0.911405 -0.411512 0.000000
vn -0.911405 0.411512 0.000000
vn -0.863410 0.279409 -0.420065
vn -0.863408 -0.279416 -0.420064
vn 0.000000 0.354929 -0.934893
vn 0.000000 -0.354931 -0.934893
vn 0.000000 0.354930 0.934893
vn -0.863407 0.279416 0.420065
vn -0.863409 -0.279409 0.420066
vn 0.000000 -0.354929 0.934893
vn -0.969115 -0.246609 0.000000
vn -0.727869 -0.598380 -0.334886
vn 0.000000 -0.522661 -0.852541
vn 0.000000 -0.522660 0.852541
vn -0.727876 -0.598369 0.334891
vn -0.909966 -0.261733 0.321650
vn 0.000000 -0.631171 0.775644
vn -0.929217 0.369535 -0.000000
vn -0.872821 0.445311 -0.199706
vn 0.001435 -0.003686 -0.999992
vn 0.001435 -0.003698 0.999992
vn -0.872820 0.445312 0.199707
vn -0.924462 -0.296826 -0.239300
vn -0.857797 -0.450345 -0.247737
vn -0.001318 -0.570643 -0.821197
vn -0.001469 -0.485981 -0.873968
vn -0.840719 -0.493145 -0.223603
vn 0.000273 -0.722729 -0.691132
vn -0.001473 -0.485975 0.873971
vn -0.001317 -0.570637 0.821201
vn -0.857797 -0.450344 0.247738
vn -0.924461 -0.296827 0.239302
vn 0.000275 -0.722728 0.691132
vn -0.840720 -0.493144 0.223604
vn -0.955879 -0.293760 0.000000
vn -0.992935 -0.118658 0.000000
vn -0.956856 -0.290562 0.000000
s 1
g Fireplace_lowpoly PROP_____FIREPLACE High_Fidelity_Group Fireplace_Pieces4
usemtl initialShadingGroup
f 115/115/115 116/116/116 122/117/117 119/118/118
f 117/119/119 118/120/120 120/121/121 121/122/122
f 154/123/123 155/124/124 115/115/115 119/118/118
f 147/125/125 148/126/126 135/127/127 137/128/128
f 153/129/129 154/123/123 119/118/118 123/130/130
f 119/118/118 122/117/117 125/131/131 123/130/130
f 121/122/122 120/121/121 124/132/132 126/133/133
f 150/134/134 151/135/135 139/136/136 141/137/137
f 139/136/136 143/138/138 144/139/139 141/137/137
f 145/140/140 140/141/141 142/142/142 146/143/143
f 148/126/126 149/144/144 131/145/145 135/127/127
f 131/145/145 133/146/146 137/128/128 135/127/127
f 134/147/147 132/148/148 136/149/149 138/150/150
f 151/135/135 152/151/151 127/152/152 139/136/136
f 131/145/145 149/144/144 150/134/134 141/137/137
f 127/152/152 129/153/153 143/138/138 139/136/136
f 133/146/146 131/145/145 141/137/137 144/139/139
f 130/154/154 128/155/155 140/141/141 145/140/140
f 132/148/148 134/147/147 146/143/143 142/142/142
f 136/149/149 148/126/126 147/125/125 138/150/150
f 132/148/148 149/144/144 148/126/126 136/149/149
f 150/134/134 149/144/144 132/148/148 142/142/142
f 140/141/141 151/135/135 150/134/134 142/142/142
f 128/155/155 152/151/151 151/135/135 140/141/141
f 120/121/121 154/123/123 153/129/129 124/132/132
f 118/120/120 155/124/124 154/123/123 120/121/121
f 158/156/156 157/157/157 163/158/158 162/159/159
f 157/157/157 156/160/160 164/161/161 163/158/158
f 167/162/162 166/163/163 169/164/164 168/165/165
f 166/163/163 165/166/166 170/167/167 169/164/164
f 161/168/168 153/129/129 123/130/130 156/160/160
f 123/130/130 125/131/131 164/161/161 156/160/160
f 126/133/133 124/132/132 170/167/167 165/166/166
f 152/151/151 159/169/169 158/156/156 127/152/152
f 158/156/156 162/159/159 129/153/153 127/152/152
f 167/162/162 168/165/165 128/155/155 130/154/154
f 168/165/165 159/169/169 152/151/151 128/155/155
f 124/132/132 153/129/129 161/168/168 170/167/167
f 156/160/160 157/157/157 160/170/170 161/168/168
f 157/157/157 158/156/156 159/169/169 160/170/170
f 161/168/168 160/170/170 169/164/164 170/167/167
f 160/170/170 159/169/169 168/165/165 169/164/164
g default
v -40.674344 138.869501 98.786697
v -38.040097 138.869501 98.786697
v -41.710873 142.896112 100.654685
v -38.040097 142.896112 100.654685
v -41.710873 142.896112 77.482559
v -38.040097 142.896112 77.482559
v -40.674344 138.869501 79.350509
v -38.040097 138.869501 79.350509
v -40.674344 137.306070 79.350509
v -38.040097 137.306070 79.350509
v -38.040097 137.306070 98.786697
v -40.674344 137.306070 98.786697
v -39.682309 134.956522 81.600143
v -38.040097 134.956522 81.600143
v -38.040097 134.956522 96.537071
v -39.682309 134.956522 96.537071
v -40.435086 99.555506 81.600143
v -38.040097 99.555506 81.600143
v -38.040097 99.555506 96.537071
v -40.435086 99.555506 96.537071
v -40.897366 97.399225 80.158759
v -38.040097 97.399225 80.158759
v -38.040097 97.399225 97.978439
v -40.897366 97.399225 97.978439
v -40.897366 95.596987 80.158759
v -38.040097 95.596987 80.158759
v -38.040097 95.596987 97.978439
v -40.897366 95.596987 97.978439
v -40.435086 120.579020 81.600143
v -40.435086 120.579020 96.537071
v -38.040097 120.579020 96.537071
v -38.040097 120.579020 81.600143
v -39.682309 121.760950 81.600143
v -39.682309 121.760950 96.537071
v -38.040097 121.760950 96.537071
v -38.040097 121.760950 81.600143
v -38.040097 128.177820 81.600143
v -43.985501 128.177820 81.600143
v -43.985501 128.177820 96.537071
v -38.040097 128.177820 96.537071
v -38.040097 133.094851 81.600143
v -42.609494 133.094851 81.600143
v -42.609494 133.094851 96.537071
v -38.040097 133.094851 96.537071
v -38.040097 123.260798 81.600143
v -42.609494 123.260798 81.600143
v -42.609494 123.260798 96.537071
v -38.040097 123.260798 96.537071
vt 0.483073 0.619221
vt 0.486868 0.617137
vt 0.491265 0.623302
vt 0.486331 0.626692
vt 0.445924 0.626181
vt 0.441089 0.622693
vt 0.445614 0.616713
vt 0.449381 0.618912
vt 0.454523 0.540787
vt 0.452201 0.537059
vt 0.482671 0.538645
vt 0.479905 0.541590
vt 0.446813 0.614383
vt 0.449803 0.616234
vt 0.482709 0.616555
vt 0.485796 0.614972
vt 0.449904 0.610898
vt 0.452813 0.611872
vt 0.479923 0.611929
vt 0.482921 0.611242
vt 0.449110 0.607982
vt 0.454800 0.607068
vt 0.478310 0.607403
vt 0.483898 0.608384
vt 0.454568 0.547332
vt 0.450755 0.547401
vt 0.450051 0.541686
vt 0.453817 0.543603
vt 0.483035 0.548062
vt 0.479237 0.547879
vt 0.480441 0.544372
vt 0.483942 0.543194
vt 0.479289 0.583900
vt 0.454191 0.583905
vt 0.483003 0.583953
vt 0.450493 0.583933
vt 0.479844 0.586177
vt 0.453632 0.586218
vt 0.482856 0.585899
vt 0.450624 0.585834
vt 0.455501 0.598676
vt 0.447113 0.598072
vt 0.449748 0.588349
vt 0.455142 0.590421
vt 0.477739 0.599158
vt 0.478161 0.590732
vt 0.486149 0.598500
vt 0.483648 0.588565
vn -0.962103 -0.240251 0.128987
vn 0.000000 -0.330576 0.943779
vn 0.000000 -0.420832 0.907139
vn -0.935013 -0.315659 0.161589
vn -0.935014 -0.315656 -0.161588
vn 0.000000 -0.420821 -0.907144
vn 0.000000 -0.330567 -0.943783
vn -0.962103 -0.240250 -0.128987
vn -0.531551 -0.842727 -0.085231
vn 0.000000 -0.994925 -0.100624
vn 0.000000 -0.994925 0.100624
vn -0.531551 -0.842727 0.085231
vn 0.000000 -0.465631 -0.884979
vn -0.958816 -0.240828 -0.150578
vn -0.958816 -0.240827 0.150578
vn 0.000000 -0.465627 0.884981
vn 0.000000 -0.406677 -0.913572
vn -0.973799 0.147148 -0.173386
vn -0.973799 0.147149 0.173386
vn 0.000000 -0.406673 0.913574
vn 0.000000 0.000000 -1.000000
vn -0.814992 0.517365 -0.261003
vn -0.814992 0.517365 0.261003
vn 0.000000 0.000000 1.000000
vn -0.987220 0.039701 -0.154338
vn 0.000000 0.067424 -0.997724
vn 0.000000 0.330430 -0.943830
vn -0.972499 0.145498 -0.181867
vn 0.000000 0.067423 0.997725
vn -0.987220 0.039701 0.154338
vn -0.972499 0.145497 0.181866
vn 0.000000 0.330425 0.943832
vn -0.987435 0.033475 0.154437
vn -0.987435 0.033475 -0.154437
vn 0.000000 0.000000 1.000000
vn 0.000000 0.000000 -1.000000
vn -0.759185 -0.615554 0.211499
vn -0.759185 -0.615554 -0.211499
vn 0.000000 0.000000 1.000000
vn 0.000000 0.000000 -1.000000
vn -0.960215 0.000000 -0.279261
vn 0.000000 0.000000 -1.000000
vn 0.000000 0.000000 -1.000000
vn -0.800793 -0.537016 -0.265227
vn -0.960215 0.000000 0.279261
vn -0.800793 -0.537016 0.265227
vn 0.000000 0.000000 1.000000
vn 0.000000 0.000000 1.000000
s 1
g Fireplace_lowpoly PROP_____FIREPLACE High_Fidelity_Group Fireplace_Pieces5
usemtl initialShadingGroup
f 171/171/171 172/172/172 174/173/173 173/174/174
f 175/175/175 176/176/176 178/177/177 177/178/178
f 195/179/179 196/180/180 197/181/181 198/182/182
f 177/178/178 171/171/171 173/174/174 175/175/175
f 177/178/178 178/177/177 180/183/183 179/184/184
f 172/172/172 171/171/171 182/185/185 181/186/186
f 171/171/171 177/178/178 179/184/184 182/185/185
f 179/184/184 180/183/183 184/187/187 183/188/188
f 181/186/186 182/185/185 186/189/189 185/190/190
f 182/185/185 179/184/184 183/188/188 186/189/189
f 183/188/188 184/187/187 211/191/191 212/192/192
f 185/190/190 186/189/189 213/193/193 214/194/194
f 186/189/189 183/188/188 212/192/192 213/193/193
f 187/195/195 188/196/196 192/197/197 191/198/198
f 189/199/199 190/200/200 194/201/201 193/202/202
f 190/200/200 187/195/195 191/198/198 194/201/201
f 191/198/198 192/197/197 196/180/180 195/179/179
f 193/202/202 194/201/201 198/182/182 197/181/181
f 194/201/201 191/198/198 195/179/179 198/182/182
f 200/203/203 199/204/204 187/195/195 190/200/200
f 201/205/205 200/203/203 190/200/200 189/199/199
f 199/204/204 202/206/206 188/196/196 187/195/195
f 204/207/207 203/208/208 199/204/204 200/203/203
f 205/209/209 204/207/207 200/203/203 201/205/205
f 203/208/208 206/210/210 202/206/206 199/204/204
f 208/211/211 207/212/212 215/213/213 216/214/214
f 209/215/215 208/211/211 216/214/214 217/216/216
f 210/217/217 209/215/215 217/216/216 218/218/218
f 212/192/192 211/191/191 207/212/212 208/211/211
f 213/193/193 212/192/192 208/211/211 209/215/215
f 214/194/194 213/193/193 209/215/215 210/217/217
f 216/214/214 215/213/213 206/210/210 203/208/208
f 217/216/216 216/214/214 203/208/208 204/207/207
f 218/218/218 217/216/216 204/207/207 205/209/209
g default
v -39.812833 96.329340 81.314361
v -38.040097 96.329340 81.314361
v -38.040097 96.329340 96.822791
v -39.812833 96.329340 96.822791
v -40.533170 95.569651 80.623138
v -40.533170 95.569651 97.514037
v -38.040097 95.569651 97.514037
v -38.040097 95.569651 80.623138
v -40.533170 92.352449 80.623138
v -40.533170 92.352449 97.514037
v -38.040097 92.352449 80.623138
v -38.040097 92.352449 97.514037
v -38.920712 84.554064 86.707893
v -38.920712 84.554064 91.429267
v -38.040097 84.554064 86.707893
v -38.040097 84.554064 91.429267
v -38.920712 83.596193 86.707893
v -38.920712 83.596193 91.429267
v -38.040097 83.596193 86.707893
v -38.040097 83.596193 91.429267
v -38.920712 81.630716 87.362182
v -38.920712 81.630716 90.774986
v -38.040097 81.630716 87.362182
v -38.040097 81.630716 90.774986
v -39.390439 84.554064 86.262878
v -39.390439 84.554064 91.874275
v -39.390439 83.596193 86.262878
v -39.390439 83.596193 91.874275
v -38.040067 84.554064 86.262878
v -38.040067 83.596193 86.262878
v -38.040067 84.554064 91.874275
v -38.040067 83.596193 91.874275
v -38.040097 80.726351 89.068580
v -38.920712 80.726351 89.068580
v -38.920712 83.596193 89.068580
v -39.390439 83.596193 89.068580
v -39.390439 84.554064 89.068580
v -38.920712 84.554064 89.068580
v -40.533170 92.352449 89.068580
v -40.533170 95.569651 89.068580
v -39.812833 96.329340 89.068580
v -40.022366 90.495859 83.109336
v -39.313931 88.413897 84.596069
v -38.760739 86.238955 86.090614
v -38.694577 86.155230 89.068580
v -39.269772 88.375299 89.068580
v -40.004666 90.495852 89.068580
v -38.018796 86.222284 86.099052
v -38.040097 88.395746 84.604080
v -38.040097 90.495852 83.113487
v -38.040097 90.495852 95.023681
v -38.040097 88.395746 93.533080
v -38.018796 86.222284 92.038116
v -38.760739 86.238962 92.046562
v -39.313931 88.413904 93.541091
v -40.022366 90.495859 95.027839
vt 0.541638 0.498543
vt 0.538445 0.499109
vt 0.537674 0.497333
vt 0.541291 0.496892
vt 0.570345 0.499427
vt 0.567464 0.498756
vt 0.567901 0.497111
vt 0.571084 0.497672
vt 0.554550 0.497203
vt 0.554531 0.498936
vt 0.555066 0.468919
vt 0.555033 0.470129
vt 0.552452 0.471345
vt 0.551669 0.470254
vt 0.554592 0.491347
vt 0.541626 0.491896
vt 0.538382 0.490717
vt 0.567451 0.492142
vt 0.571067 0.491031
vt 0.554852 0.475472
vt 0.554798 0.477167
vt 0.550454 0.476557
vt 0.550677 0.475100
vt 0.548835 0.476302
vt 0.549314 0.474340
vt 0.560664 0.476658
vt 0.559234 0.476768
vt 0.558969 0.475349
vt 0.560551 0.474648
vt 0.554876 0.474786
vt 0.550965 0.474411
vt 0.549747 0.473602
vt 0.560064 0.473917
vt 0.558792 0.474642
vt 0.557520 0.471493
vt 0.558424 0.470450
vt 0.554784 0.477833
vt 0.550532 0.477275
vt 0.549040 0.477069
vt 0.560486 0.477380
vt 0.559051 0.477484
vt 0.549367 0.480365
vt 0.546974 0.484481
vt 0.545426 0.483241
vt 0.548279 0.479835
vt 0.544680 0.488385
vt 0.542260 0.486461
vt 0.561142 0.480057
vt 0.563901 0.483448
vt 0.562345 0.484674
vt 0.560045 0.480564
vt 0.567036 0.486692
vt 0.564564 0.488588
vt 0.554627 0.487997
vt 0.554713 0.480388
vt 0.554661 0.484164
vn -0.633789 0.754802 -0.169070
vn 0.000000 0.672991 -0.739651
vn 0.000000 0.151164 -0.988509
vn -0.950905 0.139929 -0.276041
vn 0.000000 0.673003 0.739639
vn -0.633797 0.754796 0.169070
vn -0.950906 0.139925 0.276042
vn 0.000000 0.151168 0.988508
vn -0.985016 0.172463 0.000000
vn -0.725651 0.688063 0.000000
vn 0.000000 -1.000000 0.000000
vn -0.909568 -0.415556 0.000000
vn -0.910889 -0.262146 -0.318687
vn 0.000000 -0.635272 -0.772289
vn -0.995790 -0.091658 -0.000000
vn -0.925209 -0.185020 -0.331296
vn 0.000287 -0.415859 -0.909429
vn -0.925209 -0.185021 0.331295
vn 0.000286 -0.415859 0.909429
vn -0.911410 -0.411498 0.000000
vn -0.911410 0.411498 0.000000
vn -0.865233 0.279205 -0.416434
vn -0.865234 -0.279201 -0.416434
vn 0.000000 0.358287 -0.933612
vn 0.000000 -0.358288 -0.933611
vn 0.000000 0.358278 0.933615
vn -0.865234 0.279200 0.416435
vn -0.865232 -0.279205 0.416435
vn 0.000000 -0.358277 0.933615
vn -0.969118 -0.246599 0.000000
vn -0.727668 -0.600200 -0.332052
vn 0.000000 -0.526762 -0.850013
vn 0.000000 -0.526755 0.850017
vn -0.727670 -0.600197 0.332053
vn -0.910890 -0.262141 0.318687
vn 0.000000 -0.635272 0.772289
vn -0.929225 0.369513 0.000000
vn -0.873349 0.445340 -0.197319
vn 0.001446 -0.003735 -0.999992
vn 0.001458 -0.003747 0.999992
vn -0.873353 0.445330 0.197320
vn -0.925073 -0.297111 -0.236571
vn -0.858390 -0.450655 -0.245103
vn -0.001328 -0.574796 -0.818296
vn -0.001484 -0.489984 -0.871730
vn -0.841281 -0.493249 -0.221251
vn 0.000275 -0.726443 -0.687226
vn -0.001487 -0.489992 0.871726
vn -0.001329 -0.574801 0.818292
vn -0.858390 -0.450657 0.245102
vn -0.925071 -0.297116 0.236572
vn 0.000276 -0.726444 0.687226
vn -0.841279 -0.493253 0.221250
vn -0.955877 -0.293767 0.000000
vn -0.992932 -0.118685 0.000000
vn -0.956856 -0.290563 0.000000
s 1
g Fireplace_lowpoly PROP_____FIREPLACE High_Fidelity_Group Fireplace_Pieces6
usemtl initialShadingGroup
f 219/219/219 220/220/220 226/221/221 223/222/222
f 221/223/223 222/224/224 224/225/225 225/226/226
f 258/227/227 259/228/228 219/219/219 223/222/222
f 251/229/229 252/230/230 239/231/231 241/232/232
f 257/233/233 258/227/227 223/222/222 227/234/234
f 223/222/222 226/221/221 229/235/235 227/234/234
f 225/226/226 224/225/225 228/236/236 230/237/237
f 254/238/238 255/239/239 243/240/240 245/241/241
f 243/240/240 247/242/242 248/243/243 245/241/241
f 249/244/244 244/245/245 246/246/246 250/247/247
f 252/230/230 253/248/248 235/249/249 239/231/231
f 235/249/249 237/250/250 241/232/232 239/231/231
f 238/251/251 236/252/252 240/253/253 242/254/254
f 255/239/239 256/255/255 231/256/256 243/240/240
f 235/249/249 253/248/248 254/238/238 245/241/241
f 231/256/256 233/257/257 247/242/242 243/240/240
f 237/250/250 235/249/249 245/241/241 248/243/243
f 234/258/258 232/259/259 244/245/245 249/244/244
f 236/252/252 238/251/251 250/247/247 246/246/246
f 240/253/253 252/230/230 251/229/229 242/254/254
f 236/252/252 253/248/248 252/230/230 240/253/253
f 254/238/238 253/248/248 236/252/252 246/246/246
f 244/245/245 255/239/239 254/238/238 246/246/246
f 232/259/259 256/255/255 255/239/239 244/245/245
f 224/225/225 258/227/227 257/233/233 228/236/236
f 222/224/224 259/228/228 258/227/227 224/225/225
f 262/260/260 261/261/261 267/262/262 266/263/263
f 261/261/261 260/264/264 268/265/265 267/262/262
f 271/266/266 270/267/267 273/268/268 272/269/269
f 270/267/267 269/270/270 274/271/271 273/268/268
f 265/272/272 257/233/233 227/234/234 260/264/264
f 227/234/234 229/235/235 268/265/265 260/264/264
f 230/237/237 228/236/236 274/271/271 269/270/270
f 256/255/255 263/273/273 262/260/260 231/256/256
f 262/260/260 266/263/263 233/257/257 231/256/256
f 271/266/266 272/269/269 232/259/259 234/258/258
f 272/269/269 263/273/273 256/255/255 232/259/259
f 228/236/236 257/233/233 265/272/272 274/271/271
f 260/264/264 261/261/261 264/274/274 265/272/272
f 261/261/261 262/260/260 263/273/273 264/274/274
f 265/272/272 264/274/274 273/268/268 274/271/271
f 264/274/274 263/273/273 272/269/269 273/268/268
g default
v -34.600369 129.227343 -9.115596
v -33.391721 129.227350 -9.115596
v -33.391721 129.227350 9.115565
v -34.600369 129.227343 9.115565
v -34.600369 142.896097 -9.115596
v -33.391721 142.896097 -9.115596
v -33.391721 142.896112 9.115565
v -34.600369 142.896112 9.115565
v -35.430661 141.555002 7.326814
v -35.430661 130.568445 7.326814
v -35.430661 141.554987 -7.326843
v -35.430661 130.568445 -7.326843
vt 0.918776 0.313253
vt 0.917945 0.311589
vt 0.948693 0.311589
vt 0.947863 0.313253
vt 0.915876 0.335195
vt 0.913822 0.335195
vt 0.952816 0.335195
vt 0.950761 0.335195
vt 0.945096 0.316024
vt 0.946866 0.335195
vt 0.919769 0.335195
vt 0.921542 0.316024
vn -0.547499 -0.651053 -0.525714
vn 0.000005 -0.800097 -0.599870
vn 0.000005 -0.800097 0.599871
vn -0.547499 -0.651053 0.525714
vn -0.513073 0.000000 -0.858345
vn -0.000000 0.000000 -1.000000
vn 0.000000 0.000000 1.000000
vn -0.513072 0.000000 0.858345
vn -0.993745 -0.092694 0.062288
vn -0.997288 0.000000 0.073598
vn -0.997288 0.000000 -0.073598
vn -0.993745 -0.092694 -0.062288
s 1
g Fireplace_lowpoly PROP_____FIREPLACE High_Fidelity_Group Fireplace_Pieces7
usemtl initialShadingGroup
f 275/275/275 276/276/276 277/277/277 278/278/278
f 275/275/275 279/279/279 280/280/280 276/276/276
f 278/278/278 277/277/277 281/281/281 282/282/282
f 284/283/283 283/284/284 285/285/285 286/286/286
f 278/278/278 282/282/282 283/284/284 284/283/283
f 279/279/279 275/275/275 286/286/286 285/285/285
f 275/275/275 278/278/278 284/283/283 286/286/286
g default
v -34.203946 127.128305 77.482543
v -33.193082 127.128305 77.482543
v -34.203946 129.227320 77.482543
v -33.193082 129.227320 77.482543
v -34.203946 129.227320 -77.482537
v -33.193082 129.227320 -77.482537
v -34.203946 127.128305 -77.482537
v -33.193082 127.128305 -77.482537
v -33.193082 128.177820 77.482543
v -34.708676 128.177820 77.482543
v -34.708676 128.177820 -77.482537
v -33.193082 128.177820 -77.482537
vt 0.840056 0.416529
vt 0.840088 0.414819
vt 0.841975 0.418517
vt 0.839742 0.418474
vt 0.579306 0.413461
vt 0.577079 0.413418
vt 0.577294 0.411509
vt 0.579075 0.411508
vt 0.841761 0.420428
vt 0.578966 0.417113
vt 0.579000 0.415403
vt 0.839981 0.420430
vt 0.579107 0.409798
vt 0.577220 0.415334
vt 0.839947 0.422140
vt 0.841835 0.416599
vn -0.569289 -0.822116 0.005965
vn 0.000000 -0.999964 0.008463
vn 0.000000 0.000000 1.000000
vn -0.999983 0.000000 0.005825
vn -0.999983 0.000000 -0.005825
vn 0.000000 0.000000 -1.000000
vn 0.000000 -0.999964 -0.008463
vn -0.569289 -0.822116 -0.005965
vn 0.000000 0.999964 0.008463
vn 0.000000 0.999964 -0.008463
vn -0.569284 0.822120 -0.005965
vn -0.569284 0.822120 0.005965
s 1
g Fireplace_lowpoly PROP_____FIREPLACE High_Fidelity_Group Fireplace_Pieces8
usemtl initialShadingGroup
f 287/287/287 288/302/288 295/289/289 296/290/290
f 297/291/291 298/292/292 294/293/293 293/294/294
f 290/301/295 292/296/296 291/297/297 289/298/298
f 296/290/290 297/291/291 293/294/294 287/287/287
f 293/294/294 294/299/293 288/288/288 287/287/287
f 296/290/290 295/289/289 290/295/295 289/298/298
f 291/297/297 297/291/291 296/290/290 289/298/298
f 291/297/297 292/300/296 298/292/292 297/291/291
g default
v -11.225552 142.896143 100.654723
v -11.225552 142.896143 -100.654702
v -36.122708 147.592813 76.976699
v -36.618253 147.603159 77.482574
v -36.606290 148.098688 77.981872
v -36.496121 148.098688 80.623786
v -35.739835 148.098688 77.865440
v -35.624417 148.098688 77.130225
v -11.225552 148.098688 77.118102
v -11.225552 148.098688 77.847022
v -36.122708 142.896143 77.998000
v -36.638120 143.411570 77.482574
v -36.122708 142.896143 76.967132
v -36.122708 142.390268 105.771613
v -35.626370 142.896143 105.781165
v -35.770352 143.394434 106.277473
v -36.514768 143.288187 106.277473
v -36.620969 142.543772 106.277473
v -11.225552 143.411570 106.277473
v -11.225552 142.896143 105.762054
v -11.225552 148.098688 105.762054
v -11.225552 147.583261 106.277473
v -36.487149 148.098688 105.762054
v -36.487149 147.583261 106.277473
v -35.758237 147.583261 106.277473
v -35.758237 148.098688 105.762054
v -41.710965 143.411570 77.998000
v -41.195554 143.411570 77.482574
v -41.195554 142.896143 77.998000
v -41.195554 148.098688 77.998000
v -41.195554 147.583261 77.482574
v -41.710965 147.583261 77.998000
v -41.195554 142.531656 106.277473
v -41.195554 143.260584 106.277473
v -41.710965 143.260584 105.762054
v -41.710965 142.531656 105.762054
v -41.710965 142.543772 101.153014
v -41.710965 143.288187 101.046806
v -41.710965 143.416315 100.286887
v -41.205106 142.896143 100.148849
v -41.205106 142.390268 100.654723
v -41.710965 147.583261 105.762054
v -41.195554 147.583261 106.277473
v -41.195554 148.098688 105.762054
v -41.205838 148.098688 97.036437
v -41.710965 147.584208 100.290916
v -41.710965 147.565500 101.031768
v -41.281583 148.098688 100.705764
v -35.607266 142.896143 100.654723
v -36.122708 142.380716 101.170150
v -36.638120 142.380716 100.654723
v -36.122708 142.896143 100.139304
v -36.638120 -0.000006 100.654723
v -36.122708 -0.000006 101.170150
v -41.710965 -0.000006 101.170150
v -41.195554 -0.000006 100.654723
v -36.122708 -0.000006 105.762054
v -36.638120 -0.000006 106.277473
v -41.195554 -0.000006 106.277473
v -41.710965 -0.000006 105.762054
v -36.620969 142.543772 -106.277451
v -36.514768 143.288187 -106.277451
v -35.754849 143.416315 -106.277451
v -35.616818 142.896143 -105.771592
v -36.122708 142.390268 -105.771592
v -11.225552 142.896143 -105.762032
v -11.225552 143.411570 -106.277451
v -11.225552 147.583261 -106.277451
v -11.225552 148.098688 -105.762032
v -35.758237 148.098688 -105.762032
v -35.758237 147.583261 -106.277451
v -36.487149 147.583261 -106.277451
v -36.487149 148.098688 -105.762032
v -36.505063 148.098688 -80.699113
v -36.627499 148.098688 -78.003724
v -36.628201 147.593195 -77.482537
v -36.122708 147.602411 -76.986222
v -35.624417 148.098688 -77.130189
v -35.739835 148.098688 -77.865418
v -11.225552 148.098688 -77.847001
v -11.225552 148.098688 -77.118066
v -36.122708 142.896143 -76.967110
v -36.638120 143.411570 -77.482537
v -36.122708 142.896143 -77.997964
v -41.195554 143.411570 -77.482537
v -41.710965 143.411570 -77.997964
v -41.195554 142.896143 -77.997964
v -41.195554 148.098688 -77.997964
v -41.710965 147.583261 -77.997964
v -41.195554 147.583261 -77.482537
v -41.205106 142.390268 -100.654702
v -41.214658 142.896143 -100.158379
v -41.710965 143.394434 -100.302354
v -41.710965 143.288187 -101.046769
v -41.710965 142.543772 -101.152993
v -41.710965 147.574366 -101.025452
v -41.710965 147.585108 -100.291543
v -41.218839 148.098688 -97.129670
v -41.263486 148.098688 -100.707902
v -36.122708 142.896143 -100.139283
v -36.638120 142.380716 -100.654702
v -36.122708 142.380716 -101.170129
v -35.607266 142.896143 -100.654702
v -41.195554 148.098688 -105.762032
v -41.195554 147.583261 -106.277451
v -41.710965 147.583261 -105.762032
v -41.710965 142.531656 -105.762032
v -41.710965 143.260584 -105.762032
v -41.195554 143.260584 -106.277451
v -41.195554 142.531656 -106.277451
v -36.122708 -0.000006 -101.170129
v -36.638120 -0.000006 -100.654702
v -41.195554 -0.000006 -100.654702
v -41.710965 -0.000006 -101.170129
v -36.638120 -0.000006 -106.277451
v -36.122708 -0.000006 -105.762032
v -41.710965 -0.000006 -105.762032
v -41.195554 -0.000006 -106.277451
vt 0.102062 0.066311
vt 0.100544 0.066590
vt 0.099772 0.065624
vt 0.095420 0.065214
vt 0.100521 0.064574
vt 0.102608 0.020258
vt 0.029551 0.302488
vt 0.040061 0.062295
vt 0.033076 0.057674
vt 0.040170 0.060595
vt 0.043271 0.014891
vt 0.041761 0.061009
vt 0.041953 0.062339
vt 0.052410 0.015444
vt 0.050590 0.058661
vt 0.048795 0.058775
vt 0.050428 0.059840
vt 0.093123 0.074197
vt 0.092596 0.073298
vt 0.094846 0.069388
vt 0.093311 0.069241
vt 0.064309 0.068374
vt 0.039504 0.304147
vt 0.046877 0.069629
vt 0.050804 0.066654
vt 0.047867 0.071022
vt 0.049483 0.305847
vt 0.054575 0.076933
vt 0.058317 0.069506
vt 0.056095 0.078450
vt 0.051867 0.066449
vt 0.058068 0.068025
vt 0.057258 0.069490
vt 0.059415 0.086632
vt 0.059905 0.087418
vt 0.058539 0.307399
vt 0.451997 0.304448
vt 0.443104 0.065303
vt 0.442545 0.064327
vt 0.442720 0.062960
vt 0.440242 0.017047
vt 0.444375 0.062596
vt 0.452245 0.057583
vt 0.431037 0.017390
vt 0.435746 0.060627
vt 0.435386 0.061873
vt 0.389198 0.066453
vt 0.384773 0.066818
vt 0.383954 0.067784
vt 0.382666 0.065586
vt 0.381095 0.021061
vt 0.384140 0.076798
vt 0.383884 0.075860
vt 0.390346 0.074670
vt 0.389674 0.070589
vt 0.391880 0.074542
vt 0.390479 0.069638
vt 0.420266 0.070014
vt 0.432005 0.307397
vt 0.429003 0.081100
vt 0.428593 0.078556
vt 0.426071 0.071214
vt 0.429701 0.078701
vt 0.426338 0.069711
vt 0.432563 0.068255
vt 0.424197 0.089095
vt 0.422002 0.308905
vt 0.421079 0.309044
vt 0.433623 0.068478
vt 0.437507 0.071527
vt 0.436496 0.072904
vt 0.438136 0.072345
vt 0.442014 0.305902
vt 0.045057 0.015024
vt 0.101836 0.064432
vt 0.103895 0.020320
vt 0.382418 0.067451
vt 0.382291 0.076532
vt 0.055727 0.076763
vt 0.100580 0.074701
vt 0.094131 0.073445
vt 0.100309 0.075632
vt 0.049135 0.060029
vt 0.094040 0.068425
vt 0.051703 0.068028
vt 0.054212 0.015582
vt 0.032390 0.055391
vt 0.034567 0.014086
vt 0.055232 0.079347
vt 0.057619 0.307241
vt 0.019574 0.300841
vt 0.027719 0.302184
vt 0.041377 0.063309
vt 0.046233 0.070440
vt 0.037671 0.303838
vt 0.047522 0.071877
vt 0.054063 0.077684
vt 0.047648 0.305533
vt 0.432849 0.017293
vt 0.391207 0.070461
vt 0.391341 0.075436
vt 0.428185 0.080183
vt 0.423297 0.088037
vt 0.427115 0.071201
vt 0.432705 0.069838
vt 0.434095 0.061663
vt 0.383974 0.065748
vt 0.382385 0.021016
vt 0.433953 0.060483
vt 0.442037 0.016957
vt 0.450772 0.016366
vt 0.430165 0.307674
vt 0.444437 0.064317
vt 0.451515 0.059840
vt 0.460166 0.303268
vt 0.450159 0.304714
vt 0.436825 0.073758
vt 0.440175 0.306174
vt 0.430199 0.079454
vt 0.101228 0.075382
vt 0.102154 0.075386
vt 0.059910 0.086622
vt 0.059910 0.086622
vt 0.060829 0.086372
vt 0.383229 0.076503
vt 0.424700 0.088310
vt 0.424208 0.088299
vt 0.424208 0.088299
vn -0.993997 0.109353 -0.003321
vn -0.017428 0.999848 -0.000102
vn -0.017567 0.999846 0.000104
vn -0.994027 0.109086 0.003335
vn -0.109843 0.197261 -0.974178
vn -0.999998 -0.000216 -0.001880
vn -0.128203 -0.139336 -0.981911
vn -0.011516 0.997913 -0.063534
vn -0.093932 0.100684 -0.990475
vn -0.185774 0.981712 -0.041599
vn -0.000890 0.999999 -0.000979
vn -0.343797 0.939044 -0.000129
vn -0.024155 0.999708 -0.000049
vn -0.000921 0.999999 -0.001011
vn 0.000000 0.999562 0.029606
vn 0.000000 0.999835 0.018162
vn 0.000000 1.000000 0.000000
vn 0.000000 1.000000 0.000000
vn -0.001416 -0.999912 -0.013226
vn -0.091307 -0.995617 -0.020257
vn -0.093040 -0.106824 -0.989915
vn 0.993767 -0.003897 0.111406
vn 0.087932 -0.000513 0.996126
vn 0.100100 -0.000009 0.994977
vn 0.995108 -0.000009 0.098797
vn 0.020386 -0.994287 0.104775
vn 0.994970 -0.005366 -0.100030
vn 0.013944 -0.999901 -0.002057
vn 0.003123 -0.094630 0.995508
vn 0.000067 -0.995943 0.089986
vn 0.000079 -0.106971 0.994262
vn 0.014712 -0.014742 0.999783
vn 0.000000 0.108851 0.994058
vn 0.000000 0.106824 0.994278
vn -0.098977 0.000000 0.995090
vn -0.100751 0.000000 0.994912
vn 0.000000 0.109086 0.994032
vn 0.000000 0.999836 0.018139
vn -0.033869 0.998896 0.032554
vn -0.091909 0.099797 0.990754
vn -0.994088 -0.106558 -0.020873
vn -0.107175 -0.993985 -0.022542
vn -0.995385 -0.095905 -0.003380
vn -0.994778 0.099866 -0.021070
vn -0.999463 0.032754 -0.000295
vn -0.994980 -0.000000 0.100078
vn -0.994964 -0.000000 0.100236
vn -0.100911 0.000000 0.994896
vn -0.995129 0.000000 0.098584
vn -0.991210 0.095040 0.092033
vn -0.999767 -0.015243 -0.015315
vn -0.996178 -0.000522 -0.087345
vn -0.112187 -0.003918 -0.993679
vn -0.099468 -0.000009 -0.995041
vn -0.995045 -0.000009 -0.099429
vn -0.991392 0.130927 0.000453
vn 0.002292 -0.999879 -0.015378
vn 0.100710 -0.005410 -0.994901
vn 0.994956 0.000000 -0.100310
vn 0.100987 0.000000 -0.994888
vn 0.087942 -0.000525 -0.996126
vn 0.993763 -0.003916 -0.111442
vn 0.995108 -0.000009 -0.098797
vn 0.100098 -0.000009 -0.994978
vn 0.015365 -0.015294 -0.999765
vn -0.100749 0.000000 -0.994912
vn -0.098978 0.000000 -0.995090
vn 0.003083 -0.096012 -0.995376
vn 0.000000 0.106722 -0.994289
vn 0.000000 0.109314 -0.994007
vn 0.020517 -0.994145 -0.106088
vn 0.000011 -0.108047 -0.994146
vn 0.000009 -0.995767 -0.091915
vn 0.013979 -0.999900 0.002071
vn 0.994969 -0.005408 0.100035
vn 0.000000 0.999836 -0.018139
vn 0.000000 0.109368 -0.994001
vn 0.000000 0.999835 -0.018160
vn 0.000000 0.999558 -0.029716
vn -0.000899 0.999999 0.000983
vn -0.000940 0.999999 0.001027
vn -0.091910 0.099797 -0.990754
vn -0.033892 0.998889 -0.032753
vn -0.011496 0.997889 0.063912
vn -0.023888 0.999715 0.000002
vn -0.343053 0.939316 0.000228
vn -0.109979 0.200224 0.973558
vn -0.186410 0.981568 0.042134
vn -0.093788 0.102743 0.990277
vn -0.127315 -0.139576 0.981993
vn -0.999998 -0.000216 0.001893
vn 0.000000 1.000000 0.000000
vn 0.000000 1.000000 -0.000000
vn -0.001414 -0.999912 0.013210
vn -0.093207 -0.107015 0.989879
vn -0.089406 -0.995788 0.020314
vn -0.994200 -0.105487 0.020928
vn -0.994918 0.098465 0.021046
vn -0.995515 -0.094538 0.003423
vn -0.105853 -0.994130 0.022400
vn -0.999462 0.032814 0.000178
vn -0.112149 -0.003899 0.993684
vn -0.996179 -0.000510 0.087332
vn -0.995045 -0.000009 0.099429
vn -0.099466 -0.000009 0.995041
vn 0.100705 -0.005369 0.994902
vn 0.002274 -0.999880 0.015340
vn -0.999785 -0.014668 0.014643
vn -0.991037 0.133588 -0.000478
vn -0.995141 0.000005 -0.098456
vn -0.994980 -0.000000 -0.100078
vn -0.991089 0.096531 -0.091781
vn 0.100987 0.000000 0.994888
vn 0.994956 0.000000 0.100310
vn -0.100910 0.000000 -0.994896
vn -0.994964 -0.000000 -0.100236
vn 0.000000 -1.000000 -0.000002
vn 0.000000 -1.000000 0.000000
s 1
g Fireplace_lowpoly PROP_____FIREPLACE High_Fidelity_Group Fireplace_Pieces9
usemtl initialShadingGroup
f 301/303/299 306/377/300 376/352/301 375/379/302
f 302/304/303 301/303/299 311/423/304 310/382/305
f 303/305/306 302/304/303 329/322/307 328/386/308
f 304/306/309 303/305/306 343/324/310 346/334/311
f 305/307/312 304/306/309 321/319/313 324/317/314
f 306/377/300 305/307/312 308/308/315 307/378/316
f 310/382/305 309/384/317 327/320/318 326/383/319
f 312/310/320 316/395/321 356/309/322 355/394/323
f 313/312/324 312/310/320 348/311/325 347/389/326
f 314/314/327 313/312/324 318/313/328 317/376/329
f 315/315/330 314/314/327 323/318/331 322/385/332
f 316/395/321 315/315/330 332/326/333 331/396/334
f 320/316/335 319/388/336 324/317/314 323/318/331
f 322/385/332 321/319/313 342/333/337 341/327/338
f 325/321/339 327/320/318 338/332/340 337/381/341
f 326/383/319 325/321/339 330/323/342 329/322/307
f 328/386/308 330/323/342 344/331/343 343/324/310
f 331/396/334 334/398/344 358/325/345 357/397/346
f 333/328/347 332/326/333 341/327/338 340/387/348
f 334/398/344 333/328/347 336/330/349 335/399/350
f 335/399/350 339/391/351 354/329/352 353/400/353
f 337/381/341 336/330/349 345/335/354 344/331/343
f 339/391/351 338/332/340 350/426/355 349/336/356
f 340/387/348 342/333/337 346/334/311 345/335/354
f 349/336/356 348/337/325 352/338/357 351/392/358
f 359/340/359 363/415/360 414/339/361 413/418/362
f 360/341/363 359/340/359 408/374/364 407/372/365
f 361/342/366 360/341/363 370/348/367 369/347/368
f 362/344/369 361/342/366 365/343/370 364/412/371
f 363/415/360 362/344/369 401/345/372 400/416/373
f 367/346/374 366/401/375 369/347/368 368/411/376
f 368/411/376 371/408/377 372/349/378 377/409/379
f 371/408/377 370/348/367 403/371/380 402/367/381
f 373/350/382 372/349/378 397/366/383 396/360/384
f 374/351/385 373/350/382 386/359/386 388/357/387
f 375/379/302 374/351/385 381/355/388 380/380/389
f 377/409/379 376/352/301 379/353/390 378/410/391
f 382/354/392 381/355/388 383/356/393 385/403/394
f 384/358/395 383/356/393 388/357/387 387/402/396
f 385/403/394 384/358/395 391/363/397 390/404/398
f 387/402/396 386/359/386 396/360/384 395/364/399
f 389/362/400 393/421/401 412/361/402 411/414/403
f 390/404/398 389/362/400 399/428/404 398/405/405
f 392/365/406 391/363/397 395/364/399 394/406/407
f 393/421/401 392/365/406 406/373/408 405/419/409
f 394/406/407 397/366/383 402/367/381 404/407/410
f 400/368/373 399/428/404 410/369/411 409/370/412
f 404/407/410 403/371/380 407/372/365 406/373/408
f 405/419/409 408/374/364 416/375/413 415/420/414
f 314/314/327 317/376/329 320/316/335 323/318/331
f 306/377/300 307/378/316 379/353/390 376/352/301
f 311/423/304 301/303/299 375/379/302 380/380/389
f 330/323/342 325/321/339 337/381/341 344/331/343
f 302/304/303 310/382/305 326/383/319 329/322/307
f 327/320/318 309/384/317 350/426/355 338/332/340
f 315/315/330 322/385/332 341/327/338 332/326/333
f 343/324/310 303/305/306 328/386/308
f 345/335/354 336/330/349 333/328/347 340/387/348
f 321/319/313 304/306/309 346/334/311 342/333/337
f 308/308/315 305/307/312 324/317/314 319/388/336
f 313/312/324 347/389/326 299/390/415 318/313/328
f 339/391/351 349/336/356 351/392/358 354/329/352
f 352/393/357 348/311/325 312/310/320 355/394/323
f 316/395/321 331/396/334 357/397/346 356/309/322
f 334/398/344 335/399/350 353/400/353 358/325/345
f 361/342/366 369/347/368 366/401/375 365/343/370
f 387/402/396 395/364/399 391/363/397 384/358/395
f 374/351/385 388/357/387 383/356/393 381/355/388
f 382/354/392 385/403/394 390/404/398 398/405/405
f 360/341/363 407/372/365 403/371/380 370/348/367
f 396/360/384 386/359/386 373/350/382
f 394/406/407 404/407/410 406/373/408 392/365/406
f 371/408/377 402/367/381 397/366/383 372/349/378
f 377/409/379 378/410/391 367/346/374 368/411/376
f 401/345/372 362/344/369 364/412/371 300/413/416
f 389/362/400 411/414/403 410/369/411 399/428/404
f 363/415/360 400/416/373 409/417/412 414/339/361
f 359/340/359 413/418/362 416/375/413 408/374/364
f 405/419/409 415/420/414 412/361/402 393/421/401
f 301/303/299 302/304/303 303/305/306 304/306/309 305/307/312 306/377/300
f 309/422/317 310/382/305 311/423/304
f 312/310/320 313/312/324 314/314/327 315/315/330 316/395/321
f 321/319/313 322/385/332 323/318/331 324/317/314
f 325/321/339 326/383/319 327/320/318
f 328/386/308 329/322/307 330/323/342
f 331/396/334 332/326/333 333/328/347 334/398/344
f 335/399/350 336/330/349 337/381/341 338/332/340 339/391/351
f 340/387/348 341/327/338 342/333/337
f 343/324/310 344/331/343 345/335/354 346/334/311
f 347/424/326 348/425/325 349/336/356 350/426/355
f 359/340/359 360/341/363 361/342/366 362/344/369 363/415/360
f 368/411/376 369/347/368 370/348/367 371/408/377
f 372/349/378 373/350/382 374/351/385 375/379/302 376/352/301 377/409/379
f 380/380/389 381/355/388 382/427/392
f 383/356/393 384/358/395 385/403/394
f 386/359/386 387/402/396 388/357/387
f 389/362/400 390/404/398 391/363/397 392/365/406 393/421/401
f 394/406/407 395/364/399 396/360/384 397/366/383
f 398/405/405 399/428/404 400/429/373 401/430/372
f 402/367/381 403/371/380 404/407/410
f 405/419/409 406/373/408 407/372/365 408/374/364
g default
v -34.420255 139.264559 77.482566
v -33.391721 139.264559 77.482566
v -36.122647 142.896112 77.482566
v -33.391721 142.896112 77.482566
v -36.122647 142.896112 -77.482537
v -33.391721 142.896112 -77.482537
v -34.420255 139.264559 -77.482537
v -33.391721 139.264559 -77.482537
vt 0.580663 0.450860
vt 0.579092 0.450133
vt 0.841458 0.447808
vt 0.841466 0.449539
vt 0.841501 0.456289
vt 0.580697 0.457610
vt 0.845652 0.454317
vt 0.576525 0.455680
vt 0.580654 0.449129
vt 0.843030 0.448796
vn -0.799170 -0.600977 -0.012399
vn 0.000000 -0.999084 -0.042790
vn 0.000000 -0.999084 0.042790
vn -0.799170 -0.600977 0.012399
vn -0.905420 -0.424443 0.007918
vn -0.905420 -0.424443 -0.007918
vn 0.000000 0.000000 1.000000
vn 0.000000 0.000000 -1.000000
s 1
g Fireplace_lowpoly PROP_____FIREPLACE High_Fidelity_Group Fireplace_Pieces10
usemtl initialShadingGroup
f 423/431/417 424/439/418 418/433/419 417/434/420
f 423/431/417 417/434/420 419/435/421 421/436/422
f 418/440/419 420/437/423 419/435/421 417/434/420
f 422/438/424 424/432/418 423/431/417 421/436/422
g default
v -11.225430 139.264559 103.991660
v -11.225430 139.264559 102.746398
v -11.225430 142.896112 106.277496
v -11.225430 142.896112 102.746398
v -36.122708 142.896112 106.277496
v -36.122708 142.896112 102.746398
v -36.122647 139.264559 103.991660
v -36.122647 139.264559 102.746398
v -11.225430 139.264559 -103.991654
v -11.225430 139.264559 -102.746384
v -11.225430 142.896112 -106.277482
v -11.225430 142.896112 -102.746384
v -36.122708 142.896112 -106.277482
v -36.122708 142.896112 -102.746384
v -36.122647 139.264559 -103.991654
v -36.122647 139.264559 -102.746384
vt 0.926849 0.424919
vt 0.928612 0.426054
vt 0.884928 0.426573
vt 0.884950 0.424477
vt 0.885026 0.417255
vt 0.926926 0.417698
vt 0.879963 0.420368
vt 0.931922 0.420916
vt 0.940174 0.445710
vt 0.898272 0.445442
vt 0.896506 0.444314
vt 0.940187 0.443614
vt 0.940128 0.452932
vt 0.898226 0.452663
vt 0.893217 0.449465
vt 0.945177 0.449798
vt 0.926827 0.427015
vt 0.883164 0.425574
vt 0.898286 0.443346
vt 0.941955 0.444605
vn -0.092962 -0.694101 0.713850
vn -0.269393 -0.963030 0.000000
vn 0.269394 -0.963030 0.000000
vn 0.092963 -0.694102 0.713849
vn 0.052075 -0.531974 0.845158
vn -0.052076 -0.531974 0.845158
vn 1.000000 0.000000 0.000000
vn -1.000000 -0.000014 0.000000
vn -0.092961 -0.694101 -0.713850
vn 0.092962 -0.694102 -0.713849
vn 0.269392 -0.963031 0.000000
vn -0.269391 -0.963031 0.000000
vn -0.052076 -0.531973 -0.845159
vn 0.052075 -0.531972 -0.845159
vn 1.000000 0.000000 0.000000
vn -1.000000 -0.000014 0.000000
s 1
g Fireplace_lowpoly PROP_____FIREPLACE High_Fidelity_Group Fireplace_Pieces11
usemtl initialShadingGroup
f 431/441/425 432/457/426 426/443/427 425/444/428
f 431/441/425 425/444/428 427/445/429 429/446/430
f 426/458/427 428/447/431 427/445/429 425/444/428
f 430/448/432 432/442/426 431/441/425 429/446/430
s 2
f 439/449/433 433/450/434 434/459/435 440/452/436
f 439/449/433 437/453/437 435/454/438 433/450/434
f 434/451/435 433/450/434 435/454/438 436/455/439
f 438/456/440 437/453/437 439/449/433 440/460/436
g default
v -34.340604 108.793161 -6.934306
v -11.225491 108.793184 -6.934306
v -11.225491 108.793184 6.934276
v -34.340604 108.793161 6.934276
v -34.340604 132.288553 -6.934306
v -11.225491 132.288553 -6.934306
v -11.225491 132.288568 6.934276
v -34.340604 132.288568 6.934276
v -35.170865 130.947458 5.573562
v -35.170865 110.134287 5.573562
v -35.170865 130.947435 -5.573591
v -35.170865 110.134287 -5.573591
vt 0.655763 0.552534
vt 0.616922 0.552534
vt 0.678930 0.514538
vt 0.679176 0.552534
vt 0.654993 0.591749
vt 0.616664 0.591749
vt 0.718933 0.592744
vt 0.679459 0.592744
vt 0.676668 0.555803
vt 0.676736 0.590561
vt 0.657698 0.590561
vt 0.658239 0.555803
vt 0.718832 0.552534
vt 0.656040 0.514538
vn -0.040282 -0.507511 -0.860703
vn 0.000001 -0.508320 -0.861168
vn 0.000001 -0.508320 0.861168
vn -0.040282 -0.507511 0.860703
vn -0.030209 0.000000 -0.999544
vn 0.000000 0.000000 -1.000000
vn 0.000000 0.000000 1.000000
vn -0.030209 0.000000 0.999544
vn -0.994847 -0.050051 0.088172
vn -0.995379 0.000000 0.096022
vn -0.995379 0.000000 -0.096022
vn -0.994847 -0.050051 -0.088172
s 1
g Fireplace_lowpoly PROP_____FIREPLACE High_Fidelity_Group Fireplace_Pieces12
usemtl initialShadingGroup
f 441/461/441 442/474/442 443/463/443 444/464/444
f 441/461/441 445/465/445 446/466/446 442/462/442
f 444/464/444 443/473/443 447/467/447 448/468/448
f 450/469/449 449/470/450 451/471/451 452/472/452
f 444/464/444 448/468/448 449/470/450 450/469/449
f 445/465/445 441/461/441 452/472/452 451/471/451
f 441/461/441 444/464/444 450/469/449 452/472/452
g default
v -11.225613 148.925180 114.160842
v -11.225613 148.098688 113.334365
v -45.545224 148.098688 113.334365
v -45.545224 148.925180 114.160842
v -46.371701 148.925180 113.334365
v -11.225613 152.231501 113.334365
v -11.225613 151.405039 114.160842
v -46.371701 151.405039 113.334365
v -45.545224 151.405039 114.160842
v -45.545224 152.231501 113.334365
v -11.225613 151.405039 -114.160836
v -11.225613 152.231501 -113.334367
v -45.545224 152.231501 -113.334367
v -45.545224 151.405039 -114.160836
v -46.371701 151.405039 -113.334367
v -46.371701 148.925180 -113.334367
v -45.545224 148.925180 -114.160836
v -45.545224 148.098688 -113.334367
v -11.225613 148.098688 -113.334367
v -11.225613 148.925180 -114.160836
vt 0.547140 0.714915
vt 0.489380 0.715211
vt 0.489387 0.716602
vt 0.547168 0.720479
vt 0.547175 0.721870
vt 0.489409 0.720776
vt 0.486641 0.723572
vt 0.105161 0.725530
vt 0.044613 0.724450
vt 0.102372 0.724154
vt 0.102365 0.722763
vt 0.105125 0.718575
vt 0.102344 0.718589
vt 0.044584 0.718886
vt 0.044577 0.717495
vt 0.547147 0.716306
vt 0.044606 0.723059
vt 0.486294 0.656075
vt 0.486591 0.713835
vt 0.105111 0.715793
vt 0.104815 0.658034
vt 0.486567 0.716617
vt 0.486588 0.720790
vt 0.105147 0.722749
vt 0.486938 0.781331
vt 0.105458 0.783290
vt 0.489416 0.722167
vt 0.102336 0.717198
vn 0.000000 -0.999993 0.003633
vn 0.000000 -0.242505 0.970150
vn -0.019096 -0.239764 0.970643
vn -0.023454 -0.999719 0.003575
vn -0.970250 -0.242088 0.002939
vn -0.970250 -0.242088 -0.002939
vn -0.023454 -0.999719 -0.003575
vn -0.019096 0.239766 0.970643
vn -0.970249 0.242091 0.002939
vn 0.000000 0.242507 0.970150
vn 0.000000 0.999993 0.003633
vn -0.023453 0.999719 0.003575
vn -0.023453 0.999719 -0.003575
vn -0.970249 0.242091 -0.002939
vn 0.000000 0.999993 -0.003633
vn 0.000000 0.242505 -0.970150
vn -0.019096 0.239764 -0.970643
vn -0.019096 -0.239762 -0.970644
vn 0.000000 -0.242503 -0.970151
vn 0.000000 -0.999993 -0.003633
s 1
g Fireplace_lowpoly PROP_____FIREPLACE High_Fidelity_Group Fireplace_Pieces13
usemtl initialShadingGroup
f 454/475/453 453/490/454 456/477/455 455/476/456
f 455/493/456 457/496/457 468/486/458 470/494/459
f 457/496/457 456/477/455 461/480/460 460/497/461
f 459/478/462 458/479/463 462/501/464 461/480/460
f 460/497/461 462/481/464 465/482/465 467/498/466
f 464/483/467 463/491/468 466/485/469 465/484/465
f 467/498/466 466/485/469 469/487/470 468/486/458
f 470/502/459 469/487/470 472/488/471 471/489/472
f 459/478/462 461/480/460 456/477/455 453/490/454
f 466/485/469 463/491/468 472/488/471 469/487/470
f 454/492/453 455/493/456 470/494/459 471/495/472
f 457/496/457 460/497/461 467/498/466 468/486/458
f 462/481/464 458/499/463 464/500/467 465/482/465
f 455/476/456 456/477/455 457/496/457
f 460/497/461 461/480/460 462/501/464
f 465/484/465 466/485/469 467/498/466
f 468/486/458 469/487/470 470/502/459
g default
v -8.461087 19.552507 -74.878098
v -8.461087 0.000005 -74.878098
v -8.461087 0.000005 -105.350739
v -8.461087 19.552507 -105.350739
v -11.005673 23.239912 -102.953370
v -11.005673 23.239912 -77.275483
v -8.461087 19.552507 74.878150
v -8.461087 0.000005 74.878150
v -8.461087 0.000005 105.350822
v -8.461087 19.552507 105.350822
v -11.005673 23.239912 102.953437
v -11.005673 23.239912 77.275535
v -40.156583 19.552507 -74.878098
v -40.804349 19.552507 -75.525918
v -40.804349 0.000005 -75.525773
v -40.156705 0.000005 -74.878098
v -40.156705 0.000005 -105.350739
v -40.804349 0.000005 -104.703110
v -40.804349 19.552507 -104.702965
v -40.156583 19.552507 -105.350739
v -38.259793 23.239912 -102.311486
v -37.605985 23.239912 -102.953370
v -37.605985 23.239912 -77.275483
v -38.259793 23.239912 -77.917359
v -40.804349 19.552507 75.525932
v -40.156583 19.552507 74.878150
v -40.156705 0.000005 74.878150
v -40.804349 0.000005 75.525794
v -40.804349 0.000005 104.703178
v -40.156705 0.000005 105.350822
v -40.156583 19.552507 105.350822
v -40.804349 19.552507 104.703040
v -37.605985 23.239912 102.953437
v -38.259793 23.239912 102.311546
v -38.259793 23.239912 77.917411
v -37.605985 23.239912 77.275535
vt 0.220819 0.400171
vt 0.218334 0.359087
vt 0.266191 0.359087
vt 0.268150 0.400170
vt 0.218724 0.392709
vt 0.167281 0.392709
vt 0.166600 0.359087
vt 0.268262 0.359087
vt 0.319898 0.359087
vt 0.265858 0.392709
vt 0.220407 0.359087
vt 0.267909 0.392709
vt 0.319268 0.392709
vt 0.314758 0.400170
vt 0.218487 0.400171
vt 0.171789 0.400170
vt 0.220776 0.392709
vt 0.265820 0.400170
vt 0.266429 0.462281
vt 0.264273 0.421208
vt 0.216696 0.421208
vt 0.218936 0.462281
vt 0.266336 0.421208
vt 0.317828 0.421208
vt 0.216696 0.454762
vt 0.165202 0.454762
vt 0.165203 0.421208
vt 0.218758 0.421208
vt 0.264273 0.454762
vt 0.216603 0.462281
vt 0.170030 0.462281
vt 0.317828 0.454762
vt 0.313003 0.462281
vt 0.266336 0.454762
vt 0.264096 0.462281
vt 0.218758 0.454762
vn -0.510924 0.687809 0.515631
vn -0.510924 0.687809 0.515631
vn -0.510924 0.687809 0.515631
vn -0.510924 0.687809 0.515631
vn -0.707132 0.000004 0.707082
vn -0.707132 0.000004 0.707082
vn -0.707132 0.000004 0.707081
vn -0.707132 0.000004 0.707082
vn -0.707108 0.000004 -0.707105
vn -0.707108 0.000004 -0.707105
vn -0.707108 0.000004 -0.707105
vn -0.707108 0.000004 -0.707105
vn -0.510915 0.687812 -0.515636
vn -0.510915 0.687812 -0.515636
vn -0.510915 0.687812 -0.515636
vn -0.510915 0.687812 -0.515636
vn 0.000000 0.000000 1.000000
vn 0.000000 0.000000 1.000000
vn 0.000000 0.000000 1.000000
vn 0.000000 0.000000 1.000000
vn 0.000000 0.000000 -1.000000
vn 0.000000 0.000000 -1.000000
vn 0.000000 0.000000 -1.000000
vn 0.000000 0.000000 -1.000000
vn -1.000000 0.000002 0.000000
vn -1.000000 0.000002 0.000000
vn -1.000000 0.000002 0.000000
vn -1.000000 0.000002 0.000000
vn 0.000000 0.545077 -0.838386
vn 0.000000 0.545077 -0.838386
vn 0.000000 0.545077 -0.838386
vn 0.000000 0.545077 -0.838386
vn 0.000000 0.545080 0.838384
vn 0.000000 0.545080 0.838384
vn 0.000000 0.545080 0.838384
vn 0.000000 0.545080 0.838384
vn -0.823055 0.567961 0.000000
vn -0.823055 0.567961 0.000000
vn -0.823055 0.567961 0.000000
vn -0.823055 0.567961 0.000000
vn -0.510915 0.687812 -0.515636
vn -0.510915 0.687812 -0.515636
vn -0.510915 0.687812 -0.515636
vn -0.510915 0.687812 -0.515636
vn -0.707112 0.000005 -0.707102
vn -0.707112 0.000005 -0.707102
vn -0.707112 0.000005 -0.707102
vn -0.707112 0.000005 -0.707102
vn -0.707112 0.000005 0.707102
vn -0.707112 0.000005 0.707102
vn -0.707112 0.000005 0.707102
vn -0.707112 0.000005 0.707102
vn -0.510920 0.687809 0.515634
vn -0.510920 0.687809 0.515634
vn -0.510920 0.687809 0.515634
vn -0.510920 0.687809 0.515634
vn 0.000000 0.000000 -1.000000
vn 0.000000 0.000000 -1.000000
vn 0.000000 0.000000 -1.000000
vn 0.000000 0.000000 -1.000000
vn 0.000000 0.000000 1.000000
vn 0.000000 0.000000 1.000000
vn 0.000000 0.000000 1.000000
vn 0.000000 0.000000 1.000000
vn -1.000000 0.000001 0.000000
vn -1.000000 0.000001 0.000000
vn -1.000000 0.000001 0.000000
vn -1.000000 0.000001 0.000000
vn 0.000000 0.545080 0.838384
vn 0.000000 0.545080 0.838384
vn 0.000000 0.545080 0.838384
vn 0.000000 0.545080 0.838384
vn 0.000000 0.545080 -0.838384
vn 0.000000 0.545080 -0.838384
vn 0.000000 0.545080 -0.838384
vn 0.000000 0.545080 -0.838384
vn -0.823055 0.567962 0.000000
vn -0.823055 0.567962 0.000000
vn -0.823055 0.567962 0.000000
vn -0.823055 0.567962 0.000000
s off
g Fireplace_lowpoly PROP_____FIREPLACE High_Fidelity_Group Fireplace_Pieces14
usemtl initialShadingGroup
f 485/507/473 495/517/474 496/503/475 486/519/476
f 486/519/477 487/513/478 488/504/479 485/507/480
f 490/505/481 491/512/482 492/514/483 489/510/484
f 491/512/485 493/520/486 494/506/487 492/514/488
f 485/507/489 488/504/490 474/509/491 473/508/492
f 492/514/493 476/515/494 475/511/495 489/510/496
f 491/512/497 490/505/498 487/513/499 486/519/500
f 492/514/501 494/506/502 477/516/503 476/515/504
f 473/508/505 478/518/506 495/517/507 485/507/508
f 486/519/509 496/503/510 493/520/511 491/512/512
f 497/531/513 507/537/514 508/521/515 498/536/516
f 498/536/517 499/525/518 500/522/519 497/531/520
f 502/523/521 503/527/522 504/538/523 501/530/524
f 503/527/525 505/532/526 506/524/527 504/538/528
f 498/536/529 479/534/530 480/526/531 499/525/532
f 502/523/533 481/529/534 482/528/535 503/527/536
f 504/538/537 497/531/538 500/522/539 501/530/540
f 503/527/541 482/528/542 483/533/543 505/532/544
f 479/534/545 498/536/546 508/521/547 484/535/548
f 497/531/549 504/538/550 506/524/551 507/537/552
g default
v -11.225461 4.780980 77.526573
v -11.225461 4.780980 -77.280617
v -11.225461 152.231516 76.290672
v -11.225461 150.995615 77.526573
v 14.030551 150.995615 77.526573
v 14.030551 152.231516 76.290672
v 15.266452 150.995615 76.290672
v -11.225461 150.995615 -77.280617
v -11.225461 152.231516 -76.044732
v 14.030551 152.231516 -76.044732
v 14.030551 150.995615 -77.280617
v 15.266452 150.995615 -76.044732
v -11.225461 152.231516 -51.370244
v -11.225461 152.231516 -49.622414
v 16.456515 151.041437 -50.496327
v 16.111301 152.231516 -49.301518
v 14.326327 152.231516 -49.556199
v 14.019076 152.231516 -51.378342
v 15.266452 151.041437 -51.686391
v 38.751071 150.995615 50.742278
v 38.751071 152.231516 49.506378
v 39.986972 150.995615 49.506378
v 38.751071 150.995615 -50.496327
v 39.986972 150.995615 -49.260434
v 38.751071 152.231516 -49.260434
v 15.266452 151.041437 51.932342
v 14.071628 152.231516 51.587146
v 14.326327 152.231516 49.802150
v 16.148471 152.231516 49.494922
v 16.456515 151.041437 50.742278
v 39.986972 4.780980 -49.260434
v 38.751071 4.780980 -50.496327
v 38.751071 4.780980 50.742278
v 39.986972 4.780980 49.506378
v -11.225461 152.231516 49.868366
v -11.225461 152.231516 51.616199
v 15.266452 4.780980 -76.044732
v 14.030551 4.780980 -77.280617
v 14.030551 4.780980 77.526573
v 15.266452 4.780980 76.290672
v 15.266452 4.780980 51.978187
v 16.502353 4.780980 50.742278
v 16.502353 4.780980 -50.496327
v 15.266452 4.780980 -51.732236
vt 0.973726 0.266566
vt 0.973725 0.268646
vt 0.916350 0.020477
vt 0.874703 0.310236
vt 0.874702 0.312818
vt 0.833707 0.310231
vt 0.519310 0.268580
vt 0.572061 0.268587
vt 0.618321 0.310199
vt 0.659316 0.310205
vt 0.572061 0.266507
vt 0.572097 0.020427
vt 0.662781 0.365537
vt 0.659834 0.312810
vt 0.621724 0.266592
vt 0.617718 0.266591
vt 0.617676 0.020434
vt 0.661320 0.308202
vt 0.661325 0.270680
vt 0.663330 0.308784
vt 0.829667 0.020465
vt 0.831710 0.270705
vt 0.831705 0.308227
vt 0.829605 0.308746
vt 0.829630 0.270705
vt 0.663405 0.270681
vt 0.659245 0.266520
vt 0.659282 0.020440
vt 0.871313 0.266628
vt 0.871272 0.020471
vt 0.833126 0.312726
vt 0.833167 0.365562
vt 0.973762 0.020486
vt 0.920975 0.266558
vt 0.921011 0.020478
vt 0.519311 0.266500
vt 0.519347 0.020419
vt 0.830122 0.312194
vt 0.830226 0.365562
vt 0.662901 0.312169
vt 0.829631 0.266545
vt 0.663405 0.266521
vt 0.663442 0.020440
vt 0.874695 0.365568
vt 0.618321 0.312780
vt 0.659840 0.365537
vt 0.618313 0.365531
vt 0.916314 0.266556
vt 0.875319 0.266629
vt 0.875432 0.020471
vt 0.833827 0.020465
vt 0.576722 0.266508
vt 0.576758 0.020428
vt 0.621837 0.020434
vt 0.920975 0.268638
vt 0.661319 0.310205
vt 0.661319 0.310205
vt 0.833791 0.266545
vt 0.831704 0.310230
vt 0.831704 0.310230
vn 0.000000 -0.008382 -0.999965
vn 0.000000 -0.998867 -0.047581
vn -0.043975 -0.997963 -0.046210
vn -0.046352 -0.008114 -0.998892
vn -0.998816 -0.008020 -0.047975
vn -0.998834 0.000000 -0.048268
vn -0.046601 0.000000 -0.998914
vn -0.039876 -0.999200 -0.003008
vn -0.998809 -0.010284 -0.047692
vn 0.000000 -0.998864 0.047663
vn 0.000000 -0.008381 0.999965
vn -0.046352 -0.008114 0.998892
vn -0.044069 -0.997957 0.046253
vn -0.998815 -0.008183 0.047967
vn -0.998808 -0.010363 0.047702
vn -0.040255 -0.999185 0.002894
vn -0.046601 0.000000 0.998914
vn -0.998834 0.000000 0.048268
vn 0.000000 -1.000000 0.000000
vn 0.000000 -1.000000 0.000000
vn -0.000845 -0.999999 0.000849
vn -0.051876 -0.010370 0.998600
vn -0.998875 -0.000015 0.047416
vn -0.051573 -0.000016 0.998669
vn -0.000861 -0.999944 0.010530
vn -0.052171 -0.007999 0.998606
vn -0.051302 -0.998616 0.011603
vn -0.000829 -0.999943 -0.010626
vn -0.000850 -0.999999 -0.000846
vn -0.052163 -0.008161 -0.998605
vn -0.999890 -0.008312 -0.012289
vn -0.999924 0.000000 -0.012358
vn -0.052494 0.000000 -0.998621
vn -0.051347 -0.998613 -0.011619
vn -0.051887 -0.010450 -0.998598
vn -0.999890 -0.008312 0.012289
vn -0.052494 0.000000 0.998621
vn -0.999924 0.000000 0.012358
vn -0.051572 -0.000016 -0.998669
vn -0.998875 -0.000015 -0.047416
vn 0.000000 -1.000000 0.000000
vn 0.000000 -1.000000 0.000000
vn 0.000000 0.000000 -1.000000
vn 0.000000 0.000000 1.000000
s 1
g Fireplace_lowpoly PROP_____FIREPLACE High_Fidelity_Group Fireplace_Pieces15
usemtl initialShadingGroup
f 512/539/553 511/540/554 514/593/555 513/572/556
f 513/572/556 515/586/557 548/541/558 547/573/559
f 515/542/557 514/543/555 535/569/560 534/544/561
f 517/545/562 516/574/563 519/549/564 518/546/565
f 518/583/565 520/547/566 527/548/567 526/552/568
f 520/590/566 519/549/564 546/550/569 545/591/570
f 522/551/571 521/584/572 526/552/568 525/578/573
f 523/553/574 527/554/567 552/555/575 551/592/576
f 524/558/577 523/556/574 531/557/578 533/564/579
f 525/578/573 524/558/577 537/562/580 536/576/581
f 528/596/582 530/579/583 542/559/584 541/589/585
f 529/563/586 528/560/582 538/561/587 537/562/580
f 530/579/583 529/563/586 533/564/579 532/580/588
f 532/580/588 531/565/578 540/566/589 539/581/590
f 534/587/561 538/567/587 550/568/591 549/588/592
f 536/576/581 535/569/560 544/570/593 543/577/594
f 509/571/595 512/539/553 513/572/556 547/573/559
f 519/549/564 516/574/563 510/575/596 546/550/569
f 536/576/581 543/577/594 522/551/571 525/578/573
f 530/579/583 532/580/588 539/581/590 542/559/584
f 514/543/555 511/582/554 544/570/593 535/569/560
f 518/583/565 526/552/568 521/584/572 517/585/562
f 537/562/580 524/558/577 533/564/579 529/563/586
f 515/586/557 534/587/561 549/588/592 548/541/558
f 538/567/587 528/596/582 541/589/585 550/568/591
f 520/590/566 545/591/570 552/555/575 527/554/567
f 523/553/574 551/592/576 540/566/589 531/565/578
f 513/572/556 514/593/555 515/586/557
f 518/546/565 519/549/564 520/590/566
f 523/594/574 524/558/577 525/578/573 526/552/568 527/595/567
f 528/596/582 529/563/586 530/579/583
f 531/565/578 532/580/588 533/564/579
f 534/597/561 535/569/560 536/576/581 537/562/580 538/598/587
