# This file uses centimeters as units for non-parametric coordinates.

mtllib Radiator lowpoly.mtl
g default
v -8.923782 9.360904 38.282764
v -8.923782 10.607692 39.261829
v -9.727898 10.607692 38.282764
v 9.727981 10.607692 38.282764
v 8.923959 10.607692 39.261829
v 8.923959 9.360904 38.282764
v -9.727898 77.206751 38.282764
v -8.923782 77.206751 39.261829
v -8.923782 78.453533 38.282764
v 8.923959 78.453533 38.282764
v 8.923959 77.206751 39.261829
v 9.727981 77.206751 38.282764
v -9.727898 77.206751 35.523411
v -8.923782 78.453533 35.523411
v -8.923782 77.206751 34.544350
v 8.923959 77.206751 34.544350
v 8.923959 78.453533 35.523411
v 9.727981 77.206751 35.523411
v -9.727898 10.607692 35.523411
v -8.923782 10.607692 34.544350
v -8.923782 9.360904 35.523411
v 8.923959 9.360904 35.523411
v 8.923959 10.607692 34.544350
v 9.727981 10.607692 35.523411
vt 0.973918 0.264541
vt 0.458650 0.260820
vt 0.983491 0.259415
vt 0.825330 0.397076
vt 0.454300 0.260326
vt 0.973807 0.326405
vt 0.392421 0.259743
vt 0.456542 0.029474
vt 0.974341 0.028552
vt 0.973797 0.331547
vt 0.983371 0.326422
vt 0.758542 0.402324
vt 0.390313 0.028398
vt 0.394664 0.028892
vt 0.457152 0.024084
vt 0.982827 0.629416
vt 0.830194 0.633755
vt 0.973374 0.567535
vt 0.982948 0.562410
vt 0.763406 0.639003
vt 0.824782 0.402473
vt 0.825835 0.633333
vt 0.763954 0.633606
vt 0.762900 0.402746
vt 0.388044 0.260138
vt 0.973383 0.562393
vt 0.829151 0.402005
vt 0.983905 0.028569
vt 0.762319 0.397269
vt 0.983482 0.264558
vt 0.759585 0.634073
vt 0.983362 0.331564
vt 0.826417 0.638810
vt 0.982938 0.567553
vt 0.394144 0.023409
vt 0.974350 0.023410
vt 0.460919 0.029079
vt 0.391811 0.265134
vt 0.973927 0.259398
vt 0.454819 0.265808
vt 0.973263 0.629400
vt 0.983915 0.023427
vn -0.055199 -0.948739 0.311203
vn -0.977911 -0.009961 0.208784
vn -0.977911 -0.009961 -0.208784
vn -0.055199 -0.948739 -0.311204
vn -0.051549 -0.013836 0.998575
vn 0.055200 -0.948739 0.311204
vn 0.051550 -0.013836 0.998575
vn -0.051549 0.013836 0.998575
vn -0.977911 0.009961 0.208784
vn 0.977916 -0.009959 0.208760
vn 0.055200 -0.948739 -0.311204
vn 0.977916 -0.009959 -0.208760
vn 0.977916 0.009959 0.208760
vn 0.051550 0.013836 0.998575
vn -0.055199 0.948739 0.311202
vn -0.055199 0.948739 -0.311202
vn -0.977911 0.009961 -0.208784
vn 0.055199 0.948739 0.311202
vn 0.977916 0.009959 -0.208760
vn 0.055199 0.948739 -0.311203
vn -0.051549 -0.013836 -0.998575
vn -0.051549 0.013836 -0.998575
vn 0.051549 0.013836 -0.998575
vn 0.051549 -0.013836 -0.998575
s 1
g Radiator_Parts Radiator_lowpoly PROP_____RADIATOR High_Fidelity_Group
usemtl initialShadingGroup
f 1/1/1 3/39/2 19/3/3 21/30/4
f 2/5/5 1/40/1 6/38/6 5/7/7
f 3/2/2 2/5/5 8/8/8 7/37/9
f 4/10/10 6/6/6 22/11/11 24/32/12
f 5/7/7 4/25/10 12/13/13 11/14/14
f 7/9/9 9/36/15 14/42/16 13/28/17
f 9/15/15 8/8/8 11/14/14 10/35/18
f 10/18/18 12/26/13 18/19/19 17/34/20
f 20/21/21 19/27/3 13/17/17 15/22/22
f 15/22/22 14/33/16 17/20/20 16/23/23
f 24/12/12 23/24/24 16/23/23 18/31/19
f 21/4/4 20/21/21 23/24/24 22/29/11
f 8/8/8 2/5/5 5/7/7 11/14/14
f 9/41/15 10/18/18 17/34/20 14/16/16
f 23/24/24 20/21/21 15/22/22 16/23/23
f 21/30/4 22/11/11 6/6/6 1/1/1
f 4/10/10 24/32/12 18/19/19 12/26/13
f 19/3/3 3/39/2 7/9/9 13/28/17
f 1/40/1 2/5/5 3/2/2
f 4/25/10 5/7/7 6/38/6
f 7/37/9 8/8/8 9/15/15
f 10/35/18 11/14/14 12/13/13
f 13/17/17 14/33/16 15/22/22
f 16/23/23 17/20/20 18/31/19
f 19/27/3 20/21/21 21/4/4
f 22/29/11 23/24/24 24/12/12
g default
v 3.972414 64.035139 40.918558
v 0.000031 61.939811 40.918558
v -3.972324 64.035139 40.918558
v -5.617719 69.093710 40.918558
v -3.972324 74.152282 40.918558
v 0.000031 76.247613 40.918558
v 3.972414 74.152282 40.918558
v 5.617781 69.093710 40.918558
v 3.972414 64.035139 -40.918538
v 0.000031 61.939811 -40.918538
v -3.972324 64.035139 -40.918538
v -5.617719 69.093710 -40.918538
v -3.972324 74.152282 -40.918538
v 0.000031 76.247613 -40.918538
v 3.972414 74.152282 -40.918538
v 5.617781 69.093710 -40.918538
v 0.000031 69.093710 40.918558
v 0.000031 69.093710 -40.918538
vt 0.147378 0.307529
vt 0.143852 0.322691
vt 0.140424 0.305002
vt 0.126759 0.297546
vt 0.154376 0.334163
vt 0.141986 0.320491
vt 0.172783 0.335223
vt 0.130531 0.334939
vt 0.188293 0.325252
vt 0.112768 0.339883
vt 0.191818 0.310089
vt 0.099103 0.332427
vt 0.181295 0.298618
vt 0.097540 0.316938
vt 0.162887 0.297557
vt 0.108995 0.302490
vt 0.167835 0.316390
vt 0.119763 0.318714
vt 0.025967 0.160484
vt 0.025967 0.296506
vt 0.309631 0.296506
vt 0.309631 0.160484
vt 0.309631 0.246933
vt 0.309631 0.228495
vt 0.309631 0.265371
vt 0.309631 0.280939
vt 0.309631 0.178922
vt 0.309631 0.197361
vt 0.309631 0.212928
vt 0.025967 0.246933
vt 0.025967 0.228495
vt 0.025967 0.265371
vt 0.025967 0.280939
vt 0.025967 0.178922
vt 0.025967 0.197361
vt 0.025967 0.212928
vn 0.786161 -0.617350 0.028796
vn 0.000000 -0.999544 0.030188
vn 0.000000 -0.999544 -0.030188
vn 0.786161 -0.617350 -0.028796
vn -0.786161 -0.617350 0.028796
vn -0.786161 -0.617350 -0.028796
vn -0.999623 0.000000 0.027441
vn -0.999623 0.000000 -0.027441
vn -0.786162 0.617350 0.028796
vn -0.786162 0.617350 -0.028796
vn 0.000000 0.999544 0.030188
vn 0.000000 0.999544 -0.030188
vn 0.786162 0.617350 0.028796
vn 0.786162 0.617350 -0.028796
vn 0.999623 0.000000 0.027441
vn 0.999623 0.000000 -0.027441
vn 0.000000 0.000000 1.000000
vn 0.000000 0.000000 -1.000000
s 1
g Radiator_lowpoly PROP_____RADIATOR High_Fidelity_Group Radiator_Parts10
usemtl initialShadingGroup
f 25/73/25 26/78/26 34/71/27 33/66/28
f 26/78/26 27/77/29 35/70/30 34/71/27
f 27/77/29 28/76/31 36/69/32 35/70/30
f 28/76/31 29/61/33 37/64/34 36/69/32
f 29/62/33 30/75/35 38/68/36 37/63/34
f 30/75/35 31/74/37 39/67/38 38/68/36
f 31/74/37 32/72/39 40/65/40 39/67/38
f 32/72/39 25/73/25 33/66/28 40/65/40
f 26/44/26 25/43/25 41/59/41
f 27/47/29 26/44/26 41/59/41
f 28/49/31 27/47/29 41/59/41
f 29/51/33 28/49/31 41/59/41
f 30/53/35 29/51/33 41/59/41
f 31/55/37 30/53/35 41/59/41
f 32/57/39 31/55/37 41/59/41
f 25/43/25 32/57/39 41/59/41
f 33/46/28 34/45/27 42/60/42
f 34/45/27 35/48/30 42/60/42
f 35/48/30 36/50/32 42/60/42
f 36/50/32 37/52/34 42/60/42
f 37/52/34 38/54/36 42/60/42
f 38/54/36 39/56/38 42/60/42
f 39/56/38 40/58/40 42/60/42
f 40/58/40 33/46/28 42/60/42
g default
v 7.159977 0.000000 -35.508417
v 8.882790 0.000000 -35.508417
v 4.500588 9.416202 -35.508417
v 8.882790 9.416202 -35.508417
v 4.500588 9.416202 -38.267786
v 8.882790 9.416202 -38.267786
v 7.159977 0.000000 -38.267786
v 8.882790 0.000000 -38.267786
v -7.159887 0.000000 -35.508417
v -8.882652 0.000000 -35.508417
v -4.500403 9.416202 -35.508417
v -8.882652 9.416202 -35.508417
v -4.500403 9.416202 -38.267786
v -8.882652 9.416202 -38.267786
v -7.159887 0.000000 -38.267786
v -8.882652 0.000000 -38.267786
vt 0.794735 0.279913
vt 0.789968 0.282832
vt 0.758542 0.281424
vt 0.759748 0.265583
vt 0.759144 0.292189
vt 0.829513 0.295092
vt 0.790158 0.289474
vt 0.793955 0.292490
vt 0.749425 0.094163
vt 0.749994 0.057973
vt 0.742322 0.129701
vt 0.745816 0.098441
vt 0.716440 0.122988
vt 0.731754 0.127408
vt 0.736901 0.092992
vt 0.739280 0.097228
vt 0.739788 0.057460
vt 0.758181 0.130886
vt 0.761034 0.307999
vt 0.830572 0.284928
vn -0.586532 -0.272966 0.762541
vn 0.665599 -0.121779 0.736307
vn 0.670590 0.000000 0.741829
vn -0.723157 -0.204239 0.659796
vn -0.723157 -0.204239 -0.659796
vn 0.670590 0.000000 -0.741829
vn 0.665599 -0.121779 -0.736307
vn -0.586532 -0.272966 -0.762541
vn 0.586530 -0.272968 0.762542
vn 0.723158 -0.204246 0.659792
vn -0.670590 0.000000 0.741829
vn -0.665599 -0.121776 0.736308
vn 0.723158 -0.204246 -0.659792
vn 0.586530 -0.272968 -0.762542
vn -0.665599 -0.121776 -0.736308
vn -0.670590 0.000000 -0.741829
s 1
g Radiator_lowpoly PROP_____RADIATOR High_Fidelity_Group Radiator_Parts13
usemtl initialShadingGroup
f 43/79/43 44/80/44 46/81/45 45/82/46
f 47/97/47 48/83/48 50/85/49 49/86/50
f 49/86/50 50/85/49 44/80/44 43/79/43
f 44/80/44 50/85/49 48/83/48 46/81/45
f 49/86/50 43/79/43 45/98/46 47/84/47
s 2
f 51/87/51 53/96/52 54/89/53 52/90/54
f 55/91/55 57/93/56 58/94/57 56/92/58
f 57/93/56 51/87/51 52/90/54 58/94/57
f 52/90/54 54/89/53 56/92/58 58/94/57
f 57/93/56 55/95/55 53/88/52 51/87/51
g default
v 7.159977 0.000000 38.282771
v 8.882790 0.000000 38.282771
v 4.500588 9.416202 38.282771
v 8.882790 9.416202 38.282771
v 4.500588 9.416202 35.523411
v 8.882790 9.416202 35.523411
v 7.159977 0.000000 35.523411
v 8.882790 0.000000 35.523411
v -7.159887 0.000000 38.282771
v -8.882652 0.000000 38.282771
v -4.500403 9.416202 38.282771
v -8.882652 9.416202 38.282771
v -4.500403 9.416202 35.523411
v -8.882652 9.416202 35.523411
v -7.159887 0.000000 35.523411
v -8.882652 0.000000 35.523411
vt 0.057976 0.311673
vt 0.053132 0.314463
vt 0.021756 0.312208
vt 0.023389 0.296405
vt 0.022067 0.322985
vt 0.092332 0.327785
vt 0.053143 0.321108
vt 0.056858 0.324225
vt 0.724760 0.060304
vt 0.726085 0.024133
vt 0.716915 0.095686
vt 0.721062 0.064505
vt 0.691179 0.088433
vt 0.706397 0.093171
vt 0.712263 0.058871
vt 0.714553 0.063155
vt 0.715893 0.023406
vt 0.732745 0.097201
vt 0.023530 0.338841
vt 0.093664 0.317652
vn -0.586531 -0.272966 0.762542
vn 0.665597 -0.121780 0.736308
vn 0.670588 0.000000 0.741830
vn -0.723156 -0.204239 0.659797
vn -0.723156 -0.204239 -0.659797
vn 0.670588 0.000000 -0.741830
vn 0.665597 -0.121780 -0.736308
vn -0.586531 -0.272966 -0.762542
vn 0.586529 -0.272968 0.762543
vn 0.723157 -0.204246 0.659794
vn -0.670588 0.000000 0.741830
vn -0.665597 -0.121776 0.736309
vn 0.723157 -0.204246 -0.659794
vn 0.586529 -0.272968 -0.762543
vn -0.665598 -0.121776 -0.736309
vn -0.670588 0.000000 -0.741830
s 1
g Radiator_lowpoly PROP_____RADIATOR High_Fidelity_Group Radiator_Parts14
usemtl initialShadingGroup
f 59/99/59 60/100/60 62/101/61 61/102/62
f 63/117/63 64/103/64 66/105/65 65/106/66
f 65/106/66 66/105/65 60/100/60 59/99/59
f 60/100/60 66/105/65 64/103/64 62/101/61
f 65/106/66 59/99/59 61/118/62 63/104/63
s 2
f 67/107/67 69/116/68 70/109/69 68/110/70
f 71/111/71 73/113/72 74/114/73 72/112/74
f 73/113/72 67/107/67 68/110/70 74/114/73
f 68/110/70 70/109/69 72/112/74 74/114/73
f 73/113/72 71/115/71 69/108/68 67/107/67
g default
v 3.972414 14.271510 40.918558
v 0.000031 12.176182 40.918558
v -3.972324 14.271510 40.918558
v -5.617719 19.330082 40.918558
v -3.972324 24.388654 40.918558
v 0.000031 26.483984 40.918558
v 3.972414 24.388655 40.918558
v 5.617781 19.330082 40.918558
v 3.972414 14.271510 -40.918538
v 0.000031 12.176182 -40.918538
v -3.972324 14.271510 -40.918538
v -5.617719 19.330082 -40.918538
v -3.972324 24.388654 -40.918538
v 0.000031 26.483984 -40.918538
v 3.972414 24.388655 -40.918538
v 5.617781 19.330082 -40.918538
v 0.000031 19.330082 40.918558
v 0.000031 19.330082 -40.918538
vt 0.173535 0.342966
vt 0.173324 0.358532
vt 0.778607 0.331994
vt 0.792997 0.337933
vt 0.186051 0.367496
vt 0.775383 0.316764
vt 0.204262 0.364608
vt 0.785214 0.301165
vt 0.217288 0.351559
vt 0.802341 0.294335
vt 0.217500 0.335993
vt 0.816730 0.300274
vt 0.204773 0.327029
vt 0.819954 0.315504
vt 0.186562 0.329917
vt 0.810123 0.331103
vt 0.195412 0.347262
vt 0.797668 0.316134
vt 0.305422 0.159432
vt 0.305422 0.023410
vt 0.021757 0.023410
vt 0.021757 0.159432
vt 0.021757 0.072983
vt 0.021756 0.091421
vt 0.021757 0.054544
vt 0.021757 0.038978
vt 0.021757 0.140994
vt 0.021756 0.122555
vt 0.021756 0.106988
vt 0.305421 0.072983
vt 0.305421 0.091421
vt 0.305421 0.054544
vt 0.305422 0.038977
vt 0.305422 0.140994
vt 0.305422 0.122555
vt 0.305421 0.106988
vn 0.786162 -0.617350 0.028796
vn -0.000000 -0.999544 0.030188
vn -0.000000 -0.999544 -0.030188
vn 0.786162 -0.617350 -0.028796
vn -0.786162 -0.617350 0.028796
vn -0.786162 -0.617350 -0.028796
vn -0.999623 0.000000 0.027441
vn -0.999623 -0.000000 -0.027441
vn -0.786162 0.617350 0.028796
vn -0.786162 0.617350 -0.028796
vn -0.000000 0.999544 0.030188
vn -0.000000 0.999544 -0.030188
vn 0.786162 0.617350 0.028796
vn 0.786162 0.617350 -0.028796
vn 0.999623 0.000000 0.027441
vn 0.999623 0.000000 -0.027441
vn 0.000000 0.000000 1.000000
vn 0.000000 0.000000 -1.000000
s 1
g Radiator_lowpoly PROP_____RADIATOR High_Fidelity_Group Radiator_Parts16
usemtl initialShadingGroup
f 75/149/75 76/154/76 84/147/77 83/142/78
f 76/154/76 77/153/79 85/146/80 84/147/77
f 77/153/79 78/152/81 86/145/82 85/146/80
f 78/152/81 79/137/83 87/140/84 86/145/82
f 79/138/83 80/151/85 88/144/86 87/139/84
f 80/151/85 81/150/87 89/143/88 88/144/86
f 81/150/87 82/148/89 90/141/90 89/143/88
f 82/148/89 75/149/75 83/142/78 90/141/90
f 76/120/76 75/119/75 91/135/91
f 77/123/79 76/120/76 91/135/91
f 78/125/81 77/123/79 91/135/91
f 79/127/83 78/125/81 91/135/91
f 80/129/85 79/127/83 91/135/91
f 81/131/87 80/129/85 91/135/91
f 82/133/89 81/131/87 91/135/91
f 75/119/75 82/133/89 91/135/91
f 83/122/78 84/121/77 92/136/92
f 84/121/77 85/124/80 92/136/92
f 85/124/80 86/126/82 92/136/92
f 86/126/82 87/128/84 92/136/92
f 87/128/84 88/130/86 92/136/92
f 88/130/86 89/132/88 92/136/92
f 89/132/88 90/134/90 92/136/92
f 90/134/90 83/122/78 92/136/92
g default
v -8.923782 9.360904 31.574474
v -8.923782 10.607692 32.553539
v -9.727898 10.607692 31.574474
v 9.727981 10.607692 31.574474
v 8.923959 10.607692 32.553539
v 8.923959 9.360904 31.574474
v -9.727898 77.206751 31.574474
v -8.923782 77.206751 32.553539
v -8.923782 78.453533 31.574474
v 8.923959 78.453533 31.574474
v 8.923959 77.206751 32.553539
v 9.727981 77.206751 31.574474
v -9.727898 77.206751 28.815121
v -8.923782 78.453533 28.815121
v -8.923782 77.206751 27.836060
v 8.923959 77.206751 27.836060
v 8.923959 78.453533 28.815121
v 9.727981 77.206751 28.815121
v -9.727898 10.607692 28.815121
v -8.923782 10.607692 27.836060
v -8.923782 9.360904 28.815121
v 8.923959 9.360904 28.815121
v 8.923959 10.607692 27.836060
v 9.727981 10.607692 28.815121
vt 0.923395 0.264540
vt 0.686001 0.260820
vt 0.932969 0.259415
vt 0.756277 0.647816
vt 0.681651 0.260326
vt 0.923284 0.326404
vt 0.619772 0.259743
vt 0.683894 0.029474
vt 0.923819 0.028553
vt 0.923275 0.331546
vt 0.932849 0.326421
vt 0.751029 0.581028
vt 0.617664 0.028398
vt 0.622015 0.028892
vt 0.684503 0.024084
vt 0.932305 0.629414
vt 0.519599 0.652680
vt 0.922852 0.567533
vt 0.932426 0.562408
vt 0.514351 0.585892
vt 0.750880 0.647268
vt 0.520020 0.648321
vt 0.519747 0.586440
vt 0.750607 0.585387
vt 0.615395 0.260138
vt 0.922861 0.562391
vt 0.751348 0.651637
vt 0.933383 0.028570
vt 0.756084 0.584805
vt 0.932960 0.264557
vt 0.519280 0.582071
vt 0.932839 0.331563
vt 0.514544 0.648903
vt 0.932416 0.567550
vt 0.621496 0.023410
vt 0.923828 0.023410
vt 0.688270 0.029079
vt 0.619162 0.265134
vt 0.923404 0.259398
vt 0.682170 0.265808
vt 0.922741 0.629397
vt 0.933392 0.023427
vn -0.055199 -0.948739 0.311203
vn -0.977911 -0.009961 0.208784
vn -0.977911 -0.009961 -0.208784
vn -0.055199 -0.948739 -0.311204
vn -0.051549 -0.013836 0.998575
vn 0.055200 -0.948739 0.311204
vn 0.051550 -0.013836 0.998575
vn -0.051549 0.013836 0.998575
vn -0.977911 0.009961 0.208784
vn 0.977916 -0.009959 0.208760
vn 0.055200 -0.948739 -0.311204
vn 0.977916 -0.009959 -0.208760
vn 0.977916 0.009959 0.208760
vn 0.051550 0.013836 0.998575
vn -0.055199 0.948739 0.311202
vn -0.055199 0.948739 -0.311202
vn -0.977911 0.009961 -0.208784
vn 0.055199 0.948739 0.311202
vn 0.977916 0.009959 -0.208760
vn 0.055199 0.948739 -0.311203
vn -0.051549 -0.013836 -0.998575
vn -0.051549 0.013836 -0.998575
vn 0.051549 0.013836 -0.998575
vn 0.051549 -0.013836 -0.998575
s 1
g Radiator_lowpoly PROP_____RADIATOR High_Fidelity_Group Radiator_Parts17
usemtl initialShadingGroup
f 93/155/93 95/193/94 111/157/95 113/184/96
f 94/159/97 93/194/93 98/192/98 97/161/99
f 95/156/94 94/159/97 100/162/100 99/191/101
f 96/164/102 98/160/98 114/165/103 116/186/104
f 97/161/99 96/179/102 104/167/105 103/168/106
f 99/163/101 101/190/107 106/196/108 105/182/109
f 101/169/107 100/162/100 103/168/106 102/189/110
f 102/172/110 104/180/105 110/173/111 109/188/112
f 112/175/113 111/181/95 105/171/109 107/176/114
f 107/176/114 106/187/108 109/174/112 108/177/115
f 116/166/104 115/178/116 108/177/115 110/185/111
f 113/158/96 112/175/113 115/178/116 114/183/103
f 100/162/100 94/159/97 97/161/99 103/168/106
f 101/195/107 102/172/110 109/188/112 106/170/108
f 115/178/116 112/175/113 107/176/114 108/177/115
f 113/184/96 114/165/103 98/160/98 93/155/93
f 96/164/102 116/186/104 110/173/111 104/180/105
f 111/157/95 95/193/94 99/163/101 105/182/109
f 93/194/93 94/159/97 95/156/94
f 96/179/102 97/161/99 98/192/98
f 99/191/101 100/162/100 101/169/107
f 102/189/110 103/168/106 104/167/105
f 105/171/109 106/187/108 107/176/114
f 108/177/115 109/174/112 110/185/111
f 111/181/95 112/175/113 113/158/96
f 114/183/103 115/178/116 116/166/104
g default
v -8.923782 9.360904 24.866183
v -8.923782 10.607692 25.845249
v -9.727898 10.607692 24.866183
v 9.727981 10.607692 24.866183
v 8.923959 10.607692 25.845249
v 8.923959 9.360904 24.866183
v -9.727898 77.206751 24.866183
v -8.923782 77.206751 25.845249
v -8.923782 78.453533 24.866183
v 8.923959 78.453533 24.866183
v 8.923959 77.206751 25.845249
v 9.727981 77.206751 24.866183
v -9.727898 77.206751 22.106831
v -8.923782 78.453533 22.106831
v -8.923782 77.206751 21.127770
v 8.923959 77.206751 21.127770
v 8.923959 78.453533 22.106831
v 9.727981 77.206751 22.106831
v -9.727898 10.607692 22.106831
v -8.923782 10.607692 21.127770
v -8.923782 9.360904 22.106831
v 8.923959 9.360904 22.106831
v 8.923959 10.607692 21.127770
v 9.727981 10.607692 22.106831
vt 0.957999 0.388283
vt 0.259167 0.369595
vt 0.948425 0.393408
vt 0.825330 0.023410
vt 0.258673 0.373945
vt 0.958110 0.326419
vt 0.258090 0.435825
vt 0.027821 0.371703
vt 0.957576 0.624269
vt 0.958119 0.321277
vt 0.948545 0.326402
vt 0.758542 0.028658
vt 0.026745 0.437932
vt 0.027239 0.433581
vt 0.022430 0.371093
vt 0.949089 0.023410
vt 0.830194 0.260089
vt 0.958543 0.085291
vt 0.948969 0.090416
vt 0.763406 0.265337
vt 0.824782 0.028807
vt 0.825836 0.259667
vt 0.763954 0.259940
vt 0.762901 0.029080
vt 0.258486 0.440201
vt 0.958533 0.090433
vt 0.829151 0.028339
vt 0.948011 0.624252
vt 0.762319 0.023603
vt 0.948434 0.388265
vt 0.759585 0.260407
vt 0.948555 0.321260
vt 0.826417 0.265143
vt 0.948978 0.085273
vt 0.021756 0.434101
vt 0.957566 0.629412
vt 0.027426 0.367326
vt 0.263481 0.436434
vt 0.957990 0.393425
vt 0.264155 0.373426
vt 0.958654 0.023427
vt 0.948002 0.629395
vn -0.055199 -0.948739 0.311203
vn -0.977911 -0.009961 0.208784
vn -0.977911 -0.009961 -0.208784
vn -0.055199 -0.948739 -0.311204
vn -0.051549 -0.013836 0.998575
vn 0.055200 -0.948739 0.311204
vn 0.051550 -0.013836 0.998575
vn -0.051549 0.013836 0.998575
vn -0.977911 0.009961 0.208784
vn 0.977916 -0.009959 0.208760
vn 0.055200 -0.948739 -0.311204
vn 0.977916 -0.009959 -0.208760
vn 0.977916 0.009959 0.208760
vn 0.051550 0.013836 0.998575
vn -0.055199 0.948739 0.311202
vn -0.055199 0.948739 -0.311202
vn -0.977911 0.009961 -0.208784
vn 0.055199 0.948739 0.311202
vn 0.977916 0.009959 -0.208760
vn 0.055199 0.948739 -0.311203
vn -0.051549 -0.013836 -0.998575
vn -0.051549 0.013836 -0.998575
vn 0.051549 0.013836 -0.998575
vn 0.051549 -0.013836 -0.998575
s 1
g Radiator_lowpoly PROP_____RADIATOR High_Fidelity_Group Radiator_Parts18
usemtl initialShadingGroup
f 117/197/117 119/235/118 135/199/119 137/226/120
f 118/201/121 117/236/117 122/234/122 121/203/123
f 119/198/118 118/201/121 124/204/124 123/233/125
f 120/206/126 122/202/122 138/207/127 140/228/128
f 121/203/123 120/221/126 128/209/129 127/210/130
f 123/205/125 125/232/131 130/238/132 129/224/133
f 125/211/131 124/204/124 127/210/130 126/231/134
f 126/214/134 128/222/129 134/215/135 133/230/136
f 136/217/137 135/223/119 129/213/133 131/218/138
f 131/218/138 130/229/132 133/216/136 132/219/139
f 140/208/128 139/220/140 132/219/139 134/227/135
f 137/200/120 136/217/137 139/220/140 138/225/127
f 124/204/124 118/201/121 121/203/123 127/210/130
f 125/237/131 126/214/134 133/230/136 130/212/132
f 139/220/140 136/217/137 131/218/138 132/219/139
f 137/226/120 138/207/127 122/202/122 117/197/117
f 120/206/126 140/228/128 134/215/135 128/222/129
f 135/199/119 119/235/118 123/205/125 129/224/133
f 117/236/117 118/201/121 119/198/118
f 120/221/126 121/203/123 122/234/122
f 123/233/125 124/204/124 125/211/131
f 126/231/134 127/210/130 128/209/129
f 129/213/133 130/229/132 131/218/138
f 132/219/139 133/216/136 134/227/135
f 135/223/119 136/217/137 137/200/120
f 138/225/127 139/220/140 140/208/128
g default
v -8.923782 9.360904 18.157893
v -8.923782 10.607692 19.136959
v -9.727898 10.607692 18.157893
v 9.727981 10.607692 18.157893
v 8.923959 10.607692 19.136959
v 8.923959 9.360904 18.157893
v -9.727898 77.206751 18.157893
v -8.923782 77.206751 19.136959
v -8.923782 78.453533 18.157893
v 8.923959 78.453533 18.157893
v 8.923959 77.206751 19.136959
v 9.727981 77.206751 18.157893
v -9.727898 77.206751 15.398541
v -8.923782 78.453533 15.398541
v -8.923782 77.206751 14.419480
v 8.923959 77.206751 14.419480
v 8.923959 78.453533 15.398541
v 9.727981 77.206751 15.398541
v -9.727898 10.607692 15.398541
v -8.923782 10.607692 14.419480
v -8.923782 9.360904 15.398541
v 8.923959 9.360904 15.398541
v 8.923959 10.607692 14.419480
v 9.727981 10.607692 15.398541
vt 0.885503 0.264541
vt 0.344001 0.375449
vt 0.895077 0.259415
vt 0.442777 0.514533
vt 0.348351 0.375943
vt 0.885392 0.326405
vt 0.410230 0.376526
vt 0.346109 0.606795
vt 0.885927 0.028553
vt 0.885383 0.331547
vt 0.894957 0.326422
vt 0.448026 0.581320
vt 0.412338 0.607871
vt 0.407987 0.607377
vt 0.345499 0.612185
vt 0.894413 0.629416
vt 0.679456 0.509669
vt 0.884960 0.567535
vt 0.894534 0.562410
vt 0.684704 0.576457
vt 0.448174 0.515081
vt 0.679034 0.514027
vt 0.679307 0.575909
vt 0.448447 0.576962
vt 0.414607 0.376131
vt 0.884969 0.562393
vt 0.447707 0.510712
vt 0.895491 0.028570
vt 0.442971 0.577544
vt 0.895068 0.264558
vt 0.679775 0.580278
vt 0.894947 0.331564
vt 0.684510 0.513446
vt 0.894524 0.567552
vt 0.408507 0.612860
vt 0.885936 0.023410
vt 0.341732 0.607190
vt 0.410840 0.371135
vt 0.885513 0.259398
vt 0.347832 0.370461
vt 0.884849 0.629399
vt 0.895500 0.023427
vn -0.055199 -0.948739 0.311203
vn -0.977911 -0.009961 0.208784
vn -0.977911 -0.009961 -0.208784
vn -0.055199 -0.948739 -0.311204
vn -0.051549 -0.013836 0.998575
vn 0.055200 -0.948739 0.311204
vn 0.051550 -0.013836 0.998575
vn -0.051549 0.013836 0.998575
vn -0.977911 0.009961 0.208784
vn 0.977916 -0.009959 0.208760
vn 0.055200 -0.948739 -0.311204
vn 0.977916 -0.009959 -0.208760
vn 0.977916 0.009959 0.208760
vn 0.051550 0.013836 0.998575
vn -0.055199 0.948739 0.311202
vn -0.055199 0.948739 -0.311202
vn -0.977911 0.009961 -0.208784
vn 0.055199 0.948739 0.311202
vn 0.977916 0.009959 -0.208760
vn 0.055199 0.948739 -0.311203
vn -0.051549 -0.013836 -0.998575
vn -0.051549 0.013836 -0.998575
vn 0.051549 0.013836 -0.998575
vn 0.051549 -0.013836 -0.998575
s 1
g Radiator_lowpoly PROP_____RADIATOR High_Fidelity_Group Radiator_Parts19
usemtl initialShadingGroup
f 141/239/141 143/277/142 159/241/143 161/268/144
f 142/243/145 141/278/141 146/276/146 145/245/147
f 143/240/142 142/243/145 148/246/148 147/275/149
f 144/248/150 146/244/146 162/249/151 164/270/152
f 145/245/147 144/263/150 152/251/153 151/252/154
f 147/247/149 149/274/155 154/280/156 153/266/157
f 149/253/155 148/246/148 151/252/154 150/273/158
f 150/256/158 152/264/153 158/257/159 157/272/160
f 160/259/161 159/265/143 153/255/157 155/260/162
f 155/260/162 154/271/156 157/258/160 156/261/163
f 164/250/152 163/262/164 156/261/163 158/269/159
f 161/242/144 160/259/161 163/262/164 162/267/151
f 148/246/148 142/243/145 145/245/147 151/252/154
f 149/279/155 150/256/158 157/272/160 154/254/156
f 163/262/164 160/259/161 155/260/162 156/261/163
f 161/268/144 162/249/151 146/244/146 141/239/141
f 144/248/150 164/270/152 158/257/159 152/264/153
f 159/241/143 143/277/142 147/247/149 153/266/157
f 141/278/141 142/243/145 143/240/142
f 144/263/150 145/245/147 146/276/146
f 147/275/149 148/246/148 149/253/155
f 150/273/158 151/252/154 152/251/153
f 153/255/157 154/271/156 155/260/162
f 156/261/163 157/258/160 158/269/159
f 159/265/143 160/259/161 161/242/144
f 162/267/151 163/262/164 164/250/152
g default
v -8.923782 9.360904 11.449603
v -8.923782 10.607692 12.428669
v -9.727898 10.607692 11.449603
v 9.727981 10.607692 11.449603
v 8.923959 10.607692 12.428669
v 8.923959 9.360904 11.449603
v -9.727898 77.206751 11.449603
v -8.923782 77.206751 12.428669
v -8.923782 78.453533 11.449603
v 8.923959 78.453533 11.449603
v 8.923959 77.206751 12.428669
v 9.727981 77.206751 11.449603
v -9.727898 77.206751 8.690251
v -8.923782 78.453533 8.690251
v -8.923782 77.206751 7.711190
v 8.923959 77.206751 7.711190
v 8.923959 78.453533 8.690251
v 9.727981 77.206751 8.690251
v -9.727898 10.607692 8.690251
v -8.923782 10.607692 7.711190
v -8.923782 9.360904 8.690251
v 8.923959 9.360904 8.690251
v 8.923959 10.607692 7.711190
v 9.727981 10.607692 8.690251
vt 0.907476 0.388285
vt 0.314529 0.028398
vt 0.897903 0.393410
vt 0.753756 0.159477
vt 0.318880 0.028892
vt 0.907587 0.326421
vt 0.380759 0.029475
vt 0.316637 0.259744
vt 0.907053 0.624273
vt 0.907597 0.321279
vt 0.898023 0.326404
vt 0.686969 0.164726
vt 0.382867 0.260820
vt 0.378516 0.260326
vt 0.316027 0.265135
vt 0.898566 0.023410
vt 0.758620 0.396156
vt 0.908020 0.085291
vt 0.898446 0.090416
vt 0.691833 0.401404
vt 0.753208 0.164874
vt 0.754262 0.395734
vt 0.692381 0.396007
vt 0.691327 0.165147
vt 0.385135 0.029079
vt 0.908011 0.090433
vt 0.757578 0.164407
vt 0.897488 0.624256
vt 0.690745 0.159671
vt 0.897912 0.388268
vt 0.688012 0.396475
vt 0.898032 0.321262
vt 0.754844 0.401211
vt 0.898456 0.085274
vt 0.379035 0.265808
vt 0.907044 0.629415
vt 0.312261 0.260139
vt 0.381369 0.024084
vt 0.907467 0.393427
vt 0.318361 0.023410
vt 0.908131 0.023427
vt 0.897479 0.629398
vn -0.055199 -0.948739 0.311203
vn -0.977911 -0.009961 0.208784
vn -0.977911 -0.009961 -0.208784
vn -0.055199 -0.948739 -0.311204
vn -0.051549 -0.013836 0.998575
vn 0.055200 -0.948739 0.311204
vn 0.051550 -0.013836 0.998575
vn -0.051549 0.013836 0.998575
vn -0.977911 0.009961 0.208784
vn 0.977916 -0.009959 0.208760
vn 0.055200 -0.948739 -0.311204
vn 0.977916 -0.009959 -0.208760
vn 0.977916 0.009959 0.208760
vn 0.051550 0.013836 0.998575
vn -0.055199 0.948739 0.311202
vn -0.055199 0.948739 -0.311202
vn -0.977911 0.009961 -0.208784
vn 0.055199 0.948739 0.311202
vn 0.977916 0.009959 -0.208760
vn 0.055199 0.948739 -0.311203
vn -0.051549 -0.013836 -0.998575
vn -0.051549 0.013836 -0.998575
vn 0.051549 0.013836 -0.998575
vn 0.051549 -0.013836 -0.998575
s 1
g Radiator_lowpoly PROP_____RADIATOR High_Fidelity_Group Radiator_Parts20
usemtl initialShadingGroup
f 165/281/165 167/319/166 183/283/167 185/310/168
f 166/285/169 165/320/165 170/318/170 169/287/171
f 167/282/166 166/285/169 172/288/172 171/317/173
f 168/290/174 170/286/170 186/291/175 188/312/176
f 169/287/171 168/305/174 176/293/177 175/294/178
f 171/289/173 173/316/179 178/322/180 177/308/181
f 173/295/179 172/288/172 175/294/178 174/315/182
f 174/298/182 176/306/177 182/299/183 181/314/184
f 184/301/185 183/307/167 177/297/181 179/302/186
f 179/302/186 178/313/180 181/300/184 180/303/187
f 188/292/176 187/304/188 180/303/187 182/311/183
f 185/284/168 184/301/185 187/304/188 186/309/175
f 172/288/172 166/285/169 169/287/171 175/294/178
f 173/321/179 174/298/182 181/314/184 178/296/180
f 187/304/188 184/301/185 179/302/186 180/303/187
f 185/310/168 186/291/175 170/286/170 165/281/165
f 168/290/174 188/312/176 182/299/183 176/306/177
f 183/283/167 167/319/166 171/289/173 177/308/181
f 165/320/165 166/285/169 167/282/166
f 168/305/174 169/287/171 170/318/170
f 171/317/173 172/288/172 173/295/179
f 174/315/182 175/294/178 176/293/177
f 177/297/181 178/313/180 179/302/186
f 180/303/187 181/300/184 182/311/183
f 183/307/167 184/301/185 185/284/168
f 186/309/175 187/304/188 188/292/176
g default
v -8.923782 9.360904 4.741313
v -8.923782 10.607692 5.720379
v -9.727898 10.607692 4.741313
v 9.727981 10.607692 4.741313
v 8.923959 10.607692 5.720379
v 8.923959 9.360904 4.741313
v -9.727898 77.206751 4.741313
v -8.923782 77.206751 5.720379
v -8.923782 78.453533 4.741313
v 8.923959 78.453533 4.741313
v 8.923959 77.206751 5.720379
v 9.727981 77.206751 4.741313
v -9.727898 77.206751 1.981961
v -8.923782 78.453533 1.981961
v -8.923782 77.206751 1.002900
v 8.923959 77.206751 1.002900
v 8.923959 78.453533 1.981961
v 9.727981 77.206751 1.981961
v -9.727898 10.607692 1.981961
v -8.923782 10.607692 1.002900
v -8.923782 9.360904 1.981961
v 8.923959 9.360904 1.981961
v 8.923959 10.607692 1.002900
v 9.727981 10.607692 1.981961
vt 0.961287 0.264538
vt 0.259167 0.441301
vt 0.970861 0.259413
vt 0.682183 0.266860
vt 0.258673 0.445651
vt 0.961176 0.326401
vt 0.258090 0.507530
vt 0.027821 0.443408
vt 0.961710 0.028553
vt 0.961167 0.331543
vt 0.970741 0.326418
vt 0.615395 0.272108
vt 0.026745 0.509638
vt 0.027239 0.505288
vt 0.022430 0.442799
vt 0.970197 0.629409
vt 0.687047 0.503539
vt 0.960743 0.567529
vt 0.970317 0.562404
vt 0.620259 0.508787
vt 0.681635 0.272257
vt 0.682689 0.503117
vt 0.620807 0.503390
vt 0.619754 0.272530
vt 0.258486 0.511906
vt 0.960753 0.562386
vt 0.686004 0.271789
vt 0.971275 0.028570
vt 0.619172 0.267054
vt 0.970852 0.264555
vt 0.616438 0.503858
vt 0.970731 0.331561
vt 0.683270 0.508594
vt 0.970308 0.567546
vt 0.021756 0.505806
vt 0.961720 0.023410
vt 0.027426 0.439032
vt 0.263481 0.508140
vt 0.961296 0.259395
vt 0.264155 0.445132
vt 0.960632 0.629392
vt 0.971284 0.023427
vn -0.055199 -0.948739 0.311203
vn -0.977911 -0.009961 0.208784
vn -0.977911 -0.009961 -0.208784
vn -0.055199 -0.948739 -0.311204
vn -0.051549 -0.013836 0.998575
vn 0.055200 -0.948739 0.311204
vn 0.051550 -0.013836 0.998575
vn -0.051549 0.013836 0.998575
vn -0.977911 0.009961 0.208784
vn 0.977916 -0.009959 0.208760
vn 0.055200 -0.948739 -0.311204
vn 0.977916 -0.009959 -0.208760
vn 0.977916 0.009959 0.208760
vn 0.051550 0.013836 0.998575
vn -0.055199 0.948739 0.311202
vn -0.055199 0.948739 -0.311202
vn -0.977911 0.009961 -0.208784
vn 0.055199 0.948739 0.311202
vn 0.977916 0.009959 -0.208760
vn 0.055199 0.948739 -0.311203
vn -0.051549 -0.013836 -0.998575
vn -0.051549 0.013836 -0.998575
vn 0.051549 0.013836 -0.998575
vn 0.051549 -0.013836 -0.998575
s 1
g Radiator_lowpoly PROP_____RADIATOR High_Fidelity_Group Radiator_Parts21
usemtl initialShadingGroup
f 189/323/189 191/361/190 207/325/191 209/352/192
f 190/327/193 189/362/189 194/360/194 193/329/195
f 191/324/190 190/327/193 196/330/196 195/359/197
f 192/332/198 194/328/194 210/333/199 212/354/200
f 193/329/195 192/347/198 200/335/201 199/336/202
f 195/331/197 197/358/203 202/364/204 201/350/205
f 197/337/203 196/330/196 199/336/202 198/357/206
f 198/340/206 200/348/201 206/341/207 205/356/208
f 208/343/209 207/349/191 201/339/205 203/344/210
f 203/344/210 202/355/204 205/342/208 204/345/211
f 212/334/200 211/346/212 204/345/211 206/353/207
f 209/326/192 208/343/209 211/346/212 210/351/199
f 196/330/196 190/327/193 193/329/195 199/336/202
f 197/363/203 198/340/206 205/356/208 202/338/204
f 211/346/212 208/343/209 203/344/210 204/345/211
f 209/352/192 210/333/199 194/328/194 189/323/189
f 192/332/198 212/354/200 206/341/207 200/348/201
f 207/325/191 191/361/190 195/331/197 201/350/205
f 189/362/189 190/327/193 191/324/190
f 192/347/198 193/329/195 194/360/194
f 195/359/197 196/330/196 197/337/203
f 198/357/206 199/336/202 200/335/201
f 201/339/205 202/355/204 203/344/210
f 204/345/211 205/342/208 206/353/207
f 207/349/191 208/343/209 209/326/192
f 210/351/199 211/346/212 212/334/200
g default
v -8.923782 9.360904 -1.966977
v -8.923782 10.607692 -0.987911
v -9.727898 10.607692 -1.966977
v 9.727981 10.607692 -1.966977
v 8.923959 10.607692 -0.987911
v 8.923959 9.360904 -1.966977
v -9.727898 77.206751 -1.966977
v -8.923782 77.206751 -0.987911
v -8.923782 78.453533 -1.966977
v 8.923959 78.453533 -1.966977
v 8.923959 77.206751 -0.987911
v 9.727981 77.206751 -1.966977
v -9.727898 77.206751 -4.726329
v -8.923782 78.453533 -4.726329
v -8.923782 77.206751 -5.705390
v 8.923959 77.206751 -5.705390
v 8.923959 78.453533 -4.726329
v 9.727981 77.206751 -4.726329
v -9.727898 10.607692 -4.726329
v -8.923782 10.607692 -5.705390
v -8.923782 9.360904 -4.726329
v 8.923959 9.360904 -4.726329
v 8.923959 10.607692 -5.705390
v 9.727981 10.607692 -4.726329
vt 0.869585 0.388286
vt 0.541880 0.271245
vt 0.860011 0.393411
vt 0.585924 0.657251
vt 0.546231 0.271738
vt 0.869696 0.326422
vt 0.608110 0.272321
vt 0.543988 0.502590
vt 0.869161 0.624274
vt 0.869705 0.321280
vt 0.860131 0.326405
vt 0.591173 0.724039
vt 0.610218 0.503666
vt 0.605867 0.503173
vt 0.543379 0.507981
vt 0.860675 0.023410
vt 0.822603 0.652387
vt 0.870128 0.085291
vt 0.860554 0.090416
vt 0.827850 0.719175
vt 0.591321 0.657799
vt 0.822181 0.656745
vt 0.822454 0.718627
vt 0.591594 0.719680
vt 0.612486 0.271926
vt 0.870119 0.090433
vt 0.590854 0.653430
vt 0.859597 0.624258
vt 0.586118 0.720262
vt 0.860020 0.388269
vt 0.822921 0.722996
vt 0.860141 0.321262
vt 0.827657 0.656164
vt 0.860564 0.085274
vt 0.606386 0.508655
vt 0.869152 0.629417
vt 0.539612 0.502985
vt 0.608720 0.266931
vt 0.869575 0.393428
vt 0.545712 0.266256
vt 0.870239 0.023427
vt 0.859587 0.629400
vn -0.055199 -0.948739 0.311203
vn -0.977911 -0.009961 0.208784
vn -0.977911 -0.009961 -0.208784
vn -0.055199 -0.948739 -0.311204
vn -0.051549 -0.013836 0.998575
vn 0.055200 -0.948739 0.311204
vn 0.051550 -0.013836 0.998575
vn -0.051549 0.013836 0.998575
vn -0.977911 0.009961 0.208784
vn 0.977916 -0.009959 0.208760
vn 0.055200 -0.948739 -0.311204
vn 0.977916 -0.009959 -0.208760
vn 0.977916 0.009959 0.208760
vn 0.051550 0.013836 0.998575
vn -0.055199 0.948739 0.311202
vn -0.055199 0.948739 -0.311202
vn -0.977911 0.009961 -0.208784
vn 0.055199 0.948739 0.311202
vn 0.977916 0.009959 -0.208760
vn 0.055199 0.948739 -0.311203
vn -0.051549 -0.013836 -0.998575
vn -0.051549 0.013836 -0.998575
vn 0.051549 0.013836 -0.998575
vn 0.051549 -0.013836 -0.998575
s 1
g Radiator_lowpoly PROP_____RADIATOR High_Fidelity_Group Radiator_Parts22
usemtl initialShadingGroup
f 213/365/213 215/403/214 231/367/215 233/394/216
f 214/369/217 213/404/213 218/402/218 217/371/219
f 215/366/214 214/369/217 220/372/220 219/401/221
f 216/374/222 218/370/218 234/375/223 236/396/224
f 217/371/219 216/389/222 224/377/225 223/378/226
f 219/373/221 221/400/227 226/406/228 225/392/229
f 221/379/227 220/372/220 223/378/226 222/399/230
f 222/382/230 224/390/225 230/383/231 229/398/232
f 232/385/233 231/391/215 225/381/229 227/386/234
f 227/386/234 226/397/228 229/384/232 228/387/235
f 236/376/224 235/388/236 228/387/235 230/395/231
f 233/368/216 232/385/233 235/388/236 234/393/223
f 220/372/220 214/369/217 217/371/219 223/378/226
f 221/405/227 222/382/230 229/398/232 226/380/228
f 235/388/236 232/385/233 227/386/234 228/387/235
f 233/394/216 234/375/223 218/370/218 213/365/213
f 216/374/222 236/396/224 230/383/231 224/390/225
f 231/367/215 215/403/214 219/373/221 225/392/229
f 213/404/213 214/369/217 215/366/214
f 216/389/222 217/371/219 218/402/218
f 219/401/221 220/372/220 221/379/227
f 222/399/230 223/378/226 224/377/225
f 225/381/229 226/397/228 227/386/234
f 228/387/235 229/384/232 230/395/231
f 231/391/215 232/385/233 233/368/216
f 234/393/223 235/388/236 236/376/224
g default
v -8.923782 9.360904 -8.675267
v -8.923782 10.607692 -7.696201
v -9.727898 10.607692 -8.675267
v 9.727981 10.607692 -8.675267
v 8.923959 10.607692 -7.696201
v 8.923959 9.360904 -8.675267
v -9.727898 77.206751 -8.675267
v -8.923782 77.206751 -7.696201
v -8.923782 78.453533 -8.675267
v 8.923959 78.453533 -8.675267
v 8.923959 77.206751 -7.696201
v 9.727981 77.206751 -8.675267
v -9.727898 77.206751 -11.434620
v -8.923782 78.453533 -11.434620
v -8.923782 77.206751 -12.413681
v 8.923959 77.206751 -12.413681
v 8.923959 78.453533 -11.434620
v 9.727981 77.206751 -11.434620
v -9.727898 10.607692 -11.434620
v -8.923782 10.607692 -12.413681
v -8.923782 9.360904 -11.434620
v 8.923959 9.360904 -11.434620
v 8.923959 10.607692 -12.413681
v 9.727981 10.607692 -11.434620
vt 0.945368 0.388283
vt 0.466097 0.271245
vt 0.935794 0.393409
vt 0.021756 0.589503
vt 0.470448 0.271739
vt 0.945479 0.326420
vt 0.532327 0.272322
vt 0.468204 0.502591
vt 0.944945 0.624270
vt 0.945489 0.321277
vt 0.935915 0.326403
vt 0.027005 0.656291
vt 0.534434 0.503667
vt 0.530084 0.503173
vt 0.467595 0.507982
vt 0.936459 0.023410
vt 0.258435 0.584639
vt 0.945912 0.085291
vt 0.936338 0.090416
vt 0.263683 0.651427
vt 0.027153 0.590051
vt 0.258014 0.588998
vt 0.258286 0.650879
vt 0.027426 0.651932
vt 0.536703 0.271926
vt 0.945903 0.090433
vt 0.026686 0.585682
vt 0.935381 0.624253
vt 0.021950 0.652514
vt 0.935804 0.388266
vt 0.258754 0.655248
vt 0.935924 0.321260
vt 0.263490 0.588416
vt 0.936348 0.085274
vt 0.530603 0.508656
vt 0.944936 0.629413
vt 0.463828 0.502986
vt 0.532936 0.266931
vt 0.945359 0.393426
vt 0.469928 0.266257
vt 0.946023 0.023427
vt 0.935371 0.629396
vn -0.055199 -0.948739 0.311203
vn -0.977911 -0.009961 0.208784
vn -0.977911 -0.009961 -0.208784
vn -0.055199 -0.948739 -0.311204
vn -0.051549 -0.013836 0.998575
vn 0.055200 -0.948739 0.311204
vn 0.051550 -0.013836 0.998575
vn -0.051549 0.013836 0.998575
vn -0.977911 0.009961 0.208784
vn 0.977916 -0.009959 0.208760
vn 0.055200 -0.948739 -0.311204
vn 0.977916 -0.009959 -0.208760
vn 0.977916 0.009959 0.208760
vn 0.051550 0.013836 0.998575
vn -0.055199 0.948739 0.311202
vn -0.055199 0.948739 -0.311202
vn -0.977911 0.009961 -0.208784
vn 0.055199 0.948739 0.311202
vn 0.977916 0.009959 -0.208760
vn 0.055199 0.948739 -0.311203
vn -0.051549 -0.013836 -0.998575
vn -0.051549 0.013836 -0.998575
vn 0.051549 0.013836 -0.998575
vn 0.051549 -0.013836 -0.998575
s 1
g Radiator_lowpoly PROP_____RADIATOR High_Fidelity_Group Radiator_Parts23
usemtl initialShadingGroup
f 237/407/237 239/445/238 255/409/239 257/436/240
f 238/411/241 237/446/237 242/444/242 241/413/243
f 239/408/238 238/411/241 244/414/244 243/443/245
f 240/416/246 242/412/242 258/417/247 260/438/248
f 241/413/243 240/431/246 248/419/249 247/420/250
f 243/415/245 245/442/251 250/448/252 249/434/253
f 245/421/251 244/414/244 247/420/250 246/441/254
f 246/424/254 248/432/249 254/425/255 253/440/256
f 256/427/257 255/433/239 249/423/253 251/428/258
f 251/428/258 250/439/252 253/426/256 252/429/259
f 260/418/248 259/430/260 252/429/259 254/437/255
f 257/410/240 256/427/257 259/430/260 258/435/247
f 244/414/244 238/411/241 241/413/243 247/420/250
f 245/447/251 246/424/254 253/440/256 250/422/252
f 259/430/260 256/427/257 251/428/258 252/429/259
f 257/436/240 258/417/247 242/412/242 237/407/237
f 240/416/246 260/438/248 254/425/255 248/432/249
f 255/409/239 239/445/238 243/415/245 249/434/253
f 237/446/237 238/411/241 239/408/238
f 240/431/246 241/413/243 242/444/242
f 243/443/245 244/414/244 245/421/251
f 246/441/254 247/420/250 248/419/249
f 249/423/253 250/439/252 251/428/258
f 252/429/259 253/426/256 254/437/255
f 255/433/239 256/427/257 257/410/240
f 258/435/247 259/430/260 260/418/248
g default
v -8.923782 9.360904 -15.383557
v -8.923782 10.607692 -14.404491
v -9.727898 10.607692 -15.383557
v 9.727981 10.607692 -15.383557
v 8.923959 10.607692 -14.404491
v 8.923959 9.360904 -15.383557
v -9.727898 77.206751 -15.383557
v -8.923782 77.206751 -14.404491
v -8.923782 78.453533 -15.383557
v 8.923959 78.453533 -15.383557
v 8.923959 77.206751 -14.404491
v 9.727981 77.206751 -15.383557
v -9.727898 77.206751 -18.142910
v -8.923782 78.453533 -18.142910
v -8.923782 77.206751 -19.121971
v 8.923959 77.206751 -19.121971
v 8.923959 78.453533 -18.142910
v 9.727981 77.206751 -18.142910
v -9.727898 10.607692 -18.142910
v -8.923782 10.607692 -19.121971
v -8.923782 9.360904 -18.142910
v 8.923959 9.360904 -18.142910
v 8.923959 10.607692 -19.121971
v 9.727981 10.607692 -18.142910
vt 0.910765 0.264540
vt 0.466097 0.028398
vt 0.920339 0.259415
vt 0.267894 0.723089
vt 0.470448 0.028892
vt 0.910654 0.326404
vt 0.532327 0.029475
vt 0.468205 0.259744
vt 0.911188 0.028553
vt 0.910644 0.331546
vt 0.920218 0.326421
vt 0.262645 0.656302
vt 0.534434 0.260820
vt 0.530084 0.260326
vt 0.467595 0.265135
vt 0.919674 0.629415
vt 0.031215 0.727953
vt 0.910221 0.567534
vt 0.919795 0.562409
vt 0.025967 0.661165
vt 0.262497 0.722541
vt 0.031636 0.723594
vt 0.031364 0.661713
vt 0.262223 0.660659
vt 0.536703 0.029079
vt 0.910230 0.562392
vt 0.262964 0.726910
vt 0.920752 0.028570
vt 0.267700 0.660078
vt 0.920329 0.264557
vt 0.030896 0.657344
vt 0.920209 0.331564
vt 0.026160 0.724176
vt 0.919785 0.567551
vt 0.530603 0.265809
vt 0.911197 0.023410
vt 0.463828 0.260139
vt 0.532936 0.024084
vt 0.910773 0.259398
vt 0.469928 0.023410
vt 0.910110 0.629398
vt 0.920762 0.023427
vn -0.055199 -0.948739 0.311203
vn -0.977911 -0.009961 0.208784
vn -0.977911 -0.009961 -0.208784
vn -0.055199 -0.948739 -0.311204
vn -0.051549 -0.013836 0.998575
vn 0.055200 -0.948739 0.311204
vn 0.051550 -0.013836 0.998575
vn -0.051549 0.013836 0.998575
vn -0.977911 0.009961 0.208784
vn 0.977916 -0.009959 0.208760
vn 0.055200 -0.948739 -0.311204
vn 0.977916 -0.009959 -0.208760
vn 0.977916 0.009959 0.208760
vn 0.051550 0.013836 0.998575
vn -0.055199 0.948739 0.311202
vn -0.055199 0.948739 -0.311202
vn -0.977911 0.009961 -0.208784
vn 0.055199 0.948739 0.311202
vn 0.977916 0.009959 -0.208760
vn 0.055199 0.948739 -0.311203
vn -0.051549 -0.013836 -0.998575
vn -0.051549 0.013836 -0.998575
vn 0.051549 0.013836 -0.998575
vn 0.051549 -0.013836 -0.998575
s 1
g Radiator_lowpoly PROP_____RADIATOR High_Fidelity_Group Radiator_Parts24
usemtl initialShadingGroup
f 261/449/261 263/487/262 279/451/263 281/478/264
f 262/453/265 261/488/261 266/486/266 265/455/267
f 263/450/262 262/453/265 268/456/268 267/485/269
f 264/458/270 266/454/266 282/459/271 284/480/272
f 265/455/267 264/473/270 272/461/273 271/462/274
f 267/457/269 269/484/275 274/490/276 273/476/277
f 269/463/275 268/456/268 271/462/274 270/483/278
f 270/466/278 272/474/273 278/467/279 277/482/280
f 280/469/281 279/475/263 273/465/277 275/470/282
f 275/470/282 274/481/276 277/468/280 276/471/283
f 284/460/272 283/472/284 276/471/283 278/479/279
f 281/452/264 280/469/281 283/472/284 282/477/271
f 268/456/268 262/453/265 265/455/267 271/462/274
f 269/489/275 270/466/278 277/482/280 274/464/276
f 283/472/284 280/469/281 275/470/282 276/471/283
f 281/478/264 282/459/271 266/454/266 261/449/261
f 264/458/270 284/480/272 278/467/279 272/474/273
f 279/451/263 263/487/262 267/457/269 273/476/277
f 261/488/261 262/453/265 263/450/262
f 264/473/270 265/455/267 266/486/266
f 267/485/269 268/456/268 269/463/275
f 270/483/278 271/462/274 272/461/273
f 273/465/277 274/481/276 275/470/282
f 276/471/283 277/468/280 278/479/279
f 279/475/263 280/469/281 281/452/264
f 282/477/271 283/472/284 284/460/272
g default
v -8.923782 9.360904 -22.091847
v -8.923782 10.607692 -21.112781
v -9.727898 10.607692 -22.091847
v 9.727981 10.607692 -22.091847
v 8.923959 10.607692 -21.112781
v 8.923959 9.360904 -22.091847
v -9.727898 77.206751 -22.091847
v -8.923782 77.206751 -21.112781
v -8.923782 78.453533 -22.091847
v 8.923959 78.453533 -22.091847
v 8.923959 77.206751 -21.112781
v 9.727981 77.206751 -22.091847
v -9.727898 77.206751 -24.851200
v -8.923782 78.453533 -24.851200
v -8.923782 77.206751 -25.830261
v 8.923959 77.206751 -25.830261
v 8.923959 78.453533 -24.851200
v 9.727981 77.206751 -24.851200
v -9.727898 10.607692 -24.851200
v -8.923782 10.607692 -25.830261
v -8.923782 9.360904 -24.851200
v 8.923959 9.360904 -24.851200
v 8.923959 10.607692 -25.830261
v 9.727981 10.607692 -24.851200
vt 0.856954 0.388286
vt 0.610218 0.260820
vt 0.847381 0.393412
vt 0.270159 0.618336
vt 0.605867 0.260326
vt 0.857065 0.326422
vt 0.543988 0.259743
vt 0.608110 0.029474
vt 0.856531 0.624275
vt 0.857074 0.321280
vt 0.847501 0.326405
vt 0.275407 0.685123
vt 0.541881 0.028398
vt 0.546231 0.028892
vt 0.608719 0.024084
vt 0.848044 0.023410
vt 0.506837 0.613472
vt 0.857498 0.085291
vt 0.847924 0.090416
vt 0.512085 0.680259
vt 0.275555 0.618884
vt 0.506416 0.617830
vt 0.506688 0.679711
vt 0.275829 0.680765
vt 0.539612 0.260138
vt 0.857488 0.090433
vt 0.275088 0.614514
vt 0.846966 0.624258
vt 0.270352 0.681347
vt 0.847389 0.388269
vt 0.507156 0.684080
vt 0.847510 0.321263
vt 0.511892 0.617248
vt 0.847933 0.085274
vt 0.545712 0.023410
vt 0.856521 0.629417
vt 0.612486 0.029079
vt 0.543378 0.265134
vt 0.856945 0.393429
vt 0.606386 0.265808
vt 0.857609 0.023427
vt 0.846957 0.629400
vn -0.055199 -0.948739 0.311203
vn -0.977911 -0.009961 0.208784
vn -0.977911 -0.009961 -0.208784
vn -0.055199 -0.948739 -0.311204
vn -0.051549 -0.013836 0.998575
vn 0.055200 -0.948739 0.311204
vn 0.051550 -0.013836 0.998575
vn -0.051549 0.013836 0.998575
vn -0.977911 0.009961 0.208784
vn 0.977916 -0.009959 0.208760
vn 0.055200 -0.948739 -0.311204
vn 0.977916 -0.009959 -0.208760
vn 0.977916 0.009959 0.208760
vn 0.051550 0.013836 0.998575
vn -0.055199 0.948739 0.311202
vn -0.055199 0.948739 -0.311202
vn -0.977911 0.009961 -0.208784
vn 0.055199 0.948739 0.311202
vn 0.977916 0.009959 -0.208760
vn 0.055199 0.948739 -0.311203
vn -0.051549 -0.013836 -0.998575
vn -0.051549 0.013836 -0.998575
vn 0.051549 0.013836 -0.998575
vn 0.051549 -0.013836 -0.998575
s 1
g Radiator_lowpoly PROP_____RADIATOR High_Fidelity_Group Radiator_Parts25
usemtl initialShadingGroup
f 285/491/285 287/529/286 303/493/287 305/520/288
f 286/495/289 285/530/285 290/528/290 289/497/291
f 287/492/286 286/495/289 292/498/292 291/527/293
f 288/500/294 290/496/290 306/501/295 308/522/296
f 289/497/291 288/515/294 296/503/297 295/504/298
f 291/499/293 293/526/299 298/532/300 297/518/301
f 293/505/299 292/498/292 295/504/298 294/525/302
f 294/508/302 296/516/297 302/509/303 301/524/304
f 304/511/305 303/517/287 297/507/301 299/512/306
f 299/512/306 298/523/300 301/510/304 300/513/307
f 308/502/296 307/514/308 300/513/307 302/521/303
f 305/494/288 304/511/305 307/514/308 306/519/295
f 292/498/292 286/495/289 289/497/291 295/504/298
f 293/531/299 294/508/302 301/524/304 298/506/300
f 307/514/308 304/511/305 299/512/306 300/513/307
f 305/520/288 306/501/295 290/496/290 285/491/285
f 288/500/294 308/522/296 302/509/303 296/516/297
f 303/493/287 287/529/286 291/499/293 297/518/301
f 285/530/285 286/495/289 287/492/286
f 288/515/294 289/497/291 290/528/290
f 291/527/293 292/498/292 293/505/299
f 294/525/302 295/504/298 296/503/297
f 297/507/301 298/523/300 299/512/306
f 300/513/307 301/510/304 302/521/303
f 303/517/287 304/511/305 305/494/288
f 306/519/295 307/514/308 308/502/296
g default
v -8.923782 9.360904 -28.800137
v -8.923782 10.607692 -27.821072
v -9.727898 10.607692 -28.800137
v 9.727981 10.607692 -28.800137
v 8.923959 10.607692 -27.821072
v 8.923959 9.360904 -28.800137
v -9.727898 77.206751 -28.800137
v -8.923782 77.206751 -27.821072
v -8.923782 78.453533 -28.800137
v 8.923959 78.453533 -28.800137
v 8.923959 77.206751 -27.821072
v 9.727981 77.206751 -28.800137
v -9.727898 77.206751 -31.559490
v -8.923782 78.453533 -31.559490
v -8.923782 77.206751 -32.538551
v 8.923959 77.206751 -32.538551
v 8.923959 78.453533 -31.559490
v 9.727981 77.206751 -31.559490
v -9.727898 10.607692 -31.559490
v -8.923782 10.607692 -32.538551
v -8.923782 9.360904 -31.559490
v 8.923959 9.360904 -31.559490
v 8.923959 10.607692 -32.538551
v 9.727981 10.607692 -31.559490
vt 0.844323 0.388286
vt 0.224624 0.368163
vt 0.834750 0.393412
vt 0.583659 0.751618
vt 0.225118 0.363813
vt 0.844434 0.326422
vt 0.225701 0.301934
vt 0.455970 0.366056
vt 0.843900 0.624275
vt 0.844444 0.321280
vt 0.834870 0.326405
vt 0.578411 0.684831
vt 0.457046 0.299826
vt 0.456553 0.304176
vt 0.461361 0.366665
vt 0.835414 0.023410
vt 0.346980 0.756482
vt 0.844867 0.085291
vt 0.835293 0.090416
vt 0.341732 0.689694
vt 0.578262 0.751070
vt 0.347402 0.752124
vt 0.347129 0.690242
vt 0.577989 0.689189
vt 0.225306 0.297558
vt 0.844858 0.090433
vt 0.578730 0.755439
vt 0.834336 0.624258
vt 0.583466 0.688607
vt 0.834759 0.388269
vt 0.346662 0.685873
vt 0.834879 0.321263
vt 0.341925 0.752705
vt 0.835303 0.085274
vt 0.462035 0.303658
vt 0.843891 0.629418
vt 0.456366 0.370432
vt 0.220310 0.301324
vt 0.844314 0.393429
vt 0.219636 0.364332
vt 0.844978 0.023427
vt 0.834326 0.629401
vn -0.055199 -0.948739 0.311203
vn -0.977911 -0.009961 0.208784
vn -0.977911 -0.009961 -0.208784
vn -0.055199 -0.948739 -0.311204
vn -0.051549 -0.013836 0.998575
vn 0.055200 -0.948739 0.311204
vn 0.051550 -0.013836 0.998575
vn -0.051549 0.013836 0.998575
vn -0.977911 0.009961 0.208784
vn 0.977916 -0.009959 0.208760
vn 0.055200 -0.948739 -0.311204
vn 0.977916 -0.009959 -0.208760
vn 0.977916 0.009959 0.208760
vn 0.051550 0.013836 0.998575
vn -0.055199 0.948739 0.311202
vn -0.055199 0.948739 -0.311202
vn -0.977911 0.009961 -0.208784
vn 0.055199 0.948739 0.311202
vn 0.977916 0.009959 -0.208760
vn 0.055199 0.948739 -0.311203
vn -0.051549 -0.013836 -0.998575
vn -0.051549 0.013836 -0.998575
vn 0.051549 0.013836 -0.998575
vn 0.051549 -0.013836 -0.998575
s 1
g Radiator_lowpoly PROP_____RADIATOR High_Fidelity_Group Radiator_Parts26
usemtl initialShadingGroup
f 309/533/309 311/571/310 327/535/311 329/562/312
f 310/537/313 309/572/309 314/570/314 313/539/315
f 311/534/310 310/537/313 316/540/316 315/569/317
f 312/542/318 314/538/314 330/543/319 332/564/320
f 313/539/315 312/557/318 320/545/321 319/546/322
f 315/541/317 317/568/323 322/574/324 321/560/325
f 317/547/323 316/540/316 319/546/322 318/567/326
f 318/550/326 320/558/321 326/551/327 325/566/328
f 328/553/329 327/559/311 321/549/325 323/554/330
f 323/554/330 322/565/324 325/552/328 324/555/331
f 332/544/320 331/556/332 324/555/331 326/563/327
f 329/536/312 328/553/329 331/556/332 330/561/319
f 316/540/316 310/537/313 313/539/315 319/546/322
f 317/573/323 318/550/326 325/566/328 322/548/324
f 331/556/332 328/553/329 323/554/330 324/555/331
f 329/562/312 330/543/319 314/538/314 309/533/309
f 312/542/318 332/564/320 326/551/327 320/558/321
f 327/535/311 311/571/310 315/541/317 321/560/325
f 309/572/309 310/537/313 311/534/310
f 312/557/318 313/539/315 314/570/314
f 315/569/317 316/540/316 317/547/323
f 318/567/326 319/546/322 320/545/321
f 321/549/325 322/565/324 323/554/330
f 324/555/331 325/552/328 326/563/327
f 327/559/311 328/553/329 329/536/312
f 330/561/319 331/556/332 332/544/320
g default
v -8.923782 9.360904 -35.508427
v -8.923782 10.607692 -34.529362
v -9.727898 10.607692 -35.508427
v 9.727981 10.607692 -35.508427
v 8.923959 10.607692 -34.529362
v 8.923959 9.360904 -35.508427
v -9.727898 77.206751 -35.508427
v -8.923782 77.206751 -34.529362
v -8.923782 78.453533 -35.508427
v 8.923959 78.453533 -35.508427
v 8.923959 77.206751 -34.529362
v 9.727981 77.206751 -35.508427
v -9.727898 77.206751 -38.267780
v -8.923782 78.453533 -38.267780
v -8.923782 77.206751 -39.246841
v 8.923959 77.206751 -39.246841
v 8.923959 78.453533 -38.267780
v 9.727981 77.206751 -38.267780
v -9.727898 10.607692 -38.267780
v -8.923782 10.607692 -39.246841
v -8.923782 9.360904 -38.267780
v 8.923959 9.360904 -38.267780
v 8.923959 10.607692 -39.246841
v 9.727981 10.607692 -38.267780
vt 0.872873 0.264541
vt 0.268217 0.374707
vt 0.882447 0.259416
vt 0.021756 0.517822
vt 0.272568 0.375201
vt 0.872762 0.326405
vt 0.334447 0.375784
vt 0.270325 0.606053
vt 0.873296 0.028553
vt 0.872752 0.331547
vt 0.882326 0.326422
vt 0.027005 0.584610
vt 0.336554 0.607129
vt 0.332204 0.606635
vt 0.269715 0.611444
vt 0.881783 0.629417
vt 0.258435 0.512958
vt 0.872329 0.567536
vt 0.881903 0.562411
vt 0.263683 0.579746
vt 0.027153 0.518370
vt 0.258014 0.517317
vt 0.258286 0.579198
vt 0.027427 0.580252
vt 0.338823 0.375389
vt 0.872339 0.562394
vt 0.026686 0.514001
vt 0.882860 0.028570
vt 0.021950 0.580833
vt 0.882437 0.264558
vt 0.258754 0.583567
vt 0.882317 0.331565
vt 0.263490 0.516735
vt 0.881894 0.567553
vt 0.332723 0.612118
vt 0.873305 0.023410
vt 0.265948 0.606448
vt 0.335056 0.370393
vt 0.872882 0.259399
vt 0.272048 0.369719
vt 0.872218 0.629400
vt 0.882870 0.023427
vn -0.055199 -0.948739 0.311203
vn -0.977911 -0.009961 0.208784
vn -0.977911 -0.009961 -0.208784
vn -0.055199 -0.948739 -0.311204
vn -0.051549 -0.013836 0.998575
vn 0.055200 -0.948739 0.311204
vn 0.051550 -0.013836 0.998575
vn -0.051549 0.013836 0.998575
vn -0.977911 0.009961 0.208784
vn 0.977916 -0.009959 0.208760
vn 0.055200 -0.948739 -0.311204
vn 0.977916 -0.009959 -0.208760
vn 0.977916 0.009959 0.208760
vn 0.051550 0.013836 0.998575
vn -0.055199 0.948739 0.311202
vn -0.055199 0.948739 -0.311202
vn -0.977911 0.009961 -0.208784
vn 0.055199 0.948739 0.311202
vn 0.977916 0.009959 -0.208760
vn 0.055199 0.948739 -0.311203
vn -0.051549 -0.013836 -0.998575
vn -0.051549 0.013836 -0.998575
vn 0.051549 0.013836 -0.998575
vn 0.051549 -0.013836 -0.998575
s 1
g Radiator_lowpoly PROP_____RADIATOR High_Fidelity_Group Radiator_Parts27
usemtl initialShadingGroup
f 333/575/333 335/613/334 351/577/335 353/604/336
f 334/579/337 333/614/333 338/612/338 337/581/339
f 335/576/334 334/579/337 340/582/340 339/611/341
f 336/584/342 338/580/338 354/585/343 356/606/344
f 337/581/339 336/599/342 344/587/345 343/588/346
f 339/583/341 341/610/347 346/616/348 345/602/349
f 341/589/347 340/582/340 343/588/346 342/609/350
f 342/592/350 344/600/345 350/593/351 349/608/352
f 352/595/353 351/601/335 345/591/349 347/596/354
f 347/596/354 346/607/348 349/594/352 348/597/355
f 356/586/344 355/598/356 348/597/355 350/605/351
f 353/578/336 352/595/353 355/598/356 354/603/343
f 340/582/340 334/579/337 337/581/339 343/588/346
f 341/615/347 342/592/350 349/608/352 346/590/348
f 355/598/356 352/595/353 347/596/354 348/597/355
f 353/604/336 354/585/343 338/580/338 333/575/333
f 336/584/342 356/606/344 350/593/351 344/600/345
f 351/577/335 335/613/334 339/583/341 345/602/349
f 333/614/333 334/579/337 335/576/334
f 336/599/342 337/581/339 338/612/338
f 339/611/341 340/582/340 341/589/347
f 342/609/350 343/588/346 344/587/345
f 345/591/349 346/607/348 347/596/354
f 348/597/355 349/594/352 350/605/351
f 351/601/335 352/595/353 353/578/336
f 354/603/343 355/598/356 356/586/344
