# This file uses centimeters as units for non-parametric coordinates.

mtllib Window lowpoly.mtl
g default
v 2.948578 9.105387 43.526654
v 2.705963 8.862772 43.526654
v 2.705963 8.862772 5.159307
v 2.948578 9.105387 5.159307
v 5.132416 8.862772 43.526654
v 4.889801 9.105387 43.526654
v 4.889801 9.105387 5.159307
v 5.132416 8.862772 5.159307
v 2.705963 6.258036 43.526654
v 2.948578 6.015421 43.526654
v 2.948578 6.015421 5.159307
v 2.705963 6.258036 5.159307
v 4.889801 6.015421 43.526654
v 5.132416 6.258036 43.526654
v 5.132416 6.258036 5.159307
v 4.889801 6.015421 5.159307
vt 0.121870 0.868646
vt 0.026731 0.866251
vt 0.026852 0.861438
vt 0.121991 0.863833
vt 0.027179 0.848464
vt 0.122318 0.850858
vt 0.122197 0.855672
vt 0.027057 0.853277
vt 0.027036 0.854128
vt 0.122175 0.856523
vt 0.122013 0.862982
vt 0.026873 0.860587
vt 0.121686 0.875956
vt 0.027200 0.847613
vt 0.026710 0.867102
vt 0.121849 0.869497
vt 0.122339 0.850007
vt 0.026547 0.873561
vn -0.110418 0.993885 0.000000
vn -0.110418 0.993885 0.000000
vn 0.110418 0.993885 0.000000
vn 0.110418 0.993885 0.000000
vn -0.110418 -0.993885 0.000000
vn -0.110418 -0.993885 0.000000
vn 0.110418 -0.993885 0.000000
vn 0.110418 -0.993885 0.000000
vn 0.996389 -0.084901 0.000000
vn 0.996389 -0.084901 0.000000
vn 0.996389 0.084901 0.000000
vn 0.996389 0.084901 0.000000
vn -0.996389 -0.084901 0.000000
vn -0.996389 -0.084901 0.000000
vn -0.996389 0.084901 0.000000
vn -0.996389 0.084901 0.000000
s 1
g polySurface1 Window_Doors Window_lowpoly PROP_____Window High_Fidelity_Group
usemtl initialShadingGroup
f 4/1/1 1/2/2 6/3/3 7/4/4
f 10/5/5 11/6/6 16/7/7 13/8/8
f 14/9/9 15/10/10 8/11/11 5/12/12
f 12/13/13 9/18/14 2/15/15 3/16/16
f 2/15/15 1/2/2 4/1/1 3/16/16
f 6/3/3 5/12/12 8/11/11 7/4/4
f 10/5/5 9/14/14 12/17/13 11/6/6
f 14/9/9 13/8/8 16/7/7 15/10/10
g default
v 9.928497 -43.346930 3.390523
v 9.928497 -41.839361 3.390523
v 4.991028 -43.346930 3.390523
v 4.991028 -41.839361 3.390523
v 4.991028 -43.346930 1.969838
v 4.991028 -41.839361 1.969838
v 9.928497 -43.346930 1.969838
v 9.928497 -41.839361 1.969838
v 9.928497 -42.593145 3.727162
v 4.991028 -42.593145 3.727162
v 4.991028 -42.593145 1.633206
v 9.928497 -42.593145 1.633206
v 4.991028 -43.704168 2.680181
v 9.928497 -43.704168 2.680181
v 9.928497 -41.482122 2.680181
v 4.991028 -41.482122 2.680181
vt 0.140737 0.450655
vt 0.137543 0.450601
vt 0.137867 0.431504
vt 0.141060 0.431558
vt 0.122137 0.431237
vt 0.125330 0.431291
vt 0.125006 0.450388
vt 0.121813 0.450335
vt 0.134350 0.450547
vt 0.131275 0.450495
vt 0.131598 0.431397
vt 0.134674 0.431450
vt 0.144135 0.431610
vt 0.118738 0.450283
vt 0.128523 0.431345
vt 0.128199 0.450443
vt 0.119061 0.431185
vt 0.143812 0.450707
vn 0.000000 -0.685824 0.727767
vn 0.000000 0.000000 1.000000
vn 0.000000 0.000000 1.000000
vn 0.000000 -0.685824 0.727767
vn 0.000000 -0.685821 -0.727770
vn 0.000000 0.000000 -1.000000
vn 0.000000 0.000000 -1.000000
vn 0.000000 -0.685821 -0.727770
vn 0.000000 0.685820 0.727771
vn 0.000000 1.000000 0.000000
vn 0.000000 1.000000 0.000000
vn 0.000000 0.685820 0.727771
vn 0.000000 -1.000000 0.000000
vn 0.000000 -1.000000 0.000000
vn 0.000000 0.685817 -0.727774
vn 0.000000 0.685817 -0.727774
s 1
g Window_Doors Window_lowpoly PROP_____Window High_Fidelity_Group polySurface2
usemtl initialShadingGroup
f 17/19/17 25/20/18 26/21/19 19/22/20
f 21/23/21 27/24/22 28/25/23 23/26/24
f 18/27/25 31/28/26 32/29/27 20/30/28
f 29/31/29 30/36/30 17/19/17 19/22/20
f 26/21/19 25/20/18 18/27/25 20/30/28
f 28/25/23 27/24/22 22/33/31 24/34/32
f 23/26/24 30/32/30 29/35/29 21/23/21
f 32/29/27 31/28/26 24/34/32 22/33/31
g default
v 2.276703 -100.561316 48.744935
v 1.882385 -100.057753 48.326299
v 1.882385 -100.529455 47.948041
v 2.276764 -100.955633 48.350545
v 2.276764 47.714960 48.350545
v 1.882385 47.296488 47.962445
v 1.882385 46.800776 48.318700
v 2.276703 47.320642 48.744935
v 2.276703 47.320642 0.000005
v 1.882385 46.817087 0.418637
v 1.882385 47.288782 0.796903
v 2.276764 47.714960 0.394399
v 2.276764 -100.955633 0.394399
v 1.882385 -100.537161 0.782491
v 1.882385 -100.041449 0.426244
v 2.276703 -100.561316 0.000005
v 2.286102 -94.578032 5.451680
v 1.882385 -95.001036 5.039258
v 1.882385 -95.402433 5.470487
v 2.284058 -94.981733 5.853360
v 2.284058 -94.981733 42.891572
v 1.882385 -95.399000 43.274602
v 1.882385 -95.001242 43.710130
v 2.286102 -94.578032 43.293256
v 2.284058 41.741083 5.853360
v 1.882385 42.158350 5.470334
v 1.882385 41.760584 5.034810
v 2.286102 41.337381 5.451680
v 2.286102 41.337381 43.293256
v 1.882385 41.760386 43.705678
v 1.882385 42.161783 43.274449
v 2.284058 41.741083 42.891572
v 5.955811 -100.057783 0.418637
v 5.955811 -100.529486 0.796903
v 5.553162 -100.955664 0.402654
v 5.553192 -100.553053 0.000005
v 5.553192 -100.553053 48.744935
v 5.561432 -100.955664 48.350545
v 5.955811 -100.537191 47.962445
v 5.955811 -100.057783 48.326299
v 5.548523 -94.574469 5.451680
v 5.554138 -94.981771 5.853360
v 5.955811 -95.399031 5.470334
v 5.955811 -95.001074 5.039258
v 5.955811 -95.001074 43.705678
v 5.955811 -95.402464 43.274446
v 5.549530 -94.981771 42.886968
v 5.548523 -94.574469 43.293256
v 5.955811 47.296518 0.782498
v 5.955811 46.800806 0.426244
v 5.553192 47.312372 0.000005
v 5.553162 47.714991 0.402654
v 5.549530 41.741114 5.857968
v 5.552094 41.337412 5.451680
v 5.955811 41.760416 5.039258
v 5.955811 42.158381 5.470334
v 5.955811 46.817118 48.326299
v 5.955811 47.288813 47.948037
v 5.553162 47.714991 48.342290
v 5.553192 47.312372 48.744935
v 5.548523 41.333811 43.293256
v 5.554138 41.741114 42.891576
v 5.955811 42.158381 43.274602
v 5.955811 41.760416 43.705678
vt 0.474934 0.571516
vt 0.472698 0.523708
vt 0.474377 0.562962
vt 0.474398 0.562781
vt 0.473437 0.525350
vt 0.819937 0.553089
vt 0.816504 0.508020
vt 0.472503 0.524928
vt 0.480326 0.536827
vt 0.476504 0.537304
vt 0.396554 0.525500
vt 0.395135 0.571528
vt 0.820839 0.554182
vt 0.819461 0.545715
vt 0.819474 0.545775
vt 0.817360 0.507621
vt 0.923763 0.544958
vt 0.026336 0.507288
vt 0.816008 0.519813
vt 0.811694 0.520207
vt 0.023533 0.553235
vt 0.922406 0.536186
vt 0.024736 0.544421
vt 0.027727 0.506428
vt 0.394508 0.570205
vt 0.395583 0.525896
vt 0.039118 0.519367
vt 0.907181 0.511172
vt 0.394941 0.563087
vt 0.394957 0.563109
vt 0.393049 0.537313
vt 0.388844 0.537212
vt 0.388117 0.538721
vt 0.393032 0.538833
vt 0.392683 0.547785
vt 0.387749 0.547662
vt 0.040048 0.520972
vt 0.476508 0.538733
vt 0.481040 0.538359
vt 0.481447 0.547309
vt 0.476874 0.547233
vt 0.811208 0.521786
vt 0.906426 0.512709
vt 0.039634 0.529718
vt 0.907483 0.520797
vt 0.816249 0.521347
vt 0.816734 0.530404
vt 0.811705 0.530784
vt 0.394312 0.561530
vt 0.026031 0.542896
vt 0.395091 0.561750
vt 0.388362 0.549261
vt 0.392573 0.549346
vt 0.474198 0.561580
vt 0.474964 0.561202
vt 0.818751 0.544195
vt 0.477005 0.548692
vt 0.480876 0.548911
vt 0.038562 0.531213
vt 0.812380 0.532321
vt 0.921316 0.534723
vt 0.819467 0.544371
vt 0.908579 0.522144
vt 0.816685 0.531997
vt 0.396371 0.524366
vt 0.396344 0.524447
vt 0.026539 0.504804
vt 0.917380 0.494554
vt 0.817106 0.506408
vt 0.817037 0.506470
vt 0.474185 0.570418
vt 0.472742 0.523873
vt 0.038201 0.529303
vt 0.037356 0.530176
vt 0.024599 0.542035
vt 0.023356 0.543873
vt 0.037826 0.520302
vt 0.038534 0.521262
vt 0.916602 0.496227
vt 0.025260 0.505708
vt 0.022019 0.552860
vn -0.065899 -0.002809 0.997822
vn -0.074304 -0.997198 0.008647
vn 0.075084 -0.997140 0.008580
vn 0.065949 -0.002806 0.997819
vn -0.978618 -0.000324 0.205685
vn -0.065108 0.002829 0.997874
vn -0.978536 0.000312 0.206076
vn -0.984622 -0.174692 0.001238
vn -0.999492 0.000158 -0.031865
vn -0.999588 0.028687 -0.000482
vn -0.984691 -0.174305 -0.001285
vn -0.075253 -0.997127 -0.008661
vn -0.075346 0.997120 0.008672
vn 0.065967 0.002821 0.997818
vn 0.075142 0.997136 0.008629
vn -0.984689 0.174318 0.001285
vn -0.074491 0.997184 -0.008669
vn -0.984620 0.174706 -0.001238
vn -0.999587 -0.028728 -0.000478
vn -0.999494 -0.000161 -0.031808
vn -0.065895 0.002832 -0.997823
vn 0.076012 0.997070 -0.008632
vn 0.065751 0.002817 -0.997832
vn -0.978618 0.000324 -0.205684
vn -0.065106 -0.002829 -0.997874
vn -0.978536 -0.000312 -0.206077
vn -0.999492 -0.000158 0.031866
vn -0.999588 -0.028695 0.000482
vn 0.066555 -0.002819 -0.997779
vn 0.075093 -0.997139 -0.008630
vn -0.999587 0.028719 0.000478
vn -0.999494 0.000160 0.031808
vn -0.150791 0.002809 0.988562
vn -0.150808 0.988510 0.010268
vn 0.150840 0.988505 0.010248
vn 0.149833 0.002808 0.988707
vn -0.150572 -0.002818 0.988595
vn -0.151040 0.988474 -0.010278
vn -0.150729 0.002821 -0.988571
vn 0.149818 0.002813 -0.988710
vn 0.150735 0.988521 -0.010252
vn -0.150861 -0.002810 -0.988551
vn -0.151038 -0.988475 0.010242
vn 0.149828 -0.002809 0.988708
vn 0.150233 -0.988598 0.010240
vn -0.150812 -0.988509 -0.010268
vn 0.150250 -0.988595 -0.010242
vn 0.149809 -0.002809 -0.988711
vn 0.977965 -0.000336 -0.208770
vn 0.977855 0.000323 -0.209285
vn 0.984459 -0.175607 -0.001298
vn 0.999492 0.000161 0.031862
vn 0.999584 0.028849 0.000485
vn 0.984387 -0.176011 0.001267
vn 0.977915 -0.000319 0.209004
vn 0.977909 0.000342 0.209031
vn 0.999585 0.028808 -0.000486
vn 0.999489 0.000162 -0.031978
vn 0.999490 -0.000161 0.031938
vn 0.999489 -0.000161 -0.031974
vn 0.984242 0.176822 -0.001330
vn 0.984156 0.177300 0.001282
vn 0.999587 -0.028737 0.000485
vn 0.999584 -0.028828 -0.000484
s 1
g Window_Doors Window_lowpoly PROP_____Window High_Fidelity_Group polySurface3
usemtl initialShadingGroup
f 33/37/33 36/107/34 70/39/35 69/40/36
f 34/41/37 33/108/33 40/106/38 39/43/39
f 35/44/40 34/41/37 55/45/41 54/46/42
f 36/38/34 35/44/40 46/47/43 45/101/44
f 37/49/45 40/42/38 92/50/46 91/51/47
f 38/52/48 37/105/45 44/104/49 43/115/50
f 39/43/39 38/52/48 63/55/51 62/56/52
f 41/57/53 44/117/49 84/112/54 83/59/55
f 42/60/56 41/103/53 48/102/57 47/62/58
f 43/54/50 42/60/56 59/63/59 58/113/60
f 45/48/44 48/61/57 68/65/61 67/66/62
f 47/62/58 46/47/43 51/67/63 50/68/64
f 49/69/65 52/70/66 74/71/67 73/72/68
f 50/68/64 49/69/65 60/73/69 59/63/59
f 52/70/66 51/67/63 54/46/42 53/74/70
f 53/74/70 56/75/71 80/76/72 79/77/73
f 56/75/71 55/45/41 62/56/52 61/78/74
f 57/114/75 60/73/69 86/80/76 85/109/77
f 58/64/60 57/79/75 64/82/78 63/55/51
f 61/78/74 64/82/78 94/83/79 93/84/80
f 65/85/81 68/65/61 83/59/55 82/86/82
f 66/87/83 65/85/81 76/88/84 75/89/85
f 67/66/62 66/87/83 71/90/86 70/39/35
f 69/40/36 72/91/87 89/92/88 92/50/46
f 72/91/87 71/90/86 78/93/89 77/94/90
f 73/72/68 76/88/84 87/95/91 86/80/76
f 75/89/85 74/71/67 79/77/73 78/93/89
f 77/94/90 80/76/72 93/84/80 96/96/92
f 81/97/93 84/58/54 91/51/47 90/98/94
f 82/86/82 81/111/93 88/110/95 87/95/91
f 85/81/77 88/99/95 95/100/96 94/83/79
f 90/98/94 89/92/88 96/96/92 95/100/96
f 71/90/86 66/87/83 75/89/85 78/93/89
f 65/85/81 82/86/82 87/95/91 76/88/84
f 81/97/93 90/98/94 95/100/96 88/99/95
f 89/92/88 72/91/87 77/94/90 96/96/92
f 35/44/40 54/46/42 51/67/63 46/47/43
f 47/62/58 50/68/64 59/63/59 42/60/56
f 43/115/50 58/64/60 63/55/51 38/52/48
f 39/43/39 62/56/52 55/45/41 34/41/37
f 36/107/34 45/48/44 67/66/62 70/39/35
f 52/70/66 53/74/70 79/77/73 74/71/67
f 48/61/57 41/57/53 83/59/55 68/65/61
f 60/73/69 49/69/65 73/72/68 86/80/76
f 44/53/49 37/49/45 91/51/47 84/58/54
f 64/82/78 57/79/75 85/81/77 94/83/79
f 40/42/38 33/37/33 69/40/36 92/50/46
f 56/75/71 61/78/74 93/84/80 80/76/72
f 33/108/33 34/41/37 35/44/40 36/38/34
f 37/105/45 38/52/48 39/43/39 40/106/38
f 41/103/53 42/60/56 43/54/50 44/116/49
f 45/101/44 46/47/43 47/62/58 48/102/57
f 49/69/65 50/68/64 51/67/63 52/70/66
f 53/74/70 54/46/42 55/45/41 56/75/71
f 57/114/75 58/113/60 59/63/59 60/73/69
f 61/78/74 62/56/52 63/55/51 64/82/78
f 65/85/81 66/87/83 67/66/62 68/65/61
f 69/40/36 70/39/35 71/90/86 72/91/87
f 73/72/68 74/71/67 75/89/85 76/88/84
f 77/94/90 78/93/89 79/77/73 80/76/72
f 81/111/93 82/86/82 83/59/55 84/112/54
f 85/109/77 86/80/76 87/95/91 88/110/95
f 89/92/88 90/98/94 91/51/47 92/50/46
f 93/84/80 94/83/79 95/100/96 96/96/92
g default
v 2.948578 -59.256063 43.526654
v 2.705963 -59.498686 43.526654
v 2.705963 -59.498686 5.159307
v 2.948578 -59.256063 5.159307
v 5.132416 -59.498686 43.526654
v 4.889801 -59.256063 43.526654
v 4.889801 -59.256063 5.159307
v 5.132416 -59.498686 5.159307
v 2.705963 -62.103407 43.526654
v 2.948578 -62.346029 43.526654
v 2.948578 -62.346029 5.159307
v 2.705963 -62.103407 5.159307
v 4.889801 -62.346029 43.526654
v 5.132416 -62.103407 43.526654
v 5.132416 -62.103407 5.159307
v 4.889801 -62.346029 5.159307
vt 0.252187 0.853976
vt 0.347292 0.857493
vt 0.347114 0.862305
vt 0.252009 0.858787
vt 0.346634 0.875274
vt 0.251529 0.871757
vt 0.251707 0.866945
vt 0.346812 0.870462
vt 0.346843 0.869612
vt 0.251739 0.866094
vt 0.251978 0.859638
vt 0.347082 0.863156
vt 0.252457 0.846668
vt 0.346602 0.876125
vt 0.347323 0.856643
vt 0.252219 0.853125
vt 0.251498 0.872607
vt 0.347562 0.850186
vn -0.110421 0.993885 0.000000
vn -0.110421 0.993885 0.000000
vn 0.110421 0.993885 0.000000
vn 0.110421 0.993885 0.000000
vn -0.110421 -0.993885 0.000000
vn -0.110421 -0.993885 0.000000
vn 0.110421 -0.993885 0.000000
vn 0.110421 -0.993885 0.000000
vn 0.996389 -0.084901 0.000000
vn 0.996389 -0.084901 0.000000
vn 0.996389 0.084901 0.000000
vn 0.996389 0.084901 0.000000
vn -0.996389 -0.084901 0.000000
vn -0.996389 -0.084901 0.000000
vn -0.996389 0.084901 0.000000
vn -0.996389 0.084901 0.000000
s 1
g Window_Doors Window_lowpoly PROP_____Window High_Fidelity_Group polySurface4
usemtl initialShadingGroup
f 100/118/97 97/119/98 102/120/99 103/121/100
f 106/122/101 107/123/102 112/124/103 109/125/104
f 110/126/105 111/127/106 104/128/107 101/129/108
f 108/130/109 105/135/110 98/132/111 99/133/112
f 98/132/111 97/119/98 100/118/97 99/133/112
f 102/120/99 101/129/108 104/128/107 103/121/100
f 106/122/101 105/131/110 108/134/109 107/123/102
f 110/126/105 109/125/104 112/124/103 111/127/106
g default
v 2.948578 -25.075338 43.526654
v 2.705963 -25.317953 43.526654
v 2.705963 -25.317953 5.159307
v 2.948578 -25.075338 5.159307
v 5.132416 -25.317953 43.526654
v 4.889801 -25.075338 43.526654
v 4.889801 -25.075338 5.159307
v 5.132416 -25.317953 5.159307
v 2.705963 -27.922689 43.526654
v 2.948578 -28.165304 43.526654
v 2.948578 -28.165304 5.159307
v 2.705963 -27.922689 5.159307
v 4.889801 -28.165304 43.526654
v 5.132416 -27.922689 43.526654
v 5.132416 -27.922689 5.159307
v 4.889801 -28.165304 5.159307
vt 0.235798 0.868497
vt 0.140674 0.865530
vt 0.140825 0.860717
vt 0.235948 0.863684
vt 0.141229 0.847745
vt 0.236352 0.850713
vt 0.236202 0.855525
vt 0.141079 0.852558
vt 0.141052 0.853409
vt 0.236176 0.856376
vt 0.235974 0.862834
vt 0.140851 0.859866
vt 0.235569 0.875806
vt 0.141256 0.846894
vt 0.140648 0.866381
vt 0.235771 0.869348
vt 0.236379 0.849862
vt 0.140446 0.872838
vn -0.110418 0.993885 0.000000
vn -0.110418 0.993885 0.000000
vn 0.110418 0.993885 0.000000
vn 0.110418 0.993885 0.000000
vn -0.110418 -0.993885 0.000000
vn -0.110418 -0.993885 0.000000
vn 0.110418 -0.993885 0.000000
vn 0.110418 -0.993885 0.000000
vn 0.996389 -0.084901 0.000000
vn 0.996389 -0.084901 0.000000
vn 0.996389 0.084901 0.000000
vn 0.996389 0.084901 0.000000
vn -0.996389 -0.084901 0.000000
vn -0.996389 -0.084901 0.000000
vn -0.996389 0.084901 0.000000
vn -0.996389 0.084901 0.000000
s 1
g Window_Doors Window_lowpoly PROP_____Window High_Fidelity_Group polySurface5
usemtl initialShadingGroup
f 116/136/113 113/137/114 118/138/115 119/139/116
f 122/140/117 123/141/118 128/142/119 125/143/120
f 126/144/121 127/145/122 120/146/123 117/147/124
f 124/148/125 121/153/126 114/150/127 115/151/128
f 114/150/127 113/137/114 116/136/113 115/151/128
f 118/138/115 117/147/124 120/146/123 119/139/116
f 122/140/117 121/149/126 124/152/125 123/141/118
f 126/144/121 125/143/120 128/142/119 127/145/122
g default
v 10.119873 -53.805296 2.680181
v 10.119873 -40.503851 2.680181
v 9.250671 -53.805296 3.755269
v 9.154114 -53.684690 3.839093
v 10.119873 -53.684690 4.388402
v 10.119873 -53.805296 4.249654
v 9.154114 -40.624456 3.839093
v 9.250671 -40.503851 3.755269
v 10.119873 -40.624456 4.388402
v 10.119873 -40.503851 4.249654
v 9.250671 -40.503851 1.605092
v 9.154114 -40.624456 1.521260
v 10.119873 -40.624456 0.972051
v 10.119873 -40.503851 1.110791
v 9.154114 -53.684690 1.521260
v 9.250671 -53.805296 1.605092
v 10.119873 -53.684690 0.972051
v 10.119873 -53.805296 1.110791
v 8.696442 -40.624456 2.680181
v 8.826111 -40.503851 2.680181
v 11.085602 -40.624456 3.839093
v 10.989044 -40.503851 3.755269
v 11.543365 -40.624456 2.680181
v 11.413696 -40.503851 2.680181
v 8.696442 -53.684690 2.680181
v 8.826111 -53.805296 2.680181
v 11.085602 -53.684690 1.521260
v 10.989044 -53.805296 1.605092
v 11.413696 -53.805296 2.680181
v 11.543365 -53.684690 2.680181
v 11.085602 -53.684690 3.839093
v 10.989044 -53.805296 3.755269
v 11.085602 -40.624456 1.521260
v 10.989044 -40.503851 1.605092
vt 0.971312 0.018619
vt 0.429352 0.820462
vt 0.430179 0.823440
vt 0.972780 0.017368
vt 0.971014 0.020252
vt 0.428615 0.817807
vt 0.972249 0.021361
vt 0.427878 0.815151
vt 0.460568 0.811798
vt -0.883684 1.012230
vt -0.882835 1.012402
vt 0.455139 0.792241
vt 0.459830 0.809142
vt -0.884156 1.011653
vt 0.459093 0.806487
vt -0.883912 1.010948
vt -0.882097 1.011947
vt 0.455966 0.795220
vt -0.881853 1.011243
vt 0.456703 0.797875
vt -0.882326 1.010666
vt 0.457440 0.800530
vt 0.424750 0.803884
vt 0.974706 0.017459
vt 0.425487 0.806539
vt 0.975941 0.018568
vt 0.426225 0.809195
vt 0.975643 0.020201
vt 0.458267 0.803509
vt -0.883175 1.010493
vt 0.427051 0.812173
vt 0.974175 0.021452
vt -0.883005 1.011448
vt 0.973478 0.019410
vt -0.882811 1.012534
vt 0.461394 0.814776
vt 0.972684 0.017087
vt 0.423924 0.800906
vt 0.974272 0.021733
vt 0.972135 0.021637
vt 0.975902 0.020350
vt -0.883198 1.010362
vt -0.882256 1.010551
vt -0.884017 1.010864
vt 0.976235 0.018468
vt 0.974820 0.017183
vt -0.881716 1.011218
vt -0.881992 1.012031
vt -0.884294 1.011677
vt -0.883754 1.012345
vt 0.970720 0.020353
vt 0.971053 0.018471
vn -0.091604 -0.992896 0.075937
vn -0.768228 -0.007855 0.640128
vn -0.999969 -0.007851 -0.000000
vn -0.128745 -0.991678 -0.000004
vn 0.000001 -0.992017 0.126104
vn 0.000000 -0.007585 0.999971
vn 0.091604 -0.992896 0.075937
vn 0.768215 -0.007857 0.640143
vn -0.768228 0.007855 0.640128
vn -0.091608 0.992895 0.075939
vn -0.128732 0.991679 0.000004
vn -0.999969 0.007851 0.000000
vn 0.000000 0.007585 0.999971
vn 0.000001 0.992016 0.126115
vn 0.768215 0.007856 0.640144
vn 0.091604 0.992895 0.075947
vn -0.091602 0.992896 -0.075936
vn -0.768212 0.007854 -0.640147
vn 0.000001 0.992018 -0.126095
vn 0.000000 0.007586 -0.999971
vn 0.091599 0.992896 -0.075945
vn 0.768199 0.007856 -0.640163
vn -0.768212 -0.007854 -0.640148
vn -0.091619 -0.992893 -0.075956
vn -0.000000 -0.007586 -0.999971
vn -0.000003 -0.992017 -0.126108
vn 0.768199 -0.007856 -0.640163
vn 0.091602 -0.992896 -0.075945
vn 0.999969 0.007853 0.000000
vn 0.128742 0.991678 0.000002
vn 0.999969 -0.007854 -0.000000
vn 0.128747 -0.991677 -0.000001
vn 0.000000 1.000000 0.000001
vn 0.000000 -1.000000 0.000000
s 1
g Window_Doors Window_lowpoly PROP_____Window High_Fidelity_Group polySurface6
usemtl initialShadingGroup
f 131/154/129 132/205/130 153/190/131 154/157/132
f 132/205/130 131/154/129 134/158/133 133/204/134
f 133/204/134 134/158/133 160/160/135 159/193/136
f 135/203/137 136/163/138 148/164/139 147/188/140
f 136/163/138 135/203/137 137/202/141 138/167/142
f 138/167/142 137/202/141 149/197/143 150/169/144
f 139/170/145 140/201/146 147/188/140 148/164/139
f 140/201/146 139/170/145 142/172/147 141/200/148
f 141/200/148 142/172/147 162/174/149 161/196/150
f 143/199/151 144/177/152 154/157/132 153/190/131
f 144/177/152 143/199/151 145/198/153 146/179/154
f 146/179/154 145/198/153 155/194/155 156/181/156
f 150/169/144 149/197/143 151/195/157 152/183/158
f 152/183/158 151/195/157 161/196/150 162/174/149
f 156/181/156 155/194/155 158/192/159 157/185/160
f 157/185/160 158/192/159 159/193/136 160/160/135
f 132/155/130 133/159/134 137/166/141 135/162/137
f 136/163/138 138/167/142 130/186/161 148/164/139
f 140/171/146 141/173/148 145/178/153 143/176/151
f 154/157/132 129/187/162 134/158/133 131/154/129
f 159/161/136 158/184/159 151/182/157 149/168/143
f 147/189/140 153/156/131 132/155/130 135/162/137
f 137/166/141 133/159/134 159/161/136 149/168/143
f 152/183/158 130/186/161 138/167/142 150/169/144
f 145/178/153 141/173/148 161/175/150 155/180/155
f 134/158/133 129/187/162 157/185/160 160/160/135
f 143/176/151 153/191/131 147/165/140 140/171/146
f 144/177/152 146/179/154 129/187/162 154/157/132
f 157/185/160 129/187/162 146/179/154 156/181/156
f 151/182/157 158/184/159 155/180/155 161/175/150
f 142/172/147 130/186/161 152/183/158 162/174/149
f 148/164/139 130/186/161 142/172/147 139/170/145
g default
v 4.889801 9.105387 -43.526614
v 5.132416 8.862772 -43.526614
v 5.132416 8.862772 -5.159282
v 4.889801 9.105387 -5.159282
v 2.705963 8.862772 -43.526614
v 2.948578 9.105387 -43.526614
v 2.948578 9.105387 -5.159282
v 2.705963 8.862772 -5.159282
v 5.132416 6.258036 -43.526614
v 4.889801 6.015421 -43.526614
v 4.889801 6.015421 -5.159282
v 5.132416 6.258036 -5.159282
v 2.948578 6.015421 -43.526614
v 2.705963 6.258036 -43.526614
v 2.705963 6.258036 -5.159282
v 2.948578 6.015421 -5.159282
vt 0.015391 0.802029
vt 0.110508 0.805213
vt 0.110346 0.810025
vt 0.015230 0.806842
vt 0.109912 0.822996
vt 0.014796 0.819813
vt 0.014957 0.815000
vt 0.110073 0.818184
vt 0.110102 0.817333
vt 0.014986 0.814150
vt 0.015201 0.807692
vt 0.110318 0.810876
vt 0.015636 0.794721
vt 0.109884 0.823847
vt 0.110536 0.804362
vt 0.015420 0.801179
vt 0.014768 0.820664
vt 0.110752 0.797905
vn -0.110415 0.993886 0.000000
vn -0.110415 0.993886 0.000000
vn 0.110415 0.993886 0.000000
vn 0.110415 0.993886 0.000000
vn -0.110415 -0.993886 0.000000
vn -0.110415 -0.993886 0.000000
vn 0.110415 -0.993886 0.000000
vn 0.110415 -0.993886 0.000000
vn 0.996389 -0.084901 0.000000
vn 0.996389 -0.084901 0.000000
vn 0.996389 0.084901 0.000000
vn 0.996389 0.084901 0.000000
vn -0.996389 -0.084901 0.000000
vn -0.996389 -0.084901 0.000000
vn -0.996389 0.084901 0.000000
vn -0.996389 0.084901 0.000000
s 1
g Window_Doors Window_lowpoly PROP_____Window High_Fidelity_Group polySurface7
usemtl initialShadingGroup
f 168/206/163 169/207/164 166/208/165 163/209/166
f 178/210/167 175/211/168 172/212/169 173/213/170
f 174/214/171 171/215/172 164/216/173 165/217/174
f 176/218/175 177/223/176 170/220/177 167/221/178
f 164/216/173 163/209/166 166/208/165 165/217/174
f 168/206/163 167/221/178 170/220/177 169/207/164
f 172/212/169 171/215/172 174/214/171 173/213/170
f 176/222/175 175/211/168 178/210/167 177/219/176
g default
v 9.928497 -43.346930 -3.390513
v 9.928497 -41.839361 -3.390513
v 4.991028 -43.346930 -3.390513
v 4.991028 -41.839361 -3.390513
v 4.991028 -43.346930 -1.969813
v 4.991028 -41.839361 -1.969813
v 9.928497 -43.346930 -1.969813
v 9.928497 -41.839361 -1.969813
v 9.928497 -42.593145 -3.727153
v 4.991028 -42.593145 -3.727153
v 4.991028 -42.593145 -1.633189
v 9.928497 -42.593145 -1.633189
v 4.991028 -43.704168 -2.680163
v 9.928497 -43.704168 -2.680163
v 9.928497 -41.482122 -2.680163
v 4.991028 -41.482122 -2.680163
vt 0.173443 0.450532
vt 0.173227 0.431432
vt 0.176421 0.431396
vt 0.176636 0.450496
vt 0.192152 0.431219
vt 0.192367 0.450318
vt 0.189174 0.450354
vt 0.188959 0.431255
vt 0.179829 0.450460
vt 0.179614 0.431360
vt 0.182690 0.431325
vt 0.182905 0.450425
vt 0.195228 0.431184
vt 0.170367 0.450566
vt 0.185980 0.450391
vt 0.185765 0.431291
vt 0.170152 0.431467
vt 0.195443 0.450284
vn 0.000000 -0.685826 -0.727765
vn 0.000000 -0.685826 -0.727765
vn 0.000000 0.000000 -1.000000
vn 0.000000 0.000000 -1.000000
vn 0.000000 -0.685820 0.727771
vn 0.000000 -0.685820 0.727771
vn 0.000000 0.000000 1.000000
vn 0.000000 0.000000 1.000000
vn 0.000000 0.685822 -0.727769
vn 0.000000 0.685822 -0.727769
vn 0.000000 1.000000 0.000000
vn 0.000000 1.000000 0.000000
vn 0.000000 -1.000000 0.000000
vn 0.000000 -1.000000 0.000000
vn 0.000000 0.685816 0.727775
vn 0.000000 0.685816 0.727775
s 1
g Window_Doors Window_lowpoly PROP_____Window High_Fidelity_Group polySurface8
usemtl initialShadingGroup
f 179/224/179 181/225/180 188/226/181 187/227/182
f 183/228/183 185/229/184 190/230/185 189/231/186
f 180/232/187 182/233/188 194/234/189 193/235/190
f 191/240/191 181/225/180 179/224/179 192/237/192
f 188/226/181 182/233/188 180/232/187 187/227/182
f 190/230/185 186/238/193 184/239/194 189/231/186
f 185/229/184 183/228/183 191/236/191 192/241/192
f 194/234/189 184/239/194 186/238/193 193/235/190
g default
v 5.756866 -100.955664 -0.198947
v 5.955811 -100.744566 -0.394725
v 5.955811 -100.494497 -0.215014
v 5.756897 -100.756742 0.000005
v 5.756897 -100.756742 -48.744922
v 5.955811 -100.502722 -48.533740
v 5.955811 -100.740675 -48.342921
v 5.756866 -100.955664 -48.545970
v 5.752167 -94.778120 -5.451663
v 5.955811 -94.991507 -5.243617
v 5.955811 -95.193991 -5.461154
v 5.753174 -94.981771 -5.654292
v 5.753174 -94.981771 -43.090610
v 5.955811 -95.192259 -43.283824
v 5.955811 -94.991613 -43.503535
v 5.752167 -94.778120 -43.293239
v 5.756897 47.516077 0.000005
v 5.955811 47.262049 -0.211177
v 5.955811 47.499994 -0.401996
v 5.756866 47.714991 -0.198947
v 5.753174 41.741114 -5.654292
v 5.955811 41.951609 -5.461070
v 5.955811 41.750956 -5.241366
v 5.752167 41.537470 -5.451663
v 5.756866 47.714991 -48.545970
v 5.955811 47.503885 -48.350184
v 5.955811 47.253824 -48.529902
v 5.756897 47.516077 -48.744922
v 5.752167 41.537470 -43.293239
v 5.955811 41.750849 -43.501292
v 5.955811 41.953333 -43.283748
v 5.753174 41.741114 -43.090610
v 2.081329 -100.955633 -48.545970
v 1.882385 -100.744535 -48.350192
v 1.882385 -100.494467 -48.529902
v 2.081299 -100.756720 -48.744922
v 2.086029 -94.778082 -43.293239
v 1.882385 -94.991468 -43.501292
v 1.882385 -95.193960 -43.283748
v 2.085022 -94.981733 -43.090602
v 2.085022 -94.981733 -5.654292
v 1.882385 -95.192228 -5.461070
v 1.882385 -94.991575 -5.241366
v 2.086029 -94.778082 -5.451663
v 2.081299 -100.756720 0.000005
v 1.882385 -100.502691 -0.211177
v 1.882385 -100.740644 -0.401996
v 2.081329 -100.955633 -0.198947
v 2.086029 41.537439 -5.451663
v 1.882385 41.750818 -5.243617
v 1.882385 41.953302 -5.461146
v 2.085022 41.741083 -5.654292
v 2.081329 47.714960 -0.198947
v 1.882385 47.503870 -0.394725
v 1.882385 47.253794 -0.215014
v 2.081299 47.516047 0.000005
v 2.085022 41.741083 -43.090602
v 1.882385 41.951578 -43.283824
v 1.882385 41.750925 -43.503535
v 2.086029 41.537439 -43.293239
v 2.081299 47.516047 -48.744922
v 1.882385 47.262018 -48.533740
v 1.882385 47.499979 -48.342921
v 2.081329 47.714960 -48.545970
vt 0.605252 0.647275
vt 0.605269 0.647276
vt 0.605901 0.654893
vt 0.603448 0.607240
vt 0.605161 0.646610
vt 0.515432 0.649989
vt 0.515538 0.649285
vt 0.605484 0.646534
vt 0.605945 0.632246
vt 0.607032 0.632219
vt 0.945111 0.620323
vt 0.945679 0.620966
vt 0.515338 0.649853
vt 0.515703 0.657863
vt 0.515798 0.607742
vt 0.515117 0.649116
vt 0.150417 0.640426
vt 0.150744 0.639670
vt 0.511446 0.634119
vt 0.512471 0.633884
vt 0.607194 0.631464
vt 0.605864 0.631468
vt 0.605399 0.622151
vt 0.606721 0.622032
vt 0.932633 0.608645
vt 0.933113 0.609328
vt 0.512467 0.633085
vt 0.511189 0.633367
vt 0.511362 0.623523
vt 0.512617 0.623846
vt 0.153978 0.624154
vt 0.154174 0.623353
vt 0.045839 0.628126
vt 0.044635 0.636773
vt 0.943318 0.586608
vt 0.046391 0.627476
vt 0.058772 0.616221
vt 0.150402 0.639717
vt 0.150402 0.640405
vt 0.059308 0.615539
vt 0.932094 0.600358
vt 0.059985 0.608175
vt 0.152771 0.623318
vt 0.152830 0.624118
vt 0.150015 0.648549
vt 0.152297 0.596369
vt 0.153117 0.612932
vt 0.154529 0.613042
vt 0.515902 0.608204
vt 0.603363 0.607819
vt 0.515561 0.608459
vt 0.512651 0.623077
vt 0.511671 0.622785
vt 0.152612 0.597067
vt 0.154399 0.612248
vt 0.605413 0.621368
vt 0.606488 0.621321
vt 0.603760 0.607879
vt 0.932477 0.599618
vt 0.942770 0.587326
vt 0.059552 0.607438
vt 0.049139 0.594598
vt 0.153258 0.612156
vt 0.152184 0.597011
vt 0.943863 0.586989
vt 0.149511 0.648629
vt 0.603513 0.607265
vt 0.947891 0.629508
vt 0.152392 0.596373
vt 0.515240 0.657979
vt 0.515772 0.607600
vt 0.605506 0.654984
vt 0.943391 0.587648
vt 0.948545 0.629308
vt 0.048712 0.593902
vt 0.932724 0.600497
vt 0.933034 0.599972
vt 0.933625 0.608899
vt 0.933253 0.608417
vt 0.946271 0.620670
vt 0.945713 0.619914
vn 0.035049 -0.999377 0.004198
vn 0.030217 -0.001373 0.999542
vn -0.030598 -0.001373 0.999531
vn -0.034643 -0.999391 0.004197
vn 0.995684 -0.092813 0.000342
vn 0.034625 -0.999392 -0.004197
vn 0.995651 -0.093166 -0.000330
vn 0.993806 -0.000085 0.111127
vn 0.999908 0.013543 -0.000114
vn 0.999888 0.000038 -0.014957
vn 0.993846 0.000088 0.110767
vn 0.030599 0.001373 0.999531
vn 0.030595 -0.001373 -0.999531
vn -0.035066 -0.999376 -0.004198
vn -0.030218 -0.001373 -0.999542
vn 0.993846 -0.000088 -0.110767
vn 0.030212 0.001373 -0.999543
vn 0.993806 0.000085 -0.111127
vn 0.999888 0.000038 0.014989
vn 0.999909 0.013522 0.000115
vn 0.074197 0.001455 -0.997243
vn 0.073773 0.997261 -0.005284
vn -0.073827 0.997257 -0.005285
vn -0.074121 0.001455 -0.997248
vn 0.074123 -0.001455 -0.997248
vn 0.999888 -0.000038 -0.014990
vn 0.073840 0.997256 0.005285
vn 0.074123 0.001455 0.997248
vn -0.074198 0.001455 0.997242
vn -0.073760 0.997262 0.005284
vn 0.999888 -0.000038 0.014957
vn 0.074195 -0.001455 0.997243
vn 0.034629 0.999391 0.004197
vn -0.035065 0.999376 0.004198
vn -0.030216 0.001373 0.999543
vn 0.995652 0.093152 0.000330
vn 0.999909 -0.013522 -0.000115
vn 0.995685 0.092800 -0.000342
vn 0.035052 0.999377 -0.004198
vn 0.073844 -0.997256 -0.005285
vn -0.074194 -0.001455 -0.997243
vn -0.073761 -0.997262 -0.005284
vn 0.073777 -0.997261 0.005284
vn 0.999908 -0.013544 0.000114
vn -0.030601 0.001373 -0.999531
vn -0.034641 0.999391 -0.004197
vn -0.073827 -0.997257 0.005285
vn -0.074125 -0.001455 0.997248
vn -0.995685 -0.092797 -0.000342
vn -0.995652 -0.093153 0.000330
vn -0.993806 -0.000085 -0.111126
vn -0.999908 0.013544 0.000114
vn -0.999888 0.000038 0.014957
vn -0.993846 0.000088 -0.110766
vn -0.999888 -0.000037 0.014990
vn -0.999909 0.013520 -0.000115
vn -0.999888 0.000038 -0.014989
vn -0.993846 -0.000088 0.110767
vn -0.999888 -0.000038 -0.014957
vn -0.993806 0.000085 0.111127
vn -0.999908 -0.013545 -0.000114
vn -0.995685 0.092796 0.000342
vn -0.999909 -0.013522 0.000115
vn -0.995652 0.093152 -0.000330
s 1
g Window_Doors Window_lowpoly PROP_____Window High_Fidelity_Group polySurface9
usemtl initialShadingGroup
f 195/242/195 198/243/196 239/244/197 242/313/198
f 196/246/199 195/242/195 202/247/200 201/248/201
f 197/249/202 196/246/199 205/250/203 204/251/204
f 198/243/196 197/249/202 212/252/205 211/253/206
f 199/254/207 202/247/200 227/255/208 230/311/209
f 200/257/210 199/254/207 222/258/211 221/259/212
f 201/248/201 200/257/210 209/260/213 208/261/214
f 203/262/215 206/263/216 235/264/217 238/265/218
f 204/251/204 203/262/215 218/266/219 217/267/220
f 206/263/216 205/250/203 208/261/214 207/268/221
f 207/268/221 210/269/222 231/270/223 234/271/224
f 210/269/222 209/260/213 224/272/225 223/273/226
f 211/253/206 214/321/227 247/315/228 250/309/229
f 213/322/230 212/252/205 217/267/220 216/319/231
f 214/274/227 213/277/230 220/279/232 219/280/233
f 215/320/234 218/266/219 243/282/235 246/317/236
f 216/278/231 215/281/234 226/284/237 225/285/238
f 219/280/233 222/258/211 255/286/239 258/307/240
f 221/259/212 220/279/232 225/285/238 224/272/225
f 223/273/226 226/284/237 251/288/241 254/289/242
f 228/290/243 227/312/208 242/245/198 241/291/244
f 229/292/245 228/290/243 233/293/246 232/294/247
f 230/256/209 229/292/245 256/295/248 255/310/239
f 232/294/247 231/270/223 254/289/242 253/296/249
f 234/271/224 233/293/246 236/297/250 235/264/217
f 237/298/251 236/297/250 241/291/244 240/299/252
f 238/265/218 237/298/251 244/300/253 243/282/235
f 240/299/252 239/308/197 250/276/229 249/301/254
f 245/318/255 244/300/253 249/301/254 248/314/256
f 246/283/236 245/302/255 252/304/257 251/288/241
f 248/303/256 247/316/228 258/287/240 257/305/258
f 253/296/249 252/304/257 257/305/258 256/295/248
f 201/248/201 208/261/214 205/250/203 196/246/199
f 197/249/202 204/251/204 217/267/220 212/252/205
f 213/277/230 216/278/231 225/285/238 220/279/232
f 221/259/212 224/272/225 209/260/213 200/257/210
f 228/290/243 241/291/244 236/297/250 233/293/246
f 240/299/252 249/301/254 244/300/253 237/298/251
f 248/303/256 257/305/258 252/304/257 245/302/255
f 256/295/248 229/292/245 232/294/247 253/296/249
f 227/255/208 202/247/200 195/242/195 242/313/198
f 235/264/217 206/263/216 207/268/221 234/271/224
f 239/244/197 198/243/196 211/253/206 250/309/229
f 243/282/235 218/266/219 203/262/215 238/265/218
f 247/275/228 214/274/227 219/280/233 258/307/240
f 251/288/241 226/284/237 215/281/234 246/283/236
f 255/286/239 222/258/211 199/254/207 230/311/209
f 231/270/223 210/269/222 223/273/226 254/289/242
f 195/242/195 196/246/199 197/249/202 198/243/196
f 199/254/207 200/257/210 201/248/201 202/247/200
f 203/262/215 204/251/204 205/250/203 206/263/216
f 207/268/221 208/261/214 209/260/213 210/269/222
f 211/253/206 212/252/205 213/322/230 214/321/227
f 215/320/234 216/319/231 217/267/220 218/266/219
f 219/280/233 220/279/232 221/259/212 222/258/211
f 223/273/226 224/272/225 225/285/238 226/284/237
f 227/312/208 228/290/243 229/292/245 230/256/209
f 231/270/223 232/294/247 233/293/246 234/271/224
f 235/264/217 236/297/250 237/298/251 238/265/218
f 239/308/197 240/299/252 241/291/244 242/245/198
f 243/282/235 244/300/253 245/318/255 246/317/236
f 247/306/228 248/314/256 249/301/254 250/276/229
f 251/288/241 252/304/257 253/296/249 254/289/242
f 255/310/239 256/295/248 257/305/258 258/287/240
g default
v 4.889801 -59.256063 -43.526614
v 5.132416 -59.498686 -43.526614
v 5.132416 -59.498686 -5.159282
v 4.889801 -59.256063 -5.159282
v 2.705963 -59.498686 -43.526614
v 2.948578 -59.256063 -43.526614
v 2.948578 -59.256063 -5.159282
v 2.705963 -59.498686 -5.159282
v 5.132416 -62.103407 -43.526614
v 4.889801 -62.346029 -43.526614
v 4.889801 -62.346029 -5.159282
v 5.132416 -62.103407 -5.159282
v 2.948578 -62.346029 -43.526614
v 2.705963 -62.103407 -43.526614
v 2.705963 -62.103407 -5.159282
v 2.948578 -62.346029 -5.159282
vt 0.136369 0.791272
vt 0.231493 0.794219
vt 0.231344 0.799032
vt 0.136220 0.796085
vt 0.230942 0.812004
vt 0.135818 0.809057
vt 0.135967 0.804244
vt 0.231091 0.807192
vt 0.231118 0.806341
vt 0.135994 0.803393
vt 0.136194 0.796935
vt 0.231318 0.799883
vt 0.136596 0.783963
vt 0.230916 0.812855
vt 0.231520 0.793369
vt 0.136396 0.790421
vt 0.135792 0.809907
vt 0.231720 0.786911
vn -0.110418 0.993885 0.000000
vn -0.110418 0.993885 0.000000
vn 0.110418 0.993885 0.000000
vn 0.110418 0.993885 0.000000
vn -0.110418 -0.993885 0.000000
vn -0.110418 -0.993885 0.000000
vn 0.110418 -0.993885 0.000000
vn 0.110418 -0.993885 0.000000
vn 0.996389 -0.084901 0.000000
vn 0.996389 -0.084901 0.000000
vn 0.996389 0.084901 0.000000
vn 0.996389 0.084901 0.000000
vn -0.996389 -0.084901 0.000000
vn -0.996389 -0.084901 0.000000
vn -0.996389 0.084901 0.000000
vn -0.996389 0.084901 0.000000
s 1
g Window_Doors Window_lowpoly PROP_____Window High_Fidelity_Group polySurface10
usemtl initialShadingGroup
f 264/323/259 265/324/260 262/325/261 259/326/262
f 274/327/263 271/328/264 268/329/265 269/330/266
f 270/331/267 267/332/268 260/333/269 261/334/270
f 272/335/271 273/340/272 266/337/273 263/338/274
f 260/333/269 259/326/262 262/325/261 261/334/270
f 264/323/259 263/338/274 266/337/273 265/324/260
f 268/329/265 267/332/268 270/331/267 269/330/266
f 272/339/271 271/328/264 274/327/263 273/336/272
g default
v 4.889801 -25.075338 -43.526614
v 5.132416 -25.317953 -43.526614
v 5.132416 -25.317953 -5.159282
v 4.889801 -25.075338 -5.159282
v 2.705963 -25.317953 -43.526614
v 2.948578 -25.075338 -43.526614
v 2.948578 -25.075338 -5.159282
v 2.705963 -25.317953 -5.159282
v 5.132416 -27.922689 -43.526614
v 4.889801 -28.165304 -43.526614
v 4.889801 -28.165304 -5.159282
v 5.132416 -27.922689 -5.159282
v 2.948578 -28.165304 -43.526614
v 2.705963 -27.922689 -43.526614
v 2.705963 -27.922689 -5.159282
v 2.948578 -28.165304 -5.159282
vt 0.450481 0.869396
vt 0.355361 0.866318
vt 0.355517 0.861506
vt 0.450637 0.864583
vt 0.355937 0.848534
vt 0.451057 0.851612
vt 0.450901 0.856424
vt 0.355781 0.853347
vt 0.355753 0.854197
vt 0.450873 0.857275
vt 0.450664 0.863733
vt 0.355544 0.860655
vt 0.450244 0.876704
vt 0.355964 0.847683
vt 0.355334 0.867169
vt 0.450453 0.870246
vt 0.451084 0.850761
vt 0.355125 0.873626
vn -0.110415 0.993886 0.000000
vn -0.110415 0.993886 0.000000
vn 0.110415 0.993886 0.000000
vn 0.110415 0.993886 0.000000
vn -0.110415 -0.993886 0.000000
vn -0.110415 -0.993886 0.000000
vn 0.110415 -0.993886 0.000000
vn 0.110415 -0.993886 0.000000
vn 0.996389 -0.084901 0.000000
vn 0.996389 -0.084901 0.000000
vn 0.996389 0.084901 0.000000
vn 0.996389 0.084901 0.000000
vn -0.996389 -0.084901 0.000000
vn -0.996389 -0.084901 0.000000
vn -0.996389 0.084901 0.000000
vn -0.996389 0.084901 0.000000
s 1
g Window_Doors Window_lowpoly PROP_____Window High_Fidelity_Group polySurface11
usemtl initialShadingGroup
f 280/341/275 281/342/276 278/343/277 275/344/278
f 290/345/279 287/346/280 284/347/281 285/348/282
f 286/349/283 283/350/284 276/351/285 277/352/286
f 288/353/287 289/358/288 282/355/289 279/356/290
f 276/351/285 275/344/278 278/343/277 277/352/286
f 280/341/275 279/356/290 282/355/289 281/342/276
f 284/347/281 283/350/284 286/349/283 285/348/282
f 288/357/287 287/346/280 290/345/279 289/354/288
g default
v 10.119873 -53.805296 -2.680179
v 10.119873 -40.503851 -2.680179
v 9.154114 -53.684690 -3.839076
v 9.250671 -53.805296 -3.755252
v 10.119873 -53.805296 -4.249568
v 10.119873 -53.684690 -4.388316
v 9.250671 -40.503851 -3.755252
v 9.154114 -40.624456 -3.839076
v 10.119873 -40.624456 -4.388316
v 10.119873 -40.503851 -4.249568
v 8.826111 -40.503851 -2.680179
v 8.696442 -40.624456 -2.680179
v 9.154114 -40.624456 -1.521251
v 9.250671 -40.503851 -1.605075
v 10.119873 -40.624456 -0.971957
v 10.119873 -40.503851 -1.110705
v 9.250671 -53.805296 -1.605075
v 9.154114 -53.684690 -1.521251
v 10.119873 -53.684690 -0.971957
v 10.119873 -53.805296 -1.110705
v 8.696442 -53.684690 -2.680179
v 8.826111 -53.805296 -2.680179
v 11.085602 -53.684690 -3.839076
v 10.989044 -53.805296 -3.755244
v 11.413696 -53.805296 -2.680179
v 11.543365 -53.684690 -2.680179
v 10.989044 -40.503851 -3.755244
v 11.085602 -40.624456 -3.839076
v 11.543365 -40.624456 -2.680179
v 11.413696 -40.503851 -2.680179
v 10.989044 -40.503851 -1.605075
v 11.085602 -40.624456 -1.521251
v 11.085602 -53.684690 -1.521251
v 10.989044 -53.805296 -1.605075
vt 0.390883 0.817688
vt 0.972259 0.026516
vt 0.974186 0.026587
vt 0.391512 0.797402
vt 0.390968 0.814933
vt 0.971013 0.025419
vt 0.391054 0.812179
vt 0.971295 0.023784
vt -0.659872 1.056814
vt 0.358502 0.816683
vt 0.358407 0.819772
vt -0.660675 1.057140
vt -0.659514 1.056160
vt 0.358588 0.813929
vt -0.659884 1.055512
vt 0.358673 0.811174
vt 0.359036 0.799486
vt -0.661484 1.056828
vt 0.358951 0.802241
vt -0.661853 1.056180
vt 0.358865 0.804996
vt -0.661495 1.055526
vt 0.975641 0.025321
vt 0.391416 0.800491
vt 0.975922 0.023686
vt 0.391331 0.803246
vt 0.974676 0.022590
vt 0.391245 0.806000
vt 0.391149 0.809089
vt 0.972749 0.022518
vt -0.660692 1.055200
vt 0.358769 0.808085
vt -0.660684 1.056170
vt 0.973468 0.024552
vt 0.974285 0.026867
vt 0.390787 0.820777
vt -0.660674 1.057273
vt 0.359132 0.796397
vt -0.661585 1.055426
vt -0.660693 1.055067
vt -0.659796 1.055410
vt 0.972650 0.022238
vt 0.974788 0.022312
vt 0.971033 0.023637
vt 0.976216 0.023582
vt 0.975902 0.025468
vt -0.661993 1.056182
vt -0.661571 1.056930
vt -0.659374 1.056158
vt -0.659782 1.056914
vt 0.970720 0.025523
vt 0.972148 0.026793
vn -0.768214 -0.007855 -0.640146
vn -0.091608 -0.992895 -0.075951
vn -0.128728 -0.991680 -0.000004
vn -0.999969 -0.007853 -0.000000
vn -0.000000 -0.007585 -0.999971
vn -0.000003 -0.992016 -0.126111
vn 0.768200 -0.007856 -0.640161
vn 0.091601 -0.992896 -0.075944
vn -0.091605 0.992896 -0.075936
vn -0.768214 0.007856 -0.640145
vn -0.999969 0.007853 0.000000
vn -0.128732 0.991679 0.000002
vn 0.000001 0.992018 -0.126098
vn 0.000000 0.007585 -0.999971
vn 0.091600 0.992896 -0.075943
vn 0.768200 0.007857 -0.640161
vn -0.768228 0.007856 0.640128
vn -0.091603 0.992896 0.075936
vn 0.000000 0.007585 0.999971
vn 0.000001 0.992017 0.126104
vn 0.768215 0.007855 0.640144
vn 0.091606 0.992895 0.075945
vn -0.091599 -0.992896 0.075939
vn -0.768228 -0.007856 0.640128
vn 0.000001 -0.992016 0.126110
vn 0.000000 -0.007585 0.999971
vn 0.091608 -0.992895 0.075942
vn 0.768215 -0.007855 0.640144
vn 0.999969 -0.007853 -0.000000
vn 0.128750 -0.991677 -0.000001
vn 0.128747 0.991677 0.000004
vn 0.999969 0.007853 0.000000
vn 0.000000 1.000000 0.000000
vn 0.000000 -1.000000 0.000000
s 1
g Window_Doors Window_lowpoly PROP_____Window High_Fidelity_Group polySurface12
usemtl initialShadingGroup
f 293/410/291 294/360/292 312/361/293 311/393/294
f 294/360/292 293/410/291 296/409/295 295/364/296
f 295/364/296 296/409/295 313/402/297 314/366/298
f 297/367/299 298/408/300 302/395/301 301/370/302
f 298/408/300 297/367/299 300/371/303 299/407/304
f 299/407/304 300/371/303 317/373/305 318/399/306
f 301/370/302 302/395/301 303/406/307 304/376/308
f 304/376/308 303/406/307 305/405/309 306/378/310
f 306/378/310 305/405/309 322/397/311 321/380/312
f 307/381/313 308/404/314 311/393/294 312/361/293
f 308/404/314 307/381/313 310/383/315 309/403/316
f 309/403/316 310/383/315 324/385/317 323/401/318
f 314/366/298 313/402/297 316/400/319 315/388/320
f 315/388/320 316/400/319 323/401/318 324/385/317
f 318/399/306 317/373/305 320/389/321 319/398/322
f 319/398/322 320/389/321 321/380/312 322/397/311
f 293/359/291 298/368/300 299/372/304 296/363/295
f 297/367/299 301/370/302 292/391/323 300/371/303
f 303/375/307 308/382/314 309/384/316 305/377/309
f 312/361/293 294/360/292 295/364/296 291/392/324
f 313/365/297 318/374/306 319/390/322 316/387/319
f 302/369/301 298/368/300 293/359/291 311/394/294
f 299/372/304 318/374/306 313/365/297 296/363/295
f 320/389/321 317/373/305 300/371/303 292/391/323
f 309/384/316 323/386/318 322/379/311 305/377/309
f 295/364/296 314/366/298 315/388/320 291/392/324
f 308/382/314 303/375/307 302/396/301 311/362/294
f 307/381/313 312/361/293 291/392/324 310/383/315
f 315/388/320 324/385/317 310/383/315 291/392/324
f 319/390/322 322/379/311 323/386/318 316/387/319
f 306/378/310 321/380/312 320/389/321 292/391/323
f 301/370/302 304/376/308 306/378/310 292/391/323
g default
v 0.443481 48.192148 49.395894
v 7.394958 48.192148 49.395894
v 0.443481 53.237146 49.395894
v 7.394958 53.237146 49.395894
v 0.443481 53.237146 -49.395892
v 7.394958 53.237146 -49.395892
v 0.443481 48.192148 -49.395892
v 7.394958 48.192148 -49.395892
vt 0.021547 0.689979
vt 0.023135 0.732221
vt 0.268014 0.723013
vt 0.268661 0.740244
vt 0.266896 0.693277
vt 0.267543 0.710508
vt 0.022665 0.719715
vt 0.022017 0.702485
vt 0.023783 0.749451
vt 0.266425 0.680772
vn -0.587362 0.809324 0.000000
vn 0.587362 0.809324 0.000000
vn 0.587362 0.809324 0.000000
vn -0.587362 0.809324 0.000000
vn -0.587362 -0.809324 0.000000
vn 0.587362 -0.809324 0.000000
vn 0.587362 -0.809324 0.000000
vn -0.587362 -0.809324 0.000000
s 1
g Window_Doors Window_lowpoly PROP_____Window High_Fidelity_Group polySurface13
usemtl initialShadingGroup
f 327/419/325 328/412/326 330/413/327 329/414/328
f 331/415/329 332/416/330 326/417/331 325/418/332
f 326/417/331 332/416/330 330/413/327 328/412/326
f 331/415/329 325/418/332 327/411/325 329/420/328
g default
v 1.882416 52.736994 48.889035
v 1.882416 101.286768 48.889035
v 1.882416 101.286768 -48.889018
v 1.882416 52.736994 -48.889018
v 5.955811 52.736963 -48.889018
v 5.955811 52.736963 48.889035
v 5.955811 101.286798 -48.889018
v 5.955811 101.286798 48.889035
v 1.882416 55.695719 -46.174388
v 2.289703 56.103022 -45.767085
v 1.882416 55.695719 46.174390
v 2.289703 56.103022 45.767091
v 1.882416 98.328058 -46.174388
v 2.289703 97.920771 -45.767085
v 1.882416 98.328058 46.174390
v 2.289703 97.920771 45.767091
v 5.548523 56.102991 -45.767085
v 5.955811 55.695688 -46.174388
v 5.955811 55.695688 46.174390
v 5.548523 56.102991 45.767091
v 5.548523 97.920801 -45.767085
v 5.955811 98.328089 -46.174380
v 5.548523 97.920801 45.767091
v 5.955811 98.328089 46.174390
vt 0.322081 0.970700
vt 0.321654 0.969024
vt 0.383755 0.969024
vt 0.383226 0.970700
vt 0.122968 0.970700
vt 0.123302 0.969024
vt 0.034050 0.970700
vt 0.614116 0.969024
vt 0.321657 0.959402
vt 0.322082 0.957715
vt 0.383227 0.957715
vt 0.383756 0.959402
vt 0.123304 0.959402
vt 0.122968 0.957715
vt 0.034893 0.959402
vt 0.615137 0.957715
vt 0.121228 0.949347
vt 0.324563 0.949347
vt 0.380063 0.949347
vt 0.621880 0.949347
vt 0.121225 0.978835
vt 0.324567 0.978835
vt 0.380068 0.978835
vt 0.028173 0.978835
vt 0.614121 0.959402
vt 0.034872 0.969024
vt 0.615126 0.970700
vt 0.621867 0.978835
vt 0.028261 0.949347
vt 0.034080 0.957715
vn -0.999226 0.035753 0.016420
vn -0.193657 0.892232 0.407944
vn -0.193652 -0.892234 0.407944
vn -0.999226 -0.035753 0.016421
vn -0.999226 0.035753 -0.016420
vn -0.193658 0.892232 -0.407944
vn -0.999226 -0.035753 -0.016421
vn -0.193653 -0.892234 -0.407944
vn 0.193661 0.892237 0.407931
vn 0.999226 0.035756 0.016420
vn 0.999226 -0.035757 0.016421
vn 0.193656 -0.892238 0.407932
vn 0.193663 0.892237 -0.407931
vn 0.999226 0.035756 -0.016420
vn 0.193658 -0.892238 -0.407931
vn 0.999226 -0.035757 -0.016421
vn 1.000000 -0.000003 0.000000
vn 1.000000 -0.000003 0.000000
vn 1.000000 0.000002 0.000000
vn 1.000000 0.000002 0.000000
vn -1.000000 0.000000 0.000000
vn -1.000000 0.000000 0.000000
vn -1.000000 0.000000 0.000000
vn -1.000000 0.000000 0.000000
s 1
g Window_Doors Window_lowpoly PROP_____Window High_Fidelity_Group polySurface21
usemtl initialShadingGroup
f 341/421/333 342/422/334 346/423/335 345/424/336
f 342/422/334 341/421/333 343/425/337 344/426/338
f 344/426/338 343/425/337 347/427/339 348/446/340
f 345/424/336 346/423/335 348/428/340 347/447/339
f 349/429/341 350/430/342 354/431/343 353/432/344
f 350/430/342 349/429/341 352/433/345 351/434/346
f 351/434/346 352/433/345 355/435/347 356/450/348
f 353/432/344 354/431/343 356/436/348 355/445/347
f 338/437/349 337/438/350 350/430/342 351/434/346
f 337/438/350 339/439/351 354/431/343 350/430/342
f 339/439/351 340/440/352 356/436/348 354/431/343
f 340/449/352 338/437/349 351/434/346 356/450/348
f 333/441/353 343/425/337 341/421/333 336/442/354
f 336/442/354 341/421/333 345/424/336 335/443/355
f 335/443/355 345/424/336 347/447/339 334/448/356
f 334/444/356 347/427/339 343/425/337 333/441/353
f 342/422/334 344/426/338 352/433/345 349/429/341
f 346/423/335 342/422/334 349/429/341 353/432/344
f 348/428/340 346/423/335 353/432/344 355/445/347
f 344/426/338 348/446/340 355/435/347 352/433/345
g default
v 2.895322 53.351818 0.674611
v 4.942900 53.351818 0.674611
v 2.895322 82.850283 -29.784713
v 4.942900 82.850283 -29.784713
v 2.895322 81.535399 -31.142440
v 4.942900 81.535399 -31.142440
v 2.895322 52.037006 -0.683108
v 4.942900 52.037006 -0.683108
vt 0.495625 0.905914
vt 0.495626 0.910993
vt 0.390449 0.910993
vt 0.390449 0.905914
vt 0.390299 0.901237
vt 0.390298 0.915688
vt 0.495477 0.915688
vt 0.495477 0.920767
vt 0.390298 0.920767
vt 0.495475 0.901237
vn -0.691563 0.518872 0.502507
vn 0.691563 0.518872 0.502507
vn 0.663884 0.537204 0.520260
vn -0.663884 0.537204 0.520260
vn -0.691568 -0.518869 -0.502502
vn 0.691568 -0.518869 -0.502502
vn 0.663890 -0.537200 -0.520255
vn -0.663890 -0.537200 -0.520255
s 1
g Window_lowpoly PROP_____Window High_Fidelity_Group polySurface15 Window_Round_frame
usemtl initialShadingGroup
f 357/451/357 358/452/358 360/453/359 359/454/360
f 361/459/361 362/456/362 364/457/363 363/458/364
f 358/452/358 364/457/363 362/456/362 360/453/359
f 363/460/364 357/451/357 359/454/360 361/455/361
g default
v 2.895322 52.694390 0.955795
v 4.942900 52.694390 0.955795
v 2.895322 99.105173 0.955795
v 4.942900 99.105173 0.955795
v 2.895322 99.105173 -0.964261
v 4.942900 99.105173 -0.964261
v 2.895322 52.694390 -0.964261
v 4.942900 52.694390 -0.964261
vt 0.395739 0.291151
vt 0.395739 0.299073
vt 0.216199 0.299073
vt 0.216199 0.291151
vt 0.216199 0.283724
vt 0.216199 0.306500
vt 0.395739 0.306501
vt 0.395739 0.314421
vt 0.216199 0.314422
vt 0.395739 0.283724
vn -0.684027 0.000000 0.729457
vn 0.684027 0.000000 0.729457
vn 0.684027 0.000000 0.729457
vn -0.684027 0.000000 0.729457
vn -0.684027 0.000000 -0.729457
vn 0.684027 0.000000 -0.729457
vn 0.684027 0.000000 -0.729457
vn -0.684027 0.000000 -0.729457
s 1
g Window_lowpoly PROP_____Window High_Fidelity_Group Window_Round_frame polySurface14
usemtl initialShadingGroup
f 365/461/365 366/462/366 368/463/367 367/464/368
f 369/469/369 370/466/370 372/467/371 371/468/372
f 366/462/366 372/467/371 370/466/370 368/463/367
f 371/470/372 365/461/365 367/464/368 369/465/369
g default
v 2.895322 79.684381 -10.995010
v 4.942900 79.684381 -10.995010
v 2.895322 91.360849 -16.202272
v 4.942900 91.360849 -16.202272
v 2.895322 90.623614 -17.964993
v 4.942900 90.623614 -17.964993
v 2.895322 78.947116 -12.757683
v 4.942900 78.947116 -12.757683
vt 0.331823 0.804617
vt 0.332055 0.809690
vt 0.300376 0.811146
vt 0.300142 0.806073
vt 0.299813 0.801340
vt 0.300484 0.815880
vt 0.332161 0.814424
vt 0.332394 0.819498
vt 0.300717 0.820954
vt 0.331495 0.799884
vn -0.691987 0.294030 0.659318
vn 0.691986 0.294032 0.659318
vn 0.671918 0.301655 0.676410
vn -0.671919 0.301653 0.676411
vn -0.691979 -0.294034 -0.659324
vn 0.691980 -0.294032 -0.659325
vn 0.671912 -0.301654 -0.676416
vn -0.671911 -0.301656 -0.676416
s 1
g Window_lowpoly PROP_____Window High_Fidelity_Group Window_Round_frame polySurface17
usemtl initialShadingGroup
f 373/471/373 374/472/374 376/473/375 375/474/376
f 377/479/377 378/476/378 380/477/379 379/478/380
f 374/472/374 380/477/379 378/476/378 376/473/375
f 379/480/380 373/471/373 375/474/376 377/475/377
g default
v 2.895322 64.789358 -28.146704
v 4.942900 64.789358 -28.146704
v 2.895322 69.279940 -39.541234
v 4.942900 69.279940 -39.541234
v 2.895322 67.557664 -40.264899
v 4.942900 67.557664 -40.264899
v 2.895322 63.066980 -28.870466
v 4.942900 63.066980 -28.870466
vt 0.251203 0.809517
vt 0.251201 0.804438
vt 0.281582 0.804438
vt 0.281582 0.809517
vt 0.281685 0.814146
vt 0.281685 0.799801
vt 0.251303 0.799801
vt 0.251302 0.794722
vt 0.281683 0.794722
vt 0.251308 0.814145
vn -0.683445 0.679163 0.267656
vn 0.683451 0.679157 0.267657
vn 0.664030 0.695633 0.274150
vn -0.664025 0.695638 0.274149
vn -0.683457 -0.679150 -0.267661
vn 0.683453 -0.679155 -0.267659
vn 0.664028 -0.695634 -0.274154
vn -0.664032 -0.695629 -0.274156
s 1
g Window_lowpoly PROP_____Window High_Fidelity_Group Window_Round_frame polySurface18
usemtl initialShadingGroup
f 381/481/381 382/482/382 384/483/383 383/484/384
f 385/489/385 386/486/386 388/487/387 387/488/388
f 382/482/382 388/487/387 386/486/386 384/483/383
f 387/490/388 381/481/381 383/484/384 385/485/385
g default
v 2.895322 79.062885 12.981331
v 4.942900 79.062885 12.981331
v 2.895322 90.527465 18.171451
v 4.942900 90.527465 18.171451
v 2.895322 91.274088 16.412939
v 4.942900 91.274088 16.412939
v 2.895322 79.809508 11.222803
v 4.942900 79.809508 11.222803
vt 0.658224 0.432006
vt 0.658228 0.439927
vt 0.609543 0.439928
vt 0.609546 0.432006
vt 0.609722 0.424631
vt 0.609714 0.447330
vt 0.658404 0.447330
vt 0.658404 0.455251
vt 0.609715 0.455251
vt 0.658397 0.424632
vn -0.671766 -0.305503 0.674832
vn 0.671766 -0.305503 0.674832
vn 0.692040 -0.297706 0.657610
vn -0.692040 -0.297706 0.657610
vn -0.671765 0.305505 -0.674832
vn 0.671765 0.305505 -0.674832
vn 0.692039 0.297709 -0.657611
vn -0.692039 0.297709 -0.657611
s 1
g Window_lowpoly PROP_____Window High_Fidelity_Group Window_Round_frame polySurface19
usemtl initialShadingGroup
f 389/491/389 390/492/390 392/493/391 391/494/392
f 393/499/393 394/496/394 396/497/395 395/498/396
f 390/492/390 396/497/395 394/496/394 392/493/391
f 395/500/396 389/491/389 391/494/392 393/495/393
g default
v 2.895322 62.914813 28.908097
v 4.942900 62.914813 28.908097
v 2.895322 67.350878 40.337190
v 4.942900 67.350878 40.337190
v 2.895322 69.076885 39.622908
v 4.942900 69.076885 39.622908
v 2.895322 64.640806 28.193807
v 4.942900 64.640806 28.193807
vt 0.811008 0.454249
vt 0.811010 0.446328
vt 0.858436 0.446328
vt 0.858435 0.454249
vt 0.858275 0.461476
vt 0.858278 0.439106
vt 0.810852 0.439106
vt 0.810854 0.431185
vt 0.858280 0.431185
vt 0.810847 0.461476
vn -0.664096 -0.696987 0.270527
vn 0.664096 -0.696987 0.270527
vn 0.683305 -0.680660 0.264190
vn -0.683305 -0.680660 0.264190
vn -0.664095 0.696988 -0.270529
vn 0.664094 0.696989 -0.270529
vn 0.683303 0.680661 -0.264191
vn -0.683304 0.680661 -0.264191
s 1
g Window_lowpoly PROP_____Window High_Fidelity_Group Window_Round_frame polySurface20
usemtl initialShadingGroup
f 397/501/397 398/502/398 400/503/399 399/504/400
f 401/509/401 402/506/402 404/507/403 403/508/404
f 398/502/398 404/507/403 402/506/402 400/503/399
f 403/510/404 397/501/397 399/504/400 401/505/401
g default
v 2.690735 52.990299 -43.010253
v 2.559356 52.990299 -43.144660
v 2.559356 68.236490 -39.851895
v 2.690735 68.181784 -39.729284
v 2.559356 81.158735 -30.477344
v 2.690735 81.060487 -30.386302
v 2.559295 89.790580 -16.451424
v 2.690674 89.665774 -16.403531
v 2.559356 92.821093 0.090423
v 2.690735 92.687540 0.090423
v 2.559295 89.790580 16.632127
v 2.690674 89.665774 16.584238
v 2.559356 81.158735 30.658091
v 2.690735 81.060545 30.567053
v 2.559356 68.236592 40.032670
v 2.690735 68.181813 39.910090
v 2.559356 52.990328 43.325315
v 2.690735 52.990328 43.190912
v 2.559356 52.990328 -45.564234
v 2.690735 52.990328 -45.698633
v 2.559356 69.349675 -42.041636
v 2.690735 69.404280 -42.164255
v 2.559356 83.132722 -32.070583
v 2.690735 83.230853 -32.161745
v 2.559356 92.264872 -17.270397
v 2.690735 92.389679 -17.318385
v 2.559295 95.453485 0.090423
v 2.690674 95.587066 0.090423
v 2.559356 92.264872 17.451099
v 2.690735 92.389679 17.499096
v 2.559356 83.132722 32.251342
v 2.690735 83.230882 32.342512
v 2.559356 69.349705 42.222267
v 2.690735 69.404309 42.344886
v 2.690735 52.990343 45.879328
v 2.559356 52.990343 45.744945
v 5.278866 52.990299 -43.144660
v 5.147487 52.990299 -43.010253
v 5.147548 68.181784 -39.729284
v 5.278927 68.236563 -39.851895
v 5.147487 52.990328 -45.698633
v 5.278866 52.990328 -45.564234
v 5.278927 69.349675 -42.041636
v 5.147548 69.404280 -42.164255
v 5.147487 81.060487 -30.386302
v 5.278866 81.158647 -30.477344
v 5.278866 83.132693 -32.070583
v 5.147487 83.230824 -32.161745
v 5.147487 89.665774 -16.403531
v 5.278866 89.790551 -16.451424
v 5.278927 92.264872 -17.270397
v 5.147548 92.389679 -17.318385
v 5.147548 92.687540 0.090423
v 5.278927 92.821151 0.090423
v 5.278927 95.453485 0.090423
v 5.147548 95.587066 0.090423
v 5.147487 89.665774 16.584238
v 5.278866 89.790580 16.632127
v 5.278927 92.264872 17.451099
v 5.147548 92.389679 17.499096
v 5.147487 81.060545 30.567053
v 5.278866 81.158735 30.658091
v 5.278866 83.132722 32.251342
v 5.147487 83.230882 32.342512
v 5.147548 68.181813 39.910090
v 5.278927 68.236563 40.032670
v 5.278927 69.349705 42.222267
v 5.147548 69.404295 42.344886
v 5.147487 52.990328 43.190912
v 5.278866 52.990328 43.325315
v 5.278866 52.990343 45.744945
v 5.147487 52.990343 45.879328
vt 0.360846 0.902901
vt 0.360846 0.903362
vt 0.319442 0.903362
vt 0.319442 0.902901
vt 0.278114 0.903362
vt 0.278114 0.902901
vt 0.235757 0.903362
vt 0.235757 0.902901
vt 0.192628 0.903362
vt 0.192628 0.902901
vt 0.149527 0.903362
vt 0.149527 0.902901
vt 0.107200 0.903362
vt 0.107200 0.902901
vt 0.065920 0.903362
vt 0.065920 0.902901
vt 0.024513 0.903362
vt 0.024513 0.902901
vt 0.360846 0.922510
vt 0.360846 0.922982
vt 0.319441 0.897018
vt 0.319442 0.922510
vt 0.278114 0.897018
vt 0.278114 0.922510
vt 0.235757 0.897018
vt 0.235757 0.922510
vt 0.192628 0.897018
vt 0.192628 0.922510
vt 0.149527 0.897018
vt 0.149527 0.922510
vt 0.107200 0.897018
vt 0.107200 0.922510
vt 0.065920 0.897018
vt 0.065920 0.922510
vt 0.024513 0.897018
vt 0.024513 0.922510
vt 0.360846 0.909457
vt 0.360846 0.909919
vt 0.319442 0.909919
vt 0.319441 0.909457
vt 0.278114 0.909919
vt 0.278114 0.909457
vt 0.360846 0.915807
vt 0.360846 0.916277
vt 0.319442 0.916277
vt 0.319441 0.915807
vt 0.278114 0.916277
vt 0.278114 0.915807
vt 0.235757 0.909919
vt 0.235757 0.909457
vt 0.235757 0.916277
vt 0.235757 0.915807
vt 0.192628 0.909919
vt 0.192628 0.909457
vt 0.192628 0.916277
vt 0.192628 0.915807
vt 0.149527 0.909919
vt 0.149527 0.909457
vt 0.149527 0.916277
vt 0.149527 0.915807
vt 0.107200 0.909919
vt 0.107200 0.909457
vt 0.107200 0.916277
vt 0.107200 0.915807
vt 0.065920 0.909919
vt 0.065920 0.909457
vt 0.065920 0.916277
vt 0.065920 0.915807
vt 0.024513 0.909919
vt 0.024513 0.909457
vt 0.024513 0.916277
vt 0.024513 0.915807
vt 0.065920 0.922982
vt 0.024513 0.922982
vt 0.107200 0.922982
vt 0.149527 0.922982
vt 0.192628 0.922982
vt 0.235757 0.922982
vt 0.278114 0.922982
vt 0.319441 0.922982
vt 0.360846 0.897018
vn -0.999102 -0.008945 0.041426
vn -0.054019 -0.210800 0.976035
vn -0.055216 -0.409315 0.910721
vn -0.999159 -0.017010 0.037322
vn -0.055158 -0.734219 0.676669
vn -0.999201 -0.029576 0.026889
vn -0.055146 -0.932823 0.356091
vn -0.999242 -0.036425 0.013718
vn -0.055146 -0.998478 0.000000
vn -0.999258 -0.038507 0.000000
vn -0.055141 -0.932823 -0.356091
vn -0.999242 -0.036430 -0.013718
vn -0.055150 -0.734221 -0.676666
vn -0.999201 -0.029579 -0.026890
vn -0.055209 -0.409309 -0.910724
vn -0.999158 -0.017014 -0.037322
vn -0.054008 -0.210788 -0.976039
vn -0.999101 -0.008945 -0.041428
vn -0.047381 0.210268 -0.976495
vn -0.997868 0.013741 -0.063802
vn -0.998021 0.025439 -0.057508
vn -0.048379 0.408315 -0.911558
vn -0.998135 0.044572 -0.041706
vn -0.048183 0.733416 -0.678070
vn -0.998223 0.055564 -0.021526
vn -0.047992 0.932813 -0.357151
vn -0.998254 0.059064 0.000000
vn -0.047916 0.998851 0.000000
vn -0.998223 0.055558 0.021526
vn -0.047999 0.932813 0.357150
vn -0.998135 0.044567 0.041707
vn -0.048191 0.733417 0.678069
vn -0.998021 0.025437 0.057509
vn -0.048381 0.408315 0.911558
vn -0.997868 0.013740 0.063803
vn -0.047380 0.210270 0.976495
vn 0.054022 -0.210800 0.976035
vn 0.999102 -0.008950 0.041425
vn 0.999158 -0.017013 0.037322
vn 0.055218 -0.409313 0.910722
vn 0.999200 -0.029594 0.026897
vn 0.055144 -0.734220 0.676669
vn 0.997868 0.013737 -0.063803
vn 0.047381 0.210268 -0.976495
vn 0.048382 0.408317 -0.911557
vn 0.998021 0.025440 -0.057507
vn 0.048189 0.733416 -0.678070
vn 0.998137 0.044551 -0.041698
vn 0.999241 -0.036453 0.013725
vn 0.055135 -0.932824 0.356088
vn 0.047997 0.932813 -0.357151
vn 0.998224 0.055542 -0.021520
vn 0.999258 -0.038511 0.000000
vn 0.055156 -0.998478 0.000000
vn 0.047915 0.998851 -0.000000
vn 0.998254 0.059061 -0.000000
vn 0.999241 -0.036443 -0.013725
vn 0.055147 -0.932823 -0.356090
vn 0.047998 0.932813 0.357150
vn 0.998224 0.055546 0.021520
vn 0.999200 -0.029592 -0.026898
vn 0.055150 -0.734221 -0.676667
vn 0.048191 0.733418 0.678068
vn 0.998136 0.044554 0.041699
vn 0.999158 -0.017016 -0.037323
vn 0.055208 -0.409310 -0.910723
vn 0.048383 0.408315 0.911558
vn 0.998021 0.025438 0.057508
vn 0.999102 -0.008951 -0.041427
vn 0.054008 -0.210790 -0.976038
vn 0.047380 0.210270 0.976495
vn 0.997868 0.013736 0.063804
s 1
g Window_lowpoly PROP_____Window High_Fidelity_Group Window_Round_frame pCylinder3
usemtl initialShadingGroup
f 406/511/405 405/512/406 408/513/407 407/514/408
f 407/514/408 408/513/407 410/515/409 409/516/410
f 409/516/410 410/515/409 412/517/411 411/518/412
f 411/518/412 412/517/411 414/519/413 413/520/414
f 413/520/414 414/519/413 416/521/415 415/522/416
f 415/522/416 416/521/415 418/523/417 417/524/418
f 417/524/418 418/523/417 420/525/419 419/526/420
f 419/526/420 420/525/419 422/527/421 421/528/422
f 424/529/423 423/530/424 425/590/425 426/532/426
f 426/532/426 425/590/425 427/589/427 428/534/428
f 428/534/428 427/589/427 429/588/429 430/536/430
f 430/536/430 429/588/429 431/587/431 432/538/432
f 432/538/432 431/587/431 433/586/433 434/540/434
f 434/540/434 433/586/433 435/585/435 436/542/436
f 436/542/436 435/585/435 437/583/437 438/544/438
f 438/544/438 437/583/437 440/584/439 439/546/440
f 442/547/441 441/548/442 444/549/443 443/550/444
f 443/550/444 444/549/443 450/551/445 449/552/446
f 446/553/447 445/554/448 448/555/449 447/556/450
f 447/556/450 448/555/449 452/557/451 451/558/452
f 449/552/446 450/551/445 454/559/453 453/560/454
f 451/558/452 452/557/451 456/561/455 455/562/456
f 453/560/454 454/559/453 458/563/457 457/564/458
f 455/562/456 456/561/455 460/565/459 459/566/460
f 457/564/458 458/563/457 462/567/461 461/568/462
f 459/566/460 460/565/459 464/569/463 463/570/464
f 461/568/462 462/567/461 466/571/465 465/572/466
f 463/570/464 464/569/463 468/573/467 467/574/468
f 465/572/466 466/571/465 470/575/469 469/576/470
f 467/574/468 468/573/467 472/577/471 471/578/472
f 469/576/470 470/575/469 474/579/473 473/580/474
f 471/578/472 472/577/471 476/581/475 475/582/476
f 444/549/443 441/548/442 446/553/447 447/556/450
f 450/551/445 444/549/443 447/556/450 451/558/452
f 454/559/453 450/551/445 451/558/452 455/562/456
f 458/563/457 454/559/453 455/562/456 459/566/460
f 462/567/461 458/563/457 459/566/460 463/570/464
f 466/571/465 462/567/461 463/570/464 467/574/468
f 470/575/469 466/571/465 467/574/468 471/578/472
f 474/579/473 470/575/469 471/578/472 475/582/476
f 407/514/408 425/531/425 423/591/424 406/511/405
f 409/516/410 427/533/427 425/531/425 407/514/408
f 411/518/412 429/535/429 427/533/427 409/516/410
f 413/520/414 431/537/431 429/535/429 411/518/412
f 415/522/416 433/539/433 431/537/431 413/520/414
f 417/524/418 435/541/435 433/539/433 415/522/416
f 419/526/420 437/543/437 435/541/435 417/524/418
f 419/526/420 421/528/422 440/545/439 437/543/437
f 408/513/407 405/512/406 442/547/441 443/550/444
f 424/529/423 426/532/426 448/555/449 445/554/448
f 410/515/409 408/513/407 443/550/444 449/552/446
f 426/532/426 428/534/428 452/557/451 448/555/449
f 412/517/411 410/515/409 449/552/446 453/560/454
f 428/534/428 430/536/430 456/561/455 452/557/451
f 414/519/413 412/517/411 453/560/454 457/564/458
f 430/536/430 432/538/432 460/565/459 456/561/455
f 416/521/415 414/519/413 457/564/458 461/568/462
f 432/538/432 434/540/434 464/569/463 460/565/459
f 418/523/417 416/521/415 461/568/462 465/572/466
f 434/540/434 436/542/436 468/573/467 464/569/463
f 420/525/419 418/523/417 465/572/466 469/576/470
f 436/542/436 438/544/438 472/577/471 468/573/467
f 422/527/421 420/525/419 469/576/470 473/580/474
f 438/544/438 439/546/440 476/581/475 472/577/471
g default
v 2.895322 52.037006 0.674627
v 4.942900 52.037006 0.674627
v 2.895322 81.535399 31.133974
v 4.942900 81.535399 31.133974
v 2.895322 82.850283 29.776264
v 4.942900 82.850283 29.776264
v 2.895322 53.351818 -0.683092
v 4.942900 53.351818 -0.683092
vt 0.650401 0.356779
vt 0.650402 0.352424
vt 0.740590 0.352424
vt 0.740591 0.356779
vt 0.740463 0.360807
vt 0.740461 0.348416
vt 0.650273 0.348416
vt 0.650274 0.344061
vt 0.740461 0.344061
vt 0.650272 0.360807
vn -0.663889 -0.537201 0.520256
vn 0.663889 -0.537201 0.520256
vn 0.691567 -0.518870 0.502503
vn -0.691567 -0.518870 0.502503
vn -0.663880 0.537206 -0.520262
vn 0.663880 0.537206 -0.520262
vn 0.691560 0.518874 -0.502508
vn -0.691560 0.518874 -0.502508
s 1
g Window_lowpoly PROP_____Window High_Fidelity_Group Window_Round_frame polySurface16
usemtl initialShadingGroup
f 477/592/477 478/593/478 480/594/479 479/595/480
f 481/600/481 482/597/482 484/598/483 483/599/484
f 478/593/478 484/598/483 482/597/482 480/594/479
f 483/601/484 477/592/477 479/595/480 481/596/481
g default
v 2.714696 52.990299 -30.307135
v 2.559356 52.990299 -30.466076
v 2.559356 63.769115 -28.138239
v 2.714696 63.704408 -27.993306
v 2.559356 72.903553 -21.511637
v 2.714656 72.787434 -21.403960
v 2.559356 79.004053 -11.598843
v 2.714656 78.856536 -11.542205
v 2.559356 81.145586 0.090423
v 2.714656 80.987691 0.090423
v 2.559356 79.004053 11.779690
v 2.714656 78.856536 11.723064
v 2.559356 72.903582 21.692372
v 2.714696 72.787464 21.584726
v 2.559356 63.769159 28.319034
v 2.714696 63.704408 28.174105
v 2.559356 52.990328 30.646911
v 2.714696 52.990328 30.487998
v 2.559356 52.990328 -31.737576
v 2.714696 52.990328 -31.896445
v 2.559356 64.392039 -29.282480
v 2.714696 64.456687 -29.427428
v 2.559356 73.999465 -22.332247
v 2.714696 74.115496 -22.440044
v 2.559356 80.366137 -12.014076
v 2.714696 80.513683 -12.070833
v 2.559295 82.589300 0.090423
v 2.714656 82.747225 0.090423
v 2.559356 80.366137 12.194898
v 2.714696 80.513683 12.251644
v 2.559356 73.999494 22.513033
v 2.714696 74.115496 22.620827
v 2.559356 64.392112 29.463286
v 2.714696 64.456716 29.608267
v 2.714696 52.990343 32.077323
v 2.559356 52.990343 31.918431
v 5.278866 52.990299 -30.466076
v 5.123567 52.990299 -30.307135
v 5.123587 63.704408 -27.993306
v 5.278927 63.769144 -28.138239
v 5.123567 52.990328 -31.896445
v 5.278866 52.990328 -31.737576
v 5.278927 64.392112 -29.282480
v 5.123587 64.456716 -29.427428
v 5.123567 72.787405 -21.403960
v 5.278866 72.903553 -21.511637
v 5.278866 73.999450 -22.332255
v 5.123567 74.115496 -22.440044
v 5.123567 78.856478 -11.542205
v 5.278866 79.003995 -11.598843
v 5.278927 80.366137 -12.014076
v 5.123587 80.513624 -12.070833
v 5.123587 80.987691 0.090423
v 5.278927 81.145586 0.090423
v 5.278866 82.589300 0.090423
v 5.123526 82.747225 0.090423
v 5.123567 78.856478 11.723064
v 5.278866 79.003995 11.779690
v 5.278927 80.366137 12.194898
v 5.123587 80.513683 12.251644
v 5.123567 72.787464 21.584726
v 5.278866 72.903582 21.692372
v 5.278866 73.999494 22.513033
v 5.123567 74.115496 22.620827
v 5.123587 63.704408 28.174105
v 5.278927 63.769144 28.319034
v 5.278927 64.392112 29.463286
v 5.123587 64.456716 29.608267
v 5.123567 52.990328 30.487998
v 5.278866 52.990328 30.646911
v 5.278866 52.990343 31.918431
v 5.123567 52.990343 32.077323
vt 0.206141 0.430975
vt 0.206141 0.430107
vt 0.250822 0.430107
vt 0.250823 0.430975
vt 0.295467 0.430107
vt 0.295467 0.430975
vt 0.340764 0.430107
vt 0.340764 0.430975
vt 0.386525 0.430107
vt 0.386525 0.430975
vt 0.432186 0.430107
vt 0.432185 0.430975
vt 0.477418 0.430107
vt 0.477418 0.430975
vt 0.522024 0.430107
vt 0.522023 0.430975
vt 0.566678 0.430107
vt 0.566677 0.430975
vt 0.206142 0.404215
vt 0.206141 0.403331
vt 0.250823 0.435903
vt 0.250823 0.404215
vt 0.295467 0.435903
vt 0.295468 0.404215
vt 0.340764 0.435903
vt 0.340764 0.404216
vt 0.386525 0.435903
vt 0.386525 0.404215
vt 0.432186 0.435902
vt 0.432186 0.404216
vt 0.477418 0.435903
vt 0.477418 0.404215
vt 0.522023 0.435902
vt 0.522023 0.404215
vt 0.566678 0.435903
vt 0.566678 0.404215
vt 0.206141 0.420603
vt 0.206142 0.419734
vt 0.250822 0.419734
vt 0.250823 0.420603
vt 0.295467 0.419734
vt 0.295467 0.420603
vt 0.206142 0.414806
vt 0.206142 0.413924
vt 0.250823 0.413924
vt 0.250823 0.414806
vt 0.295467 0.413924
vt 0.295467 0.414806
vt 0.340764 0.419734
vt 0.340764 0.420603
vt 0.340764 0.413924
vt 0.340764 0.414806
vt 0.386525 0.419734
vt 0.386525 0.420602
vt 0.386525 0.413924
vt 0.386525 0.414806
vt 0.432186 0.419734
vt 0.432185 0.420603
vt 0.432186 0.413924
vt 0.432186 0.414806
vt 0.477418 0.419734
vt 0.477418 0.420603
vt 0.477418 0.413924
vt 0.477419 0.414806
vt 0.522024 0.419734
vt 0.522023 0.420602
vt 0.522024 0.413924
vt 0.522024 0.414806
vt 0.566678 0.419734
vt 0.566678 0.420603
vt 0.566678 0.413924
vt 0.566677 0.414806
vt 0.522023 0.403331
vt 0.566678 0.403331
vt 0.477418 0.403331
vt 0.432186 0.403331
vt 0.386525 0.403331
vt 0.340764 0.403331
vt 0.295467 0.403331
vt 0.250823 0.403331
vt 0.206141 0.435903
vn -0.995877 -0.019150 0.088671
vn -0.064448 -0.210655 0.975434
vn -0.065877 -0.408995 0.910156
vn -0.996177 -0.036234 0.079492
vn -0.065809 -0.733703 0.676276
vn -0.996457 -0.062239 0.056573
vn -0.065786 -0.932206 0.355898
vn -0.996719 -0.075750 0.028526
vn -0.065781 -0.997834 0.000000
vn -0.996820 -0.079689 0.000000
vn -0.065778 -0.932207 -0.355900
vn -0.996718 -0.075761 -0.028527
vn -0.065800 -0.733701 -0.676279
vn -0.996455 -0.062249 -0.056581
vn -0.065875 -0.408998 -0.910154
vn -0.996176 -0.036240 -0.079496
vn -0.064446 -0.210660 -0.975433
vn -0.995877 -0.019149 -0.088671
vn -0.056487 0.210165 -0.976033
vn -0.990973 0.028220 -0.131058
vn -0.991716 0.051954 -0.117477
vn -0.057689 0.408151 -0.911090
vn -0.992375 0.089994 -0.084219
vn -0.057460 0.733096 -0.677694
vn -0.992860 0.111232 -0.043087
vn -0.057223 0.932373 -0.356940
vn -0.993027 0.117889 -0.000000
vn -0.057132 0.998367 -0.000001
vn -0.992862 0.111216 0.043089
vn -0.057231 0.932372 0.356942
vn -0.992374 0.090002 0.084218
vn -0.057461 0.733097 0.677693
vn -0.991715 0.051968 0.117472
vn -0.057689 0.408160 0.911086
vn -0.990973 0.028222 0.131057
vn -0.056496 0.210169 0.976031
vn 0.064453 -0.210658 0.975433
vn 0.995878 -0.019157 0.088657
vn 0.996177 -0.036246 0.079486
vn 0.065882 -0.408999 0.910154
vn 0.996455 -0.062257 0.056578
vn 0.065799 -0.733702 0.676278
vn 0.990975 0.028216 -0.131046
vn 0.056483 0.210167 -0.976033
vn 0.057684 0.408155 -0.911089
vn 0.991718 0.051952 -0.117460
vn 0.057464 0.733098 -0.677692
vn 0.992378 0.089972 -0.084205
vn 0.996718 -0.075762 0.028530
vn 0.065761 -0.932207 0.355900
vn 0.057239 0.932371 -0.356943
vn 0.992862 0.111213 -0.043079
vn 0.996821 -0.079679 0.000000
vn 0.065759 -0.997836 0.000000
vn 0.057138 0.998366 -0.000002
vn 0.993026 0.117894 -0.000001
vn 0.996718 -0.075764 -0.028529
vn 0.065756 -0.932208 -0.355899
vn 0.057231 0.932372 0.356942
vn 0.992863 0.111208 0.043078
vn 0.996455 -0.062253 -0.056577
vn 0.065789 -0.733703 -0.676278
vn 0.057459 0.733097 0.677693
vn 0.992378 0.089975 0.084201
vn 0.996177 -0.036241 -0.079485
vn 0.065872 -0.409002 -0.910153
vn 0.057690 0.408157 0.911087
vn 0.991718 0.051955 0.117456
vn 0.995878 -0.019155 -0.088657
vn 0.064444 -0.210663 -0.975432
vn 0.056495 0.210169 0.976031
vn 0.990975 0.028215 0.131042
s 1
g Window_lowpoly PROP_____Window High_Fidelity_Group Window_Round_frame pCylinder5
usemtl initialShadingGroup
f 486/602/485 485/603/486 488/604/487 487/605/488
f 487/605/488 488/604/487 490/606/489 489/607/490
f 489/607/490 490/606/489 492/608/491 491/609/492
f 491/609/492 492/608/491 494/610/493 493/611/494
f 493/611/494 494/610/493 496/612/495 495/613/496
f 495/613/496 496/612/495 498/614/497 497/615/498
f 497/615/498 498/614/497 500/616/499 499/617/500
f 499/617/500 500/616/499 502/618/501 501/619/502
f 504/620/503 503/621/504 505/681/505 506/623/506
f 506/623/506 505/681/505 507/680/507 508/625/508
f 508/625/508 507/680/507 509/679/509 510/627/510
f 510/627/510 509/679/509 511/678/511 512/629/512
f 512/629/512 511/678/511 513/677/513 514/631/514
f 514/631/514 513/677/513 515/676/515 516/633/516
f 516/633/516 515/676/515 517/674/517 518/635/518
f 518/635/518 517/674/517 520/675/519 519/637/520
f 522/638/521 521/639/522 524/640/523 523/641/524
f 523/641/524 524/640/523 530/642/525 529/643/526
f 526/644/527 525/645/528 528/646/529 527/647/530
f 527/647/530 528/646/529 532/648/531 531/649/532
f 529/643/526 530/642/525 534/650/533 533/651/534
f 531/649/532 532/648/531 536/652/535 535/653/536
f 533/651/534 534/650/533 538/654/537 537/655/538
f 535/653/536 536/652/535 540/656/539 539/657/540
f 537/655/538 538/654/537 542/658/541 541/659/542
f 539/657/540 540/656/539 544/660/543 543/661/544
f 541/659/542 542/658/541 546/662/545 545/663/546
f 543/661/544 544/660/543 548/664/547 547/665/548
f 545/663/546 546/662/545 550/666/549 549/667/550
f 547/665/548 548/664/547 552/668/551 551/669/552
f 549/667/550 550/666/549 554/670/553 553/671/554
f 551/669/552 552/668/551 556/672/555 555/673/556
f 524/640/523 521/639/522 526/644/527 527/647/530
f 530/642/525 524/640/523 527/647/530 531/649/532
f 534/650/533 530/642/525 531/649/532 535/653/536
f 538/654/537 534/650/533 535/653/536 539/657/540
f 542/658/541 538/654/537 539/657/540 543/661/544
f 546/662/545 542/658/541 543/661/544 547/665/548
f 550/666/549 546/662/545 547/665/548 551/669/552
f 554/670/553 550/666/549 551/669/552 555/673/556
f 487/605/488 505/622/505 503/682/504 486/602/485
f 489/607/490 507/624/507 505/622/505 487/605/488
f 491/609/492 509/626/509 507/624/507 489/607/490
f 493/611/494 511/628/511 509/626/509 491/609/492
f 495/613/496 513/630/513 511/628/511 493/611/494
f 497/615/498 515/632/515 513/630/513 495/613/496
f 499/617/500 517/634/517 515/632/515 497/615/498
f 499/617/500 501/619/502 520/636/519 517/634/517
f 488/604/487 485/603/486 522/638/521 523/641/524
f 504/620/503 506/623/506 528/646/529 525/645/528
f 490/606/489 488/604/487 523/641/524 529/643/526
f 506/623/506 508/625/508 532/648/531 528/646/529
f 492/608/491 490/606/489 529/643/526 533/651/534
f 508/625/508 510/627/510 536/652/535 532/648/531
f 494/610/493 492/608/491 533/651/534 537/655/538
f 510/627/510 512/629/512 540/656/539 536/652/535
f 496/612/495 494/610/493 537/655/538 541/659/542
f 512/629/512 514/631/514 544/660/543 540/656/539
f 498/614/497 496/612/495 541/659/542 545/663/546
f 514/631/514 516/633/516 548/664/547 544/660/543
f 500/616/499 498/614/497 545/663/546 549/667/550
f 516/633/516 518/635/518 552/668/551 548/664/547
f 502/618/501 500/616/499 549/667/550 553/671/554
f 518/635/518 519/637/520 556/672/555 552/668/551
g default
v 7.838440 -114.803030 61.686704
v 7.838440 114.803034 61.686704
v 7.838440 114.803034 -61.686702
v 7.838440 -114.803030 -61.686702
v 7.838440 -100.955648 -48.744937
v 7.838440 -100.955648 48.744924
v 7.838440 100.955683 -48.744937
v 7.838440 100.955683 48.744924
v 3.919189 -100.955648 -48.744937
v 3.919189 -100.955648 48.744924
v 3.919189 100.955683 -48.744937
v 3.919189 100.955683 48.744924
v 9.100861 -102.617338 -50.297915
v 9.100861 -102.617338 50.297925
v 9.100861 102.617334 50.297925
v 9.100861 102.617334 -50.297915
v 9.218872 -112.033560 -59.098369
v 9.218872 -112.033560 59.098340
v 9.218872 112.033564 59.098340
v 9.218872 112.033564 -59.098369
v 0.000000 -114.803030 61.686704
v 0.000000 114.803034 61.686704
v 0.000000 114.803034 -61.686702
v 0.000000 -114.803030 -61.686702
v 0.000000 -100.955648 -48.744937
v 0.000000 -100.955648 48.744924
v 0.000000 100.955683 -48.744937
v 0.000000 100.955683 48.744924
vt 0.622078 0.031086
vt 0.493051 0.031086
vt 0.493023 0.024306
vt 0.622130 0.024306
vt 0.187823 0.031086
vt 0.187820 0.024306
vt 0.031105 0.031086
vt 0.970125 0.024306
vt 0.620737 0.035199
vt 0.494129 0.035199
vt 0.028673 0.035199
vt 0.186909 0.035199
vt 0.500163 0.052768
vt 0.613193 0.052768
vt 0.611014 0.058523
vt 0.501895 0.058523
vt 0.015213 0.052768
vt 0.011403 0.058524
vt 0.181890 0.052768
vt 0.180514 0.058524
vt 0.011124 0.072940
vt 0.611138 0.072939
vt 0.180531 0.072940
vt 0.501804 0.072939
vt 0.622148 0.017089
vt 0.493015 0.017089
vt 0.187820 0.017089
vt 0.970135 0.017089
vt 0.030999 0.017089
vt 0.031025 0.024306
vt 0.993595 0.058524
vt 0.993641 0.072940
vt 0.988934 0.052768
vt 0.970093 0.031086
vt 0.972944 0.035199
vn 0.470518 0.382076 -0.795381
vn 0.470516 0.382076 0.795382
vn 0.000000 0.434805 0.900525
vn 0.000000 0.434805 -0.900525
vn 0.470512 -0.382079 0.795383
vn 0.000000 -0.434805 0.900525
vn 0.470514 -0.382079 -0.795382
vn 0.000000 -0.434805 -0.900525
vn 0.999042 0.019931 -0.038960
vn 0.999042 0.019931 0.038960
vn 0.999042 -0.019932 -0.038960
vn 0.999042 -0.019932 0.038960
vn 0.983819 -0.082376 -0.159106
vn 0.983819 -0.082377 0.159105
vn 0.214813 -0.464173 0.859302
vn 0.214811 -0.464174 -0.859302
vn 0.983819 0.082376 0.159105
vn 0.214813 0.464173 0.859302
vn 0.983819 0.082375 -0.159106
vn 0.214811 0.464173 -0.859302
vn 0.000000 0.473324 0.880888
vn 0.000000 -0.473324 0.880888
vn 0.000000 0.473324 -0.880888
vn 0.000000 -0.473324 -0.880888
vn 0.000000 0.434806 -0.900524
vn 0.000000 0.434806 0.900524
vn 0.000000 -0.434806 0.900524
vn 0.000000 -0.434806 -0.900524
s 1
g Window_lowpoly PROP_____Window High_Fidelity_Group Window_Frame
usemtl initialShadingGroup
f 562/683/557 561/684/558 565/685/559 566/686/560
f 561/684/558 563/687/561 567/688/562 565/685/559
f 563/687/561 564/689/563 568/712/564 567/688/562
f 564/716/563 562/683/557 566/686/560 568/690/564
f 570/691/565 569/692/566 561/684/558 562/683/557
f 571/717/567 570/691/565 562/683/557 564/716/563
f 572/694/568 571/693/567 564/689/563 563/687/561
f 569/692/566 572/694/568 563/687/561 561/684/558
f 573/695/569 574/696/570 557/697/571 560/698/572
f 574/696/570 573/695/569 569/692/566 570/691/565
f 574/696/570 575/715/573 558/713/574 557/697/571
f 575/715/573 574/696/570 570/691/565 571/717/567
f 575/699/573 576/701/575 559/702/576 558/700/574
f 576/701/575 575/699/573 571/693/567 572/694/568
f 573/695/569 576/701/575 572/694/568 569/692/566
f 576/701/575 573/695/569 560/698/572 559/702/576
f 558/713/574 578/714/577 577/704/578 557/697/571
f 559/702/576 579/705/579 578/703/577 558/700/574
f 560/698/572 580/706/580 579/705/579 559/702/576
f 557/697/571 577/704/578 580/706/580 560/698/572
f 582/707/581 566/686/560 565/685/559 581/708/582
f 581/708/582 565/685/559 567/688/562 583/709/583
f 583/709/583 567/688/562 568/712/564 584/711/584
f 584/710/584 568/690/564 566/686/560 582/707/581
