# This file uses centimeters as units for non-parametric coordinates.

mtllib Bookshelf lowpoly.mtl
g default
v 14.614104 186.116200 -66.425349
v 14.614104 192.330206 -66.425349
v 14.614104 192.330206 66.335901
v 14.614104 186.116200 66.335901
v 14.614104 191.899654 -6.846726
v 14.614104 185.685649 -6.846726
v -17.224498 186.116200 -66.425349
v -17.845814 186.737539 -66.425349
v -17.224498 185.685649 -6.846726
v -17.845814 186.306988 -6.846726
v -17.845814 191.708867 -66.425349
v -17.224498 192.330206 -66.425349
v -17.845814 191.278315 -6.846726
v -17.224498 191.899654 -6.846726
v -17.845814 186.737539 66.335901
v -17.224498 186.116200 66.335901
v -17.224498 192.330206 66.335901
v -17.845814 191.708867 66.335901
vt 0.439035 0.238165
vt 0.693852 0.235289
vt 0.439006 0.250093
vt 0.693924 0.247217
vt 0.438833 0.174660
vt 0.439039 0.235780
vt 0.439002 0.247708
vt 0.553390 0.237770
vt 0.553410 0.249701
vt 0.553533 0.310819
vt 0.439211 0.311219
vt 0.553386 0.235385
vt 0.553263 0.174257
vt 0.693814 0.174171
vt 0.553406 0.247315
vt 0.693865 0.237675
vt 0.693968 0.310731
vt 0.693928 0.249603
vn -0.999627 -0.027307 -0.000197
vn -0.030869 -0.999497 -0.007223
vn -0.007767 -0.999970 0.000004
vn -0.948912 -0.315541 -0.000040
vn -0.029733 -0.999541 0.005881
vn -0.999456 -0.032981 0.000194
vn -0.007110 0.999949 0.007226
vn -0.941654 0.336574 0.002432
vn -0.999538 0.030389 -0.000015
vn -0.030244 0.999543 0.000004
vn -0.954065 0.299594 -0.001763
vn -0.008302 0.999948 -0.005883
vn 0.000000 -0.999974 -0.007226
vn 0.000000 -1.000000 0.000000
vn -0.000000 1.000000 0.000000
vn -0.000000 0.999974 0.007226
vn -0.000000 -0.999983 0.005883
vn 0.000000 0.999983 -0.005883
s 1
g Bookshelf1 Bookshelf_lowpoly PROP_____BOOKSHELF High_Fidelity_Group
usemtl initialShadingGroup
f 8/1/1 7/6/2 9/12/3 10/8/4
f 10/8/4 9/12/3 16/2/5 15/16/6
f 12/3/7 11/7/8 13/15/9 14/9/10
f 14/9/10 13/15/9 18/4/11 17/18/12
f 1/5/13 6/13/14 9/12/3 7/6/2
f 13/15/9 11/7/8 8/1/1 10/8/4
f 14/9/10 5/10/15 2/11/16 12/3/7
f 9/12/3 6/13/14 4/14/17 16/2/5
f 13/15/9 10/8/4 15/16/6 18/4/11
f 3/17/18 5/10/15 14/9/10 17/18/12
g default
v 14.803223 1.229197 -66.186155
v 10.422748 1.229197 -66.186155
v 14.803223 190.803927 -66.186155
v 10.422748 190.803927 -66.186155
v 14.803223 190.803927 65.890272
v 10.422748 190.803927 65.890272
v 14.803223 1.229197 65.890272
v 10.422748 1.229197 65.890272
vt 0.432929 0.346076
vt 0.985086 0.699406
vt 0.978956 0.693745
vt 0.979447 0.346058
vt 0.721551 0.346448
vt 0.721059 0.694135
vt 0.683444 0.690768
vt 0.715421 0.340786
vt 0.985400 0.340647
vt 0.429896 0.688522
vt 0.715107 0.699546
vt 0.686477 0.348322
vn -0.999733 0.023101 -0.000000
vn 0.999733 0.023101 0.000000
vn 0.999733 0.023101 0.000000
vn -0.999733 0.023101 -0.000000
vn 0.999733 -0.023101 0.000000
vn -0.999733 -0.023101 -0.000000
vn -0.999733 -0.023101 -0.000000
vn 0.999733 -0.023101 0.000000
s 1
g Bookshelf_lowpoly PROP_____BOOKSHELF High_Fidelity_Group Bookshelf2
usemtl initialShadingGroup
f 24/29/19 23/24/20 21/21/21 22/20/22
f 25/23/23 26/26/24 20/27/25 19/22/26
f 23/24/20 25/23/23 19/22/26 21/21/21
f 26/30/24 24/25/19 22/28/22 20/19/25
g default
v 14.614111 142.250448 -65.977912
v 14.614111 145.449258 -65.959485
v 14.614111 144.477439 66.343991
v 14.614111 141.278652 66.325555
v 14.614111 144.466649 -33.475202
v 14.614111 141.267861 -33.493652
v -16.065578 145.129409 -65.961328
v -15.745815 145.449258 -65.959485
v -15.745815 144.466649 -33.475202
v -16.065578 144.146898 -33.480023
v -15.745815 142.250448 -65.977912
v -16.065578 142.570309 -65.976078
v -15.745815 141.267861 -33.493652
v -16.065578 141.587646 -33.488830
v -15.745815 144.477439 66.343991
v -16.065578 144.157658 66.342148
v -16.065578 141.598411 66.327402
v -15.745815 141.278652 66.325555
vt 0.161829 0.072138
vt 0.415884 0.076446
vt 0.162067 0.066003
vt 0.416001 0.070307
vt 0.162103 0.064775
vt 0.163155 0.006436
vt 0.223036 0.131479
vt 0.160783 0.130364
vt 0.224251 0.073177
vt 0.224416 0.067038
vt 0.161866 0.070911
vt 0.417400 0.012052
vt 0.224439 0.065811
vt 0.225672 0.007545
vt 0.224275 0.071949
vt 0.415975 0.071534
vt 0.415858 0.077673
vt 0.414451 0.135917
vn -0.000681 0.999543 0.030235
vn -0.784999 0.619214 0.018730
vn -0.999922 0.012517 0.000031
vn -0.018764 0.999797 0.007353
vn -0.894877 0.446313 -0.000048
vn -0.002345 0.999997 -0.000108
vn -0.999991 -0.004160 -0.000126
vn -0.019974 -0.999344 -0.030228
vn -0.001937 -0.999971 -0.007336
vn -0.875526 -0.483157 -0.003786
vn -0.018368 -0.999831 0.000108
vn -0.999881 -0.015449 0.000002
vn 0.000000 -0.999973 -0.007345
vn 0.000000 -0.999543 -0.030234
vn -0.000000 0.999973 0.007345
vn -0.000000 0.999543 0.030235
vn -0.000000 -1.000000 0.000108
vn 0.000000 1.000000 -0.000108
s 1
g Bookshelf_lowpoly PROP_____BOOKSHELF High_Fidelity_Group Bookshelf3
usemtl initialShadingGroup
f 34/31/27 33/41/28 36/45/29 35/39/30
f 35/39/30 36/45/29 42/32/31 41/47/32
f 38/33/33 37/35/34 39/43/35 40/40/36
f 40/40/36 39/43/35 44/34/37 43/46/38
f 32/44/39 39/43/35 37/35/34 27/36/40
f 31/37/41 28/38/42 34/31/27 35/39/30
f 40/40/36 36/45/29 33/41/28 38/33/33
f 30/42/43 44/34/37 39/43/35 32/44/39
f 42/32/31 36/45/29 40/40/36 43/46/38
f 35/39/30 41/47/32 29/48/44 31/37/41
g default
v 14.614111 94.698825 -66.165384
v 14.614111 98.071504 -66.165384
v 14.614111 98.071504 66.243347
v 14.614111 94.698825 66.243347
v 14.614111 93.581791 19.436608
v 14.614111 96.954471 19.436608
v -15.728437 94.698825 -66.165384
v -16.065578 95.035988 -66.165384
v -15.728437 93.581791 19.436608
v -16.065578 93.918979 19.434785
v -16.065578 97.734341 -66.165384
v -15.728437 98.071504 -66.165384
v -15.728437 96.954471 19.436608
v -16.065578 96.617284 19.438428
v -16.065578 95.036060 66.243347
v -15.728437 94.698825 66.243347
v -15.728437 98.071504 66.243347
v -16.065578 97.734269 66.243347
vt 0.730944 0.075350
vt 0.985083 0.078209
vt 0.730785 0.081822
vt 0.985078 0.084682
vt 0.986273 0.019980
vt 0.895269 0.076321
vt 0.896260 0.018064
vt 0.983881 0.144224
vt 0.985069 0.085976
vt 0.985070 0.079503
vt 0.895182 0.082795
vt 0.731739 0.015827
vt 0.730969 0.074056
vt 0.730014 0.140085
vt 0.895156 0.084089
vt 0.894165 0.142318
vt 0.730811 0.080528
vt 0.895245 0.077615
vn -0.999967 -0.008113 -0.000106
vn -0.020426 -0.999706 -0.013045
vn -0.001148 -0.999999 -0.000005
vn -0.820688 -0.571377 0.000140
vn -0.021013 -0.999495 0.023853
vn -0.999990 -0.004371 0.000104
vn -0.001363 0.999914 0.013048
vn -0.836014 0.548662 0.007159
vn -0.999977 0.006765 0.000030
vn -0.020637 0.999787 -0.000005
vn -0.788155 0.615301 -0.014684
vn -0.000753 0.999715 -0.023858
vn -0.000000 -0.999715 0.023858
vn 0.000000 -1.000000 -0.000000
vn 0.000000 0.999715 -0.023858
vn -0.000000 1.000000 0.000000
vn 0.000000 -0.999915 -0.013048
vn -0.000000 0.999915 0.013048
s 1
g Bookshelf_lowpoly PROP_____BOOKSHELF High_Fidelity_Group Bookshelf4
usemtl initialShadingGroup
f 52/49/45 51/61/46 53/54/47 54/66/48
f 54/66/48 53/54/47 60/50/49 59/58/50
f 56/51/51 55/65/52 58/59/53 57/63/54
f 57/63/54 58/59/53 62/52/55 61/57/56
f 48/53/57 60/50/49 53/54/47 49/55/58
f 47/56/59 50/64/60 57/63/54 61/57/56
f 54/66/48 59/58/50 62/52/55 58/59/53
f 45/60/61 49/55/58 53/54/47 51/61/46
f 46/62/62 56/51/51 57/63/54 50/64/60
f 58/59/53 55/65/52 52/49/45 54/66/48
g default
v 14.614111 48.769445 39.356971
v 14.614111 44.566301 39.403262
v 14.614111 42.881319 -66.093059
v 14.614111 47.084465 -66.139391
v 14.614111 48.945316 66.302658
v 14.614111 44.742162 66.348953
v -15.645285 48.769445 39.356971
v -16.065578 48.349171 39.361599
v -16.065578 46.664192 -66.134746
v -15.645285 47.084465 -66.139391
v -16.065578 44.986575 39.398635
v -15.645285 44.566301 39.403262
v -15.645285 42.881319 -66.093059
v -16.065578 43.301592 -66.097705
v -16.065578 45.162435 66.344322
v -15.645285 44.742162 66.348953
v -15.645285 48.945316 66.302658
v -16.065578 48.525035 66.307290
vt 0.694549 0.085325
vt 0.440286 0.084492
vt 0.694645 0.077257
vt 0.440333 0.076423
vt 0.694533 0.086938
vt 0.694039 0.145048
vt 0.642904 0.076842
vt 0.643437 0.018746
vt 0.695147 0.019170
vt 0.439692 0.142576
vt 0.642825 0.086526
vt 0.642280 0.144613
vt 0.440346 0.074809
vt 0.440942 0.016729
vt 0.440299 0.082878
vt 0.642890 0.078456
vt 0.642839 0.084912
vt 0.694628 0.078870
vn -0.006016 0.999883 -0.014052
vn -0.955232 0.295830 -0.004112
vn -0.999742 0.022717 -0.000148
vn -0.022880 0.999717 -0.006525
vn -0.020846 0.999655 -0.015966
vn -0.999328 0.036639 -0.000585
vn -0.999435 -0.033620 0.000490
vn -0.021260 -0.999675 0.014042
vn -0.004338 -0.999969 0.006526
vn -0.927876 -0.372880 0.002434
vn -0.960177 -0.279355 0.004462
vn -0.006443 -0.999852 0.015970
vn 0.000000 0.999901 -0.014049
vn 0.000000 0.999979 -0.006527
vn -0.000000 -0.999901 0.014049
vn -0.000000 -0.999979 0.006526
vn 0.000000 0.999873 -0.015970
vn -0.000000 -0.999873 0.015970
s 1
g Bookshelf_lowpoly PROP_____BOOKSHELF High_Fidelity_Group Bookshelf5
usemtl initialShadingGroup
f 69/77/63 70/83/64 80/67/65 79/71/66
f 70/83/64 69/77/63 72/68/67 71/81/68
f 73/82/69 74/73/70 78/69/71 77/84/72
f 74/73/70 73/82/69 76/70/73 75/79/74
f 63/78/75 69/77/63 79/71/66 67/72/76
f 74/73/70 64/74/77 68/75/78 78/69/71
f 66/76/79 72/68/67 69/77/63 63/78/75
f 74/73/70 75/79/74 65/80/80 64/74/77
f 70/83/64 71/81/68 76/70/73 73/82/69
f 80/67/65 70/83/64 73/82/69 77/84/72
g default
v 14.614111 -0.314371 -66.446162
v 14.614111 8.472983 -66.446162
v 14.614111 8.472983 66.335901
v 14.614111 -0.314371 66.335901
v 14.614111 8.924760 -33.516683
v 14.614111 -0.314371 -33.516683
v -18.111439 -0.314371 -66.446162
v -18.550759 0.124948 -66.446162
v -18.111439 -0.314371 -33.516683
v -18.550759 0.124948 -33.516683
v -18.550759 8.033622 -66.446162
v -18.111439 8.472983 -66.446162
v -18.111439 8.924760 -33.516683
v -18.550759 8.485428 -33.514673
v -18.111439 8.472983 66.335901
v -18.550759 8.033659 66.335901
v -18.550759 0.124948 66.335901
v -18.111439 -0.314371 66.335901
vt 0.725225 0.234934
vt 0.979997 0.230910
vt 0.725448 0.251834
vt 0.980130 0.247790
vt 0.725203 0.233246
vt 0.724478 0.170393
vt 0.788395 0.234070
vt 0.725433 0.250144
vt 0.788573 0.251789
vt 0.789047 0.314547
vt 0.725682 0.314763
vt 0.980147 0.249478
vt 0.980894 0.312353
vt 0.788562 0.250104
vt 0.980011 0.232598
vt 0.788378 0.232385
vt 0.787727 0.169595
vt 0.979489 0.168053
vn -0.998690 -0.051172 -0.000000
vn -0.013245 -0.999912 -0.000000
vn -0.013245 -0.999912 -0.000000
vn -0.998690 -0.051173 -0.000000
vn -0.013245 -0.999912 -0.000000
vn -0.998690 -0.051174 -0.000000
vn -0.022472 0.999653 -0.013715
vn -0.999960 0.008972 -0.000123
vn -0.991872 0.127240 -0.000098
vn -0.007157 0.999974 0.000015
vn -0.999720 0.023646 0.000107
vn -0.018194 0.999824 0.004524
vn 0.000000 -1.000000 -0.000000
vn 0.000000 -1.000000 -0.000000
vn 0.000000 1.000000 -0.000000
vn 0.000000 0.999906 -0.013718
vn -0.000000 0.999990 0.004524
vn 0.000000 -1.000000 -0.000000
s 1
g Bookshelf_lowpoly PROP_____BOOKSHELF High_Fidelity_Group Bookshelf6
usemtl initialShadingGroup
f 88/85/81 87/89/82 89/100/83 90/91/84
f 90/91/84 89/100/83 98/86/85 97/99/86
f 92/87/87 91/92/88 94/98/89 93/93/90
f 93/93/90 94/98/89 96/88/91 95/96/92
f 89/100/83 87/89/82 81/90/93 86/101/94
f 88/85/81 90/91/84 94/98/89 91/92/88
f 92/87/87 93/93/90 85/94/95 82/95/96
f 85/94/95 93/93/90 95/96/92 83/97/97
f 96/88/91 94/98/89 90/91/84 97/99/86
f 98/86/85 89/100/83 86/101/94 84/102/98
g default
v -18.736625 0.192938 66.171259
v -18.736625 -0.287082 66.651283
v -19.216652 0.192938 66.651283
v -18.736625 0.192938 71.257387
v -19.216652 0.192938 70.777369
v -18.736625 -0.287082 70.777369
v 14.614111 0.192938 66.651283
v 14.134093 -0.287082 66.651283
v 14.134093 0.192938 66.171259
v -18.736625 192.272057 66.171259
v -19.216652 192.272057 66.651283
v -18.736625 192.752082 66.651283
v 14.134093 192.752082 66.651283
v 14.614111 192.272057 66.651283
v 14.134093 192.272057 66.171259
v 14.134093 192.272057 71.257387
v 14.614111 192.272057 70.777369
v 14.134093 192.752082 70.777369
v 14.134093 -0.287082 70.777369
v 14.614111 0.192938 70.777369
v 14.134093 0.192938 71.257387
v -19.216652 192.272057 70.777369
v -18.736625 192.272057 71.257387
v -18.736625 192.752082 70.777369
vt 0.313169 0.660776
vt 0.081297 0.288901
vt 0.081319 0.289823
vt 0.018210 0.290377
vt 0.327179 0.291369
vt 0.336969 0.290794
vt 0.400034 0.293028
vt 0.336904 0.292636
vt 0.018231 0.291298
vt 0.026851 0.659947
vt 0.025931 0.659968
vt 0.409760 0.294295
vt 0.409727 0.295216
vt 0.401843 0.294014
vt 0.323470 0.671833
vt 0.386535 0.674067
vt 0.314090 0.660808
vt 0.322006 0.661089
vt 0.321974 0.662009
vt 0.386567 0.673146
vt 0.387769 0.665263
vt 0.386848 0.665230
vt 0.323783 0.662996
vt 0.323848 0.661154
vt 0.386913 0.663388
vt 0.399969 0.294870
vt 0.401811 0.294935
vt 0.327146 0.292290
vt 0.335062 0.292571
vt 0.323503 0.670912
vt 0.089939 0.658471
vt 0.388755 0.663453
vt 0.396671 0.663734
vt 0.400315 0.285112
vt 0.337250 0.282878
vt 0.326225 0.292257
vt 0.335095 0.291650
vt 0.017310 0.291319
vt 0.314058 0.661729
vt 0.387488 0.673179
vn -0.014361 -0.002462 -0.999894
vn -0.994623 -0.002346 -0.103535
vn -0.994623 0.002346 -0.103535
vn -0.014361 0.002462 -0.999894
vn -0.013384 -0.994611 -0.102805
vn 0.014361 -0.002462 -0.999894
vn 0.013384 -0.994611 -0.102805
vn -0.013384 -0.994611 0.102805
vn -0.994623 -0.002346 0.103535
vn -0.014361 -0.002462 0.999894
vn 0.013384 -0.994611 0.102805
vn 0.014361 -0.002462 0.999894
vn -0.014361 0.002462 0.999894
vn -0.994623 0.002346 0.103535
vn 0.994623 -0.002346 -0.103533
vn 0.014361 0.002462 -0.999894
vn 0.994623 0.002346 -0.103533
vn 0.994623 -0.002346 0.103533
vn -0.013384 0.994612 -0.102805
vn 0.013384 0.994612 -0.102805
vn -0.013384 0.994612 0.102805
vn 0.013384 0.994611 0.102805
vn 0.994623 0.002346 0.103533
vn 0.014361 0.002462 0.999894
s 1
g Bookshelf_lowpoly PROP_____BOOKSHELF High_Fidelity_Group Bookshelf7
usemtl initialShadingGroup
f 99/138/99 101/130/100 109/119/101 108/103/102
f 100/104/103 99/105/99 107/111/104 106/106/105
f 101/130/100 100/107/103 104/139/106 103/131/107
f 102/110/108 104/108/106 117/109/109 119/128/110
f 103/131/107 102/110/108 121/126/111 120/120/112
f 105/140/113 107/111/104 113/112/114 112/113/115
f 106/114/105 105/115/113 118/129/116 117/116/109
f 108/117/102 110/132/117 111/122/118 113/118/114
f 110/141/117 109/119/101 120/120/112 122/121/119
f 112/142/115 111/122/118 116/124/120 115/123/121
f 114/127/122 116/124/120 122/125/119 121/126/111
f 115/134/121 114/127/122 119/128/110 118/129/116
f 109/119/101 101/130/100 103/131/107 120/120/112
f 116/124/120 111/122/118 110/132/117 122/125/119
f 108/133/102 113/112/114 107/111/104 99/105/99
f 115/134/121 118/129/116 105/115/113 112/135/115
f 106/136/105 117/109/109 104/108/106 100/137/103
f 121/126/111 102/110/108 119/128/110 114/127/122
f 99/138/99 100/107/103 101/130/100
f 102/110/108 103/131/107 104/139/106
f 105/140/113 106/106/105 107/111/104
f 108/103/102 109/119/101 110/141/117
f 111/122/118 112/142/115 113/118/114
f 114/127/122 115/123/121 116/124/120
f 117/116/109 118/129/116 119/128/110
f 120/120/112 121/126/111 122/121/119
g default
v 14.708092 192.243515 -71.257342
v 14.708092 192.752082 -70.748783
v 15.216652 192.243515 -70.748783
v -18.614111 192.243515 -70.748783
v -18.105560 192.752082 -70.748783
v -18.105560 192.243515 -71.257342
v 15.216652 192.243515 -66.679818
v 14.708092 192.752082 -66.679818
v 14.708092 192.243515 -66.171259
v -18.105560 192.243515 -66.171259
v -18.105560 192.752082 -66.679818
v -18.614111 192.243515 -66.679818
v 15.216652 0.221475 -70.748783
v 14.708092 -0.287082 -70.748783
v 14.708092 0.221475 -71.257342
v 14.708092 0.221475 -66.171259
v 14.708092 -0.287082 -66.679818
v 15.216652 0.221475 -66.679818
v -18.105560 0.221475 -71.257342
v -18.105560 -0.287082 -70.748783
v -18.614111 0.221475 -70.748783
v -18.614111 0.221475 -66.679818
v -18.105560 -0.287082 -66.679818
v -18.105560 0.221475 -66.171259
vt 0.215488 0.654792
vt 0.214438 0.656706
vt 0.215414 0.656743
vt 0.214139 0.664512
vt 0.278437 0.657201
vt 0.280351 0.658251
vt 0.280388 0.657275
vt 0.288157 0.658550
vt 0.204756 0.654381
vt 0.215115 0.664549
vt 0.278064 0.666958
vt 0.278027 0.667933
vt 0.288194 0.657574
vt 0.303268 0.289242
vt 0.227673 0.285372
vt 0.227635 0.286347
vt 0.219829 0.286048
vt 0.219867 0.285073
vt 0.229661 0.284471
vt 0.292535 0.288831
vt 0.183463 0.292247
vt 0.183467 0.293223
vt 0.120473 0.293497
vt 0.120469 0.292521
vt 0.294524 0.287930
vt 0.302329 0.288229
vt 0.302292 0.289204
vt 0.229586 0.286422
vt 0.294486 0.288906
vt 0.278363 0.659152
vt 0.213537 0.654717
vt 0.205731 0.654418
vt 0.185071 0.661859
vt 0.122077 0.662133
vt 0.229960 0.276665
vt 0.292909 0.279074
vt 0.215078 0.665525
vt 0.289170 0.657611
vt 0.218854 0.286011
vt 0.292610 0.286880
vn 0.015226 0.002607 -0.999881
vn 0.993897 0.002474 -0.110287
vn 0.993897 -0.002474 -0.110287
vn 0.015226 -0.002607 -0.999881
vn 0.014117 0.993890 -0.109471
vn -0.015226 0.002607 -0.999881
vn -0.014117 0.993890 -0.109471
vn 0.014117 0.993890 0.109471
vn 0.993897 0.002474 0.110287
vn -0.993897 0.002474 -0.110285
vn -0.015226 -0.002607 -0.999881
vn -0.993897 -0.002474 -0.110285
vn -0.993897 0.002474 0.110285
vn -0.014117 0.993890 0.109471
vn 0.015226 0.002607 0.999881
vn 0.015226 -0.002607 0.999881
vn 0.993897 -0.002474 0.110287
vn -0.015226 0.002607 0.999881
vn -0.993897 -0.002474 0.110285
vn -0.015226 -0.002607 0.999881
vn 0.014117 -0.993890 -0.109470
vn 0.014117 -0.993890 0.109470
vn -0.014117 -0.993890 -0.109470
vn -0.014117 -0.993890 0.109470
s 1
g Bookshelf_lowpoly PROP_____BOOKSHELF High_Fidelity_Group Bookshelf8
usemtl initialShadingGroup
f 123/143/123 125/173/124 135/158/125 137/170/126
f 124/145/127 123/143/123 128/147/128 127/172/129
f 125/144/124 124/145/127 130/152/130 129/146/131
f 126/149/132 128/147/128 141/162/133 143/171/134
f 127/148/129 126/149/132 134/155/135 133/150/136
f 129/174/131 131/151/137 138/181/138 140/159/139
f 131/179/137 130/152/130 133/153/136 132/154/140
f 132/180/140 134/155/135 144/169/141 146/156/142
f 136/157/143 135/158/125 140/159/139 139/160/144
f 137/170/126 136/161/143 142/182/145 141/162/133
f 139/163/144 138/164/138 146/165/142 145/166/146
f 143/171/134 142/167/145 145/168/146 144/169/141
f 141/162/133 128/147/128 123/143/123 137/170/126
f 144/169/141 134/155/135 126/149/132 143/171/134
f 130/152/130 124/145/127 127/172/129 133/153/136
f 135/158/125 125/173/124 129/174/131 140/159/139
f 138/164/138 131/175/137 132/176/140 146/165/142
f 136/161/143 139/177/144 145/178/146 142/182/145
f 123/143/123 124/145/127 125/173/124
f 126/149/132 127/172/129 128/147/128
f 129/146/131 130/152/130 131/179/137
f 132/180/140 133/150/136 134/155/135
f 135/158/125 136/161/143 137/170/126
f 138/181/138 139/160/144 140/159/139
f 141/162/133 142/182/145 143/171/134
f 144/169/141 145/168/146 146/156/142
